<?xml version="1.0" encoding="UTF-8" standalone="no"?>
<!DOCTYPE svg PUBLIC "-//W3C//DTD SVG 20010904//EN" "http://www.w3.org/TR/2001/REC-SVG-20010904/DTD/svg10.dtd">
<svg version="1.0" xmlns="http://www.w3.org/2000/svg" width="400.000000pt" height="400.000000pt" viewBox="0 0 400.000000 400.000000" preserveAspectRatio="xMidYMid meet">
<metadata>
Created by potrace 1.11, written by Peter Selinger 2001-2013
</metadata>
<g transform="translate(0.000000,400.000000) scale(0.100000,-0.100000)" fill="#000000" stroke="none">
<path d="M0 2000 l0 -2000 905 0 905 0 0 887 c0 744 -2 885 -13 873 -8 -8 -85 -102 -172 -208 -87 -105 -160 -190 -162 -188 -2 2 5 49 17 105 22 110 66 249 105 332 13 29 22 55 20 57 -3 3 -232 -132 -511 -299 -279 -167 -510 -305 -514 -307 -10 -4 7 110 31 208 42 170 131 361 237 509 61 86 207 237 282 292 33 24 60 46 60 49 0 3 -180 50 -400 105 -223 56 -399 104 -397 110 7 20 144 129 246 196 241 158 549 241 780 209 246 -34 421 -147 518 -336 l37 -71 57 86 c127 193 323 333 555 397 81 22 304 30 402 14 159 -25 313 -93 449 -197 65 -49 178 -161 171 -168 -2 -2 -194 -56 -428 -121 -234 -64 -427 -118 -429 -120 -2 -2 26 -31 62 -65 205 -187 320 -511 303 -848 -3 -68 -8 -126 -10 -128 -2 -2 -158 98 -346 222 -188 124 -344 224 -346 222 -2 -2 3 -24 11 -48 15 -41 45 -194 45 -226 0 -8 -54 33 -119 91 -66 58 -122 106 -125 106 -3 0 -6 -391 -6 -870 l0 -870 890 0 890 0 0 2000 0 2000 -2000 0 -2000 0 0 -2000z"/>
</g>
</svg>