<svg xmlns="http://www.w3.org/2000/svg" xmlns:xlink="http://www.w3.org/1999/xlink" viewBox="0 0 561.257 137.062"><defs><style>.a{fill:#005982;stroke:#005982;}.b{fill:red;}.c{stroke:#3c5a84;stroke-width:3px;fill-rule:evenodd;fill:url(#a);}</style><linearGradient id="a" x1="189.418" y1="199.929" x2="189.418" y2="199.155" gradientTransform="matrix(394.905, 0, 0, -75.705, -74439.927, 15189.205)" gradientUnits="userSpaceOnUse"><stop offset="0" stop-color="#c4d6f4"/><stop offset="1" stop-color="#7c9dcc"/></linearGradient></defs><title>adminer</title><path class="a" d="M94.115,40.239C91.927,31.649,75.734,23.2,47.441,23.2,19.17,23.2,2.978,31.638.773,40.222a2.385,2.385,0,0,0-.273,1.1v78.028a2.424,2.424,0,0,0,.873,1.855c3.745,7.98,19.621,15.36,46.068,15.36s42.332-7.384,46.072-15.368a2.418,2.418,0,0,0,.865-1.846V117.57l0-.043,0-.024V92.133l0-.042,0-.024V67.207l0-.042,0-.025V42.281l0-.043,0-.044v-.875A2.409,2.409,0,0,0,94.115,40.239ZM89.5,92.12c-.051,6.689-17.308,14.128-42.06,14.128-24.787,0-42.061-7.461-42.061-14.158,0-.009,0-.016,0-.025V75.771C12.329,81.617,26.605,86.2,47.44,86.2s35.105-4.58,42.06-10.424Zm0-24.926c-.051,6.688-17.309,14.128-42.06,14.128-24.787,0-42.061-7.461-42.061-14.159,0-.008,0-.015,0-.024V50.845C12.329,56.69,26.605,61.272,47.44,61.272S82.545,56.693,89.5,50.849ZM47.44,28.08c24.751,0,42.009,7.44,42.06,14.128v.06C89.449,48.956,72.192,56.4,47.44,56.4c-24.787,0-42.061-7.462-42.061-14.158S22.654,28.08,47.44,28.08Zm0,103.6c-24.787,0-42.061-7.462-42.061-14.157,0-.009,0-.016,0-.024V100.7c6.953,5.847,21.229,10.428,42.064,10.428s35.105-4.58,42.06-10.424v16.854c-.051,6.69-17.309,14.128-42.06,14.128Z"/><path class="b" d="M122.605,47.324,100.393,28.605,122.605,9.919l5.142,5.207L111.4,28.54l16.347,13.578ZM165.943,14.3a13.78,13.78,0,0,1-.84,4.96,10.946,10.946,0,0,1-2.407,3.79,12.167,12.167,0,0,1-3.773,2.587,17.7,17.7,0,0,1-4.943,1.35l-.33,6.2h-6.888L146.169,20.8h4.779a7.593,7.593,0,0,0,2.784-.46,5.189,5.189,0,0,0,1.912-1.253,4.9,4.9,0,0,0,1.087-1.83,6.882,6.882,0,0,0,.346-2.191,6.351,6.351,0,0,0-2.785-5.355,11.052,11.052,0,0,0-3.641-1.632,20.692,20.692,0,0,0-5.306-.593H143.4V0h2.273a29.384,29.384,0,0,1,8.866,1.2,19.871,19.871,0,0,1,6.327,3.2,13.313,13.313,0,0,1,3.807,4.564,11.933,11.933,0,0,1,1.269,5.339ZM155.66,42.052a4.949,4.949,0,0,1-.428,2.043,5.594,5.594,0,0,1-1.154,1.68,5.272,5.272,0,0,1-1.713,1.137,5.416,5.416,0,0,1-2.11.412,5.3,5.3,0,0,1-3.79-1.548,5.565,5.565,0,0,1-1.153-1.681,5.092,5.092,0,0,1,0-4.087,5.563,5.563,0,0,1,1.154-1.68,5.3,5.3,0,0,1,3.79-1.55,5.425,5.425,0,0,1,2.109.413,5.241,5.241,0,0,1,1.713,1.137,5.612,5.612,0,0,1,1.154,1.68,4.953,4.953,0,0,1,.428,2.044Z"/><path class="c" d="M209.4,92.625h-20.37L180.625,111H164.56L199,40.23h19.425L226.72,111H210.865Zm-15.96-11.55h15.33L207.4,65.85c-.315-3.885-.735-9.555-1.05-13.86h-.21c-1.785,4.305-3.78,9.765-5.67,13.86l-7.035,15.225ZM278.9,36.45h15.12L283.63,91.05A137.561,137.561,0,0,0,281.215,111h-13.86l.735-8.3h-.21c-4.515,6.825-10.815,9.45-16.8,9.45-8.715,0-15.96-6.93-15.96-19.425,0-17.85,12.915-34.23,32.34-34.23a21.006,21.006,0,0,1,7.035,1.155Zm-9.24,49.14,2.625-13.86a10.129,10.129,0,0,0-5.985-1.785c-9.03,0-15.435,10.5-15.435,20.37,0,6.2,2.73,9.66,7.14,9.66,4.305,0,9.66-4.62,11.655-14.385ZM307.15,111H292.555l6.4-34.65q1.469-8.322,2.625-16.695h13.02l-.945,8.3h.21c4.62-6.615,10.92-9.45,17.535-9.45,8.19,0,11.76,5.145,12.18,9.66,4.62-6.615,11.025-9.66,17.64-9.66,7.98,0,12.6,5.04,12.6,13.755a54.957,54.957,0,0,1-.945,8.82L367.315,111H352.72l5.145-28.035a33.176,33.176,0,0,0,.735-6.3c0-3.57-1.575-6.09-5.145-6.09-5.04,0-9.975,6.825-11.97,17.115L337.18,111h-14.6l5.25-28.245a31,31,0,0,0,.735-5.88c0-3.465-1.155-6.3-4.83-6.3-5.145,0-10.5,7.245-12.39,17.325l-4.2,23.1Zm87.78,0L404.7,59.655h-15.12L379.81,111Zm4.095-57.75c4.83,0,8.925-3.15,8.925-8.505,0-4.515-3.15-7.455-7.56-7.455a8.6,8.6,0,0,0-8.715,8.61A7,7,0,0,0,399.025,53.25ZM422.755,111l4.305-22.785c2.1-11.34,7.875-17.535,12.81-17.535,3.78,0,5.04,2.52,5.04,6.09a34.736,34.736,0,0,1-.525,5.775L439.03,111h15.12l5.67-29.82a64.261,64.261,0,0,0,.84-8.715c0-8.82-4.725-13.965-13.125-13.965-6.825,0-13.23,2.94-18.06,9.66h-.21l1.05-8.5h-13.44c-.63,4.515-1.47,10.185-2.73,16.695L407.635,111Zm85.89-13.86,1.05,10.92c-5.985,3.045-13.44,3.99-19.11,3.99-14.7,0-22.26-8.3-22.26-21.63,0-15.645,11.34-31.92,29.925-31.92,10.395,0,17.85,5.775,17.85,15.33,0,13.125-12.705,17.85-33.285,17.325a10.13,10.13,0,0,0,1.575,5.25c2,2.625,5.46,3.99,9.87,3.99a32.285,32.285,0,0,0,14.385-3.255Zm-6.72-23.2c0-2.625-2.1-4.41-5.565-4.41-7.035,0-11.025,5.775-12.075,10.6,11.76.105,17.64-1.575,17.64-6.195ZM534.475,111l3.57-19.11c1.89-10.08,6.405-18.69,16.065-18.69a17.8,17.8,0,0,1,2.415.105l2.94-14.7a25.587,25.587,0,0,0-2.835-.1c-7.035,0-12.81,4.83-16.38,11.655h-.315c.315-3.57.63-7.035.945-10.5H527.755c-.525,4.41-1.155,13.02-2.625,20.79L519.355,111Z"/></svg>