<svg width="91" height="91" viewBox="0 0 91 91" fill="none" xmlns="http://www.w3.org/2000/svg">
<rect x="0.469727" y="0.261597" width="90" height="90" fill="#DEEFDE"/>
<g clip-path="url(#clip0)">
<path d="M59.1352 62.2616H31.8043C31.067 62.2616 30.4697 61.669 30.4697 60.9377C30.4697 60.2063 31.067 59.6138 31.8043 59.6138H59.1352C59.8724 59.6138 60.4697 60.2063 60.4697 60.9377C60.4697 61.669 59.8724 62.2616 59.1352 62.2616Z" fill="#40BE46"/>
<path d="M49.2877 46.9832C48.5504 46.9832 47.9531 46.3907 47.9531 45.6593V39.8885C47.9531 39.1572 48.5504 38.5646 49.2877 38.5646C50.0249 38.5646 50.6222 39.1572 50.6222 39.8885V45.6593C50.6222 46.3907 50.0249 46.9832 49.2877 46.9832Z" fill="#40BE46"/>
<path d="M52.1989 44.0952H46.3765C45.6393 44.0952 45.042 43.5026 45.042 42.7713C45.042 42.0399 45.6393 41.4474 46.3765 41.4474H52.1936C52.9308 41.4474 53.5281 42.0399 53.5281 42.7713C53.5281 43.5026 52.9362 44.0952 52.1989 44.0952Z" fill="#40BE46"/>
<path d="M55.6426 41.2125C54.9054 41.2125 54.3081 40.6199 54.3081 39.8885V34.1124C54.3081 33.3811 54.9054 32.7885 55.6426 32.7885C56.3799 32.7885 56.9772 33.3811 56.9772 34.1124V39.8832C56.9772 40.6199 56.3745 41.2125 55.6426 41.2125Z" fill="#40BE46"/>
<path d="M58.5485 38.3244H52.7315C51.9943 38.3244 51.397 37.7319 51.397 37.0005C51.397 36.2691 51.9943 35.6766 52.7315 35.6766H58.5485C59.2858 35.6766 59.8831 36.2691 59.8831 37.0005C59.8831 37.7319 59.2858 38.3244 58.5485 38.3244Z" fill="#40BE46"/>
<path d="M44.9342 54.1046C37.4274 54.1046 31.3198 48.3071 31.3198 41.1804C31.3252 34.0591 37.4328 28.2616 44.9342 28.2616C47.0705 28.2616 49.1907 28.7367 51.0687 29.6389C51.7306 29.9592 52.0104 30.7493 51.6875 31.4059C51.3647 32.0625 50.5683 32.3401 49.9064 32.0198C48.3889 31.2938 46.6723 30.9094 44.9342 30.9094C38.9019 30.9094 33.9889 35.5164 33.9889 41.1858C33.9889 46.8551 38.8965 51.4621 44.9342 51.4621C47.2158 51.4621 49.3844 50.8162 51.2086 49.599C51.8221 49.188 52.6508 49.3481 53.0597 49.9567C53.4741 50.5599 53.3126 51.3874 52.6992 51.7931C50.4391 53.3038 47.7539 54.1046 44.9342 54.1046Z" fill="#40BE46"/>
</g>
<defs>
<clipPath id="clip0">
<rect width="30" height="34" fill="white" transform="translate(30.4697 28.2616)"/>
</clipPath>
</defs>
</svg>
