<?xml version="1.0" encoding="UTF-8" standalone="no"?>
<svg
   xmlns:dc="http://purl.org/dc/elements/1.1/"
   xmlns:cc="http://creativecommons.org/ns#"
   xmlns:rdf="http://www.w3.org/1999/02/22-rdf-syntax-ns#"
   xmlns:svg="http://www.w3.org/2000/svg"
   xmlns="http://www.w3.org/2000/svg"
   viewBox="0 0 310.74533 277.47198"
   height="277.47198"
   width="310.74533"
   xml:space="preserve"
   id="svg2"
   version="1.1"><metadata
     id="metadata8"><rdf:RDF><cc:Work
         rdf:about=""><dc:format>image/svg+xml</dc:format><dc:type
           rdf:resource="http://purl.org/dc/dcmitype/StillImage" /></cc:Work></rdf:RDF></metadata><defs
     id="defs6"><clipPath
       id="clipPath18"
       clipPathUnits="userSpaceOnUse"><path
         id="path16"
         d="M 0,208.104 H 233.059 V 0 H 0 Z" /></clipPath></defs><g
     transform="matrix(1.3333333,0,0,-1.3333333,0,277.472)"
     id="g10"><g
       id="g12"><g
         clip-path="url(#clipPath18)"
         id="g14"><g
           transform="translate(2.0039,107.5264)"
           id="g20"><path
             id="path22"
             style="fill:none;stroke:#727272;stroke-width:4;stroke-linecap:butt;stroke-linejoin:miter;stroke-miterlimit:10;stroke-dasharray:none;stroke-opacity:1"
             d="m 0,0 c 0.533,17.569 52.24,30.257 115.491,28.338 63.249,-1.919 114.094,-17.717 113.56,-35.287 -0.532,-17.57 -52.239,-30.257 -115.49,-28.338 -29.052,0.881 -55.486,4.69 -75.527,10.256 -3.996,1.109 -7.738,2.288 -11.196,3.528 C 9.883,-15.424 -0.239,-7.891 0,0 Z" /></g><g
           transform="translate(176.8008,201.4966)"
           id="g24"><path
             id="path26"
             style="fill:none;stroke:#727272;stroke-width:4;stroke-linecap:butt;stroke-linejoin:miter;stroke-miterlimit:10;stroke-dasharray:none;stroke-opacity:1"
             d="m 0,0 c 14.95,-9.247 0.084,-60.37 -33.204,-114.187 -33.287,-53.818 -72.39,-89.949 -87.339,-80.702 -14.95,9.246 -0.083,60.37 33.204,114.187 12.439,20.112 25.691,37.753 38.191,51.48 3.049,3.349 6.054,6.464 8.991,9.326 C -22.916,-3.098 -8,4.948 0,0 Z" /></g><g
           transform="translate(62.2754,204.9707)"
           id="g28"><path
             id="path30"
             style="fill:none;stroke:#727272;stroke-width:4;stroke-linecap:butt;stroke-linejoin:miter;stroke-miterlimit:10;stroke-dasharray:none;stroke-opacity:1"
             d="m 0,0 c 15.483,8.324 52.323,-30.113 82.288,-85.849 29.963,-55.735 41.702,-107.666 26.22,-115.989 -15.483,-8.323 -52.323,30.113 -82.287,85.849 C -3.743,-60.253 -15.482,-8.323 0,0 Z" /></g><g
           transform="translate(34.1133,92.3633)"
           id="g32"><path
             id="path34"
             style="fill:#494949;fill-opacity:1;fill-rule:nonzero;stroke:none"
             d="m 0,0 c 2.529,-4.704 0.764,-10.565 -3.939,-13.094 -4.706,-2.53 -10.568,-0.767 -13.096,3.936 -2.529,4.705 -0.767,10.567 3.938,13.096 C -8.393,6.467 -2.529,4.704 0,0" /></g><g
           transform="translate(21.2607,85.8984)"
           id="g36"><path
             id="path38"
             style="fill:#727272;fill-opacity:1;fill-rule:nonzero;stroke:none"
             d="m 0,0 c -0.328,0.848 -0.464,1.852 -0.325,2.906 0.104,0.786 0.356,1.495 0.693,2.115 L -2.162,6.94 C -2.949,6.003 -3.54,4.665 -3.744,3.124 -3.94,1.64 -3.734,0.248 -3.258,-0.845 Z" /></g><g
           transform="translate(148.3877,188.8442)"
           id="g40"><path
             id="path42"
             style="fill:#494949;fill-opacity:1;fill-rule:nonzero;stroke:none"
             d="m 0,0 c 2.528,-4.704 0.763,-10.565 -3.94,-13.094 -4.706,-2.53 -10.568,-0.767 -13.095,3.936 -2.53,4.705 -0.768,10.568 3.937,13.097 C -8.395,6.467 -2.529,4.705 0,0" /></g><g
           transform="translate(129.6738,111.9731)"
           id="g44"><path
             id="path46"
             style="fill:#494949;fill-opacity:1;fill-rule:nonzero;stroke:none"
             d="m 0,0 c 3.888,-7.234 1.173,-16.25 -6.06,-20.136 -7.237,-3.891 -16.251,-1.18 -20.138,6.053 -3.891,7.235 -1.18,16.251 6.055,20.141 C -12.91,9.946 -3.89,7.236 0,0" /></g><g
           transform="translate(109.9067,102.0322)"
           id="g48"><path
             id="path50"
             style="fill:#727272;fill-opacity:1;fill-rule:nonzero;stroke:none"
             d="m 0,0 c -0.505,1.303 -0.715,2.847 -0.5,4.469 0.161,1.21 0.548,2.3 1.064,3.252 l -3.889,2.952 C -4.536,9.231 -5.443,7.173 -5.756,4.803 -6.06,2.52 -5.743,0.381 -5.01,-1.298 Z" /></g><g
           transform="translate(115.5645,72.2393)"
           id="g52"><path
             id="path54"
             style="fill:none;stroke:#727272;stroke-width:4;stroke-linecap:round;stroke-linejoin:miter;stroke-miterlimit:10;stroke-dasharray:none;stroke-opacity:1"
             d="m 0,0 c -29.051,0.881 -55.486,4.69 -75.526,10.256 -3.996,1.109 -7.739,2.288 -11.197,3.528" /></g><g
           transform="translate(89.4614,120.7944)"
           id="g56"><path
             id="path58"
             style="fill:none;stroke:#727272;stroke-width:4;stroke-linecap:round;stroke-linejoin:miter;stroke-miterlimit:10;stroke-dasharray:none;stroke-opacity:1"
             d="m 0,0 c 12.439,20.112 25.691,37.753 38.191,51.48 3.05,3.349 6.055,6.464 8.991,9.326" /></g></g></g></g></svg>