<?xml version="1.0" encoding="utf-8"?>
<!-- Generator: Adobe Illustrator 15.1.0, SVG Export Plug-In . SVG Version: 6.00 Build 0)  -->
<!DOCTYPE svg PUBLIC "-//W3C//DTD SVG 1.1//EN" "http://www.w3.org/Graphics/SVG/1.1/DTD/svg11.dtd">
<svg version="1.1" id="Layer_1" xmlns="http://www.w3.org/2000/svg" xmlns:xlink="http://www.w3.org/1999/xlink" x="0px" y="0px"
	 width="159.084px" height="92.206px" viewBox="0 0 159.084 92.206" enable-background="new 0 0 159.084 92.206"
	 xml:space="preserve">
<g>
	<path fill="#494949" d="M91.887,1.583c0,0.874-0.708,1.582-1.583,1.582c-0.873,0-1.582-0.708-1.582-1.582S89.431,0,90.304,0
		C91.179,0,91.887,0.709,91.887,1.583"/>
	<path fill="#494949" d="M90.788,6.831c0,1.441-1.168,2.61-2.61,2.61c-1.441,0-2.61-1.169-2.61-2.61s1.169-2.61,2.61-2.61
		C89.62,4.221,90.788,5.39,90.788,6.831"/>
	<path fill="#494949" d="M23.13,49.958c0,2.088-1.693,3.78-3.781,3.78c-2.088,0-3.781-1.692-3.781-3.78
		c0-2.088,1.693-3.781,3.781-3.781C21.438,46.177,23.13,47.87,23.13,49.958"/>
</g>
<g>
	<path fill="#494949" d="M54.416,24.831c0,1.788-1.45,3.238-3.238,3.238c-1.788,0-3.238-1.45-3.238-3.238s1.45-3.238,3.238-3.238
		C52.965,21.593,54.416,23.043,54.416,24.831"/>
	<path fill="#494949" d="M69.157,36.252c0,2.92-2.367,5.287-5.287,5.287s-5.287-2.367-5.287-5.287s2.367-5.287,5.287-5.287
		S69.157,33.333,69.157,36.252"/>
</g>
<g>
	<path fill="#494949" d="M159.084,36.941c0,3.338-2.706,6.045-6.045,6.045c-3.338,0-6.045-2.707-6.045-6.045
		s2.707-6.045,6.045-6.045C156.378,30.896,159.084,33.603,159.084,36.941"/>
	<path fill="#494949" d="M151.8,75.456c0,4.526-3.67,8.196-8.197,8.196c-4.526,0-8.197-3.67-8.197-8.196s3.671-8.196,8.197-8.196
		C148.13,67.26,151.8,70.93,151.8,75.456"/>
	<path fill="#494949" d="M103.985,85.66c0,3.614-2.931,6.546-6.546,6.546c-3.616,0-6.547-2.932-6.547-6.546
		c0-3.615,2.931-6.548,6.547-6.548C101.054,79.112,103.985,82.045,103.985,85.66"/>
	<path fill="#727272" d="M139.64,74.634c0.083-0.667,0.345-1.367,0.806-2.007c0.343-0.474,0.755-0.848,1.191-1.135l-0.976-2.134
		c-0.841,0.333-1.694,0.999-2.366,1.931c-0.647,0.898-1.001,1.874-1.071,2.753L139.64,74.634z"/>
	<polygon fill="#727272" points="143.836,70.952 143.851,70.956 143.848,70.943 	"/>
	<path fill="#727272" d="M150.459,36.341c0.061-0.487,0.252-0.998,0.588-1.464c0.25-0.347,0.551-0.62,0.87-0.829l-0.712-1.559
		c-0.615,0.243-1.238,0.729-1.729,1.411c-0.473,0.655-0.73,1.368-0.782,2.01L150.459,36.341z"/>
	<polygon fill="#727272" points="153.522,33.653 153.533,33.656 153.531,33.647 	"/>
	<path fill="#727272" d="M61.344,35.909c0.05-0.4,0.207-0.82,0.483-1.203c0.205-0.285,0.453-0.509,0.715-0.681l-0.585-1.281
		c-0.505,0.201-1.017,0.6-1.42,1.159c-0.388,0.539-0.6,1.125-0.643,1.652L61.344,35.909z"/>
	<polygon fill="#727272" points="63.861,33.701 63.87,33.703 63.868,33.696 	"/>
	<path fill="#727272" d="M17.46,49.994c0.04-0.317,0.164-0.65,0.383-0.955c0.163-0.226,0.359-0.404,0.567-0.54l-0.464-1.015
		c-0.4,0.158-0.806,0.475-1.126,0.918c-0.307,0.427-0.475,0.892-0.509,1.31L17.46,49.994z"/>
	<polygon fill="#727272" points="19.456,48.243 19.462,48.245 19.461,48.239 	"/>
	<path fill="#494949" d="M16.639,72.626c0,4.595-3.725,8.318-8.319,8.318c-4.596,0-8.32-3.724-8.32-8.318
		c0-4.596,3.724-8.32,8.32-8.32C12.914,64.306,16.639,68.03,16.639,72.626"/>
	<path fill="#727272" d="M4.267,72.289c0.097-0.776,0.402-1.592,0.937-2.334c0.399-0.554,0.879-0.988,1.387-1.321l-1.135-2.485
		c-0.979,0.389-1.972,1.163-2.754,2.248c-0.754,1.045-1.164,2.183-1.248,3.205L4.267,72.289z"/>
	<path fill="#727272" d="M9.15,68.005c0.006,0.001,0.011,0.004,0.017,0.005c0-0.005-0.003-0.009-0.003-0.015L9.15,68.005z"/>
	<path fill="#727272" d="M93.398,82.397c-0.396,0.551-0.659,1.135-0.803,1.697c0.548,0.157,1.001,0.524,1.273,1.011l0.687,0.168
		c0.071-0.573,0.297-1.176,0.693-1.726c0.295-0.408,0.649-0.729,1.025-0.976l-0.839-1.836C94.71,81.023,93.976,81.595,93.398,82.397
		"/>
</g>
<g>
	<path fill="#727272" d="M89.43,4.555l0.85-2.1c0.029-0.067,0.036-0.104,0.028-0.128c0.001-0.012,0.014-0.019,0.014-0.032
		c0-0.186-0.151-0.337-0.338-0.337c-0.092,0-0.174,0.038-0.235,0.097c-0.015-0.009-0.029,0.007-0.073,0.105l-1.042,2.107
		C88.92,4.318,89.185,4.42,89.43,4.555"/>
	<path fill="#727272" d="M60.273,32.397l-8.024-7.177c-0.006-0.006-0.012-0.011-0.018-0.017l-0.057-0.05
		c-0.023-0.021-0.052-0.027-0.078-0.041c-0.018-0.009-0.033-0.02-0.053-0.027c-0.034-0.012-0.067-0.018-0.103-0.021
		c-0.035-0.006-0.067-0.021-0.104-0.021c-0.318,0-0.576,0.258-0.576,0.577c0,0.176,0.084,0.329,0.209,0.435
		c0.006,0.005,0.007,0.013,0.012,0.019l7.852,7.504C59.592,33.141,59.903,32.743,60.273,32.397"/>
	<path fill="#727272" d="M153.039,40.05c-0.442,0-0.806,0.292-0.938,0.69c-0.007,0.012-0.019,0.021-0.022,0.034l-8.629,26.493
		c0.052-0.001,0.102-0.008,0.153-0.008c0.657,0,1.292,0.085,1.904,0.23l8.458-26.055c0-0.002-0.001-0.004,0-0.006
		c0.048-0.117,0.076-0.244,0.076-0.378C154.041,40.499,153.593,40.05,153.039,40.05"/>
	<path fill="#727272" d="M92.12,85.234L16.614,73.13c-0.049,0.81-0.212,1.584-0.475,2.314l75.679,11.602
		c0,0,0.087,0.009,0.133,0.009c0.512,0,0.928-0.415,0.928-0.927C92.879,85.674,92.549,85.315,92.12,85.234"/>
	<path fill="#727272" d="M73.287,75.497c-0.002,0.008-0.005,0.016-0.007,0.021L91.228,83.6c0.189-0.57,0.45-1.106,0.78-1.595
		l-18.205-8.059C73.618,74.479,73.445,75.011,73.287,75.497"/>
	<path fill="#727272" d="M74.621,74.309l-29.599-13.1c-0.15,0.464-0.298,0.924-0.449,1.389L73.28,75.519
		C73.473,75.045,74.426,74.786,74.621,74.309"/>
	<path fill="#727272" d="M59.895,37.553c-0.063,0-0.12,0.023-0.18,0.037c-0.013,0.001-0.027-0.012-0.04-0.008L52.2,39.637
		c-0.221,0.62-0.433,1.248-0.652,1.872l8.626-2.278c0.006-0.002,0.009-0.011,0.014-0.012c0.331-0.121,0.569-0.431,0.569-0.804
		C60.756,37.939,60.372,37.553,59.895,37.553"/>
	<path fill="#727272" d="M21.467,49.429c0.053,0,0.099-0.02,0.148-0.03c0.007,0.003,0.014,0.009,0.019,0.008l29.914-7.897
		c0.18-0.521,0.469-1.351,0.652-1.872l-30.856,8.485c-0.01,0.003-0.018,0.014-0.027,0.019c-0.289,0.069-0.509,0.318-0.509,0.628
		C20.808,49.133,21.103,49.429,21.467,49.429"/>
	<path fill="#727272" d="M127.161,23.534c-0.394,0.356-0.788,0.71-1.183,1.062l21.568,9.831c0.244-0.533,0.562-1.022,0.943-1.458
		L127.161,23.534z"/>
	<path fill="#727272" d="M126.588,24.874c0.018-0.329,1.93-0.35,1.964-0.725L89.575,6.908c-0.243-0.13-0.546-0.038-0.677,0.205
		c-0.13,0.243-0.038,0.546,0.205,0.677L126.588,24.874c0.005-0.08-18.968-8.805-18.964-8.887"/>
	<path fill="#727272" d="M21.058,52.009c0.002,0.001,0.003,0.004,0.006,0.005l23.51,10.584c0.139-0.417,1.23-0.562,1.372-0.98
		L21.614,50.849c-0.005-0.002-0.011-0.001-0.016-0.003c-0.094-0.054-0.197-0.091-0.312-0.091c-0.359,0-0.65,0.291-0.65,0.649
		C20.636,51.683,20.812,51.915,21.058,52.009"/>
	<path fill="#727272" d="M77.383,11.251L53.621,22.729c0.251,0.291,0.451,0.623,0.586,0.99l23.955-11.689L77.383,11.251z"/>
	<path fill="#727272" d="M87.001,7.16c-0.12-0.248-0.418-0.352-0.668-0.231l-8.95,4.322l0.778,0.778l8.609-4.201
		C87.019,7.708,87.123,7.409,87.001,7.16"/>
</g>
</svg>
