<?xml version="1.0" encoding="UTF-8" standalone="no"?>
<!-- Generator: Adobe Illustrator 19.1.0, SVG Export Plug-In . SVG Version: 6.00 Build 0)  -->

<svg
   xmlns:dc="http://purl.org/dc/elements/1.1/"
   xmlns:cc="http://creativecommons.org/ns#"
   xmlns:rdf="http://www.w3.org/1999/02/22-rdf-syntax-ns#"
   xmlns:svg="http://www.w3.org/2000/svg"
   xmlns="http://www.w3.org/2000/svg"
   xmlns:sodipodi="http://sodipodi.sourceforge.net/DTD/sodipodi-0.dtd"
   xmlns:inkscape="http://www.inkscape.org/namespaces/inkscape"
   version="1.1"
   id="Moon_x27_s_Surface"
   x="0px"
   y="0px"
   viewBox="0 0 301.60248 302.64838"
   xml:space="preserve"
   inkscape:version="0.91 r13725"
   sodipodi:docname="asteroid-footer.svg"
   width="301.60248"
   height="302.64838"><metadata
     id="metadata361"><rdf:RDF><cc:Work
         rdf:about=""><dc:format>image/svg+xml</dc:format><dc:type
           rdf:resource="http://purl.org/dc/dcmitype/StillImage" /><dc:title></dc:title></cc:Work></rdf:RDF></metadata><defs
     id="defs359" /><sodipodi:namedview
     pagecolor="#ffffff"
     bordercolor="#666666"
     borderopacity="1"
     objecttolerance="10"
     gridtolerance="10"
     guidetolerance="10"
     inkscape:pageopacity="0"
     inkscape:pageshadow="2"
     inkscape:window-width="640"
     inkscape:window-height="480"
     id="namedview357"
     showgrid="false"
     fit-margin-top="0"
     fit-margin-left="0"
     fit-margin-right="0"
     fit-margin-bottom="0"
     inkscape:zoom="0.28994709"
     inkscape:cx="-104.4"
     inkscape:cy="122.62476"
     inkscape:window-x="0"
     inkscape:window-y="0"
     inkscape:window-maximized="0"
     inkscape:current-layer="Moon_x27_s_Surface" /><style
     type="text/css"
     id="style3">
	.st0{fill:#D4D4D4;}
	.st1{opacity:0.15;}
	.st2{fill-rule:evenodd;clip-rule:evenodd;fill:#D4D4D4;}
	.st3{fill-rule:evenodd;clip-rule:evenodd;fill:#CDCDCD;}
	.st4{fill-rule:evenodd;clip-rule:evenodd;fill:#E5E5E5;}
	.st5{fill-rule:evenodd;clip-rule:evenodd;fill:#BDBDBD;}
	.st6{fill-rule:evenodd;clip-rule:evenodd;fill:#DEDEDE;}
	.st7{fill-rule:evenodd;clip-rule:evenodd;fill:#D0D0D0;}
	.st8{fill-rule:evenodd;clip-rule:evenodd;fill:#C4C4C4;}
	.st9{fill-rule:evenodd;clip-rule:evenodd;fill:#D9D9D9;}
	.st10{fill-rule:evenodd;clip-rule:evenodd;fill:#CBCBCB;}
	.st11{fill-rule:evenodd;clip-rule:evenodd;fill:#BBBBBB;}
	.st12{fill-rule:evenodd;clip-rule:evenodd;fill:#B4B4B4;}
	.st13{fill-rule:evenodd;clip-rule:evenodd;fill:#E2E2E2;}
	.st14{fill-rule:evenodd;clip-rule:evenodd;fill:#E9E9E9;}
	.st15{fill-rule:evenodd;clip-rule:evenodd;fill:#AFAFAF;}
	.st16{fill-rule:evenodd;clip-rule:evenodd;fill:#BFBFBF;}
	.st17{fill-rule:evenodd;clip-rule:evenodd;fill:#9C9C9C;}
	.st18{fill-rule:evenodd;clip-rule:evenodd;fill:#9F9F9F;}
	.st19{fill-rule:evenodd;clip-rule:evenodd;fill:#474747;}
	.st20{fill-rule:evenodd;clip-rule:evenodd;fill:#898989;}
	.st21{fill-rule:evenodd;clip-rule:evenodd;fill:#7EBF61;}
	.st22{fill:#777777;}
	.st23{fill-rule:evenodd;clip-rule:evenodd;fill:#7A7A7A;}
	.st24{fill-rule:evenodd;clip-rule:evenodd;fill:#65994E;}
	.st25{opacity:0.4;}
	.st26{fill-rule:evenodd;clip-rule:evenodd;fill:#686868;}
	.st27{fill:#E5E5E5;}
	.st28{fill:#CDCDCD;}
	.st29{fill:#BDBDBD;}
	.st30{fill:#DEDEDE;}
	.st31{fill:#C4C4C4;}
	.st32{fill:#D9D9D9;}
	.st33{fill:#CBCBCB;}
	.st34{fill:#AFAFAF;}
	.st35{fill:#BFBFBF;}
	.st36{fill:#D0D0D0;}
	.st37{fill:#9C9C9C;}
	.st38{fill:#BBBBBB;}
	.st39{fill:#FFFFFF;}
	.st40{fill:#D2D2D2;}
	.st41{fill:#C3C3C3;}
	.st42{fill:#DDDDDD;}
	.st43{fill:#B7B7B7;}
	.st44{fill:#CCCCCC;}
	.st45{fill:#E3E3E3;}
	.st46{fill:#C9C9C9;}
	.st47{fill:#D8D8D8;}
	.st48{fill:#E2E2E2;}
	.st49{fill:#BABABA;}
	.st50{fill:#9B9B9B;}
	.st51{fill:#CFCFCF;}
	.st52{fill:#CECECE;}
	.st53{fill:#ACACAC;}
	.st54{fill:#8E8E8E;}
	.st55{fill:#ABABAB;}
	.st56{fill:#B2B2B2;}
	.st57{fill:#D1D1D1;}
	.st58{fill:#C7C7C7;}
	.st59{fill:#D3D3D3;}
	.st60{fill:#ADADAD;}
	.st61{fill:#9D9D9D;}
	.st62{opacity:0.6;}
	.st63{fill:none;}
	.st64{opacity:0.2;}
	.st65{fill:#E1001A;}
</style><g
     class="st62"
     id="g307"
     style="opacity:0.6"
     transform="translate(-576.9,-0.47639525)"><path
       d="M 787,162.2 C 727.3,319 637.8,313 576.9,279.7 c 156.7,90.4 244,-110 244,-110 L 787,162.2 Z"
       id="path309"
       inkscape:connector-curvature="0" /></g><path
     class="st63"
     d="m 268.8,166.1236 c 0.2,-0.3 0.5,-0.5 0.7,-0.8 -0.1,0.1 -0.2,0.2 -0.3,0.2 -0.2,0.2 -0.3,0.4 -0.4,0.6 z"
     id="path311"
     inkscape:connector-curvature="0"
     style="fill:none" /><path
     class="st63"
     d="m 275.8,160.5236 c -1.1,0.6 -2.1,1.2 -2.9,1.8 -0.4,0.3 -0.7,0.6 -1.1,0.9 1.1,-0.8 2.4,-1.7 4.1,-2.6 0,0 1.1,1.6 3,2.7 0,-0.1 0.1,-0.1 0.1,-0.2 -1.7,-0.8 -2.8,-2.1 -3.2,-2.6 z"
     id="path313"
     inkscape:connector-curvature="0"
     style="fill:none" /><path
     d="m 287.9,178.4236 c -0.1,0.1 -0.1,0.1 -0.2,0.2 0,0 0,0 0.2,-0.2 z"
     id="path315"
     inkscape:connector-curvature="0" /><path
     class="st64"
     d="m 287.9,178.4236 c -0.1,0.1 -0.1,0.1 -0.2,0.2 0,0 0,0 0.2,-0.2 z"
     id="path317"
     inkscape:connector-curvature="0"
     style="opacity:0.2" /><path
     class="st39"
     d="m 216.6,167.1236 c 0,0 -22.2,15.5 -29.1,27.3 l 0.7,5.9 -4.8,11.6 -8.2,4.2 -7.5,-3.9 -3.8,-4.9 0.1,-11.8 2.8,-4.5 4.8,-3 5.3,-3.4 8.8,-9.3 11.4,-13.3 10,-8.9 10.2,-8.2 -1.3,-4.5 -5.8,1.7 -2.5,-0.4 -4.6,-9.2 0.3,-5.9 1.9,-3.5 2.6,-4.1 4.5,-5.4 4.6,-2.5 3,-0.6 2.5,1.7 2.4,-9.2 13.8,-50.199995 23.1,-33 28.5,-19.00000025 1.8,2.19999995 c 0,0 19.8,13.2000003 -6.8,76.7000003 l -26.6,52.499995 -8.6,10.2 2,3 3.5,1.9 c 0,0 20,20.3 20.9,29.2 l 2.9,7.4 c 0,0 3.5,13.4 -7,20.9 0,0 -7.9,6.6 -18.4,-2.5 0,0 -2.7,-4.6 -0.9,-9.7 0,0 -5.7,-20.4 -21.4,-25.6 0,0 -5.4,8 -15.1,0.1 z"
     id="path319"
     inkscape:connector-curvature="0"
     style="fill:#ffffff" /><g
     id="g321"
     transform="translate(-576.9,-0.47639525)"><path
       d="m 829.4,199.3 c 0,0 14.6,21 27,-5.8 0,0 -1,9.4 -10.7,15 -0.1,0 -10.9,4.2 -16.3,-9.2 z"
       id="path323"
       inkscape:connector-curvature="0" /></g><g
     id="g325"
     transform="translate(-576.9,-0.47639525)"><path
       class="st65"
       d="m 791.2,163.9 2.4,-11.5 c 0,0 -26.7,19.6 -34.6,35.5 0,0 -10.4,3.8 -12.3,7.8 0,0 -4.3,12.6 6.2,15.6 0,0 9.2,1.1 9.6,-15.4 l 0.6,-2.8 c 0,0 19.8,-25.8 28.1,-29.2 z"
       id="path327"
       inkscape:connector-curvature="0"
       style="fill:#e1001a" /></g><g
     id="g329"
     transform="translate(-576.9,-0.47639525)"><path
       class="st65"
       d="m 791.4,134.7 2.9,-12.9 c 0,0 1,-9.1 -7.1,-1 0,0 -6.1,9.8 -2.7,15.8 0,0 1.6,2.9 3,2.5 l 3.3,-1.5 0.6,-2.9 z"
       id="path331"
       inkscape:connector-curvature="0"
       style="fill:#e1001a" /></g><g
     id="g333"
     transform="translate(-576.9,-0.47639525)"><path
       class="st65"
       d="m 812.8,164.5 12.4,-15.6 c 0,0 23.6,17.5 28.7,40.2 0,0 -1.9,11.1 -8.2,15 0,0 -9.8,1.2 -12.1,-6.3 0,0 -1.9,-5.4 2.7,-8.3 0,0.1 -4.1,-26.5 -23.5,-25 z"
       id="path335"
       inkscape:connector-curvature="0"
       style="fill:#e1001a" /></g><path
     class="st65"
     d="m 299.6,20.323605 -7,-17.6000003 C 239.8,49.823605 224.6,137.4236 224.6,137.4236 c 1.1,0.9 2.3,1.5 3.6,2 l -2.1,3.8 -4.4,20.8 c 3.6,4.8 8.2,2.9 8.2,2.9 1.1,-0.6 34.1,-43 34.1,-43 -0.4,0 -0.7,0 -1.1,0 42.7,-73.899995 36.7,-103.599995 36.7,-103.599995 z"
     id="path337"
     inkscape:connector-curvature="0"
     style="fill:#e1001a" /><path
     class="st65"
     d="m 290.5,67.723605 c 18.9,-52.6 1.9,-64.0000003 1.9,-64.0000003 l -1.8,-2.2 -28.5,19.0000003 -18.2,26.2 c 2.3,-0.8 7.5,-1.8 14.8,-0.1 8.2,1.9 19.1,7.4 31.8,21.1 z"
     id="path339"
     inkscape:connector-curvature="0"
     style="fill:#e1001a" /><path
     class="st39"
     d="m 291,69.023605 c 12.1,-32.8 9.2,-46.8 9.2,-46.8 l -7,-17.6000003 C 279.3,17.023605 268.1,32.123605 259,47.823605 c 8.3,1.9 19.3,7.4 32,21.2 z"
     id="path341"
     inkscape:connector-curvature="0"
     style="fill:#ffffff" /><path
     d="m 285,5.2236047 c 0,0 0.8,7.3000003 9.8,4 0,0 -1,-12.3 -9.8,-4 z"
     id="path343"
     inkscape:connector-curvature="0" /><path
     class="st39"
     d="m 255.3,63.723605 c -2.6,1.2 -5,1.5 -7.1,0.9 -1.9,-0.6 -3.4,-1.9 -4.2,-3.9 -1.5,-3.7 -0.7,-9.1 2.1,-14.4 2.7,-5.1 6.9,-9.4 11.2,-11.4 2.6,-1.2 5,-1.5 7.1,-0.9 5.7,1.7 6.6,9.8 2.1,18.3 -2.7,5.2 -6.9,9.4 -11.2,11.4 l 0,0 z"
     id="path345"
     inkscape:connector-curvature="0"
     style="fill:#ffffff" /><path
     d="m 256.1,58.523605 c -1.5,0.5 -2.9,0.4 -4.1,-0.2 -1.1,-0.6 -1.9,-1.6 -2.3,-3 -0.8,-2.6 -0.2,-6.1 1.6,-9.3 1.7,-3.1 4.2,-5.4 6.7,-6.3 1.5,-0.5 2.9,-0.4 4.1,0.2 3.2,1.8 3.5,7.2 0.7,12.4 -1.7,3 -4.2,5.3 -6.7,6.2 l 0,0 z"
     id="path347"
     inkscape:connector-curvature="0" /><path
     d="m 289.4,0.62360475 0,0 c -0.4,0.2 -55.6,12.60000025 -66,108.79999525 -1.3,-0.8 -3.5,-1.5 -6.4,-0.4 -2,0.8 -4.1,2.3 -6.3,4.5 l -0.5,0.5 c -2.2,2.3 -3.9,4.7 -5.2,7 l 0.5,0.3 c 0,0 0,0 0,0 l -0.7,-0.1 c 0,0 -0.2,0.3 -0.5,0.9 -2.7,5.4 -2.3,9.7 -1.5,12.2 0.7,3 2.2,5.7 4.5,8.1 l 0.2,0.1 c 0.1,0.1 3.3,1.5 7.7,0.1 0.1,1.4 0,2.7 -0.2,3 -10.6,6.4 -22,19.5 -29.7,29.3 l -0.2,0.1 c -0.1,0.1 -5.3,6.3 -8.5,9.1 -1,0.2 -2.1,0.5 -3.1,0.9 -3.5,1.3 -8.1,4.2 -10.2,10.5 -0.6,1.8 -1,3.8 -1.1,5.9 0,0.1 -2,13 10.7,15.2 0.7,0.1 1.4,0.2 2.1,0.2 0.1,0 2.2,0.1 4.8,-0.9 4,-1.5 10.5,-6.1 8.7,-20.4 1.3,-2.5 6.6,-9.4 27.9,-27.5 3.6,4.6 7.4,4.4 10.1,3.5 2.5,-0.9 4.5,-2.8 5.2,-3.6 17,10.1 19.7,23.7 20,24.9 -0.8,4.5 -0.1,8.2 2.1,11.1 3.7,4.9 10.4,5.5 10.6,5.5 l 0,-0.1 0,0.1 c 1.4,0.1 2.7,-0.1 4.1,-0.6 0,0 0,0 0,0 5.2,-1.9 8.4,-7.4 8.6,-7.7 13.9,-21.2 -14.4,-52.5 -24,-59.6 0,-1.4 4.3,-5.9 6.2,-9.1 2.7,-4.1 9.7,-14.5 12.2,-18.7 3.8,-6.3 4,-6.6 6.8,-12.4 11,-21.599995 13.9,-31.799995 13.9,-31.899995 16.1,-47 6.9,-55.6 0.8,-68.4000003 l 0,-0.0999999 0.1,-0.1 c -0.5,-0.9 -1.2,-1 -2.3,-0.6 m -69,147.09999525 -1.3,-0.3 c 0,0.1 -3.3,13.9 -4.7,17.8 -4.5,3.9 -25.4,22.2 -28.9,29.4 l -0.1,0.3 0.5,0.8 0,0.1 0,0 0,0.1 0,0 c -0.4,1 -0.3,1.5 -0.1,1.8 -0.3,4.4 -1.8,14 -8.4,16.5 -1.3,0.5 -2.7,0.7 -4.2,0.5 -0.1,0 -5.4,-1.1 -8.1,-5.9 -2,-3.5 -2.1,-8.1 -0.3,-13.6 0,-0.1 2.9,-5.5 13,-9.7 l 0.2,-0.1 0.1,-0.1 c 0.4,-0.5 0.7,-1 1.1,-1.4 l 0.4,-0.6 c 1.9,-2.2 4.9,-5.6 6.4,-7.3 5.8,-6.3 11.6,-12.9 11.6,-12.9 13.1,-12.9 22.6,-18.7 22.7,-18.8 l 1.6,-1 -1.8,-0.2 c 0,0 -3,-0.4 -3.3,-2.5 l 0.2,-1.2 0,0 c 0,0 0,0 0,0 1.5,-8.3 5.3,-35.5 14.4,-61.899995 1.5,-4.4 4.8,-13.7 6.2,-16.8 6,-13.3 10,-20.2 17.6,-31.4 8.3,-11.6 22.7,-19.7000003 30.2,-23.2000003 l 1.7,-0.9 c 1.8,-0.9 2.3,-0.1 2.8,-0.4 0.1,0.1 -0.6,-1.6 -0.5,-0.7 1.1,4 9.7,12.3000003 6,35.1000003 -6.1,34.7 -21.5,62.699995 -40.8,94.199995 -8.3,12.9 -16.4,18.9 -21.3,25.8 -4,5.2 -7.1,8.8 -8.6,10.5 -1.6,0.6 -3.2,0.6 -4.6,0.2 -1.4,-1.3 -3.1,-3 -3.6,-4.2 l 3.9,-18 z m -2.6,-34.8 c 1.2,1 1.9,3.2 2,6.2 -0.3,1.2 -0.5,2.4 -0.8,3.6 -0.5,2 -0.9,4.1 -1.3,6.1 -1.4,5.4 -2.7,10.4 -3,11.3 -0.2,0.2 -1,0.6 -2,1 -2.1,0.8 -4.7,1.2 -5.7,0 0,0 -1,-1 -1.9,-2.7 -3.7,-7 -1.7,-13.1 0.7,-16.9 2.3,-3.3 5.9,-7.5 10.1,-9.3 -0.1,0 0.9,-0.1 1.9,0.7 z m 35.7,89.6 c -2.6,-4.3 -1.2,-9.2 -1.2,-9.3 l 0,-0.3 c -3,-15.5 -19.4,-26 -20.1,-26.5 l -0.3,-0.2 c 1.7,-2.2 7.5,-10 14.3,-19.7 10.3,0.5 26.8,27.8 26.9,28 7.7,16.5 2.9,22.7 2.8,22.7 l -0.1,0.2 c -2.8,6.7 -6.8,9.3 -9.7,10.4 -1.5,0.6 -2.6,0.6 -2.9,0.6 -4.6,-0.9 -7.9,-2.9 -9.7,-5.9 z"
     id="path349"
     inkscape:connector-curvature="0" /><path
     class="st64"
     d="m 213.3,180.9236 c -0.9,2.6 -0.7,3.1 -0.5,4.1 0.2,0.8 0.5,1.9 0.5,4.8 0,3.4 -0.8,7.5 -2.4,12.3 -0.2,0.6 -0.2,0.6 -0.1,0.8 l 0.1,0.1 0.1,0 c -0.1,0.3 -0.1,0.3 0,0.2 0,-0.1 0,-0.1 0.1,-0.2 l 0,0 c 0.1,0 0.2,-0.2 0.2,-0.3 0.1,-0.2 0.2,-0.5 0.3,-0.7 0.2,-0.6 0.5,-1.5 1.2,-2.6 0.7,-0.9 1.6,-2 3.1,-3.2 0.7,-0.5 1.2,-1.2 1.8,-1.9 1.4,-1.8 2.3,-4.1 3.1,-5.8 0.4,-0.9 0.7,-1.8 1.1,-2.4 0.4,-0.4 0.7,-0.4 1.1,0.1 0.1,0.1 0.1,0.2 0.2,0.4 0.7,1.8 -0.1,4.5 -0.5,5.9 -0.2,0.5 -0.2,0.8 -0.2,1 -0.6,1.5 -0.8,3.2 -0.8,4.3 -0.2,1 0,1.5 0,1.6 l 0.2,0 c 0,0.3 0.1,0.5 0.1,0.5 0,0 0,-0.2 0,-0.5 l 0.4,-0.1 c 0,0 0,-0.5 0,-1.3 0.2,-0.7 0.6,-1.9 1.8,-3.5 0.4,-0.5 0.8,-1 1.2,-1.6 0.5,-0.5 0.8,-1.1 1.2,-1.6 1.2,-1.7 1.9,-3.4 2.3,-4.8 l 0.1,0.1 c 0,0 0.1,-0.1 0.2,-0.1 -0.1,0.1 -0.1,0.2 -0.2,0.3 1,-0.8 1.8,-1.6 2.4,-2.5 2,-2.6 2.3,-5.2 2.3,-5.3 0.8,-3.4 -1.3,-8.8 -2,-10.5 0.2,-0.2 0.3,-0.3 0.4,-0.4 17,10.1 19.7,23.7 20,24.9 -0.8,4.5 -0.1,8.2 2.1,11.1 3.7,4.9 10.4,5.5 10.6,5.5 l 0,-0.1 0,0.1 c 1.4,0.1 2.7,-0.1 4.1,-0.6 0,0 0,0 0,0 5.2,-1.9 8.4,-7.4 8.6,-7.7 13.9,-21.2 -14.4,-52.5 -24,-59.6 0,-1.4 4.3,-5.9 6.2,-9.1 2.7,-4.1 9.7,-14.5 12.2,-18.7 3.8,-6.3 4,-6.6 6.8,-12.4 11,-21.599995 13.9,-31.799995 13.9,-31.899995 16.1,-47 6.9,-55.6 0.8,-68.4000003 l 0,-0.1 -0.3,-0.29999995 c -0.5,-0.9 -1.2,-1 -2.3,-0.6 l -1.4,0.4 0,0 c 0,0 -0.2,0.1 -0.5,0.2 2.8,17.30000025 6.3,81.30000025 -69.1,170.59999525 1.5,0.8 3.6,1.3 5.9,0.5 0,0 0,0 0,0 0.5,-0.2 1,-0.4 1.5,-0.7 0.4,-0.2 0.8,-0.3 1.1,-0.5 -3.6,2.6 -6.6,2 -8.7,0.9 -1.9,2.3 -3.9,4.6 -6,7 0.1,0.5 0,1.3 -0.3,2.3 z"
     id="path351"
     inkscape:connector-curvature="0"
     style="opacity:0.2" /><path
     class="st39"
     d="m 230.8,168.0236 c 0,0 3.2,5.8 2.1,10.8 0,0 -0.2,3.8 -3.9,6.8 0,0 0.7,0.6 -0.5,-2.9 0,0 0.8,4.5 -3.5,9.6 -4.3,5.1 -3.3,6.4 -3.3,6.4 0,0 -0.2,-2.2 0.9,-4.8 -0.1,-0.4 2.2,-6.2 0.3,-8.5 -1.9,-2.3 -2.6,6.5 -7.1,10.1 -4.4,3.6 -4.4,5.9 -4.9,6.9 -0.5,1 2.5,-5.6 2.6,-12.1 0.1,-6.5 -1.5,-4.2 0,-8.8 1.5,-4.6 -0.3,-7.9 -3.5,-1.6 0,0 -1,1.8 -3,1.7 0,0 0.3,0.2 0.7,-2.4 0.4,-2.5 0,-6.2 8.9,-11.1 0,0.1 5.8,7.9 14.2,-0.1 z"
     id="path353"
     inkscape:connector-curvature="0"
     style="fill:#ffffff" /><path
     d="m 210.9,203.0236 -0.1,-0.1 c -0.1,-0.1 -0.1,-0.2 0.1,-0.8 1.6,-4.8 2.4,-8.9 2.4,-12.3 0,-2.9 -0.3,-4 -0.5,-4.8 -0.3,-1 -0.4,-1.5 0.5,-4.1 0.7,-2.1 0.5,-3.5 0.1,-3.9 -0.1,-0.1 -0.2,-0.2 -0.5,-0.1 -0.3,0.1 -1.2,0.6 -2.4,3 0,0.1 -0.8,1.5 -2.2,1.9 -0.4,0.1 -0.8,0.2 -1.1,0.2 l -0.6,0 0.4,-0.5 0,0 c 0,0 0.3,-0.4 0.6,-2.7 0,-0.2 0.1,-0.4 0.1,-0.6 0.3,-2.5 0.7,-5.5 9,-10.1 l 0.3,-0.1 0.2,0.2 c 0.1,0.2 3.4,4.4 8.5,3.1 0,0 0,0 0,0 1.7,-0.6 3.4,-1.6 5.1,-3.4 l 0.3,-0.3 0.2,0.4 c 0.1,0.3 3.2,7 2.2,11 0,0.2 -0.6,4.6 -4.5,7.5 -0.1,0.1 -0.2,0.1 -0.2,0.2 l -0.1,-0.1 c -0.4,1.7 -1.4,3.8 -3.2,6 -2.3,2.7 -3,4.4 -3.3,5.4 0,0.8 0,1.3 0,1.3 l -0.6,0.2 c 0,-0.1 -0.2,-0.5 0,-1.6 0.1,-1.1 0.3,-2.8 0.8,-4.3 0,-0.2 0.1,-0.4 0.2,-1 0.5,-1.6 1.5,-5.1 0.1,-6.7 -0.2,-0.2 -0.3,-0.3 -0.4,-0.2 -0.4,0.1 -1,1.6 -1.6,2.9 -1,2.3 -2.3,5.6 -4.6,7.4 -3.5,2.8 -4.1,4.9 -4.5,6.1 -0.1,0.3 -0.2,0.5 -0.3,0.7 0,0.1 -0.1,0.2 -0.2,0.3 l -0.2,-0.1 z m 11.2,-18.1 c 0.4,-0.1 0.8,0 1.1,0.4 1.6,1.9 0.5,5.5 0,7.3 -0.1,0.3 -0.2,0.7 -0.2,0.8 l 0,0.1 -0.1,0 c -0.2,0.6 -0.4,1.3 -0.5,1.9 0.5,-0.9 1.3,-2.1 2.5,-3.5 4.1,-4.9 3.4,-9.6 3.3,-9.6 l 0.6,-0.2 c 0.5,1.3 0.6,2.3 0.5,2.9 2.9,-2.8 3.4,-6.3 3.4,-6.4 0.8,-3.3 -1.3,-8.7 -2,-10.2 -1.7,1.7 -3.4,2.8 -5,3.4 0,0 0,0 0,0 -4.9,1.7 -8.3,-2.2 -9.1,-3.2 -7.7,4.4 -8.1,7.2 -8.4,9.5 0,0.2 -0.1,0.4 -0.1,0.6 -0.2,1.3 -0.4,2.1 -0.5,2.5 0.1,0 0.3,-0.1 0.4,-0.1 1.2,-0.4 1.8,-1.6 1.9,-1.6 0.9,-1.9 1.8,-3 2.7,-3.3 0.5,-0.2 0.9,-0.1 1.2,0.2 0.7,0.7 0.8,2.5 0.1,4.6 -0.8,2.4 -0.7,2.8 -0.5,3.8 0.2,0.8 0.5,2 0.5,4.9 0,2.5 -0.5,5.4 -1.3,8.7 0.7,-0.9 1.7,-2 3.1,-3.2 2.2,-1.8 3.5,-4.9 4.4,-7.2 0.7,-1.7 1.2,-2.9 2,-3.1 z"
     id="path355"
     inkscape:connector-curvature="0" /></svg>