<svg fill="#404040" version="1.0" xmlns="http://www.w3.org/2000/svg" viewBox="0 0 512.000000 512.000000">
<g transform="translate(0.000000,512.000000) scale(0.100000,-0.100000)" stroke="none">
<path d="M552 5094 c-56 -28 -107 -93 -117 -148 -9 -47 0 -2766 9 -2806 4 -19
14 -66 22 -105 37 -177 160 -465 274 -640 301 -461 918 -964 1601 -1306 218
-109 218 -109 437 0 322 160 696 400 942 605 183 152 418 383 525 516 200 248
353 562 418 859 20 94 21 118 24 1471 2 756 1 1389 -2 1406 -9 48 -60 117
-107 144 l-43 25 -1966 2 -1965 3 -52 -26z m3496 -1759 l-3 -1150 -28 -90
c-97 -314 -326 -608 -711 -918 -174 -140 -407 -298 -588 -400 -27 -15 -68 -38
-92 -52 -25 -14 -49 -25 -55 -25 -7 0 -10 615 -10 1890 l0 1889 127 3 c70 2
405 3 745 3 l618 0 -3 -1150z"/>
</g>
</svg>
