<svg xmlns="http://www.w3.org/2000/svg" width="400" height="100" aria-label="Nut" enable-background="new" fill-rule="evenodd" stroke="#000" stroke-width="5" stroke-linejoin="round"><defs><linearGradient id="a" x1="61.3" x2="61.3" y1="31.7" y2="194.3" gradientTransform="matrix(.4241 0 0 .25167 3.54 2.48)" gradientUnits="userSpaceOnUse"><stop offset="0%" stop-color="#8da6d8"/><stop offset="100%" stop-color="#2e5cb8"/></linearGradient><filter id="c" color-interpolation-filters="sRGB"><feFlood flood-opacity=".76" flood-color="#000" result="flood"/><feComposite in="flood" in2="SourceGraphic" operator="in" result="composite1"/><feGaussianBlur in="composite1" stdDeviation="3" result="blur"/><feOffset dx="3.4" dy="3.4" result="offset"/><feComposite in="SourceGraphic" in2="offset" result="composite2"/></filter><filter id="b" color-interpolation-filters="sRGB"><feBlend mode="overlay" in2="BackgroundImage"/></filter></defs><path d="M6.57 70.1V55.91l33.63 30.2v14.02z" fill="#24478f" stroke-width="1.62"/><path d="M40.23 86.14L86.1 75.02v14.25l-45.87 11.06z" fill="#2e5cb8" stroke-width="1.62"/><path d="M86.14 75.02v14.25L98.4 48.02V33.83z" fill="#193366" stroke-width="1.62"/><path d="M64.82 3.64l33.6 30.2-12.28 41.18L40.2 86.07 6.6 55.91 18.89 14.7zM63.66 27.6c10.56 5.5 14.2 17.68 8.06 27.22-6.08 9.5-19.67 12.77-30.3 7.26-10.56-5.44-14.19-17.69-8.05-27.19 6.04-9.54 19.6-12.84 30.26-7.33z" fill="#8da6d8" stroke-width="1.62"/><path d="M31.26 50.5a18.08 18.08 0 0 1 1.98-15.61c6.2-9.54 19.8-12.8 30.36-7.26 9.07 4.72 13.07 14.32 10.13 22.93a20.4 20.4 0 0 0-10.1-11.55c-10.63-5.47-24.22-2.2-30.36 7.33a18.94 18.94 0 0 0-1.98 4.22z" fill="url(#a)" stroke-width="1.62"/><path style="-inkscape-font-specification:'Helvetica Neue, Bold';font-variant-ligatures:normal;font-variant-caps:normal;font-variant-numeric:normal;font-feature-settings:normal;text-align:start" d="M360.35 110.85V73h33.32q4.76 0 9.07.9 4.53.68 7.93 2.72 3.4 2.04 5.44 5.67 2.04 3.63 2.04 9.3 0 10.2-6.12 14.73-6.12 4.53-15.64 4.53zm-35.59-65.5v161.83h78.43q10.88 0 21.08-2.72 10.43-2.72 18.36-8.38 8.16-5.67 12.92-14.5 4.76-9.08 4.76-21.32 0-15.18-7.48-25.84-7.25-10.88-22.21-15.18 10.88-5.22 16.32-13.38 5.66-8.16 5.66-20.4 0-11.33-3.85-19.04-3.63-7.7-10.43-12.24-6.8-4.76-16.32-6.8t-21.08-2.04zm35.59 134.18V135.1h38.76q11.56 0 18.59 5.44 7.02 5.22 7.02 17.68 0 6.35-2.26 10.43-2.04 4.08-5.67 6.57-3.63 2.27-8.39 3.4-4.76.91-9.97.91zm226.34 27.65V90H554.5v61.42q0 17.91-5.9 25.84-5.89 7.71-19.03 7.71-11.56 0-16.1-7.03-4.53-7.25-4.53-21.76V90h-32.19v72.08q0 10.88 1.82 19.94 2.04 8.84 6.8 15.2 4.76 6.11 12.92 9.51 8.38 3.4 21.3 3.4 10.2 0 19.95-4.53 9.75-4.54 15.87-14.74h.68v16.32zm49.33-135.32V45.34h-32.19v26.52zM603.83 90v117.18h32.19V90zm50.47-44.66v161.84h32.19V45.34zm132.75 102.91q0 7.25-1.36 14.05-1.36 6.8-4.53 12.24-3.18 5.22-8.62 8.4-5.21 3.16-13.14 3.16-7.48 0-12.92-3.17-5.22-3.4-8.84-8.61-3.4-5.44-5-12.24-1.58-6.8-1.58-13.6 0-7.26 1.36-13.83 1.59-6.8 4.76-12.01 3.4-5.22 8.84-8.39 5.44-3.17 13.38-3.17 7.93 0 13.14 3.17 5.22 3.17 8.39 8.39 3.4 4.98 4.76 11.78 1.36 6.58 1.36 13.83zm.45 43.97v14.96h30.6V45.34h-32.18v58.94h-.46q-5.44-8.62-14.96-12.92-9.3-4.54-19.72-4.54-12.92 0-22.66 5.22-9.75 4.98-16.32 13.37-6.35 8.39-9.75 19.5-3.17 10.87-3.17 22.66 0 12.24 3.17 23.57 3.4 11.34 9.75 20.18 6.57 8.61 16.54 13.82 9.98 5 23.12 5 11.56 0 20.63-4.09 9.3-4.3 14.96-13.83zm136.85-43.52q0 7.26-1.58 14.06-1.59 6.8-4.99 12.01-3.4 5.21-8.61 8.39-4.99 2.94-12.24 2.94-7.03 0-12.24-2.94-5.22-3.18-8.62-8.39-3.4-5.21-4.98-12.01-1.59-6.8-1.59-14.06 0-7.48 1.59-14.28 1.58-6.8 4.98-12 3.4-5.22 8.62-8.17 5.21-3.17 12.24-3.17 7.25 0 12.24 3.17 5.21 2.95 8.61 8.16 3.4 5.21 4.99 12.01 1.58 6.8 1.58 14.28zm-85.9-103.36v161.84h30.6v-14.96h.45q5.21 9.75 15.41 13.83t23.12 4.08q8.84 0 17.46-3.63 8.61-3.62 15.41-11.1 7.03-7.48 11.33-19.04 4.31-11.79 4.31-27.88 0-16.1-4.3-27.66-4.31-11.78-11.34-19.26-6.8-7.48-15.41-11.1-8.62-3.64-17.46-3.64-10.88 0-21.08 4.31-9.97 4.08-15.86 13.15h-.46V45.34zm163.14 103.36q0-7.02 1.36-13.82 1.36-6.8 4.53-12.02 3.4-5.2 8.84-8.38 5.44-3.4 13.6-3.4t13.6 3.4q5.67 3.17 8.84 8.38 3.4 5.22 4.76 12.02 1.36 6.8 1.36 13.82 0 7.03-1.36 13.83-1.36 6.57-4.76 12.01-3.17 5.22-8.84 8.4-5.44 3.16-13.6 3.16t-13.6-3.17q-5.44-3.17-8.84-8.39-3.17-5.44-4.53-12-1.36-6.8-1.36-13.84zm-32.19 0q0 14.06 4.3 25.4 4.32 11.32 12.25 19.48 7.93 7.94 19.04 12.24 11.1 4.31 24.93 4.31t24.94-4.3q11.33-4.31 19.26-12.25 7.94-8.16 12.24-19.49 4.3-11.33 4.3-25.39 0-14.05-4.3-25.38-4.3-11.56-12.24-19.5-7.93-8.16-19.26-12.46-11.11-4.54-24.94-4.54-13.82 0-24.93 4.54-11.1 4.3-19.04 12.46-7.93 7.94-12.24 19.5-4.3 11.33-4.3 25.38zM1143.99 90V54.86h-32.2V90h-19.48v21.53h19.49v69.13q0 8.84 2.95 14.28 2.94 5.44 7.93 8.4 5.21 2.94 11.79 3.84 6.8 1.14 14.28 1.14 4.76 0 9.74-.23 4.99-.23 9.07-.9v-24.94q-2.27.45-4.76.68-2.5.23-5.21.23-8.16 0-10.88-2.72-2.72-2.72-2.72-10.88v-58.03h23.57V90z" fill="#fbffff" aria-label="Buildbot" transform="matrix(.33 0 0 .33 3.04 2.32)" font-weight="700" font-size="226.67" font-family="Helvetica Neue" letter-spacing="0" word-spacing="0" filter="url(#b)"/><g style="line-height:1.25;-inkscape-font-specification:'Helvetica Neue, Normal';font-variant-ligatures:normal;font-variant-caps:normal;font-variant-numeric:normal;font-feature-settings:normal;text-align:start"><path d="M109.94 81.58v.92h3.96V93h1.1V82.5h3.98v-.92zm10.19 0V93h1.01v-4.82q.02-.6.2-1.12.18-.52.5-.9.34-.38.8-.58.48-.23 1.1-.23.6 0 1 .2.42.19.66.52.24.34.33.8.1.45.1.98V93h1v-5.31q0-.74-.14-1.33-.14-.6-.5-1-.35-.4-.94-.63-.57-.23-1.44-.23-.88 0-1.61.47-.74.45-1.03 1.2h-.03v-4.6zm14.86 6.72h-5.34q.06-.56.25-1.1.21-.54.55-.94.33-.41.81-.65.48-.26 1.1-.26.61 0 1.1.26.47.24.81.65.34.4.51.93.2.53.21 1.1zm-5.34.84H136q.03-.86-.16-1.7-.2-.84-.64-1.48-.43-.66-1.14-1.06-.7-.4-1.7-.4-.97 0-1.69.39-.7.37-1.15.99-.45.6-.67 1.4-.21.78-.21 1.6 0 .87.2 1.67.23.79.68 1.4.45.59 1.15.94.72.33 1.7.33 1.56 0 2.41-.76.87-.77 1.19-2.18h-1.01q-.24.96-.87 1.54-.62.57-1.72.57-.72 0-1.24-.3-.5-.3-.84-.77-.34-.46-.5-1.04-.14-.6-.14-1.14zm20.98-4.11h1.09q-.12-.9-.55-1.58-.41-.69-1.05-1.15-.63-.48-1.41-.72-.77-.24-1.59-.24-1.34 0-2.36.5-1.01.47-1.68 1.3-.68.82-1.01 1.9-.34 1.06-.34 2.25 0 1.18.34 2.25.33 1.08 1 1.9.68.8 1.69 1.3 1.02.48 2.36.48 1.01 0 1.83-.32.83-.32 1.44-.9.6-.6 1-1.45.37-.85.49-1.9h-1.1q-.07.77-.36 1.44-.29.65-.75 1.15-.47.5-1.1.78-.65.3-1.45.3-1.13 0-1.95-.44-.81-.43-1.34-1.14-.51-.72-.77-1.61-.24-.91-.24-1.84 0-.95.24-1.84.26-.9.77-1.6.53-.72 1.34-1.15.82-.44 1.95-.44.63 0 1.19.2.57.17 1.04.52.48.36.8.88.33.52.48 1.17zm6.51.32q.72 0 1.26.3.54.31.9.8.36.5.54 1.14.2.63.2 1.28 0 .66-.2 1.3-.18.62-.54 1.12-.36.5-.9.8-.54.3-1.26.3t-1.27-.3q-.54-.3-.91-.8-.35-.5-.54-1.12-.18-.64-.18-1.3 0-.65.18-1.28.19-.64.54-1.13.37-.5.91-.8.55-.3 1.27-.3zm0-.85q-.95 0-1.68.36-.72.35-1.22.94-.5.6-.75 1.4-.26.78-.26 1.67 0 .9.26 1.7.25.78.75 1.37.5.6 1.22.95.73.33 1.68.33.94 0 1.66-.33.74-.35 1.23-.95.5-.59.75-1.37.26-.8.26-1.7 0-.9-.26-1.68-.25-.8-.75-1.39-.5-.6-1.23-.94-.72-.36-1.66-.36zm5.68.24V93h1v-4.82q.02-.6.2-1.12.2-.52.51-.9.34-.38.8-.58.48-.23 1.09-.23.6 0 1 .2.42.19.66.52.24.34.34.8.1.45.1.98V93h1v-5.31q0-.74-.14-1.33-.14-.6-.5-1-.35-.4-.94-.63-.58-.23-1.44-.23-.88 0-1.62.47-.73.45-1.02 1.2h-.03v-1.43zm10.52 0v-2.48h-1v2.48h-1.45v.85h1.44v5.65q-.01 1.06.39 1.46.4.38 1.4.38.23 0 .45-.02l.45-.01v-.85q-.43.05-.86.05-.55-.03-.7-.3-.12-.3-.12-.79v-5.57h1.68v-.85zm3.45-3.16v1.61h1v-1.61zm0 3.16V93h1v-8.26zm3.53 0V93h1v-4.82q.02-.6.2-1.12.2-.52.51-.9.34-.38.8-.58.48-.23 1.09-.23.6 0 1 .2.42.19.66.52.24.34.34.8.1.45.1.98V93h1v-5.31q0-.74-.14-1.33-.14-.6-.5-1-.35-.4-.94-.63-.58-.23-1.44-.23-.88 0-1.62.47-.73.45-1.02 1.2h-.03v-1.43zM195.93 93v-8.26h-1v4.34q0 .62-.15 1.23-.15.6-.45 1.06-.3.46-.77.75-.46.27-1.12.27-1.2 0-1.7-.57-.47-.58-.5-1.7v-5.38h-1.01v5.36q0 .74.16 1.32.16.57.5.97.34.4.89.61.56.22 1.34.22.93 0 1.68-.43.77-.45 1.17-1.28h.03V93zm5.71-7.65q.72 0 1.26.3.54.31.9.8.36.5.54 1.14.2.63.2 1.28 0 .66-.2 1.3-.18.62-.54 1.12-.36.5-.9.8-.54.3-1.26.3t-1.27-.3q-.54-.3-.91-.8-.35-.5-.54-1.12-.18-.64-.18-1.3 0-.65.18-1.28.19-.64.54-1.13.37-.5.91-.8.55-.3 1.27-.3zm0-.85q-.95 0-1.68.36-.72.35-1.22.94-.5.6-.75 1.4-.26.78-.26 1.67 0 .9.26 1.7.25.78.75 1.37.5.6 1.22.95.73.33 1.68.33.94 0 1.66-.33.74-.35 1.23-.95.5-.59.75-1.37.26-.8.26-1.7 0-.9-.26-1.68-.25-.8-.75-1.39-.5-.6-1.23-.94-.72-.36-1.66-.36zm12.38 8.5v-8.26h-1v4.34q0 .62-.15 1.23-.14.6-.45 1.06-.3.46-.77.75-.46.27-1.12.27-1.2 0-1.7-.57-.47-.58-.5-1.7v-5.38h-1.01v5.36q0 .74.16 1.32.16.57.5.97.35.4.9.61.55.22 1.33.22.93 0 1.68-.43.77-.45 1.17-1.28h.03V93zm7.17-5.84h1q-.03-.67-.27-1.17-.24-.5-.65-.83-.4-.34-.95-.5-.53-.16-1.15-.16-.54 0-1.1.13-.55.13-1 .4-.44.27-.73.72-.27.45-.27 1.07 0 .53.17.9.18.35.48.6.32.25.74.42.41.16.9.3l1.3.28q.34.08.66.2.34.1.6.28.25.16.4.42.15.24.15.6 0 .44-.22.74-.2.29-.54.48-.34.2-.74.27-.38.08-.75.08-1.01 0-1.7-.51-.67-.53-.73-1.55h-1.01q.13 1.52 1.02 2.2.91.7 2.37.7.58 0 1.17-.13t1.05-.42q.48-.3.79-.77.3-.48.3-1.15 0-.54-.2-.94-.21-.4-.55-.68-.32-.27-.75-.43-.42-.17-.85-.24l-1.34-.3-.56-.16q-.3-.11-.56-.27-.26-.16-.44-.39-.16-.24-.16-.57 0-.4.18-.68.18-.27.46-.43.3-.17.63-.24.35-.08.69-.08.43 0 .81.11.39.1.67.32.3.23.48.58.18.34.2.8zm7.76-5.58V93h1.09V81.58zm3.87 3.16V93h1v-4.82q.02-.6.2-1.12.2-.52.51-.9.34-.38.8-.58.48-.23 1.09-.23.6 0 1 .2.42.19.66.52.24.34.34.8.1.45.1.98V93h1v-5.31q0-.74-.14-1.33-.14-.6-.5-1-.35-.4-.94-.63-.58-.23-1.44-.23-.88 0-1.62.47-.73.45-1.02 1.2h-.03v-1.43zm10.52 0v-2.48h-1v2.48h-1.45v.85h1.44v5.65q-.01 1.06.39 1.46.4.38 1.4.38.23 0 .45-.02l.45-.01v-.85q-.43.05-.86.05-.55-.03-.7-.3-.12-.3-.12-.79v-5.57h1.68v-.85zm9.36 3.56h-5.34q.07-.56.26-1.1.2-.54.54-.94.34-.41.82-.65.48-.26 1.1-.26.61 0 1.1.26.47.24.8.65.34.4.52.93.2.53.2 1.1zm-5.34.84h6.36q.03-.86-.16-1.7-.2-.84-.64-1.48-.44-.66-1.14-1.06t-1.7-.4q-.97 0-1.7.39-.7.37-1.14.99-.45.6-.68 1.4-.2.78-.2 1.6 0 .87.2 1.67.23.79.68 1.4.44.59 1.15.94.72.33 1.7.33 1.56 0 2.41-.76.86-.77 1.18-2.18h-1q-.24.96-.87 1.54-.62.57-1.73.57-.72 0-1.23-.3t-.85-.77q-.33-.46-.5-1.04-.14-.6-.14-1.14zm14.98 3.19v-7.59h-1v1.43h-.04q-.14-.34-.41-.64-.26-.3-.6-.53-.33-.24-.75-.37-.4-.13-.86-.13-.9 0-1.6.34-.69.32-1.17.9-.46.56-.72 1.32-.24.76-.24 1.6 0 .88.2 1.67.22.77.66 1.34.47.58 1.17.91.7.32 1.7.32.91 0 1.58-.46.69-.46 1.04-1.23h.03v1.12q0 1.5-.62 2.3-.62.8-2.03.8-.42 0-.82-.1-.4-.07-.73-.27-.32-.19-.56-.5-.23-.31-.3-.78h-1.02q.05.66.36 1.12.32.48.78.79.48.3 1.07.45.6.14 1.22.14 1 0 1.7-.27t1.13-.79q.43-.5.62-1.24.21-.74.21-1.65zm-3.66-.27q-.7 0-1.22-.28-.51-.28-.85-.73-.33-.47-.5-1.06-.15-.59-.15-1.21 0-.64.14-1.25.16-.63.5-1.1.33-.49.85-.77.5-.3 1.23-.3.72 0 1.21.3.52.3.84.8.32.5.46 1.1.14.6.14 1.22t-.17 1.21q-.16.6-.5 1.06-.33.45-.83.73-.5.28-1.15.28zm5.87-7.32V93h1.01v-4.4q0-.66.23-1.2.22-.56.62-.96.42-.4.98-.6.56-.23 1.24-.2v-1q-1.12-.06-1.93.49-.8.54-1.19 1.55h-.03v-1.94zm5.22 2.53h1q.04-1 .65-1.45.6-.47 1.57-.47.44 0 .83.08.4.07.69.26.3.19.46.53.18.32.18.83 0 .33-.1.54-.08.21-.24.34-.16.11-.4.16-.24.05-.56.08l-1.62.2q-.78.1-1.42.36-.62.25-1 .75-.4.48-.4 1.34 0 .63.22 1.1.22.44.59.74.38.3.88.42.51.14 1.09.14.6 0 1.04-.1.44-.12.78-.33.35-.2.62-.51.3-.32.56-.72h.04q0 .32.03.6.05.25.17.44.13.2.36.3.24.1.62.1.2 0 .34-.02l.32-.04v-.85q-.15.06-.32.06-.6 0-.6-.6v-4.39q0-.83-.27-1.34-.27-.53-.7-.82-.43-.29-.98-.38-.54-.12-1.09-.12-.72 0-1.3.16-.6.16-1.05.5-.43.34-.69.86-.25.53-.3 1.25zm5.38 1.22v1.31q0 .6-.24 1.09-.23.48-.63.81-.38.34-.91.52-.53.17-1.1.17-.36 0-.7-.11-.33-.11-.58-.32-.26-.22-.42-.51-.14-.3-.14-.69 0-.6.35-.93.37-.33.93-.51t1.23-.26l1.33-.2.48-.12q.27-.08.36-.25zm4.91-3.75v-2.48h-1v2.48h-1.45v.85h1.44v5.65q-.01 1.06.39 1.46.4.38 1.4.38.23 0 .45-.02l.45-.01v-.85q-.43.05-.86.05-.55-.03-.7-.3-.12-.3-.12-.79v-5.57h1.68v-.85zm3.44-3.16v1.61h1.02v-1.61zm0 3.16V93h1.02v-8.26zm7.04.61q.72 0 1.27.3.54.31.9.8.36.5.54 1.14.19.63.19 1.28 0 .66-.2 1.3-.17.62-.54 1.12-.35.5-.9.8-.54.3-1.26.3t-1.26-.3q-.55-.3-.91-.8t-.55-1.12q-.17-.64-.17-1.3 0-.65.17-1.28.2-.64.55-1.13.36-.5.9-.8.55-.3 1.27-.3zm0-.85q-.94 0-1.68.36-.72.35-1.21.94-.5.6-.76 1.4-.25.78-.25 1.67 0 .9.25 1.7.26.78.76 1.37.5.6 1.21.95.74.33 1.68.33.95 0 1.67-.33.73-.35 1.23-.95.5-.59.75-1.37.26-.8.26-1.7 0-.9-.26-1.68-.26-.8-.75-1.39-.5-.6-1.23-.94-.72-.36-1.67-.36zm5.69.24V93h1v-4.82q.02-.6.2-1.12.19-.52.5-.9.34-.38.8-.58.49-.23 1.1-.23.6 0 1 .2.42.19.66.52.24.34.34.8.1.45.1.98V93h1v-5.31q0-.74-.14-1.33-.15-.6-.5-1t-.94-.63q-.58-.23-1.44-.23-.88 0-1.62.47-.74.45-1.02 1.2h-.04v-1.43zm13.55-3.16V93h1.09v-5.44h5.47v-.93h-5.47V82.5h6.16v-.92zm8.99 3.16V93h1.01v-4.4q0-.66.22-1.2.23-.56.63-.96.41-.4.97-.6.56-.23 1.25-.2v-1q-1.12-.06-1.93.49-.8.54-1.19 1.55h-.03v-1.94zm5.22 2.53h1q.04-1 .65-1.45.6-.47 1.56-.47.45 0 .84.08.4.07.68.26.3.19.47.53.17.32.17.83 0 .33-.1.54-.07.21-.23.34-.16.11-.4.16-.24.05-.56.08l-1.62.2q-.78.1-1.42.36-.63.25-1 .75-.4.48-.4 1.34 0 .63.21 1.1.23.44.6.74.38.3.88.42.5.14 1.08.14.61 0 1.04-.1.45-.12.79-.33.35-.2.62-.51.3-.32.56-.72h.03q0 .32.04.6.04.25.17.44.13.2.35.3.24.1.63.1.2 0 .33-.02l.32-.04v-.85q-.14.06-.32.06-.59 0-.59-.6v-4.39q0-.83-.27-1.34-.27-.53-.7-.82-.43-.29-.98-.38-.54-.12-1.09-.12-.72 0-1.3.16-.6.16-1.05.5-.43.34-.69.86-.25.53-.3 1.25zm5.37 1.22v1.31q0 .6-.24 1.09-.22.48-.62.81-.38.34-.91.52-.53.17-1.1.17-.36 0-.7-.11-.33-.11-.59-.32-.25-.22-.41-.51-.15-.3-.15-.69 0-.6.36-.93.36-.33.92-.51t1.24-.26l1.32-.2q.21-.04.48-.12.28-.08.37-.25zm3.32-3.75V93h1v-4.6q0-.66.15-1.2.14-.57.43-.97.3-.41.77-.64.48-.24 1.12-.24.48 0 .82.16.33.16.52.45.21.27.3.66.09.36.09.78V93h1v-4.67q0-.58.1-1.1.11-.55.37-.97.26-.41.69-.65.43-.26 1.09-.26 1.08 0 1.52.55.43.52.43 1.55V93h1v-5.6q0-2.9-2.73-2.9-.82 0-1.54.4-.72.4-1.08 1.22-.23-.82-.9-1.22-.66-.4-1.47-.4-1 0-1.67.44-.64.43-1.04 1.2h-.04v-1.4zm19.59 3.56h-5.34q.06-.56.25-1.1.21-.54.55-.94.33-.41.81-.65.48-.26 1.1-.26.61 0 1.1.26.47.24.81.65.34.4.51.93.2.53.21 1.1zm-5.34.84h6.35q.03-.86-.16-1.7-.2-.84-.64-1.48-.43-.66-1.14-1.06-.7-.4-1.7-.4-.97 0-1.69.39-.7.37-1.15.99-.45.6-.67 1.4-.21.78-.21 1.6 0 .87.2 1.67.23.79.68 1.4.45.59 1.15.94.72.33 1.7.33 1.56 0 2.41-.76.87-.77 1.19-2.18h-1.01q-.24.96-.87 1.54-.62.57-1.72.57-.72 0-1.23-.3-.52-.3-.85-.77-.34-.46-.5-1.04-.14-.6-.14-1.14zm7.17-4.4l2.65 8.26h1.1l2.02-6.94h.03l2.04 6.94h1.1l2.66-8.26h-1.08l-2.1 7.08h-.04l-2.02-7.08h-1.13l-2.02 7.08h-.03l-2.11-7.08zm16.44.61q.72 0 1.27.3.54.31.9.8.36.5.54 1.14.19.63.19 1.28 0 .66-.2 1.3-.17.62-.54 1.12-.35.5-.9.8-.54.3-1.26.3t-1.26-.3q-.55-.3-.91-.8t-.55-1.12q-.17-.64-.17-1.3 0-.65.17-1.28.2-.64.55-1.13.36-.5.9-.8.55-.3 1.27-.3zm0-.85q-.94 0-1.68.36-.72.35-1.21.94-.5.6-.76 1.4-.25.78-.25 1.67 0 .9.25 1.7.26.78.76 1.37.5.6 1.21.95.74.33 1.68.33.95 0 1.67-.33.73-.35 1.23-.95.5-.59.75-1.37.26-.8.26-1.7 0-.9-.26-1.68-.26-.8-.75-1.39-.5-.6-1.23-.94-.72-.36-1.67-.36zm5.7.24V93h1v-4.4q0-.66.23-1.2.23-.56.63-.96.41-.4.97-.6.56-.23 1.25-.2v-1q-1.12-.06-1.93.49-.8.54-1.19 1.55h-.03v-1.94zm5.31-3.16V93h1.01v-3.14l1.63-1.36 3.27 4.5h1.26l-3.76-5.2 3.52-3.06h-1.34l-4.58 4v-7.16z" style="-inkscape-font-specification:'Helvetica Neue, Light';font-variant-ligatures:normal;font-variant-caps:normal;font-variant-numeric:normal;font-feature-settings:normal;text-align:start" aria-label="The Continuous Integration Framework" font-weight="300" font-size="16" font-family="Helvetica Neue" letter-spacing="0" word-spacing="0" stroke="none" filter="url(#c)" fill="#fff"/></g></svg>