<?xml version="1.0" encoding="UTF-8" standalone="no"?> <svg xmlns:dc="http://purl.org/dc/elements/1.1/" xmlns:cc="http://creativecommons.org/ns#" xmlns:rdf="http://www.w3.org/1999/02/22-rdf-syntax-ns#" xmlns:svg="http://www.w3.org/2000/svg" xmlns="http://www.w3.org/2000/svg" id="svg106" viewBox="0 0 326.76042 80.433337" height="304" width="1235"><defs id="defs100"></defs><metadata id="metadata103"></metadata><g transform="translate(-1.0850182e-5,-0.08498622)" aria-label="Collabora Online" style="font-style:normal;font-variant:normal;font-weight:normal;font-stretch:normal;font-size:23.87990952px;line-height:100%;font-family:'Liberation Sans';-inkscape-font-specification:'Liberation Sans';text-align:start;writing-mode:lr-tb;text-anchor:start;opacity:1;fill:#4a4a4a;fill-opacity:1;fill-rule:nonzero;stroke:none;stroke-width:2.55633974;stroke-linecap:round;stroke-linejoin:round;stroke-miterlimit:4;stroke-dasharray:none;stroke-dashoffset:0;stroke-opacity:1" id="text4294"></g><g style="stroke-width:1.00264978" transform="matrix(1.715252,0,0,1.715252,-29.072652,-15.529023)" id="g4298"><polygon style="fill:#ffffff;stroke-width:1.00264978" points="17.258,20.718 17.772,20.172 30.958,32.599 17.914,44.893 17.358,44.386 " id="polygon14"></polygon><polygon points="30.379,32.053 30.958,32.599 30.379,33.145 17.914,44.893 28.654,55.638 51.742,32.55 28.561,9.362 17.763,20.162 17.772,20.172 " id="polygon16" style="fill:#ba2323;fill-opacity:1;stroke-width:1.00264978"></polygon><polygon style="fill:#c8c8c8;stroke-width:1.00264978" points="17.258,20.718 29.864,32.599 17.358,44.386 " id="polygon18"></polygon><polygon points="18.807,44.052 31.847,41.483 27.743,35.628 " id="polygon20" style="fill:#6f1515;fill-opacity:1;stroke-width:1.00264978"></polygon></g><g transform="translate(-1.0850182e-5,-0.08498622)" aria-label="Development Edition" style="font-style:normal;font-variant:normal;font-weight:normal;font-stretch:normal;font-size:23.87990952px;line-height:23.87990952px;font-family:'Liberation Sans';-inkscape-font-specification:'Liberation Sans';text-align:start;writing-mode:lr-tb;text-anchor:start;opacity:1;fill:#4a4a4a;fill-opacity:1;fill-rule:nonzero;stroke:none;stroke-width:2.55633974;stroke-linecap:round;stroke-linejoin:round;stroke-miterlimit:4;stroke-dasharray:none;stroke-dashoffset:0;stroke-opacity:1" id="text4294-9"><path id="path1000" style="font-style:normal;font-variant:normal;font-weight:normal;font-stretch:normal;line-height:23.87990952px;font-family:Montserrat;-inkscape-font-specification:Montserrat;fill:#4a4a4a;fill-opacity:1;stroke-width:2.55633974" d="m 317.20466,54.392274 v 6.877414 h -2.67455 V 48.565576 h 2.67455 v 2.316351 q 0.64475,-1.170116 1.76711,-1.838753 1.14623,-0.668637 2.45963,-0.668637 2.14919,0 3.46259,1.313395 1.33727,1.313395 1.33727,3.796905 v 7.784851 h -2.67455 v -6.972934 q 0,-3.510347 -2.91335,-3.510347 -1.38503,0 -2.41187,0.931317 -1.02683,0.907436 -1.02683,2.67455 z M 301.9133,57.9265 q 1.14624,1.146236 2.88947,1.146236 1.74324,0 2.86559,-1.146236 1.14624,-1.170115 1.14624,-3.008868 0,-1.838753 -1.14624,-2.984989 -1.12235,-1.170116 -2.86559,-1.170116 -1.74323,0 -2.88947,1.170116 -1.12235,1.146236 -1.12235,2.984989 0,1.838753 1.12235,3.008868 z m 7.66545,1.647714 q -1.91039,1.886513 -4.77598,1.886513 -2.86559,0 -4.77598,-1.886513 -1.91039,-1.910393 -1.91039,-4.656582 0,-2.74619 1.91039,-4.632703 1.91039,-1.910392 4.77598,-1.910392 2.86559,0 4.77598,1.910392 1.9104,1.886513 1.9104,4.632703 0,2.746189 -1.9104,4.656582 z m -14.48167,1.695474 h -2.67455 V 48.565576 h 2.67455 z m -2.50739,-15.235383 q -0.50148,-0.501478 -0.50148,-1.193995 0,-0.692517 0.50148,-1.193996 0.50148,-0.501478 1.194,-0.501478 0.69251,0 1.19399,0.501478 0.50148,0.501479 0.50148,1.193996 0,0.692517 -0.50148,1.193995 -0.50148,0.501478 -1.19399,0.501478 -0.69252,0 -1.194,-0.501478 z m -6.85278,4.680463 v 6.447575 q 0,0.907437 0.4776,1.456675 0.4776,0.525358 1.33727,0.525358 0.85968,0 1.64772,-0.835797 l 1.09847,1.886513 q -1.40891,1.265635 -3.12827,1.265635 -1.69547,0 -2.91334,-1.170116 -1.194,-1.193995 -1.194,-3.199908 v -6.375935 h -1.59995 v -2.149192 h 1.59995 v -3.987945 h 2.67455 v 3.987945 h 3.34319 v 2.149192 z m -7.15054,10.55492 h -2.67455 V 48.565576 h 2.67455 z m -2.50739,-15.235383 q -0.50148,-0.501478 -0.50148,-1.193995 0,-0.692517 0.50148,-1.193996 0.50148,-0.501478 1.19399,-0.501478 0.69252,0 1.194,0.501478 0.50148,0.501479 0.50148,1.193996 0,0.692517 -0.50148,1.193995 -0.50148,0.501478 -1.194,0.501478 -0.69251,0 -1.19399,-0.501478 z m -11.02953,15.426422 q -2.41187,0 -4.20287,-1.814873 -1.79099,-1.814873 -1.79099,-4.775982 0,-2.961109 1.83875,-4.728222 1.83876,-1.767113 4.37003,-1.767113 2.55515,0 4.10734,2.149191 v -6.972933 h 2.67455 v 17.718893 h -2.67455 v -1.910393 q -1.48055,2.101432 -4.32226,2.101432 z m -3.31931,-6.471456 q 0,1.814874 1.17012,2.961109 1.17011,1.146236 2.74619,1.146236 1.57607,0 2.67455,-1.146236 1.09847,-1.170115 1.09847,-2.984988 0,-1.814874 -1.09847,-3.032749 -1.09848,-1.217875 -2.69843,-1.217875 -1.59996,0 -2.74619,1.217875 -1.14624,1.217875 -1.14624,3.056628 z m -5.38008,-10.41164 v 2.65067 h -8.9072 v 4.417783 h 7.99977 v 2.507391 h -7.99977 v 4.465543 h 9.19376 v 2.65067 H 244.62503 V 44.577631 Z m -25.32239,6.137137 v 6.447575 q 0,0.907437 0.47759,1.456675 0.4776,0.525358 1.33728,0.525358 0.85968,0 1.64771,-0.835797 l 1.09848,1.886513 q -1.40892,1.265635 -3.12827,1.265635 -1.69547,0 -2.91335,-1.170116 -1.19399,-1.193995 -1.19399,-3.199908 v -6.375935 h -1.59996 v -2.149192 h 1.59996 v -3.987945 h 2.67455 v 3.987945 h 3.34318 v 2.149192 z m -15.87232,3.677506 v 6.877414 H 212.4808 V 48.565576 h 2.67455 v 2.316351 q 0.64476,-1.170116 1.76712,-1.838753 1.14623,-0.668637 2.45963,-0.668637 2.14919,0 3.46259,1.313395 1.33727,1.313395 1.33727,3.796905 v 7.784851 h -2.67455 v -6.972934 q 0,-3.510347 -2.91335,-3.510347 -1.38503,0 -2.41187,0.931317 -1.02684,0.907436 -1.02684,2.67455 z m -5.59236,1.695473 h -9.95793 q 0.0955,1.385035 1.26564,2.244712 1.17012,0.835797 2.67455,0.835797 2.38799,0 3.62975,-1.504435 l 1.52831,1.671594 q -2.05367,2.125312 -5.3491,2.125312 -2.67455,0 -4.56106,-1.767113 -1.86264,-1.790994 -1.86264,-4.775982 0,-3.008869 1.9104,-4.775982 1.91039,-1.767113 4.48942,-1.767113 2.60291,0 4.41778,1.576074 1.81488,1.552194 1.81488,4.298383 z m -9.95793,-2.101432 h 7.28338 q 0,-1.599954 -1.00296,-2.45963 -1.00296,-0.859677 -2.48351,-0.859677 -1.45667,0 -2.62679,0.907436 -1.17012,0.883557 -1.17012,2.411871 z m -23.39448,0.405959 v 6.877414 h -2.67455 V 48.565576 h 2.67455 v 2.316351 q 0.57312,-1.170116 1.71936,-1.838753 1.17011,-0.668637 2.50739,-0.668637 3.00887,0 4.08346,2.48351 1.88651,-2.48351 4.70434,-2.48351 2.1492,0 3.46259,1.313395 1.33728,1.313395 1.33728,3.796905 v 7.784851 h -2.67455 v -6.972934 q 0,-3.510347 -2.91335,-3.510347 -1.36116,0 -2.38799,0.883557 -1.00296,0.859677 -1.05072,2.53127 v 7.068454 h -2.67455 v -6.972934 q 0,-1.814873 -0.64476,-2.65067 -0.64475,-0.859677 -2.02979,-0.859677 -1.38503,0 -2.41187,0.931317 -1.02684,0.907436 -1.02684,2.67455 z M 164.2975,48.374537 q 2.55515,0 4.37002,1.767113 1.81487,1.767113 1.81487,4.704342 0,2.937229 -1.81487,4.775982 -1.79099,1.838753 -4.20286,1.838753 -2.388,0 -4.29839,-2.101432 v 6.543095 h -2.67455 V 48.565576 h 2.67455 v 2.220831 q 1.57608,-2.41187 4.13123,-2.41187 z m -4.17899,6.566975 q 0,1.814873 1.09848,2.984988 1.09847,1.146236 2.67455,1.146236 1.57607,0 2.74619,-1.146236 1.17011,-1.146235 1.17011,-2.961108 0,-1.838753 -1.14623,-3.032749 -1.14624,-1.217875 -2.74619,-1.217875 -1.59996,0 -2.69843,1.217875 -1.09848,1.193996 -1.09848,3.008869 z M 144.87492,57.9265 q 1.14624,1.146236 2.88947,1.146236 1.74323,0 2.86559,-1.146236 1.14623,-1.170115 1.14623,-3.008868 0,-1.838753 -1.14623,-2.984989 -1.12236,-1.170116 -2.86559,-1.170116 -1.74323,0 -2.88947,1.170116 -1.12236,1.146236 -1.12236,2.984989 0,1.838753 1.12236,3.008868 z m 7.66545,1.647714 q -1.91039,1.886513 -4.77598,1.886513 -2.86559,0 -4.77598,-1.886513 -1.9104,-1.910393 -1.9104,-4.656582 0,-2.74619 1.9104,-4.632703 1.91039,-1.910392 4.77598,-1.910392 2.86559,0 4.77598,1.910392 1.91039,1.886513 1.91039,4.632703 0,2.746189 -1.91039,4.656582 z m -14.48167,1.695474 h -2.67455 V 43.550795 h 2.67455 z m -5.59237,-5.181941 h -9.95793 q 0.0955,1.385035 1.26564,2.244712 1.17011,0.835797 2.67455,0.835797 2.38799,0 3.62975,-1.504435 l 1.52831,1.671594 q -2.05367,2.125312 -5.3491,2.125312 -2.67455,0 -4.56106,-1.767113 -1.86264,-1.790994 -1.86264,-4.775982 0,-3.008869 1.9104,-4.775982 1.91039,-1.767113 4.48942,-1.767113 2.60291,0 4.41778,1.576074 1.81488,1.552194 1.81488,4.298383 z m -9.95793,-2.101432 h 7.28338 q 0,-1.599954 -1.00296,-2.45963 -1.00296,-0.859677 -2.48351,-0.859677 -1.45667,0 -2.62679,0.907436 -1.17012,0.883557 -1.17012,2.411871 z m -12.16122,7.283373 -5.1103,-12.704112 h 2.77007 l 3.86855,9.599723 3.86854,-9.599723 h 2.77007 l -5.1103,12.704112 z m -6.14497,-5.181941 h -9.957919 q 0.09552,1.385035 1.265636,2.244712 1.170115,0.835797 2.674549,0.835797 2.387994,0 3.629744,-1.504435 l 1.52832,1.671594 q -2.05368,2.125312 -5.349103,2.125312 -2.67455,0 -4.561063,-1.767113 -1.862632,-1.790994 -1.862632,-4.775982 0,-3.008869 1.910392,-4.775982 1.910393,-1.767113 4.489423,-1.767113 2.602913,0 4.417783,1.576074 1.81487,1.552194 1.81487,4.298383 z m -9.957919,-2.101432 h 7.283369 q 0,-1.599954 -1.00295,-2.45963 -1.002959,-0.859677 -2.483513,-0.859677 -1.456674,0 -2.62679,0.907436 -1.170116,0.883557 -1.170116,2.411871 z M 79.838736,44.577631 q 4.489423,0 6.901294,2.196952 2.411871,2.173071 2.411871,6.065497 0,3.892425 -2.340232,6.161016 -2.340231,2.268592 -7.163972,2.268592 H 74.107558 V 44.577631 Z m 6.471455,8.334088 q 0,-5.731178 -6.566975,-5.731178 h -2.817829 v 11.438477 h 3.128268 q 3.032749,0 4.632702,-1.432795 1.623834,-1.456674 1.623834,-4.274504 z M 270.79394,30.521055 h -9.95792 q 0.0955,1.385035 1.26564,2.244711 1.17011,0.835797 2.67455,0.835797 2.38799,0 3.62974,-1.504434 l 1.52832,1.671594 q -2.05368,2.125312 -5.3491,2.125312 -2.67455,0 -4.56107,-1.767114 -1.86263,-1.790993 -1.86263,-4.775982 0,-3.008868 1.91039,-4.775982 1.9104,-1.767113 4.48943,-1.767113 2.60291,0 4.41778,1.576074 1.81487,1.552194 1.81487,4.298384 z m -9.95792,-2.101432 h 7.28337 q 0,-1.599954 -1.00295,-2.459631 -1.00296,-0.859677 -2.48351,-0.859677 -1.45668,0 -2.62679,0.907437 -1.17012,0.883557 -1.17012,2.411871 z m -14.62607,0.405958 v 6.877414 H 243.5354 V 22.998883 h 2.67455 v 2.316352 q 0.64476,-1.170116 1.76711,-1.838753 1.14624,-0.668638 2.45963,-0.668638 2.1492,0 3.46259,1.313395 1.33728,1.313395 1.33728,3.796906 v 7.78485 h -2.67455 v -6.972933 q 0,-3.510347 -2.91335,-3.510347 -1.38504,0 -2.41187,0.931316 -1.02684,0.907437 -1.02684,2.67455 z m -6.52966,6.877414 h -2.67455 V 22.998883 h 2.67455 z M 237.1729,20.467613 q -0.50148,-0.501478 -0.50148,-1.193995 0,-0.692518 0.50148,-1.193996 0.50147,-0.501478 1.19399,-0.501478 0.69252,0 1.194,0.501478 0.50148,0.501478 0.50148,1.193996 0,0.692517 -0.50148,1.193995 -0.50148,0.501478 -1.194,0.501478 -0.69252,0 -1.19399,-0.501478 z m -4.02228,15.235382 h -2.67455 V 17.984102 h 2.67455 z m -15.43798,-6.877414 v 6.877414 h -2.67455 V 22.998883 h 2.67455 v 2.316352 q 0.64475,-1.170116 1.76711,-1.838753 1.14623,-0.668638 2.45963,-0.668638 2.14919,0 3.46259,1.313395 1.33727,1.313395 1.33727,3.796906 v 7.78485 h -2.67455 v -6.972933 q 0,-3.510347 -2.91335,-3.510347 -1.38503,0 -2.41187,0.931316 -1.02683,0.907437 -1.02683,2.67455 z m -10.31575,-5.874457 q -1.69548,-1.767114 -4.17899,-1.767114 -2.48351,0 -4.20286,1.767114 -1.69548,1.767113 -1.69548,4.298383 0,2.507391 1.69548,4.274504 1.71935,1.767113 4.20286,1.767113 2.48351,0 4.17899,-1.767113 1.71935,-1.767113 1.71935,-4.274504 0,-2.53127 -1.71935,-4.298383 z m 2.07755,10.4594 q -2.53127,2.459631 -6.25654,2.459631 -3.72526,0 -6.25654,-2.459631 -2.53127,-2.483511 -2.53127,-6.161017 0,-3.701386 2.53127,-6.161016 2.53128,-2.483511 6.25654,-2.483511 3.72527,0 6.25654,2.483511 2.53127,2.45963 2.53127,6.161016 0,3.677506 -2.53127,6.161017 z m -24.62802,2.292471 h -2.43575 v -1.695473 q -1.57608,1.886513 -4.22675,1.886513 -1.98203,0 -3.29543,-1.122356 -1.28951,-1.122356 -1.28951,-2.984989 0,-1.886513 1.38503,-2.817829 1.38504,-0.931317 3.74915,-0.931317 h 3.46259 v -0.477598 q 0,-2.53127 -2.81783,-2.53127 -1.76712,0 -3.67751,1.289515 l -1.19399,-1.671594 q 2.31635,-1.838753 5.25358,-1.838753 2.24471,0 3.65362,1.146236 1.4328,1.122356 1.4328,3.558106 z m -2.67455,-4.728222 V 29.900177 H 179.163 q -2.88947,0 -2.88947,1.814873 0,0.931317 0.7164,1.432795 0.71639,0.477598 1.98203,0.477598 1.28951,0 2.24471,-0.716397 0.9552,-0.716397 0.9552,-1.934273 z m -10.28329,-5.468499 q -1.98203,0 -2.98498,1.289515 -1.00296,1.289515 -1.00296,3.462587 v 5.444619 h -2.67455 V 22.998883 h 2.67455 v 2.555151 q 0.64476,-1.193996 1.74323,-1.958153 1.12236,-0.764157 2.36411,-0.788037 l 0.0239,2.69843 q -0.0716,0 -0.14328,0 z m -19.27929,6.853534 q 1.14623,1.146236 2.88947,1.146236 1.74323,0 2.86558,-1.146236 1.14624,-1.170116 1.14624,-3.008869 0,-1.838753 -1.14624,-2.984988 -1.12235,-1.170116 -2.86558,-1.170116 -1.74324,0 -2.88947,1.170116 -1.12236,1.146235 -1.12236,2.984988 0,1.838753 1.12236,3.008869 z m 7.66545,1.647714 q -1.9104,1.886513 -4.77598,1.886513 -2.86559,0 -4.77599,-1.886513 -1.91039,-1.910393 -1.91039,-4.656583 0,-2.746189 1.91039,-4.632702 1.9104,-1.910393 4.77599,-1.910393 2.86558,0 4.77598,1.910393 1.91039,1.886513 1.91039,4.632702 0,2.74619 -1.91039,4.656583 z m -19.8651,-11.199678 q 2.55515,0 4.37002,1.767113 1.81487,1.767114 1.81487,4.704343 0,2.937229 -1.81487,4.775982 -1.79099,1.838753 -4.20286,1.838753 -2.38799,0 -4.29839,-2.101432 v 1.910392 h -2.67455 V 17.984102 h 2.67455 v 7.235613 q 1.57608,-2.411871 4.13123,-2.411871 z m -4.17899,6.566975 q 0,1.814873 1.09848,2.984989 1.09847,1.146236 2.67455,1.146236 1.57607,0 2.74619,-1.146236 1.17011,-1.146236 1.17011,-2.961109 0,-1.838753 -1.14623,-3.032748 -1.14624,-1.217876 -2.74619,-1.217876 -1.59996,0 -2.69843,1.217876 -1.09848,1.193995 -1.09848,3.008868 z m -6.37332,6.328176 h -2.43575 v -1.695473 q -1.57607,1.886513 -4.22674,1.886513 -1.98204,0 -3.29543,-1.122356 -1.28952,-1.122356 -1.28952,-2.984989 0,-1.886513 1.38504,-2.817829 1.38503,-0.931317 3.74914,-0.931317 h 3.46259 v -0.477598 q 0,-2.53127 -2.81783,-2.53127 -1.76711,0 -3.6775,1.289515 l -1.194,-1.671594 q 2.31635,-1.838753 5.25358,-1.838753 2.24471,0 3.65363,1.146236 1.43279,1.122356 1.43279,3.558106 z m -2.67455,-4.728222 v -1.074596 h -3.00887 q -2.88947,0 -2.88947,1.814873 0,0.931317 0.7164,1.432795 0.7164,0.477598 1.98203,0.477598 1.28952,0 2.24471,-0.716397 0.9552,-0.716397 0.9552,-1.934273 z m -11.4728,4.728222 h -2.67455 V 17.984102 h 2.67455 z m -6.52967,0 h -2.67455 V 17.984102 h 2.67455 z M 93.888963,32.359808 q 1.146236,1.146236 2.889469,1.146236 1.743234,0 2.865589,-1.146236 1.146239,-1.170116 1.146239,-3.008869 0,-1.838753 -1.146239,-2.984988 -1.122355,-1.170116 -2.865589,-1.170116 -1.743233,0 -2.889469,1.170116 -1.122356,1.146235 -1.122356,2.984988 0,1.838753 1.122356,3.008869 z m 7.665447,1.647714 q -1.910389,1.886513 -4.775978,1.886513 -2.865589,0 -4.775982,-1.886513 -1.910392,-1.910393 -1.910392,-4.656583 0,-2.746189 1.910392,-4.632702 1.910393,-1.910393 4.775982,-1.910393 2.865589,0 4.775978,1.910393 1.9104,1.886513 1.9104,4.632702 0,2.74619 -1.9104,4.656583 z M 81.717299,33.147845 q 1.456674,0 2.50739,-0.477598 1.050716,-0.501478 2.196952,-1.576074 l 1.814873,1.862633 q -2.65067,2.937229 -6.447575,2.937229 -3.773026,0 -6.280417,-2.435751 -2.48351,-2.435751 -2.48351,-6.161017 0,-3.725266 2.53127,-6.208776 2.555151,-2.483511 6.423696,-2.483511 3.892425,0 6.495335,2.865589 l -1.790993,1.958153 q -1.193995,-1.146236 -2.268591,-1.599954 -1.050716,-0.453718 -2.483511,-0.453718 -2.53127,0 -4.250624,1.647713 -1.719353,1.623834 -1.719353,4.178985 0,2.53127 1.695473,4.250623 1.719354,1.695474 4.059585,1.695474 z"></path></g></svg> 