<?xml version="1.0" encoding="UTF-8"?>
<svg version="1.1" xmlns="http://www.w3.org/2000/svg" xmlns:xlink="http://www.w3.org/1999/xlink" x="0px" y="0px" viewBox="0 0 251 40" style="enable-background:new 0 0 251 40;" xml:space="preserve">
<style type="text/css">
	.st0{filter:url(#Adobe_OpacityMaskFilter);}
	.st1{fill-rule:evenodd;clip-rule:evenodd;fill:#FFFFFF;}
	.st2{mask:url(#mask-2_00000178904058267364560730000012874141515523791500_);fill-rule:evenodd;clip-rule:evenodd;fill:#017DDD;}
	.st3{filter:url(#Adobe_OpacityMaskFilter_00000164486802662175638020000002497903409326566800_);}
	.st4{mask:url(#mask-4_00000068663266385506608570000006468063667298428839_);fill-rule:evenodd;clip-rule:evenodd;fill:#FFFFFF;}
	.st5{filter:url(#Adobe_OpacityMaskFilter_00000156564114659085692450000001987225061916269747_);}
	.st6{mask:url(#mask-2_00000091004772826821505800000007677324092007593901_);fill-rule:evenodd;clip-rule:evenodd;fill:#017DDD;}
	.st7{filter:url(#Adobe_OpacityMaskFilter_00000075121651226212663040000001791996381127438015_);}
	.st8{mask:url(#mask-4_00000137825823634160193840000013786430402896735662_);fill-rule:evenodd;clip-rule:evenodd;fill:#FFFFFF;}
	.st9{filter:url(#Adobe_OpacityMaskFilter_00000056385957799154394230000013651721614905536936_);}
	.st10{mask:url(#mask-2_00000035505084455411647660000004486236447135664046_);fill:#FFFFFF;}
</style>
<g id="Layer_1">
	<g id="Documentation">
		<g id="Documentation-Landing" transform="translate(-130.000000, -10.000000)">
			<g id="Group" transform="translate(130.000000, 10.000000)">
				<g id="Group-37" transform="translate(0.000019, 0.396040)">
					<g id="Group-3">
						<g id="Clip-2">
						</g>
						<defs>
							<filter id="Adobe_OpacityMaskFilter" filterUnits="userSpaceOnUse" x="0.4" y="0.4" width="39.1" height="38.8">
								<feColorMatrix type="matrix" values="1 0 0 0 0  0 1 0 0 0  0 0 1 0 0  0 0 0 1 0"/>
							</filter>
						</defs>
						
							<mask maskUnits="userSpaceOnUse" x="0.4" y="0.4" width="39.1" height="38.8" id="mask-2_00000178904058267364560730000012874141515523791500_">
							<g class="st0">
								<polygon id="path-1_00000075885003368661568180000013561975608050264469_" class="st1" points="0,0 39.7,0 39.7,39.4           0,39.4         "/>
							</g>
						</mask>
						<path id="Rectangle" class="st2" d="M3.6,0.4h32.7c1.8,0,3.2,1.4,3.2,3.2V36c0,1.8-1.4,3.2-3.2,3.2H3.6        c-1.8,0-3.2-1.4-3.2-3.2V3.6C0.4,1.8,1.8,0.4,3.6,0.4z"/>
					</g>
					<path id="Fill-4" class="st1" d="M24.1,32.7c-1.1,0.6-2.6,1-3.4,1.1C17.3,34,14,33.2,11.6,31c-2.3-2.4-2.8-5.5-0.8-8.1       c1.9-2.4,5-3.5,8.2-3.7c1.8-0.1,7.9,0.5,6.1,3.5c-1.4,2.4-5.4,0-7.7,0.8c-2.5,0.9-3.3,4.2-0.8,5.6c1.8,1,4.3,0.9,5.9-0.2       c2.4-1.6,6.8-8.8,9.7-5.4C33,24.2,26.3,31.5,24.1,32.7 M7,14.1c-0.3-1.2,0.1-2.5,1.3-2.4c1,0.1,1.4,1.6,1.6,2.6       c0.2,0.9,2.4,7,1.3,6.8C10.1,20.9,7.3,15.3,7,14.1 M12.8,7.1c1.6-1.3,2.4,0.9,2.6,2.1c0.2,1.1,2.3,9.5,0.1,9.4       c-1.6-0.1-2.8-7.2-3-8.3C12.3,9.3,12,7.7,12.8,7.1 M21,4.6c1.4,0.3,1,3.1,1,4.1c0,1.1,0.2,9.4-1.5,9.2       c-1.8-0.2-1.5-8.4-1.6-9.8C18.9,6.7,19.1,4.3,21,4.6 M25.2,10.5c0.1-0.8,0.3-2.4,1.2-2.7c1.9-0.8,1.9,1.6,1.7,2.7       c-0.2,1.1-1.6,9.4-3.5,8.7C23.1,18.5,24.9,11.6,25.2,10.5"/>
					<path id="Fill-6" class="st1" d="M49.9,15.1c0.8-1.3,1.8-2.4,3.1-3.1c1.3-0.7,2.8-1.1,4.5-1.1c1.9,0,3.6,0.5,5.1,1.5       c1.5,1,2.5,2.3,3,4.1h-4c-0.4-0.8-1-1.4-1.7-1.8c-0.7-0.4-1.5-0.6-2.5-0.6c-1,0-1.9,0.2-2.7,0.7c-0.8,0.5-1.4,1.1-1.8,2       c-0.4,0.9-0.7,1.8-0.7,3c0,1.1,0.2,2.1,0.7,3c0.4,0.9,1,1.5,1.8,2c0.8,0.5,1.7,0.7,2.7,0.7c0.9,0,1.8-0.2,2.5-0.6       c0.7-0.4,1.3-1,1.7-1.9h4c-0.6,1.8-1.6,3.1-3,4.1c-1.4,1-3.1,1.5-5.1,1.5c-1.7,0-3.1-0.4-4.5-1.1c-1.3-0.7-2.4-1.8-3.1-3.1       c-0.8-1.3-1.2-2.8-1.2-4.5C48.7,17.9,49.1,16.4,49.9,15.1"/>
					<path id="Fill-8" class="st1" d="M75.5,25c0.6-0.3,1-0.8,1.3-1.4c0.3-0.6,0.5-1.3,0.5-2.2c0-1.3-0.3-2.3-1-3       c-0.7-0.7-1.5-1-2.5-1c-1,0-1.8,0.3-2.5,1c-0.7,0.7-1,1.7-1,3c0,1.3,0.3,2.3,1,3c0.7,0.7,1.5,1,2.5,1       C74.3,25.4,74.9,25.3,75.5,25 M70.1,27.5c-1.1-0.6-1.9-1.4-2.5-2.5c-0.6-1.1-0.9-2.3-0.9-3.7c0-1.4,0.3-2.6,0.9-3.7       c0.6-1.1,1.5-1.9,2.5-2.5c1.1-0.6,2.3-0.9,3.6-0.9s2.5,0.3,3.6,0.9c1.1,0.6,1.9,1.4,2.5,2.5c0.6,1.1,0.9,2.3,0.9,3.7       c0,1.4-0.3,2.6-1,3.7c-0.6,1.1-1.5,1.9-2.6,2.5c-1.1,0.6-2.3,0.9-3.6,0.9C72.4,28.4,71.2,28.1,70.1,27.5"/>
					<path id="Fill-10" class="st1" d="M94,15.9c1,1,1.5,2.5,1.5,4.3v8H92v-7.5c0-1.1-0.3-1.9-0.8-2.5c-0.5-0.6-1.3-0.9-2.2-0.9       c-1,0-1.7,0.3-2.3,0.9c-0.6,0.6-0.8,1.4-0.8,2.5v7.5h-3.5V14.6h3.5v1.7c0.5-0.6,1.1-1.1,1.8-1.4c0.7-0.3,1.5-0.5,2.4-0.5       C91.7,14.4,93,14.9,94,15.9"/>
					<path id="Fill-12" class="st1" d="M97.8,17.7c0.6-1.1,1.4-1.9,2.4-2.5c1-0.6,2.2-0.9,3.5-0.9c1.7,0,3.1,0.4,4.2,1.3       c1.1,0.8,1.9,2,2.2,3.5h-3.7c-0.2-0.6-0.5-1.1-1-1.4c-0.5-0.3-1.1-0.5-1.7-0.5c-1,0-1.8,0.4-2.4,1.1c-0.6,0.7-0.9,1.7-0.9,3       c0,1.3,0.3,2.3,0.9,3c0.6,0.7,1.4,1.1,2.4,1.1c1.4,0,2.3-0.6,2.7-1.9h3.7c-0.4,1.5-1.1,2.6-2.3,3.5c-1.1,0.9-2.5,1.3-4.2,1.3       c-1.3,0-2.5-0.3-3.5-0.9c-1-0.6-1.8-1.4-2.4-2.5c-0.6-1.1-0.9-2.3-0.9-3.7S97.2,18.7,97.8,17.7"/>
					<path id="Fill-14" class="st1" d="M116.9,15c0.7-0.4,1.5-0.6,2.5-0.6V18h-0.9c-1.1,0-1.9,0.3-2.5,0.8c-0.6,0.5-0.8,1.4-0.8,2.7       v6.8h-3.5V14.6h3.5v2.1C115.6,16,116.2,15.4,116.9,15"/>
					<path id="Fill-16" class="st1" d="M129.9,20.1c0-0.9-0.3-1.6-1-2.1c-0.6-0.5-1.4-0.8-2.3-0.8c-0.9,0-1.6,0.3-2.2,0.8       c-0.6,0.5-0.9,1.2-1.1,2.1H129.9z M133.4,22.4h-10c0.1,1,0.4,1.8,1,2.3c0.6,0.6,1.4,0.8,2.3,0.8c1.3,0,2.2-0.5,2.7-1.6h3.7       c-0.4,1.3-1.2,2.4-2.3,3.2c-1.1,0.8-2.5,1.3-4.1,1.3c-1.3,0-2.5-0.3-3.6-0.9c-1-0.6-1.9-1.4-2.5-2.5c-0.6-1.1-0.9-2.3-0.9-3.7       c0-1.4,0.3-2.6,0.9-3.7c0.6-1.1,1.4-1.9,2.4-2.5c1-0.6,2.2-0.9,3.6-0.9c1.3,0,2.5,0.3,3.5,0.8s1.8,1.3,2.4,2.4       c0.6,1,0.9,2.2,0.9,3.5C133.5,21.6,133.4,22,133.4,22.4L133.4,22.4z"/>
					<path id="Fill-18" class="st1" d="M139.1,17.4V24c0,0.5,0.1,0.8,0.3,1c0.2,0.2,0.6,0.3,1.1,0.3h1.6v2.9h-2.2       c-2.9,0-4.4-1.4-4.4-4.2v-6.6h-1.6v-2.8h1.6v-3.4h3.5v3.4h3.1v2.8H139.1z"/>
					<path id="Fill-20" class="st1" d="M152.8,20.1c0-0.9-0.3-1.6-1-2.1c-0.6-0.5-1.4-0.8-2.3-0.8c-0.9,0-1.6,0.3-2.2,0.8       c-0.6,0.5-0.9,1.2-1.1,2.1H152.8z M156.3,22.4h-10c0.1,1,0.4,1.8,1,2.3c0.6,0.6,1.4,0.8,2.3,0.8c1.3,0,2.2-0.5,2.7-1.6h3.7       c-0.4,1.3-1.2,2.4-2.3,3.2c-1.1,0.8-2.5,1.3-4.1,1.3c-1.3,0-2.5-0.3-3.6-0.9c-1-0.6-1.9-1.4-2.5-2.5c-0.6-1.1-0.9-2.3-0.9-3.7       c0-1.4,0.3-2.6,0.9-3.7c0.6-1.1,1.4-1.9,2.4-2.5c1-0.6,2.2-0.9,3.6-0.9c1.3,0,2.5,0.3,3.5,0.8c1,0.6,1.8,1.3,2.4,2.4       c0.6,1,0.9,2.2,0.9,3.5C156.4,21.6,156.4,22,156.3,22.4L156.3,22.4z"/>
					<path id="Fill-22" class="st1" d="M158.2,15.1c0.8-1.3,1.8-2.4,3.1-3.1c1.3-0.7,2.8-1.1,4.5-1.1c1.9,0,3.6,0.5,5.1,1.5       c1.5,1,2.5,2.3,3,4.1h-4c-0.4-0.8-1-1.4-1.7-1.8c-0.7-0.4-1.5-0.6-2.5-0.6c-1,0-1.9,0.2-2.7,0.7c-0.8,0.5-1.4,1.1-1.8,2       c-0.4,0.9-0.7,1.8-0.7,3c0,1.1,0.2,2.1,0.7,3c0.4,0.9,1,1.5,1.8,2c0.8,0.5,1.7,0.7,2.7,0.7c0.9,0,1.8-0.2,2.5-0.6       c0.7-0.4,1.3-1,1.7-1.9h4c-0.6,1.8-1.6,3.1-3,4.1c-1.4,1-3.1,1.5-5.1,1.5c-1.7,0-3.1-0.4-4.5-1.1c-1.3-0.7-2.4-1.8-3.1-3.1       c-0.8-1.3-1.2-2.8-1.2-4.5C157.1,17.9,157.5,16.4,158.2,15.1"/>
					<polygon id="Fill-24" class="st1" points="194.8,11 194.8,28.2 191.3,28.2 191.3,17 186.7,28.2 184.1,28.2 179.4,17        179.4,28.2 175.9,28.2 175.9,11 179.9,11 185.4,23.8 190.9,11      "/>
					<path id="Fill-26" class="st1" d="M199.9,27.7c-1-0.4-1.7-1-2.3-1.8c-0.6-0.8-0.9-1.7-0.9-2.7h3.7c0,0.7,0.3,1.3,0.8,1.7       c0.5,0.4,1.1,0.6,1.9,0.6c0.8,0,1.4-0.2,1.9-0.6c0.5-0.4,0.7-0.9,0.7-1.5c0-0.5-0.2-0.9-0.5-1.3c-0.3-0.3-0.7-0.6-1.2-0.8       c-0.5-0.2-1.1-0.4-1.9-0.6c-1.1-0.3-2-0.7-2.7-1c-0.7-0.3-1.3-0.8-1.8-1.4c-0.5-0.6-0.8-1.5-0.8-2.6c0-1,0.3-1.9,0.8-2.7       c0.5-0.8,1.2-1.3,2.2-1.7c0.9-0.4,2-0.6,3.2-0.6c1.8,0,3.2,0.4,4.3,1.3c1.1,0.9,1.7,2.1,1.8,3.6h-3.8c0-0.6-0.3-1.1-0.8-1.5       c-0.5-0.4-1.1-0.6-1.9-0.6c-0.7,0-1.2,0.2-1.6,0.5c-0.4,0.3-0.6,0.8-0.6,1.5c0,0.5,0.2,0.8,0.5,1.1c0.3,0.3,0.7,0.5,1.1,0.7       c0.5,0.2,1.1,0.4,1.9,0.7c1.1,0.3,2,0.7,2.7,1c0.7,0.3,1.3,0.8,1.8,1.5c0.5,0.7,0.8,1.5,0.8,2.6c0,0.9-0.2,1.8-0.7,2.6       c-0.5,0.8-1.2,1.4-2.1,1.9c-0.9,0.5-2,0.7-3.3,0.7C202,28.4,200.9,28.2,199.9,27.7"/>
					<path id="Fill-28" class="st1" d="M211,27.9c-0.2-0.2-0.4-0.5-0.4-0.9c0-0.4,0.1-0.7,0.4-0.9c0.2-0.2,0.5-0.4,0.9-0.4       c0.3,0,0.6,0.1,0.9,0.4c0.2,0.2,0.4,0.5,0.4,0.9c0,0.4-0.1,0.7-0.4,0.9c-0.2,0.2-0.5,0.4-0.9,0.4       C211.5,28.3,211.2,28.2,211,27.9"/>
					<path id="Fill-30" class="st1" d="M223.5,26.3c0.8-0.4,1.4-1,1.8-1.8c0.5-0.8,0.7-1.8,0.7-3s-0.2-2.2-0.7-3       c-0.5-0.8-1.1-1.4-1.8-1.8c-0.8-0.4-1.6-0.6-2.5-0.6c-0.9,0-1.7,0.2-2.5,0.6c-0.8,0.4-1.4,1-1.8,1.8s-0.7,1.8-0.7,3       s0.2,2.2,0.7,3s1.1,1.4,1.8,1.8c0.8,0.4,1.6,0.6,2.5,0.6C221.9,26.9,222.7,26.7,223.5,26.3 M217.6,27.5c-1-0.6-1.8-1.4-2.4-2.4       c-0.6-1-0.9-2.3-0.9-3.6c0-1.4,0.3-2.6,0.9-3.6c0.6-1,1.4-1.8,2.4-2.4c1-0.6,2.2-0.8,3.4-0.8c1.3,0,2.4,0.3,3.5,0.8       c1,0.6,1.8,1.4,2.4,2.4c0.6,1,0.9,2.3,0.9,3.6c0,1.4-0.3,2.6-0.9,3.6c-0.6,1-1.4,1.9-2.5,2.4s-2.2,0.8-3.5,0.8       C219.7,28.4,218.6,28.1,217.6,27.5"/>
					<path id="Fill-32" class="st1" d="M233.5,15.2c0.8-0.5,1.7-0.7,2.9-0.7v1.8h-0.5c-1.3,0-2.3,0.3-3,1c-0.8,0.7-1.1,1.8-1.1,3.4       v7.5H230V14.8h1.7v2.4C232.1,16.3,232.7,15.7,233.5,15.2"/>
					<g id="Group-36" transform="translate(237.183155, 14.582891)">
						<g id="Clip-35">
						</g>
						<defs>
							
								<filter id="Adobe_OpacityMaskFilter_00000088099266762621034130000008191721136851715519_" filterUnits="userSpaceOnUse" x="0" y="0" width="13.5" height="20.2">
								<feColorMatrix type="matrix" values="1 0 0 0 0  0 1 0 0 0  0 0 1 0 0  0 0 0 1 0"/>
							</filter>
						</defs>
						
							<mask maskUnits="userSpaceOnUse" x="0" y="0" width="13.5" height="20.2" id="mask-4_00000068663266385506608570000006468063667298428839_">
							<g style="filter:url(#Adobe_OpacityMaskFilter_00000088099266762621034130000008191721136851715519_);">
								<polygon id="path-3_00000141447510189311057960000008274230006308318113_" class="st1" points="0,0 13.5,0 13.5,20.2           0,20.2         "/>
							</g>
						</mask>
						<path id="Fill-34" class="st4" d="M11.1,4.1c-0.4-0.8-1.1-1.4-1.8-1.9S7.7,1.5,6.8,1.5c-1,0-1.8,0.2-2.6,0.6        C3.5,2.6,2.9,3.2,2.4,4C2,4.8,1.8,5.8,1.8,6.9C1.8,8,2,8.9,2.4,9.8c0.4,0.8,1,1.5,1.8,1.9c0.8,0.4,1.6,0.7,2.6,0.7        c0.9,0,1.8-0.2,2.5-0.7s1.4-1.1,1.8-1.9c0.4-0.8,0.7-1.8,0.7-2.8S11.6,4.9,11.1,4.1 M9.8,0.9c0.9,0.6,1.6,1.3,2,2.2V0.2h1.7        v13.8c0,1.2-0.3,2.3-0.8,3.3c-0.5,0.9-1.3,1.7-2.2,2.2c-1,0.5-2,0.8-3.3,0.8c-1.7,0-3.2-0.4-4.3-1.2C1.8,18.1,1,17,0.8,15.6        h1.7c0.3,0.9,0.9,1.7,1.7,2.2C5,18.4,6,18.7,7.2,18.7c0.9,0,1.7-0.2,2.4-0.6s1.2-0.9,1.6-1.6c0.4-0.7,0.6-1.6,0.6-2.6v-3.3        c-0.4,0.9-1.1,1.7-2,2.3c-0.9,0.6-2,0.9-3.3,0.9c-1.2,0-2.3-0.3-3.3-0.9c-1-0.6-1.7-1.4-2.3-2.4C0.3,9.5,0,8.3,0,6.9        s0.3-2.6,0.8-3.6c0.6-1,1.3-1.8,2.3-2.4C4.1,0.3,5.2,0,6.5,0C7.7,0,8.8,0.3,9.8,0.9"/>
					</g>
				</g>
			</g>
		</g>
	</g>
</g>
<g id="Layer_2">
	<g id="Documentation_00000145027055905022036300000002518760764533813147_">
		
			<g id="Documentation-Landing_00000043426382822562182730000003128513930319125415_" transform="translate(-130.000000, -10.000000)">
			<g id="Group_2_" transform="translate(130.000000, 10.000000)">
				<g id="Group-37_2_" transform="translate(0.000019, 0.396040)">
					<g id="Group-3_4_">
						<g id="Clip-2_4_">
						</g>
						<defs>
							
								<filter id="Adobe_OpacityMaskFilter_00000161616315337378326040000015445609305330250937_" filterUnits="userSpaceOnUse" x="0.3" y="0.4" width="39.1" height="38.8">
								<feColorMatrix type="matrix" values="1 0 0 0 0  0 1 0 0 0  0 0 1 0 0  0 0 0 1 0"/>
							</filter>
						</defs>
						
							<mask maskUnits="userSpaceOnUse" x="0.3" y="0.4" width="39.1" height="38.8" id="mask-2_00000091004772826821505800000007677324092007593901_">
							<g style="filter:url(#Adobe_OpacityMaskFilter_00000161616315337378326040000015445609305330250937_);">
								<polygon id="path-1_00000008841506704006776920000005467029606229746340_" class="st1" points="-0.1,0 39.7,0 39.7,39.4           -0.1,39.4         "/>
							</g>
						</mask>
						<path id="Rectangle_4_" class="st6" d="M3.5,0.4h32.7c1.8,0,3.2,1.4,3.2,3.2V36c0,1.8-1.4,3.2-3.2,3.2H3.5        c-1.8,0-3.2-1.4-3.2-3.2V3.6C0.3,1.8,1.8,0.4,3.5,0.4z"/>
					</g>
					<path id="Fill-4_4_" class="st1" d="M24,32.7c-1.1,0.6-2.6,1-3.4,1.1c-3.3,0.3-6.7-0.5-9.1-2.7c-2.3-2.4-2.8-5.5-0.8-8.1       c1.9-2.4,5-3.5,8.2-3.7c1.8-0.1,7.9,0.5,6.1,3.5c-1.4,2.4-5.4,0-7.7,0.8c-2.5,0.9-3.3,4.2-0.8,5.6c1.8,1,4.3,0.9,5.9-0.2       c2.4-1.6,6.8-8.8,9.7-5.4C32.9,24.2,26.2,31.5,24,32.7 M7,14.1c-0.3-1.2,0.1-2.5,1.3-2.4c1,0.1,1.4,1.6,1.6,2.6       c0.2,0.9,2.4,7,1.3,6.8C10.1,20.9,7.3,15.3,7,14.1 M12.7,7.1c1.6-1.3,2.4,0.9,2.6,2.1c0.2,1.1,2.3,9.5,0.1,9.4       c-1.6-0.1-2.8-7.2-3-8.3C12.3,9.3,11.9,7.7,12.7,7.1 M20.9,4.6c1.4,0.3,1,3.1,1,4.1c0,1.1,0.2,9.4-1.5,9.2       c-1.8-0.2-1.5-8.4-1.6-9.8C18.8,6.7,19,4.3,20.9,4.6 M25.1,10.5c0.1-0.8,0.3-2.4,1.2-2.7c1.9-0.8,1.9,1.6,1.7,2.7       c-0.2,1.1-1.6,9.4-3.5,8.7C23,18.5,24.9,11.6,25.1,10.5"/>
					<path id="Fill-6_4_" class="st1" d="M49.8,15.1c0.8-1.3,1.8-2.4,3.1-3.1c1.3-0.7,2.8-1.1,4.5-1.1c1.9,0,3.6,0.5,5.1,1.5       c1.5,1,2.5,2.3,3,4.1h-4c-0.4-0.8-1-1.4-1.7-1.8c-0.7-0.4-1.5-0.6-2.5-0.6c-1,0-1.9,0.2-2.7,0.7c-0.8,0.5-1.4,1.1-1.8,2       c-0.4,0.9-0.7,1.8-0.7,3c0,1.1,0.2,2.1,0.7,3c0.4,0.9,1,1.5,1.8,2c0.8,0.5,1.7,0.7,2.7,0.7c0.9,0,1.8-0.2,2.5-0.6       c0.7-0.4,1.3-1,1.7-1.9h4c-0.6,1.8-1.6,3.1-3,4.1c-1.4,1-3.1,1.5-5.1,1.5c-1.7,0-3.1-0.4-4.5-1.1c-1.3-0.7-2.4-1.8-3.1-3.1       c-0.8-1.3-1.2-2.8-1.2-4.5C48.7,17.9,49.1,16.4,49.8,15.1"/>
					<path id="Fill-8_4_" class="st1" d="M75.4,25c0.6-0.3,1-0.8,1.3-1.4c0.3-0.6,0.5-1.3,0.5-2.2c0-1.3-0.3-2.3-1-3       c-0.7-0.7-1.5-1-2.5-1c-1,0-1.8,0.3-2.5,1c-0.7,0.7-1,1.7-1,3c0,1.3,0.3,2.3,1,3c0.7,0.7,1.5,1,2.5,1       C74.3,25.4,74.9,25.3,75.4,25 M70.1,27.5c-1.1-0.6-1.9-1.4-2.5-2.5c-0.6-1.1-0.9-2.3-0.9-3.7c0-1.4,0.3-2.6,0.9-3.7       c0.6-1.1,1.5-1.9,2.5-2.5c1.1-0.6,2.3-0.9,3.6-0.9s2.5,0.3,3.6,0.9c1.1,0.6,1.9,1.4,2.5,2.5c0.6,1.1,0.9,2.3,0.9,3.7       c0,1.4-0.3,2.6-1,3.7c-0.6,1.1-1.5,1.9-2.6,2.5c-1.1,0.6-2.3,0.9-3.6,0.9C72.3,28.4,71.1,28.1,70.1,27.5"/>
					<path id="Fill-10_4_" class="st1" d="M93.9,15.9c1,1,1.5,2.5,1.5,4.3v8H92v-7.5c0-1.1-0.3-1.9-0.8-2.5       c-0.5-0.6-1.3-0.9-2.2-0.9c-1,0-1.7,0.3-2.3,0.9c-0.6,0.6-0.8,1.4-0.8,2.5v7.5h-3.5V14.6h3.5v1.7c0.5-0.6,1.1-1.1,1.8-1.4       c0.7-0.3,1.5-0.5,2.4-0.5C91.6,14.4,92.9,14.9,93.9,15.9"/>
					<path id="Fill-12_4_" class="st1" d="M97.7,17.7c0.6-1.1,1.4-1.9,2.4-2.5c1-0.6,2.2-0.9,3.5-0.9c1.7,0,3.1,0.4,4.2,1.3       c1.1,0.8,1.9,2,2.2,3.5h-3.7c-0.2-0.6-0.5-1.1-1-1.4c-0.5-0.3-1.1-0.5-1.7-0.5c-1,0-1.8,0.4-2.4,1.1c-0.6,0.7-0.9,1.7-0.9,3       c0,1.3,0.3,2.3,0.9,3c0.6,0.7,1.4,1.1,2.4,1.1c1.4,0,2.3-0.6,2.7-1.9h3.7c-0.4,1.5-1.1,2.6-2.3,3.5c-1.1,0.9-2.5,1.3-4.2,1.3       c-1.3,0-2.5-0.3-3.5-0.9c-1-0.6-1.8-1.4-2.4-2.5c-0.6-1.1-0.9-2.3-0.9-3.7S97.1,18.7,97.7,17.7"/>
					<path id="Fill-14_4_" class="st1" d="M116.9,15c0.7-0.4,1.5-0.6,2.5-0.6V18h-0.9c-1.1,0-1.9,0.3-2.5,0.8       c-0.6,0.5-0.8,1.4-0.8,2.7v6.8h-3.5V14.6h3.5v2.1C115.6,16,116.1,15.4,116.9,15"/>
					<path id="Fill-16_4_" class="st1" d="M129.8,20.1c0-0.9-0.3-1.6-1-2.1c-0.6-0.5-1.4-0.8-2.3-0.8c-0.9,0-1.6,0.3-2.2,0.8       c-0.6,0.5-0.9,1.2-1.1,2.1H129.8z M133.3,22.4h-10c0.1,1,0.4,1.8,1,2.3c0.6,0.6,1.4,0.8,2.3,0.8c1.3,0,2.2-0.5,2.7-1.6h3.7       c-0.4,1.3-1.2,2.4-2.3,3.2c-1.1,0.8-2.5,1.3-4.1,1.3c-1.3,0-2.5-0.3-3.6-0.9c-1-0.6-1.9-1.4-2.5-2.5c-0.6-1.1-0.9-2.3-0.9-3.7       c0-1.4,0.3-2.6,0.9-3.7c0.6-1.1,1.4-1.9,2.4-2.5c1-0.6,2.2-0.9,3.6-0.9c1.3,0,2.5,0.3,3.5,0.8s1.8,1.3,2.4,2.4       c0.6,1,0.9,2.2,0.9,3.5C133.4,21.6,133.4,22,133.3,22.4L133.3,22.4z"/>
					<path id="Fill-18_4_" class="st1" d="M139,17.4V24c0,0.5,0.1,0.8,0.3,1c0.2,0.2,0.6,0.3,1.1,0.3h1.6v2.9h-2.2       c-2.9,0-4.4-1.4-4.4-4.2v-6.6h-1.6v-2.8h1.6v-3.4h3.5v3.4h3.1v2.8H139z"/>
					<path id="Fill-20_4_" class="st1" d="M152.7,20.1c0-0.9-0.3-1.6-1-2.1c-0.6-0.5-1.4-0.8-2.3-0.8c-0.9,0-1.6,0.3-2.2,0.8       c-0.6,0.5-0.9,1.2-1.1,2.1H152.7z M156.2,22.4h-10c0.1,1,0.4,1.8,1,2.3c0.6,0.6,1.4,0.8,2.3,0.8c1.3,0,2.2-0.5,2.7-1.6h3.7       c-0.4,1.3-1.2,2.4-2.3,3.2c-1.1,0.8-2.5,1.3-4.1,1.3c-1.3,0-2.5-0.3-3.6-0.9c-1-0.6-1.9-1.4-2.5-2.5c-0.6-1.1-0.9-2.3-0.9-3.7       c0-1.4,0.3-2.6,0.9-3.7c0.6-1.1,1.4-1.9,2.4-2.5c1-0.6,2.2-0.9,3.6-0.9c1.3,0,2.5,0.3,3.5,0.8c1,0.6,1.8,1.3,2.4,2.4       c0.6,1,0.9,2.2,0.9,3.5C156.3,21.6,156.3,22,156.2,22.4L156.2,22.4z"/>
					<path id="Fill-22_4_" class="st1" d="M158.2,15.1c0.8-1.3,1.8-2.4,3.1-3.1c1.3-0.7,2.8-1.1,4.5-1.1c1.9,0,3.6,0.5,5.1,1.5       c1.5,1,2.5,2.3,3,4.1h-4c-0.4-0.8-1-1.4-1.7-1.8c-0.7-0.4-1.5-0.6-2.5-0.6c-1,0-1.9,0.2-2.7,0.7c-0.8,0.5-1.4,1.1-1.8,2       c-0.4,0.9-0.7,1.8-0.7,3c0,1.1,0.2,2.1,0.7,3c0.4,0.9,1,1.5,1.8,2c0.8,0.5,1.7,0.7,2.7,0.7c0.9,0,1.8-0.2,2.5-0.6       c0.7-0.4,1.3-1,1.7-1.9h4c-0.6,1.8-1.6,3.1-3,4.1c-1.4,1-3.1,1.5-5.1,1.5c-1.7,0-3.1-0.4-4.5-1.1c-1.3-0.7-2.4-1.8-3.1-3.1       c-0.8-1.3-1.2-2.8-1.2-4.5C157,17.9,157.4,16.4,158.2,15.1"/>
					<polygon id="Fill-24_4_" class="st1" points="194.7,11 194.7,28.2 191.3,28.2 191.3,17 186.6,28.2 184,28.2 179.3,17        179.3,28.2 175.9,28.2 175.9,11 179.8,11 185.3,23.8 190.8,11      "/>
					<path id="Fill-26_4_" class="st1" d="M199.9,27.7c-1-0.4-1.7-1-2.3-1.8c-0.6-0.8-0.9-1.7-0.9-2.7h3.7c0,0.7,0.3,1.3,0.8,1.7       c0.5,0.4,1.1,0.6,1.9,0.6c0.8,0,1.4-0.2,1.9-0.6c0.5-0.4,0.7-0.9,0.7-1.5c0-0.5-0.2-0.9-0.5-1.3c-0.3-0.3-0.7-0.6-1.2-0.8       c-0.5-0.2-1.1-0.4-1.9-0.6c-1.1-0.3-2-0.7-2.7-1c-0.7-0.3-1.3-0.8-1.8-1.4c-0.5-0.6-0.8-1.5-0.8-2.6c0-1,0.3-1.9,0.8-2.7       c0.5-0.8,1.2-1.3,2.2-1.7c0.9-0.4,2-0.6,3.2-0.6c1.8,0,3.2,0.4,4.3,1.3c1.1,0.9,1.7,2.1,1.8,3.6h-3.8c0-0.6-0.3-1.1-0.8-1.5       c-0.5-0.4-1.1-0.6-1.9-0.6c-0.7,0-1.2,0.2-1.6,0.5c-0.4,0.3-0.6,0.8-0.6,1.5c0,0.5,0.2,0.8,0.5,1.1c0.3,0.3,0.7,0.5,1.1,0.7       c0.5,0.2,1.1,0.4,1.9,0.7c1.1,0.3,2,0.7,2.7,1c0.7,0.3,1.3,0.8,1.8,1.5c0.5,0.7,0.8,1.5,0.8,2.6c0,0.9-0.2,1.8-0.7,2.6       c-0.5,0.8-1.2,1.4-2.1,1.9c-0.9,0.5-2,0.7-3.3,0.7C201.9,28.4,200.8,28.2,199.9,27.7"/>
					<path id="Fill-28_3_" class="st1" d="M210.9,27.9c-0.2-0.2-0.4-0.5-0.4-0.9c0-0.4,0.1-0.7,0.4-0.9c0.2-0.2,0.5-0.4,0.9-0.4       c0.3,0,0.6,0.1,0.9,0.4c0.2,0.2,0.4,0.5,0.4,0.9c0,0.4-0.1,0.7-0.4,0.9c-0.2,0.2-0.5,0.4-0.9,0.4       C211.4,28.3,211.1,28.2,210.9,27.9"/>
					<path id="Fill-30_3_" class="st1" d="M223.4,26.3c0.8-0.4,1.4-1,1.8-1.8c0.5-0.8,0.7-1.8,0.7-3s-0.2-2.2-0.7-3       c-0.5-0.8-1.1-1.4-1.8-1.8c-0.8-0.4-1.6-0.6-2.5-0.6c-0.9,0-1.7,0.2-2.5,0.6c-0.8,0.4-1.4,1-1.8,1.8s-0.7,1.8-0.7,3       s0.2,2.2,0.7,3s1.1,1.4,1.8,1.8c0.8,0.4,1.6,0.6,2.5,0.6C221.8,26.9,222.7,26.7,223.4,26.3 M217.5,27.5c-1-0.6-1.8-1.4-2.4-2.4       c-0.6-1-0.9-2.3-0.9-3.6c0-1.4,0.3-2.6,0.9-3.6c0.6-1,1.4-1.8,2.4-2.4c1-0.6,2.2-0.8,3.4-0.8c1.3,0,2.4,0.3,3.5,0.8       c1,0.6,1.8,1.4,2.4,2.4c0.6,1,0.9,2.3,0.9,3.6c0,1.4-0.3,2.6-0.9,3.6c-0.6,1-1.4,1.9-2.5,2.4s-2.2,0.8-3.5,0.8       C219.7,28.4,218.5,28.1,217.5,27.5"/>
					<path id="Fill-32_3_" class="st1" d="M233.4,15.2c0.8-0.5,1.7-0.7,2.9-0.7v1.8h-0.5c-1.3,0-2.3,0.3-3,1       c-0.8,0.7-1.1,1.8-1.1,3.4v7.5h-1.7V14.8h1.7v2.4C232.1,16.3,232.6,15.7,233.4,15.2"/>
					<g id="Group-36_1_" transform="translate(237.183155, 14.582891)">
						<g id="Clip-35_1_">
						</g>
						<defs>
							
								<filter id="Adobe_OpacityMaskFilter_00000089569761925800630200000004873383266109890461_" filterUnits="userSpaceOnUse" x="-0.1" y="0" width="13.5" height="20.2">
								<feColorMatrix type="matrix" values="1 0 0 0 0  0 1 0 0 0  0 0 1 0 0  0 0 0 1 0"/>
							</filter>
						</defs>
						
							<mask maskUnits="userSpaceOnUse" x="-0.1" y="0" width="13.5" height="20.2" id="mask-4_00000137825823634160193840000013786430402896735662_">
							<g style="filter:url(#Adobe_OpacityMaskFilter_00000089569761925800630200000004873383266109890461_);">
								<polygon id="path-3_00000026157461592790534160000013625715322393364611_" class="st1" points="-0.1,0 13.5,0 13.5,20.2           -0.1,20.2         "/>
							</g>
						</mask>
						<path id="Fill-34_3_" class="st8" d="M11.1,4.1C10.6,3.2,10,2.6,9.3,2.2S7.6,1.5,6.7,1.5c-1,0-1.8,0.2-2.6,0.6        C3.4,2.6,2.8,3.2,2.4,4C1.9,4.8,1.7,5.8,1.7,6.9c0,1.1,0.2,2.1,0.7,2.9c0.4,0.8,1,1.5,1.8,1.9c0.8,0.4,1.6,0.7,2.6,0.7        c0.9,0,1.8-0.2,2.5-0.7s1.4-1.1,1.8-1.9c0.4-0.8,0.7-1.8,0.7-2.8S11.5,4.9,11.1,4.1 M9.7,0.9c0.9,0.6,1.6,1.3,2,2.2V0.2h1.7        v13.8c0,1.2-0.3,2.3-0.8,3.3c-0.5,0.9-1.3,1.7-2.2,2.2c-1,0.5-2,0.8-3.3,0.8c-1.7,0-3.2-0.4-4.3-1.2C1.7,18.1,1,17,0.7,15.6        h1.7c0.3,0.9,0.9,1.7,1.7,2.2c0.8,0.6,1.9,0.8,3.1,0.8c0.9,0,1.7-0.2,2.4-0.6s1.2-0.9,1.6-1.6c0.4-0.7,0.6-1.6,0.6-2.6v-3.3        c-0.4,0.9-1.1,1.7-2,2.3c-0.9,0.6-2,0.9-3.3,0.9c-1.2,0-2.3-0.3-3.3-0.9c-1-0.6-1.7-1.4-2.3-2.4c-0.6-1-0.8-2.3-0.8-3.6        s0.3-2.6,0.8-3.6c0.6-1,1.3-1.8,2.3-2.4C4.1,0.3,5.2,0,6.4,0C7.7,0,8.8,0.3,9.7,0.9"/>
					</g>
				</g>
			</g>
		</g>
	</g>
	<defs>
		
			<filter id="Adobe_OpacityMaskFilter_00000098928664387808577150000009626260556637433483_" filterUnits="userSpaceOnUse" x="208.7" y="3.6" width="6.3" height="6.3">
			<feColorMatrix type="matrix" values="1 0 0 0 0  0 1 0 0 0  0 0 1 0 0  0 0 0 1 0"/>
		</filter>
	</defs>
	
		<mask maskUnits="userSpaceOnUse" x="208.7" y="3.6" width="6.3" height="6.3" id="mask-2_00000035505084455411647660000004486236447135664046_">
		<g style="filter:url(#Adobe_OpacityMaskFilter_00000098928664387808577150000009626260556637433483_);">
			<polygon id="path-1_00000006696172912377076590000001859766234262366849_" class="st1" points="58,-134.5 230,-134.5 230,37.5      58,37.5    "/>
		</g>
	</mask>
	<path id="_xAE_-copy_3_" class="st10" d="M211.9,9.9c0.6,0,1.1-0.1,1.6-0.4c0.5-0.3,0.8-0.6,1.1-1.1c0.3-0.5,0.4-1,0.4-1.6   c0-0.6-0.1-1.1-0.4-1.6c-0.3-0.5-0.6-0.9-1.1-1.1c-0.5-0.3-1-0.4-1.6-0.4s-1.2,0.1-1.6,0.4c-0.5,0.3-0.9,0.7-1.1,1.1   c-0.3,0.5-0.4,1-0.4,1.6c0,0.6,0.1,1.1,0.4,1.6c0.3,0.5,0.6,0.9,1.1,1.1C210.8,9.8,211.3,9.9,211.9,9.9z M211.9,9.4   c-0.8,0-1.4-0.2-1.9-0.7c-0.5-0.5-0.7-1.1-0.7-1.9s0.2-1.4,0.7-1.9c0.5-0.5,1.1-0.7,1.9-0.7c0.8,0,1.4,0.2,1.9,0.7   c0.5,0.5,0.7,1.1,0.7,1.9s-0.2,1.4-0.7,1.9C213.3,9.2,212.7,9.4,211.9,9.4z M211.3,8.4V7.1h0.4l0.9,1.3l0.8,0l-1-1.4   c0.3-0.1,0.5-0.2,0.6-0.3c0.1-0.2,0.2-0.4,0.2-0.7c0-0.3-0.1-0.6-0.3-0.7c-0.2-0.2-0.5-0.3-0.8-0.3l0,0h-1.5v3.4H211.3z M212.1,6.5   h-0.8V5.7h0.8c0.1,0,0.3,0,0.4,0.1c0.1,0.1,0.1,0.2,0.1,0.3s0,0.3-0.1,0.3S212.2,6.5,212.1,6.5L212.1,6.5z"/>
</g>
</svg>