<?xml version="1.0" encoding="utf-8"?>
<!-- Generator: Adobe Illustrator 15.0.2, SVG Export Plug-In . SVG Version: 6.00 Build 0)  -->
<svg version="1.2" baseProfile="tiny" id="Layer_1" xmlns="http://www.w3.org/2000/svg" xmlns:xlink="http://www.w3.org/1999/xlink"
	 x="0px" y="0px" width="500px" height="133.411px" viewBox="0 0 500 133.411" xml:space="preserve">
<g>
	<path fill="#2AA9E0" d="M243.936,25h-21.889l0.036,40.955c0,11.969-5.131,21.652-17.1,21.652c-11.974,0-17.152-9.683-17.152-21.652
		V25.04h-21.832l-0.006,40.915c0,23.651,15.203,42.82,38.858,42.82c23.648,0,39.078-19.169,39.078-42.82L243.936,25z"/>
	<rect x="441.309" y="0.045" fill="#2AA9E0" width="21.781" height="106.616"/>
	<g>
		<path fill="#2AA9E0" d="M479.17,2.062V0.146h8.487v1.915h-3.104v8.441h-2.277V2.062H479.17z"/>
		<path fill="#2AA9E0" d="M492.051,0.146l2.423,7.121h0.029l2.29-7.121H500v10.356h-2.132v-7.34h-0.029l-2.538,7.34h-1.756
			l-2.538-7.267h-0.028v7.267h-2.132V0.146H492.051z"/>
	</g>
	<path fill="#2AA9E0" d="M148.194,24.109c-18.775-4.333-30.619,14.319-31.111,15.319c-0.242,0.491-0.251,0.777-1.083,0.755
		c-0.687-0.014-0.766-0.755-0.766-0.755l-2.33-14.268H93.394v81.43h21.871V62.514c0-3.602,9.7-20.872,28.492-16.426
		c9.504,2.248,13.535,6.281,13.535,6.281s0-15.718,0-24.806C153.775,25.729,151.362,24.84,148.194,24.109z"/>
	<path fill="#2AA9E0" d="M273.616,133.411v-29.3c0.002,0,0.005,0.003,0.007,0.005l0.003-10.972c0,0,0.035-0.878,0.826-0.889
		c0.706-0.008,0.863,0.46,1.035,0.889c1.658,4.126,10.779,19.847,31.018,14.916c18.118-5.104,31.407-21.741,31.407-41.5
		c0-23.805-19.303-43.111-43.114-43.111c-23.811,0-43.113,19.306-43.113,43.111c0,0,0,58.935,0,66.85H273.616z M294.816,44.743
		c12.055,0,21.825,9.772,21.825,21.818c0,12.056-9.77,21.829-21.825,21.829c-12.053,0-21.82-9.772-21.82-21.829
		C272.997,54.515,282.764,44.743,294.816,44.743z"/>
	<path fill="#2AA9E0" d="M410.536,106.627h21.931V66.561c0-23.805-19.3-43.111-43.112-43.111S346.24,42.756,346.24,66.561
		c0,19.758,13.29,36.395,31.408,41.5c20.24,4.931,29.357-10.79,31.018-14.916c0.172-0.429,0.327-0.896,1.035-0.889
		c0.791,0.011,0.824,0.889,0.824,0.889 M411.157,66.561c0,12.056-9.771,21.829-21.821,21.829c-12.053,0-21.825-9.772-21.825-21.829
		c0-12.046,9.772-21.818,21.825-21.818C401.387,44.743,411.157,54.515,411.157,66.561z"/>
	<g>
		<path fill="#2AA9E0" d="M24.879,106.457H0V0h26.695C59.02,0,83.536,5.931,83.536,53.229
			C83.536,100.069,57.567,106.457,24.879,106.457z M30.819,18.453h-8.795v69.533l9.032,0.231c18.522,0,30.452-1.686,30.452-34.989
			C61.508,21.291,50.976,18.453,30.819,18.453z"/>
	</g>
</g>
<path display="none" fill="#2AA9E0" d="M787.524,258.661h29.516v-53.924c0-32.041-25.976-58.023-58.024-58.023
	c-32.05,0-58.028,25.982-58.028,58.023c0,26.592,17.886,48.984,42.271,55.854c27.242,6.637,39.513-14.521,41.747-20.076
	c0.231-0.576,0.44-1.205,1.394-1.195c1.064,0.014,1.108,1.195,1.108,1.195 M788.36,204.737c0,16.227-13.15,29.379-29.369,29.379
	c-16.223,0-29.375-13.152-29.375-29.379c0-16.213,13.152-29.365,29.375-29.365C775.21,175.372,788.36,188.524,788.36,204.737z"/>
</svg>
