<?xml version="1.0" encoding="utf-8"?>
<!-- Generator: Adobe Illustrator 15.1.0, SVG Export Plug-In . SVG Version: 6.00 Build 0)  -->
<!DOCTYPE svg PUBLIC "-//W3C//DTD SVG 1.1//EN" "http://www.w3.org/Graphics/SVG/1.1/DTD/svg11.dtd">
<svg version="1.1" id="Ebene_1" xmlns="http://www.w3.org/2000/svg" xmlns:xlink="http://www.w3.org/1999/xlink" x="0px" y="0px"
	 width="380.2px" height="133.5px" viewBox="0 0 380.2 133.5" style="enable-background:new 0 0 380.2 133.5;" xml:space="preserve"
	>
<filter  filterUnits="objectBoundingBox" id="AI_Schatten_1">
	<feGaussianBlur  result="blur" stdDeviation="2" in="SourceAlpha"></feGaussianBlur>
	<feOffset  result="offsetBlurredAlpha" in="blur" dy="1" dx="1"></feOffset>
	<feMerge>
		<feMergeNode  in="offsetBlurredAlpha"></feMergeNode>
		<feMergeNode  in="SourceGraphic"></feMergeNode>
	</feMerge>
</filter>
<g style="filter:url(#AI_Schatten_1);">
	<g>
		<linearGradient id="SVGID_1_" gradientUnits="userSpaceOnUse" x1="33.0298" y1="77.4023" x2="33.0298" y2="7.5991">
			<stop  offset="0" style="stop-color:#FFFFFF"/>
			<stop  offset="0.2617" style="stop-color:#FCFCFC"/>
			<stop  offset="0.4806" style="stop-color:#F1F1F1"/>
			<stop  offset="0.6842" style="stop-color:#E0E0E0"/>
			<stop  offset="0.8772" style="stop-color:#C8C8C8"/>
			<stop  offset="1" style="stop-color:#B4B4B4"/>
		</linearGradient>
		<polygon style="fill:url(#SVGID_1_);" points="12.1,77.4 12.1,7.6 52.9,7.6 52.9,21.7 29.3,21.7 29.3,34.5 51.5,34.5 51.5,48.6 
			29.3,48.6 29.3,63.3 54,63.3 54,77.4 		"/>
		<path style="fill:#4D4D4D;" d="M52.4,8.1v13.1H28.8V35H51v13.1H28.8v15.7h24.7v13.1H12.6V8.1H52.4 M53.4,7.1h-1H12.6h-1v1v68.8v1
			h1h40.9h1v-1V63.8v-1h-1H29.8V49.1H51h1v-1V35v-1h-1H29.8V22.2h22.6h1v-1V8.1V7.1L53.4,7.1z"/>
		<g>
			<path style="fill:#FFFFFF;" d="M51,9.5v10.3H28.8h-1.4v1.4V35v1.4h1.4h20.7v10.3H28.8h-1.4v1.4v15.7v1.4h1.4H52v10.3H14v-66H51
				 M52.4,8.1H12.6v68.8h40.9V63.8H28.8V48.1H51V35H28.8V21.2h23.6V8.1L52.4,8.1z"/>
		</g>
	</g>
	<g>
		<linearGradient id="SVGID_2_" gradientUnits="userSpaceOnUse" x1="84.8926" y1="87.625" x2="84.8926" y2="6.2505">
			<stop  offset="0" style="stop-color:#FFFFFF"/>
			<stop  offset="0.2617" style="stop-color:#FCFCFC"/>
			<stop  offset="0.4806" style="stop-color:#F1F1F1"/>
			<stop  offset="0.6842" style="stop-color:#E0E0E0"/>
			<stop  offset="0.8772" style="stop-color:#C8C8C8"/>
			<stop  offset="1" style="stop-color:#B4B4B4"/>
		</linearGradient>
		<path style="fill:url(#SVGID_2_);" d="M91.6,77.8c-0.6,0.1-1.1,0.2-1.8,0.3c-0.5,0.1-1,0.2-1.6,0.3c-1.5,0.2-3.1,0.3-4.7,0.3
			c-22.8,0-24.7-16.4-24.7-36.3S60.6,6.2,83.4,6.2c22.8,0,24.7,16.4,24.7,36.3c0,10.7-0.4,20.8-5,27.7l7.9,8.1l-10.2,9.3L91.6,77.8z
			 M83.3,18c-5.9,0-6.8,5.5-6.8,24.5c0,19,0.9,24.5,6.8,24.5c6.1,0,7-5.8,7-24.5C90.4,23.8,89.4,18,83.3,18z"/>
		<path style="fill:#4D4D4D;" d="M83.4,6.7c22.8,0,24.2,16.7,24.2,35.8c0,10.9-0.4,21-5.1,27.8l7.8,8l-9.4,8.7l-9.2-9.6
			c-1.1,0.3-2.2,0.4-3.7,0.7c-1.4,0.2-3,0.3-4.6,0.3c-21.3,0-24.2-13.9-24.2-35.8C59.2,20.6,62.1,6.7,83.4,6.7 M83.3,67.5
			c6.6,0,7.5-6.1,7.5-25c0-18.9-1-25-7.5-25c-6.5,0-7.3,6.1-7.3,25C76,61.4,76.9,67.5,83.3,67.5 M83.4,5.8
			c-23.3,0-25.2,16.6-25.2,36.7s1.9,36.7,25.2,36.7c1.7,0,3.3-0.1,4.8-0.3l0,0l0,0c0.6-0.1,1.1-0.2,1.6-0.3c0.5-0.1,1-0.2,1.5-0.3
			l8.8,9.2l0.7,0.7l0.7-0.7L111,79l0.8-0.7l-0.7-0.7l-7.2-7.4c4.4-7,4.8-17,4.8-27.6C108.6,22.4,106.7,5.8,83.4,5.8L83.4,5.8z
			 M83.3,66.5c-5.2,0-6.3-4.3-6.3-24c0-19.7,1.1-24,6.3-24c5.3,0,6.5,4.5,6.5,24C89.9,62,88.6,66.5,83.3,66.5L83.3,66.5z"/>
		<path style="fill:#FFFFFF;" d="M83.4,8.2c9.9,0,16.1,3.2,19.4,9.9c3.1,6.4,3.4,15.6,3.4,24.4c0,10.5-0.4,20.5-4.9,26.9l-0.7,1
			l0.8,0.8l6.8,7l-7.3,6.7l-8.2-8.6l-0.6-0.6l-0.8,0.2c-0.5,0.1-1.1,0.2-1.8,0.4c-0.5,0.1-1.1,0.2-1.7,0.3c-1.4,0.2-2.8,0.3-4.4,0.3
			c-9.5,0-15.5-2.8-18.8-8.9c-3.5-6.3-3.9-16-3.9-25.4c0-9.4,0.5-19.1,3.9-25.4C67.9,11,73.9,8.2,83.4,8.2 M83.3,68.9
			c8.1,0,8.9-7.6,8.9-26.4c0-18.7-0.8-26.4-8.9-26.4c-8.4,0-8.7,9-8.7,26.4C74.6,59.8,75,68.9,83.3,68.9 M83.4,6.7
			c-21.3,0-24.2,13.9-24.2,35.8c0,21.9,2.9,35.8,24.2,35.8c1.6,0,3.2-0.1,4.6-0.3c1.4-0.3,2.6-0.4,3.7-0.7l9.2,9.6l9.4-8.7l-7.8-8
			c4.7-6.7,5.1-16.9,5.1-27.8C107.6,23.4,106.3,6.7,83.4,6.7L83.4,6.7z M83.3,67.5c-6.5,0-7.3-6.1-7.3-25c0-18.9,0.9-25,7.3-25
			c6.6,0,7.5,6.1,7.5,25C90.9,61.4,89.9,67.5,83.3,67.5L83.3,67.5z"/>
	</g>
	<g>
		<linearGradient id="SVGID_3_" gradientUnits="userSpaceOnUse" x1="139.5264" y1="77.4023" x2="139.5264" y2="7.5991">
			<stop  offset="0" style="stop-color:#FFFFFF"/>
			<stop  offset="0.2617" style="stop-color:#FCFCFC"/>
			<stop  offset="0.4806" style="stop-color:#F1F1F1"/>
			<stop  offset="0.6842" style="stop-color:#E0E0E0"/>
			<stop  offset="0.8772" style="stop-color:#C8C8C8"/>
			<stop  offset="1" style="stop-color:#B4B4B4"/>
		</linearGradient>
		<path style="fill:url(#SVGID_3_);" d="M115.6,77.4V7.6h24.5c16.8,0,23.3,9.2,23.3,32.7c0,25.7-3.6,37.1-25,37.1H115.6z
			 M136.6,64.5c6.7,0,9.6-2.2,9.6-23.1c0-17.3-1.6-20.8-9.4-20.8h-4v43.9H136.6z"/>
		<path style="fill:#4D4D4D;" d="M140.1,8.1c16,0,22.8,8.3,22.8,32.2c0,25-3.2,36.6-24.5,36.6h-22.4V8.1H140.1 M132.3,65h4.3
			c7.4,0,10.1-3,10.1-23.6c0-16.8-1.3-21.3-9.9-21.3h-4.5V65 M140.1,7.1h-24h-1v1v68.8v1h1h22.4c10.8,0,17.3-2.9,21.1-9.4
			c3.6-6.4,4.4-15.9,4.4-28.2C163.9,16.4,157.3,7.1,140.1,7.1L140.1,7.1z M133.3,21h3.5c7.5,0,8.9,3.2,8.9,20.3
			c0,20.6-2.6,22.6-9.1,22.6h-3.3V21L133.3,21z"/>
		<path style="fill:#FFFFFF;" d="M140.1,9.5c13.2,0,21.4,5.1,21.4,30.8c0,11.9-0.7,21.1-4.1,27c-3.3,5.7-9.1,8.2-19,8.2h-20.9v-66
			H140.1 M130.9,66.4h1.4h4.3c9.2,0,11.5-5.1,11.5-25c0-16.1-1-22.7-11.3-22.7h-4.5h-1.4V20V65V66.4 M140.1,8.1h-24v68.8h22.4
			c21.3,0,24.5-11.7,24.5-36.6C162.9,16.4,156.1,8.1,140.1,8.1L140.1,8.1z M132.3,65V20h4.5c8.6,0,9.9,4.5,9.9,21.3
			c0,20.6-2.7,23.6-10.1,23.6H132.3L132.3,65z"/>
	</g>
	<g>
		<linearGradient id="SVGID_4_" gradientUnits="userSpaceOnUse" x1="196.7876" y1="76.1973" x2="196.7876" y2="8.8037">
			<stop  offset="0" style="stop-color:#FFFFFF"/>
			<stop  offset="0.2617" style="stop-color:#FCFCFC"/>
			<stop  offset="0.4806" style="stop-color:#F1F1F1"/>
			<stop  offset="0.6842" style="stop-color:#E0E0E0"/>
			<stop  offset="0.8772" style="stop-color:#C8C8C8"/>
			<stop  offset="1" style="stop-color:#B4B4B4"/>
		</linearGradient>
		<polygon style="fill:url(#SVGID_4_);" points="204.8,76.2 192,49.5 186.9,57.4 186.9,76.2 172.1,76.2 172.1,8.8 186.9,8.8 
			186.9,36 188.2,36 203.4,8.8 219.1,8.8 201.6,37.8 221.4,76.2 		"/>
		<path style="fill:#FFFFFF;" d="M217.9,9.5L201.2,37l-0.4,0.7l0.4,0.7l19.2,37.1h-15l-12-25.1l-1.1-2.3l-1.4,2.1l-4.3,6.6l-0.2,0.4
			v0.4v17.9h-13.4v-66h13.4v25.8v1.4h1.4h0.2h0.8L189,36l14.7-26.4H217.9 M220.4,8.1h-17.4l-15.1,27.2h-0.2V8.1h-16.2v68.8h16.2
			V57.6L192,51l12.4,25.9h18.2l-20.2-39.1L220.4,8.1L220.4,8.1z"/>
		<path style="fill:#4D4D4D;" d="M220.4,8.1l-18,29.7l20.2,39.1h-18.2L192,51l-4.3,6.6v19.3h-16.2V8.1h16.2v27.2h0.2l15.1-27.2
			H220.4 M222.1,7.1h-1.8h-17.4h-0.6l-0.3,0.5l-13.5,24.2V8.1v-1h-1h-16.2h-1v1v68.8v1h1h16.2h1v-1v-19l3.2-4.9l11.7,24.3l0.3,0.6
			h0.6h18.2h1.6l-0.7-1.4l-20-38.6l17.7-29.2L222.1,7.1L222.1,7.1z"/>
	</g>
	<g>
		<linearGradient id="SVGID_5_" gradientUnits="userSpaceOnUse" x1="249.4434" y1="77.4023" x2="249.4434" y2="7.5991">
			<stop  offset="0" style="stop-color:#FFFFFF"/>
			<stop  offset="0.2617" style="stop-color:#FCFCFC"/>
			<stop  offset="0.4806" style="stop-color:#F1F1F1"/>
			<stop  offset="0.6842" style="stop-color:#E0E0E0"/>
			<stop  offset="0.8772" style="stop-color:#C8C8C8"/>
			<stop  offset="1" style="stop-color:#B4B4B4"/>
		</linearGradient>
		<path style="fill:url(#SVGID_5_);" d="M226.3,77.4V7.6h25.6c18.8,0,20.8,15,20.8,21.4c0,14.3-7.6,21.5-22.6,21.5h-6.6v26.9H226.3z
			 M247.4,37.6c5.1,0,7.5-2.6,7.5-8.2c0-6.1-2.4-8.9-7.8-8.9h-3.6v17H247.4z"/>
		<path style="fill:#4D4D4D;" d="M251.8,8.1c17.1,0,20.3,12.3,20.3,20.9c0,12.3-5.9,21-22.1,21h-7.1v26.9h-16.2V8.1H251.8
			 M242.9,38.1h4.4c6.5,0,8-4,8-8.7c0-5.3-1.7-9.3-8.3-9.3h-4.1V38.1 M251.8,7.1h-25.1h-1v1v68.8v1h1h16.2h1v-1V51h6.1
			c15.1,0,23.1-7.6,23.1-22C273.1,22.4,271.1,7.1,251.8,7.1L251.8,7.1z M243.9,21h3.2c5.1,0,7.3,2.5,7.3,8.4c0,5.3-2.2,7.7-7,7.7
			h-3.4V21L243.9,21z"/>
		<path style="fill:#FFFFFF;" d="M251.8,9.5c16.5,0,18.9,12.2,18.9,19.5c0,13.2-6.8,19.6-20.7,19.6h-7.1h-1.4V50v25.5h-13.4v-66
			H251.8 M241.5,39.5h1.4h4.4c6.2,0,9.4-3.4,9.4-10.1c0-7.1-3.3-10.8-9.7-10.8h-4.1h-1.4V20v18V39.5 M251.8,8.1h-25.1v68.8h16.2V50
			h7.1c16.2,0,22.1-8.7,22.1-21C272.1,20.4,268.9,8.1,251.8,8.1L251.8,8.1z M242.9,38.1V20h4.1c6.6,0,8.3,4,8.3,9.3
			c0,4.6-1.5,8.7-8,8.7H242.9L242.9,38.1z"/>
	</g>
	<g>
		<linearGradient id="SVGID_6_" gradientUnits="userSpaceOnUse" x1="284.1885" y1="77.4023" x2="284.1885" y2="7.5991">
			<stop  offset="0" style="stop-color:#FFFFFF"/>
			<stop  offset="0.2617" style="stop-color:#FCFCFC"/>
			<stop  offset="0.4806" style="stop-color:#F1F1F1"/>
			<stop  offset="0.6842" style="stop-color:#E0E0E0"/>
			<stop  offset="0.8772" style="stop-color:#C8C8C8"/>
			<stop  offset="1" style="stop-color:#B4B4B4"/>
		</linearGradient>
		<rect x="280.8" y="7.6" style="fill:url(#SVGID_6_);" width="6.8" height="69.8"/>
		<path style="fill:#4D4D4D;" d="M287.1,8.1v68.8h-5.8V8.1H287.1 M288.1,7.1h-1h-5.8h-1v1v68.8v1h1h5.8h1v-1V8.1V7.1L288.1,7.1z"/>
		<path style="fill:#FFFFFF;" d="M285.7,9.5v66h-2.9v-66H285.7 M287.1,8.1h-5.8v68.8h5.8V8.1L287.1,8.1z"/>
	</g>
	<g>
		<linearGradient id="SVGID_7_" gradientUnits="userSpaceOnUse" x1="314.4502" y1="78.5586" x2="314.4502" y2="25.2358">
			<stop  offset="0" style="stop-color:#FFFFFF"/>
			<stop  offset="0.2617" style="stop-color:#FCFCFC"/>
			<stop  offset="0.4806" style="stop-color:#F1F1F1"/>
			<stop  offset="0.6842" style="stop-color:#E0E0E0"/>
			<stop  offset="0.8772" style="stop-color:#C8C8C8"/>
			<stop  offset="1" style="stop-color:#B4B4B4"/>
		</linearGradient>
		<path style="fill:url(#SVGID_7_);" d="M311.8,78.6c-8.8,0-13.6-5-13.6-14.2V25.2h6.8v36.5c0,7.9,2.3,11,8.4,11
			c6.4,0,10.7-5.1,10.7-12.6V25.2h6.8v52.2h-6.2v-6.1C321.6,76,317.2,78.6,311.8,78.6z"/>
		<path style="fill:#4D4D4D;" d="M330.3,25.7v51.2h-5.2v-7.1h-0.2c-3,5.8-7.8,8.3-13.1,8.3c-7.8,0-13.1-4-13.1-13.7V25.7h5.8v36
			c0,8.4,2.7,11.5,8.9,11.5c6.6,0,11.2-5.1,11.2-13.1V25.7H330.3 M331.2,24.7h-1h-5.8h-1v1v34.4c0,7.2-4.1,12.1-10.2,12.1
			c-4.9,0-7.9-1.8-7.9-10.5v-36v-1h-1h-5.8h-1v1v38.6c0,9.5,5,14.7,14.1,14.7c5,0,9.3-2.2,12.3-6.1v4v1h1h5.2h1v-1V25.7V24.7
			L331.2,24.7z"/>
		<path style="fill:#FFFFFF;" d="M328.8,27.1v48.3h-2.4v-5.7v-1.4h-1.4h-0.2H324c1.2-2.3,1.9-5.1,1.9-8.2v-33H328.8 M303,27.1v34.6
			c0,8.9,3.2,12.9,10.3,12.9c4.8,0,8.5-2.3,10.7-6.2l-0.4,0.7c-2.5,4.9-6.6,7.5-11.8,7.5c-7.8,0-11.7-4.1-11.7-12.3V27.1H303
			 M330.3,25.7h-5.8v34.4c0,8-4.6,13.1-11.2,13.1c-6.2,0-8.9-3.1-8.9-11.5v-36h-5.8v38.6c0,9.6,5.3,13.7,13.1,13.7
			c5.3,0,10.1-2.5,13.1-8.3h0.2v7.1h5.2V25.7L330.3,25.7z"/>
	</g>
	<g>
		<linearGradient id="SVGID_8_" gradientUnits="userSpaceOnUse" x1="354.5889" y1="78.5586" x2="354.5889" y2="24.0796">
			<stop  offset="0" style="stop-color:#FFFFFF"/>
			<stop  offset="0.2617" style="stop-color:#FCFCFC"/>
			<stop  offset="0.4806" style="stop-color:#F1F1F1"/>
			<stop  offset="0.6842" style="stop-color:#E0E0E0"/>
			<stop  offset="0.8772" style="stop-color:#C8C8C8"/>
			<stop  offset="1" style="stop-color:#B4B4B4"/>
		</linearGradient>
		<path style="fill:url(#SVGID_8_);" d="M354.5,78.6c-11.2,0-16.2-5.1-16.2-16.4V60h6.8v1.8c0,7.3,3.1,10.9,9.3,10.9
			c6,0,9.6-3.2,9.6-8.7c0-4.5-1.9-7.1-6.6-9l-8.1-3.2c-6.8-2.6-10.1-6.7-10.1-12.6c0-9.8,5.6-15.2,15.7-15.2c9.7,0,14.6,5,14.6,14.8
			v1.9h-6.8v-1.9c0-6.1-2.5-8.9-7.9-8.9c-6,0-8.9,2.7-8.9,8.2c0,3.4,1.1,6,6.6,8.1l8.4,3.2c6.5,2.5,9.9,7,9.9,13.5
			C370.8,72.7,364.7,78.6,354.5,78.6z"/>
		<path style="fill:#4D4D4D;" d="M354.9,24.6c9.6,0,14.1,4.9,14.1,14.3v1.4h-5.8v-1.4c0-6.6-3-9.4-8.4-9.4c-6.8,0-9.3,3.6-9.3,8.7
			c0,3.6,1.2,6.4,6.9,8.6l8.4,3.2c6.9,2.6,9.5,7.3,9.5,13c0,8.8-5,15.2-15.8,15.2c-10.5,0-15.7-4.3-15.7-15.9v-1.6h5.8v1.3
			c0,7.6,3.3,11.4,9.8,11.4c6.2,0,10.1-3.4,10.1-9.2c0-4.5-1.8-7.4-6.9-9.4l-8.1-3.2c-7.3-2.8-9.8-7-9.8-12.1
			C339.7,28.8,346.2,24.6,354.9,24.6 M354.9,23.6c-10.3,0-16.2,5.7-16.2,15.7c0,6.1,3.4,10.4,10.5,13.1l8.1,3.2
			c4.5,1.8,6.3,4.2,6.3,8.5c0,5.1-3.4,8.2-9.1,8.2c-6,0-8.8-3.3-8.8-10.4v-1.3v-1h-1h-5.8h-1v1v1.6c0,11.7,5.2,16.9,16.7,16.9
			c10.5,0,16.8-6.1,16.8-16.2c0-6.7-3.4-11.4-10.2-13.9l-8.4-3.2c-5.3-2-6.3-4.3-6.3-7.6c0-5.2,2.7-7.7,8.4-7.7
			c5.1,0,7.4,2.6,7.4,8.5v1.4v1h1h5.8h1v-1v-1.4C370,28.7,364.9,23.6,354.9,23.6L354.9,23.6z"/>
		<path style="fill:#FFFFFF;" d="M354.9,26c8.6,0,12.7,4.1,12.7,12.8v0h-2.9v0c0-9-5.3-10.9-9.8-10.9c-6.9,0-10.8,3.6-10.8,10.1
			c0,4.9,2.3,7.8,7.9,9.9l8.4,3.2c5.8,2.2,8.6,6,8.6,11.7c0,8.8-5.2,13.8-14.4,13.8c-10.2,0-14.3-4.2-14.3-14.5v-0.2h2.9
			c0,10.5,6.1,12.7,11.2,12.7c7,0,11.5-4.1,11.5-10.6c0-5.3-2.4-8.6-7.8-10.8l-8.1-3.2c-6.1-2.3-8.9-5.8-8.9-10.8
			C341.1,28.3,348.6,26,354.9,26 M354.9,24.6c-8.8,0-15.2,4.2-15.2,14.7c0,5.1,2.5,9.3,9.8,12.1l8.1,3.2c5.1,2,6.9,4.9,6.9,9.4
			c0,5.8-4,9.2-10.1,9.2c-6.6,0-9.8-3.8-9.8-11.4v-1.3h-5.8v1.6c0,11.6,5.2,15.9,15.7,15.9c10.8,0,15.8-6.5,15.8-15.2
			c0-5.7-2.6-10.4-9.5-13l-8.4-3.2c-5.8-2.2-6.9-5-6.9-8.6c0-5.1,2.5-8.7,9.3-8.7c5.4,0,8.4,2.8,8.4,9.4v1.4h5.8v-1.4
			C369,29.5,364.6,24.6,354.9,24.6L354.9,24.6z"/>
	</g>
</g>
<g>
	<g>
		<polygon style="fill:#FFFFFF;" points="15.7,126.7 15.7,106.8 10.2,106.8 10.2,104.1 24.2,104.1 24.2,106.8 18.7,106.8 
			18.7,126.7 		"/>
		<path style="fill:#4D4D4D;" d="M23.7,104.6v1.6h-5.5v19.9h-1.9v-19.9h-5.5v-1.6H23.7 M24.7,103.6h-1h-13h-1v1v1.6v1h1h4.6v18.9v1
			h1h1.9h1v-1v-18.9h4.6h1v-1v-1.6V103.6L24.7,103.6z"/>
	</g>
	<g>
		<polygon style="fill:#FFFFFF;" points="35.4,126.7 35.4,115.9 28,115.9 28,126.7 25.1,126.7 25.1,104.1 28,104.1 28,113.3 
			35.4,113.3 35.4,104.1 38.3,104.1 38.3,126.7 		"/>
		<path style="fill:#4D4D4D;" d="M37.8,104.6v21.5h-1.9v-10.7h-8.4v10.7h-1.9v-21.5h1.9v9.2h8.4v-9.2H37.8 M38.8,103.6h-1h-1.9h-1v1
			v8.2h-6.4v-8.2v-1h-1h-1.9h-1v1v21.5v1h1h1.9h1v-1v-9.7h6.4v9.7v1h1h1.9h1v-1v-21.5V103.6L38.8,103.6z"/>
	</g>
	<g>
		<polygon style="fill:#FFFFFF;" points="40.7,126.7 40.7,104.1 52.4,104.1 52.4,106.8 43.6,106.8 43.6,113.6 51.8,113.6 
			51.8,116.2 43.6,116.2 43.6,124 52.7,124 52.7,126.7 		"/>
		<path style="fill:#4D4D4D;" d="M51.9,104.6v1.6h-8.7v7.8h8.2v1.6h-8.2v8.8h9v1.6H41.2v-21.5H51.9 M52.9,103.6h-1H41.2h-1v1v21.5v1
			h1h10.9h1v-1v-1.6v-1h-1h-8v-6.8h7.2h1v-1v-1.6v-1h-1h-7.2v-5.9h7.7h1v-1v-1.6V103.6L52.9,103.6z"/>
	</g>
	<g>
		<path style="fill:#FFFFFF;" d="M68.5,127c-4.9,0-7.4-3.9-7.4-11.6s2.5-11.6,7.4-11.6c4,0,6.4,2.4,6.7,6.9l0,0.5h-3v-0.5
			c0-2-1-4.3-3.8-4.3c-1.9,0-4.4,0.9-4.4,9s2.5,9,4.4,9c3.3,0,4-3.8,4-7.1h-5.1v-2.6h7.9v12h-2.5v-2C71.8,126.1,70.3,127,68.5,127z"
			/>
		<path style="fill:#4D4D4D;" d="M68.5,104.3c4.1,0,5.9,2.7,6.2,6.4h-1.9c0-2.6-1.4-4.8-4.2-4.8c-3,0-4.9,2.5-4.9,9.5
			c0,7,1.9,9.5,4.9,9.5c2.9,0,4.5-2.6,4.5-7.6v-0.5h-5.1v-1.6h6.9v11h-1.5v-3.6h-0.1c-0.7,2.4-2.6,3.9-4.7,3.9
			c-4.4,0-6.9-3.4-6.9-11.1S64.1,104.3,68.5,104.3 M68.5,103.3c-5.2,0-7.9,4.1-7.9,12.1s2.6,12.1,7.9,12.1c1.4,0,2.8-0.5,3.8-1.5
			v0.1v1h1h1.5h1v-1v-11v-1h-1h-6.9h-1v1v1.6v1h1H72c-0.1,4-1.3,6.1-3.5,6.1c-1.1,0-4,0-4-8.5s2.9-8.5,4-8.5c2.4,0,3.3,1.9,3.3,3.8
			v1h1h1.9h1.1l-0.1-1.1C75.4,106,72.8,103.3,68.5,103.3L68.5,103.3z"/>
	</g>
	<g>
		<path style="fill:#FFFFFF;" d="M89,126.7l-1.7-6.3h-6.8l-1.7,6.3h-3.1l6.7-22.5h3.2l6.7,22.5H89z M86.5,117.8l-2.7-9.8l-2.7,9.8
			H86.5z"/>
		<path style="fill:#4D4D4D;" d="M85.1,104.6l6.4,21.5h-2l-1.7-6.3h-7.5l-1.7,6.3h-2l6.4-21.5H85.1 M80.5,118.3h6.7l-3.3-12.1h-0.1
			L80.5,118.3 M85.8,103.6h-0.7h-2.4h-0.7l-0.2,0.7l-6.4,21.5l-0.4,1.3h1.3h2h0.8l0.2-0.7l1.5-5.5h6l1.5,5.5l0.2,0.7h0.8h2h1.3
			l-0.4-1.3L86,104.4L85.8,103.6L85.8,103.6z M81.8,117.3l2-7.5l2,7.5H81.8L81.8,117.3z"/>
	</g>
	<g>
		<polygon style="fill:#FFFFFF;" points="107.8,126.7 107.8,109.8 103,126.7 100.4,126.7 95.7,109.8 95.7,126.7 92.8,126.7 
			92.8,104.1 97,104.1 101.8,122 106.6,104.1 110.7,104.1 110.7,126.7 		"/>
		<path style="fill:#4D4D4D;" d="M110.2,104.6v21.5h-1.9v-19.7h-0.1l-5.6,19.7h-1.8l-5.6-19.7h-0.1v19.7h-1.9v-21.5h3.3l5.2,19.1
			h0.1l5.2-19.1H110.2 M111.2,103.6h-1H107h-0.8l-0.2,0.7l-4.3,15.7l-4.3-15.7l-0.2-0.7h-0.8h-3.3h-1v1v21.5v1h1h1.9h1v-1v-12.8
			l3.7,13l0.2,0.7h0.8h1.8h0.8l0.2-0.7l3.7-13v12.8v1h1h1.9h1v-1v-21.5V103.6L111.2,103.6z"/>
	</g>
	<g>
		<polygon style="fill:#FFFFFF;" points="113.2,126.7 113.2,104.1 124.9,104.1 124.9,106.8 116.2,106.8 116.2,113.6 124.3,113.6 
			124.3,116.2 116.2,116.2 116.2,124 125.2,124 125.2,126.7 		"/>
		<path style="fill:#4D4D4D;" d="M124.4,104.6v1.6h-8.7v7.8h8.2v1.6h-8.2v8.8h9v1.6h-10.9v-21.5H124.4 M125.4,103.6h-1h-10.7h-1v1
			v21.5v1h1h10.9h1v-1v-1.6v-1h-1h-8v-6.8h7.2h1v-1v-1.6v-1h-1h-7.2v-5.9h7.7h1v-1v-1.6V103.6L125.4,103.6z"/>
	</g>
	<g>
		<path style="fill:#FFFFFF;" d="M137.3,126.7l-0.1-0.2c-0.5-0.8-0.6-1.9-0.6-3.3l-0.1-1.8c-0.2-3.8-0.8-4.5-3.8-4.5h-3.2v9.8h-2.9
			v-22.5h6.9c3.8,0,6.1,2.2,6.1,5.9c0,2.6-0.9,4.5-2.7,5.4c2.1,0.9,2.4,3,2.5,5.2l0.1,2.4c0,1.2,0.2,2.2,0.8,2.8l0.7,0.8H137.3z
			 M132.4,114.2c2.9,0,4.3-1.3,4.3-3.7c0-2.6-1.2-3.7-4.1-3.7h-3v7.4H132.4z"/>
		<path style="fill:#4D4D4D;" d="M133.5,104.6c3.6,0,5.6,2,5.6,5.4c0,2.6-1,4.9-3.9,5.5v0.1c2.7,0.2,3.6,1.7,3.7,5.1l0.1,2.4
			c0,1.2,0.2,2.3,0.9,3.2h-2.3c-0.5-0.8-0.5-1.8-0.6-3l-0.1-1.8c-0.2-3.8-0.8-5-4.3-5H129v9.8h-1.9v-21.5H133.5 M129,114.7h3.3
			c3,0,4.8-1.4,4.8-4.2c0-2.7-1.1-4.2-4.6-4.2H129V114.7 M133.5,103.6h-6.4h-1v1v21.5v1h1h1.9h1v-1v-8.8h2.7c2.7,0,3.1,0.5,3.3,4
			l0.1,1.8c0,1.2,0.1,2.5,0.7,3.5l0.3,0.5h0.6h2.3h2.2l-1.5-1.7c-0.5-0.6-0.6-1.4-0.7-2.5l-0.1-2.4c-0.1-2-0.4-4.1-2-5.2
			c1.4-1.1,2.2-3,2.2-5.4C140.1,106,137.7,103.6,133.5,103.6L133.5,103.6z M130,107.3h2.5c3,0,3.6,1.2,3.6,3.2
			c0,1.4-0.4,3.2-3.8,3.2H130V107.3L130,107.3z"/>
	</g>
	<g>
		<path style="fill:#FFFFFF;" d="M156.1,127c-4.9,0-7.4-3.9-7.4-11.6s2.5-11.6,7.4-11.6c4.9,0,6.7,3.7,6.7,7.1v0.5h-2.9v-0.5
			c0-2.8-1.4-4.5-3.8-4.5c-1.9,0-4.4,0.9-4.4,9s2.5,9,4.4,9c3.2,0,3.8-3.5,4-5.6l0-0.5h2.9l0,0.5C162.7,124.1,160.3,127,156.1,127z"
			/>
		<path style="fill:#4D4D4D;" d="M156.1,104.3c4.4,0,6.2,3.1,6.2,6.6h-1.9c0-2.9-1.5-5-4.2-5c-3,0-4.9,2.5-4.9,9.5
			c0,7,1.9,9.5,4.9,9.5c2.7,0,4.2-2.3,4.5-6h1.9c-0.3,4.9-2.5,7.7-6.4,7.7c-4.4,0-6.9-3.4-6.9-11.1S151.7,104.3,156.1,104.3
			 M156.1,103.3c-5.2,0-7.9,4.1-7.9,12.1s2.6,12.1,7.9,12.1c4.4,0,7.1-3.1,7.4-8.6l0.1-1h-1h-1.9h-0.9l-0.1,0.9
			c-0.1,2.3-0.8,5.1-3.5,5.1c-1.1,0-4,0-4-8.5s2.9-8.5,4-8.5c2.9,0,3.3,2.8,3.3,4v1h1h1.9h1v-1C163.3,106.2,160.5,103.3,156.1,103.3
			L156.1,103.3z"/>
	</g>
	<g>
		<polygon style="fill:#FFFFFF;" points="179.8,126.7 179.8,109.8 175,126.7 172.4,126.7 167.7,109.8 167.7,126.7 164.7,126.7 
			164.7,104.1 169,104.1 173.8,122 178.6,104.1 182.7,104.1 182.7,126.7 		"/>
		<path style="fill:#4D4D4D;" d="M182.2,104.6v21.5h-1.9v-19.7h-0.1l-5.6,19.7h-1.8l-5.6-19.7h-0.1v19.7h-1.9v-21.5h3.3l5.2,19.1
			h0.1l5.2-19.1H182.2 M183.2,103.6h-1H179h-0.8l-0.2,0.7l-4.3,15.7l-4.3-15.7l-0.2-0.7h-0.8h-3.3h-1v1v21.5v1h1h1.9h1v-1v-12.8
			l3.7,13l0.2,0.7h0.8h1.8h0.8l0.2-0.7l3.7-13v12.8v1h1h1.9h1v-1v-21.5V103.6L183.2,103.6z"/>
	</g>
	<g>
		<path style="fill:#FFFFFF;" d="M191.2,127c-4.4,0-6.8-2.4-6.8-6.9V119h2.9v1.3c0,2.6,1.3,4.1,3.8,4.1c1.9,0,4.1-0.7,4.1-3.9
			c0-2.7-2.1-3.4-4.5-4.2c-2.8-0.9-5.9-1.9-5.9-6.4c0-3.8,2.5-6.2,6.4-6.2c4.2,0,6.3,2.1,6.3,6.4v0.5h-2.9v-0.5
			c0-2.5-1.1-3.8-3.4-3.8c-2.2,0-3.6,1.3-3.6,3.4c0,2.7,2.1,3.4,4.6,4.2c2.8,0.9,5.9,2,5.9,6.2C198.2,124.5,195.5,127,191.2,127z"/>
		<path style="fill:#4D4D4D;" d="M191.2,104.3c4,0,5.8,2,5.8,5.9h-1.9c0-2.7-1.2-4.2-3.9-4.2c-2.6,0-4.1,1.7-4.1,3.9
			c0,6.4,10.4,2.9,10.4,10.5c0,4.2-2.6,6.3-6.5,6.3c-4.1,0-6.3-2.1-6.3-6.4v-0.6h1.9v0.8c0,2.8,1.4,4.6,4.3,4.6
			c2.7,0,4.6-1.4,4.6-4.4c0-6.4-10.4-2.7-10.4-10.5C185.3,106.6,187.5,104.3,191.2,104.3 M191.2,103.3c-4.1,0-6.9,2.7-6.9,6.7
			c0,4.8,3.5,5.9,6.3,6.9c2.6,0.9,4.1,1.5,4.1,3.7c0,2.2-1.2,3.4-3.6,3.4c-2.2,0-3.3-1.2-3.3-3.6v-0.8v-1h-1h-1.9h-1v1v0.6
			c0,4.8,2.6,7.4,7.3,7.4c4.7,0,7.5-2.7,7.5-7.3c0-4.6-3.4-5.8-6.2-6.7c-2.7-0.9-4.2-1.5-4.2-3.8c0-1.4,0.8-2.9,3.1-2.9
			c1.3,0,2.9,0.4,2.9,3.3v1h1h1.9h1v-1C198.1,105.7,195.7,103.3,191.2,103.3L191.2,103.3z"/>
	</g>
	<g>
		<path style="fill:#FFFFFF;" d="M212.4,127c-3.8,0-6.5-2.6-6.5-6.2c0-2.3,1-4.2,3.3-5.9l1.4-1.1c-1.4-2-2.3-3.5-2.3-5.2
			c0-2.7,2-4.5,4.9-4.5c2.8,0,4.6,1.8,4.6,4.5c0,2.1-1.1,3.8-3.6,5.7l3.8,5.3c0.3-0.9,0.4-1.9,0.4-3l0-0.5h2.8v0.5
			c0,1.8-0.5,3.8-1.4,5.5l3.2,4.5h-3.3l-1.6-2.3C216.8,126.1,214.8,127,212.4,127z M212.1,115.8c-2.9,2.1-3.2,3.6-3.2,4.8
			c0,2.2,1.7,3.8,3.9,3.8c1.5,0,3.1-0.9,3.9-2.2L212.1,115.8z M213.1,106.6c-1.2,0-2,0.8-2,1.9c0,0.9,0.5,2.1,1.6,3.7
			c2-1.6,2.3-2.9,2.3-3.7C215,107.4,214.2,106.6,213.1,106.6z"/>
		<path style="fill:#4D4D4D;" d="M213.2,104.6c2.5,0,4.1,1.6,4.1,4c0,1.7-0.8,3.4-3.8,5.5l4.6,6.5c0.6-1.3,0.8-2.7,0.8-4.1h1.8
			c0,1.9-0.5,3.9-1.5,5.6l2.8,4h-2l-1.9-2.6c-1.2,1.8-3.1,3-5.7,3c-3.7,0-6-2.6-6-5.7c0-2.3,1.1-4,3.1-5.5l1.8-1.4
			c-1.5-2-2.5-3.6-2.5-5.3C208.8,106,210.8,104.6,213.2,104.6 M212.6,112.9c2.4-1.7,2.9-3.2,2.9-4.4c0-1.4-1-2.4-2.4-2.4
			c-1.4,0-2.5,1-2.5,2.4C210.6,109.7,211.4,111.3,212.6,112.9 M212.7,124.9c1.7,0,3.6-1.1,4.5-2.7l-5-7.1c-3,2.1-3.9,3.8-3.9,5.5
			C208.3,123.2,210.3,124.9,212.7,124.9 M213.2,103.6c-3.2,0-5.4,2-5.4,5c0,1.7,0.8,3.3,2.1,5.1l-1,0.8c-2.4,1.9-3.5,3.9-3.5,6.3
			c0,3.9,3,6.7,7,6.7c2.3,0,4.2-0.8,5.7-2.3l1.1,1.6l0.3,0.4h0.5h2h1.9l-1.1-1.6l-2.5-3.5c0.9-1.7,1.3-3.7,1.3-5.5v-1h-1H219h-1l0,1
			c0,0.7-0.1,1.3-0.2,1.9l-2.9-4.1c2.4-1.9,3.4-3.6,3.4-5.8C218.3,105.6,216.3,103.6,213.2,103.6L213.2,103.6z M212.8,111.5
			c-1-1.5-1.2-2.4-1.2-2.9c0-0.8,0.6-1.4,1.5-1.4c0.9,0,1.4,0.6,1.4,1.4C214.5,109.2,214.3,110.2,212.8,111.5L212.8,111.5z
			 M212.7,123.9c-2,0-3.4-1.4-3.4-3.3c0-1,0.3-2.3,2.6-4.1l4.1,5.7C215.3,123.2,213.9,123.9,212.7,123.9L212.7,123.9z"/>
	</g>
	<g>
		<path style="fill:#FFFFFF;" d="M230.3,126.7v-22.5h5.7c6.9,0,8.3,4.5,8.3,11.3s-1.4,11.3-8.3,11.3H230.3z M235.9,124
			c3.6,0,5.5-1.4,5.5-8.6c0-7.3-1.9-8.7-5.5-8.7h-2.6V124H235.9z"/>
		<path style="fill:#4D4D4D;" d="M236,104.6c6.3,0,7.8,3.7,7.8,10.8s-1.5,10.8-7.8,10.8h-5.2v-21.5H236 M232.8,124.5h3.1
			c4.2,0,6-2.1,6-9.1c0-7.1-1.8-9.2-6-9.2h-3.1V124.5 M236,103.6h-5.2h-1v1v21.5v1h1h5.2c7.7,0,8.8-5.6,8.8-11.8
			S243.8,103.6,236,103.6L236,103.6z M233.8,107.3h2.1c3.3,0,5,1.3,5,8.2c0,6.9-1.7,8.1-5,8.1h-2.1V107.3L233.8,107.3z"/>
	</g>
	<g>
		<polygon style="fill:#FFFFFF;" points="257.7,126.7 251.5,116.1 249.4,118.8 249.4,126.7 246.5,126.7 246.5,104.1 249.4,104.1 
			249.4,114.5 257,104.1 260.3,104.1 253.3,113.7 260.9,126.7 		"/>
		<path style="fill:#4D4D4D;" d="M259.3,104.6l-6.6,9l7.3,12.5h-2l-6.4-10.9l-2.6,3.4v7.5H247v-21.5h1.9v11.3h0.1l8.2-11.3H259.3
			 M261.2,103.6h-2h-2h-0.5l-0.3,0.4l-6.5,8.9v-8.3v-1h-1H247h-1v1v21.5v1h1h1.9h1v-1V119l1.5-1.9l5.7,9.6l0.3,0.5h0.6h2h1.7
			l-0.9-1.5l-7-12l6.2-8.5L261.2,103.6L261.2,103.6z"/>
	</g>
	<g>
		<path style="fill:#FFFFFF;" d="M261,126.7v-22.5h6.3c4.1,0,6.4,2.3,6.4,6.6s-2.5,6.6-7.1,6.6h-2.7v9.3H261z M266.7,114.7
			c2.7,0,4.1-1.3,4.1-4c0-2.8-1.2-4-4.1-4h-2.8v7.9H266.7z"/>
		<path style="fill:#4D4D4D;" d="M267.3,104.6c4.1,0,5.9,2.4,5.9,6.1c0,3.3-1.6,6.1-6.6,6.1h-3.2v9.3h-1.9v-21.5H267.3 M263.4,115.2
			h3.3c2.5,0,4.6-1.1,4.6-4.5c0-3.3-1.6-4.5-4.6-4.5h-3.3V115.2 M267.3,103.6h-5.8h-1v1v21.5v1h1h1.9h1v-1v-8.3h2.2
			c4.8,0,7.6-2.6,7.6-7.1S271.7,103.6,267.3,103.6L267.3,103.6z M264.4,107.3h2.3c2.6,0,3.6,0.9,3.6,3.5c0,1.5-0.4,3.5-3.6,3.5h-2.3
			V107.3L264.4,107.3z"/>
	</g>
	<g>
		<path style="fill:#FFFFFF;" d="M288.6,127c-4.4,0-6.8-2.4-6.8-6.9V119h2.9v1.3c0,2.6,1.3,4.1,3.8,4.1c1.9,0,4.1-0.7,4.1-3.9
			c0-2.7-2.1-3.4-4.5-4.2c-2.8-0.9-5.9-1.9-5.9-6.4c0-3.8,2.5-6.2,6.4-6.2c4.2,0,6.3,2.1,6.3,6.4v0.5h-2.9v-0.5
			c0-2.5-1.1-3.8-3.4-3.8c-2.2,0-3.6,1.3-3.6,3.4c0,2.7,2.1,3.4,4.6,4.2c2.8,0.9,5.9,2,5.9,6.2C295.6,124.5,293,127,288.6,127z"/>
		<path style="fill:#4D4D4D;" d="M288.7,104.3c4,0,5.8,2,5.8,5.9h-1.9c0-2.7-1.2-4.2-3.9-4.2c-2.6,0-4.1,1.7-4.1,3.9
			c0,6.4,10.4,2.9,10.4,10.5c0,4.2-2.6,6.3-6.5,6.3c-4.1,0-6.3-2.1-6.3-6.4v-0.6h1.9v0.8c0,2.8,1.4,4.6,4.3,4.6
			c2.7,0,4.6-1.4,4.6-4.4c0-6.4-10.4-2.7-10.4-10.5C282.8,106.6,285,104.3,288.7,104.3 M288.7,103.3c-4.1,0-6.9,2.7-6.9,6.7
			c0,4.8,3.5,5.9,6.3,6.9c2.6,0.9,4.1,1.5,4.1,3.7c0,2.2-1.2,3.4-3.6,3.4c-2.2,0-3.3-1.2-3.3-3.6v-0.8v-1h-1h-1.9h-1v1v0.6
			c0,4.8,2.6,7.4,7.3,7.4c4.7,0,7.5-2.7,7.5-7.3c0-4.6-3.4-5.8-6.2-6.7c-2.7-0.9-4.2-1.5-4.2-3.8c0-1.4,0.8-2.9,3.1-2.9
			c1.3,0,2.9,0.4,2.9,3.3v1h1h1.9h1v-1C295.5,105.7,293.2,103.3,288.7,103.3L288.7,103.3z"/>
	</g>
	<g>
		<polygon style="fill:#FFFFFF;" points="301.2,126.7 301.2,117.6 295.1,104.1 298.2,104.1 302.6,114.1 307.1,104.1 310.2,104.1 
			304.1,117.6 304.1,126.7 		"/>
		<path style="fill:#4D4D4D;" d="M309.4,104.6l-5.8,12.9v8.6h-1.9v-8.6l-5.8-12.9h2l4.7,10.7l4.7-10.7H309.4 M311,103.6h-1.5h-2
			h-0.6l-0.3,0.6l-3.8,8.7l-3.8-8.7l-0.3-0.6h-0.6h-2h-1.5l0.6,1.4l5.7,12.7v8.4v1h1h1.9h1v-1v-8.4l5.7-12.7L311,103.6L311,103.6z"
			/>
	</g>
	<g>
		<path style="fill:#FFFFFF;" d="M316.4,127c-4.4,0-6.8-2.4-6.8-6.9V119h2.9v1.3c0,2.6,1.3,4.1,3.8,4.1c1.9,0,4.1-0.7,4.1-3.9
			c0-2.7-2.1-3.4-4.5-4.2c-2.8-0.9-5.9-1.9-5.9-6.4c0-3.8,2.5-6.2,6.4-6.2c4.2,0,6.3,2.1,6.3,6.4v0.5H320v-0.5
			c0-2.5-1.1-3.8-3.4-3.8c-2.2,0-3.6,1.3-3.6,3.4c0,2.7,2.1,3.4,4.6,4.2c2.8,0.9,5.9,2,5.9,6.2C323.4,124.5,320.8,127,316.4,127z"/>
		<path style="fill:#4D4D4D;" d="M316.5,104.3c4,0,5.8,2,5.8,5.9h-1.9c0-2.7-1.2-4.2-3.9-4.2c-2.6,0-4.1,1.7-4.1,3.9
			c0,6.4,10.4,2.9,10.4,10.5c0,4.2-2.6,6.3-6.5,6.3c-4.1,0-6.3-2.1-6.3-6.4v-0.6h1.9v0.8c0,2.8,1.4,4.6,4.3,4.6
			c2.7,0,4.6-1.4,4.6-4.4c0-6.4-10.4-2.7-10.4-10.5C310.6,106.6,312.8,104.3,316.5,104.3 M316.5,103.3c-4.1,0-6.9,2.7-6.9,6.7
			c0,4.8,3.5,5.9,6.3,6.9c2.6,0.9,4.1,1.5,4.1,3.7c0,2.2-1.2,3.4-3.6,3.4c-2.2,0-3.3-1.2-3.3-3.6v-0.8v-1h-1h-1.9h-1v1v0.6
			c0,4.8,2.6,7.4,7.3,7.4c4.7,0,7.5-2.7,7.5-7.3c0-4.6-3.4-5.8-6.2-6.7c-2.7-0.9-4.2-1.5-4.2-3.8c0-1.4,0.8-2.9,3.1-2.9
			c1.3,0,2.9,0.4,2.9,3.3v1h1h1.9h1v-1C323.4,105.7,321,103.3,316.5,103.3L316.5,103.3z"/>
	</g>
	<g>
		<polygon style="fill:#FFFFFF;" points="329,126.7 329,106.8 323.5,106.8 323.5,104.1 337.5,104.1 337.5,106.8 331.9,106.8 
			331.9,126.7 		"/>
		<path style="fill:#4D4D4D;" d="M337,104.6v1.6h-5.5v19.9h-1.9v-19.9H324v-1.6H337 M338,103.6h-1h-13h-1v1v1.6v1h1h4.6v18.9v1h1
			h1.9h1v-1v-18.9h4.6h1v-1v-1.6V103.6L338,103.6z"/>
	</g>
	<g>
		<polygon style="fill:#FFFFFF;" points="338.4,126.7 338.4,104.1 350,104.1 350,106.8 341.3,106.8 341.3,113.6 349.5,113.6 
			349.5,116.2 341.3,116.2 341.3,124 350.3,124 350.3,126.7 		"/>
		<path style="fill:#4D4D4D;" d="M349.5,104.6v1.6h-8.7v7.8h8.2v1.6h-8.2v8.8h9v1.6h-10.9v-21.5H349.5 M350.5,103.6h-1h-10.7h-1v1
			v21.5v1h1h10.9h1v-1v-1.6v-1h-1h-8v-6.8h7.2h1v-1v-1.6v-1h-1h-7.2v-5.9h7.7h1v-1v-1.6V103.6L350.5,103.6z"/>
	</g>
	<g>
		<polygon style="fill:#FFFFFF;" points="366.9,126.7 366.9,109.8 362.2,126.7 359.6,126.7 354.8,109.8 354.8,126.7 351.9,126.7 
			351.9,104.1 356.1,104.1 361,122 365.8,104.1 369.9,104.1 369.9,126.7 		"/>
		<path style="fill:#4D4D4D;" d="M369.4,104.6v21.5h-1.9v-19.7h-0.1l-5.6,19.7H360l-5.6-19.7h-0.1v19.7h-1.9v-21.5h3.3l5.2,19.1h0.1
			l5.2-19.1H369.4 M370.3,103.6h-1h-3.2h-0.8l-0.2,0.7l-4.3,15.7l-4.3-15.7l-0.2-0.7h-0.8h-3.3h-1v1v21.5v1h1h1.9h1v-1v-12.8l3.7,13
			l0.2,0.7h0.8h1.8h0.8l0.2-0.7l3.7-13v12.8v1h1h1.9h1v-1v-21.5V103.6L370.3,103.6z"/>
	</g>
</g>
<rect x="5.1" y="93.4" style="fill:#FFFFFF;stroke:#4D4D4D;stroke-miterlimit:10;" width="366" height="4"/>
</svg>
