<svg fill="none" xmlns="http://www.w3.org/2000/svg" width="100" height="100" viewBox="0 0 48 48">
  <path d="M42.0004 40.5002C45.5461 26.0405 29.9558 27.7558 31.3566 26.278C32.7672 23.3125 32.1681 19.6682 31.6728 17.5217L27.7289 13.0952C24.9289 11.4952 18.1372 12.7539 17.1372 12.7539C16.1372 12.7539 15.291 11.9102 15.291 11.9102L12.1698 17.4101C12.5013 18.0731 12.5008 21.0253 12.5006 22.4763L12.5006 22.5003C12.5003 24.5003 13.5003 26.4998 14.5003 27.5003C14.794 27.7941 15.6979 28.4909 17 29.148C16.6667 30.148 16.6504 32.5435 15.4933 33.773C14.7288 34.5852 12.9609 35.6387 12.9609 37.1387C12.058 37.4479 11.2204 37.7795 11 37.9999C10.5 38.4999 9.00004 39.9999 9.50004 41.9999C10 43.9999 12.9999 43.9999 14 43.9999H14.0894C15.153 44.9999 17.2065 44.9999 18.0003 44.9999C18.4625 44.9999 19.726 44.9999 20.9574 44.4999H21C24 45.0002 26.1913 45.0305 27.5384 44.3363C27.8317 44.4359 28.1567 44.4859 28.5004 44.5002C32.497 44.6666 38.8004 44.5002 40.0004 44.5002C41.5005 44.5002 42.7293 44.5849 43.0005 43.5002C43.5005 41.5002 42.0004 41.7122 42.0004 40.5002Z" fill="#fff"/>
  <path d="M42.0004 40.5002L41.5148 40.3811C41.5053 40.4201 41.5004 40.4601 41.5004 40.5002H42.0004ZM43.0005 43.5002L43.4855 43.6215L43.4855 43.6215L43.0005 43.5002ZM28.5004 44.5002L28.4796 44.9998L28.4796 44.9998L28.5004 44.5002ZM26.253 43.0081L26.7298 42.8577L26.7298 42.8577L26.253 43.0081ZM28.5004 40.5002L28.6716 40.97L28.6716 40.97L28.5004 40.5002ZM38.7778 40.9162C39.0076 40.7631 39.0696 40.4526 38.9165 40.2229C38.7633 39.9931 38.4529 39.931 38.2231 40.0842L38.7778 40.9162ZM15.291 11.9102L15.6441 11.5561C15.5336 11.446 15.3781 11.3937 15.2236 11.4147C15.069 11.4358 14.9332 11.5277 14.8562 11.6634L15.291 11.9102ZM27.7289 13.0952L28.1022 12.7626C28.0662 12.7222 28.0239 12.6879 27.977 12.661L27.7289 13.0952ZM31.6728 17.5217L32.16 17.4093C32.1411 17.3275 32.102 17.2518 32.0461 17.1891L31.6728 17.5217ZM12.1698 17.4101L11.7349 17.1634L11.6033 17.3953L11.7225 17.6337L12.1698 17.4101ZM12.5006 22.4763L12.0006 22.4762L12.0006 22.4762L12.5006 22.4763ZM12.5006 22.5003L12.0006 22.5002L12.0006 22.5002L12.5006 22.5003ZM14.5003 27.5003L14.1467 27.8538L14.1467 27.8538L14.5003 27.5003ZM17 29.148L17.2253 28.7016L17.2253 28.7016L17 29.148ZM15.4933 33.773L15.8574 34.1157L15.8574 34.1157L15.4933 33.773ZM11 37.9999L10.6465 37.6463L10.6465 37.6463L11 37.9999ZM9.50004 41.9999L9.98511 41.8786L9.50004 41.9999ZM19.1377 39.9807C19.4032 39.9048 19.5569 39.6281 19.4811 39.3625C19.4052 39.097 19.1285 38.9433 18.863 39.0191L19.1377 39.9807ZM15.0003 39.9999L14.777 39.5526L14.777 39.5526L15.0003 39.9999ZM21 44.4999L21.0822 44.0067L21.0414 43.9999H21V44.4999ZM20.9574 44.4999L20.7693 44.0366L20.7693 44.0366L20.9574 44.4999ZM22.8538 43.8535C23.0491 43.6582 23.0491 43.3416 22.8538 43.1463C22.6586 42.9511 22.342 42.9511 22.1467 43.1463L22.8538 43.8535ZM14.0894 43.9999L14.432 43.6356L14.432 43.6356L14.0894 43.9999ZM15.1374 36.9807C15.4029 36.9048 15.5567 36.6281 15.4808 36.3625C15.4049 36.097 15.1282 35.9433 14.8627 36.0191L15.1374 36.9807ZM13 37.1253L12.8386 36.6521L12.8383 36.6522L13 37.1253ZM31.0151 25.912C31.0079 25.9192 31.0008 25.9266 30.9937 25.934L31.7195 26.6219C31.7202 26.6211 31.7211 26.6202 31.7222 26.6191L31.0151 25.912ZM30.9937 25.934C30.9188 26.013 30.8354 26.1241 30.7935 26.2692C30.7471 26.4302 30.7625 26.5981 30.8377 26.7474C30.9055 26.8819 31.0071 26.9728 31.09 27.0321C31.1753 27.0931 31.2695 27.1409 31.3595 27.1796C31.698 27.3252 32.2345 27.4465 32.8172 27.578C34.0326 27.8523 35.6859 28.2182 37.2676 28.9722C38.8437 29.7236 40.3127 30.8442 41.1883 32.608C42.0629 34.3697 42.3816 36.8461 41.5148 40.3811L42.4861 40.6193C43.3921 36.9244 43.0916 34.1929 42.084 32.1633C41.0774 30.1357 39.4012 28.8816 37.698 28.0696C36.0004 27.2603 34.2404 26.8741 33.0374 26.6025C32.4109 26.4611 31.987 26.3609 31.7548 26.261C31.7022 26.2384 31.6781 26.2233 31.6717 26.2187C31.6628 26.2123 31.6993 26.235 31.7307 26.2973C31.7696 26.3745 31.7774 26.4664 31.7543 26.5463C31.7359 26.6103 31.7068 26.6353 31.7195 26.6219L30.9937 25.934ZM42.5154 43.3789C42.4714 43.5549 42.3981 43.6563 42.3117 43.727C42.217 43.8045 42.074 43.871 41.8555 43.9183C41.3943 44.0181 40.7877 44.0002 40.0004 44.0002V45.0002C40.7132 45.0002 41.471 45.0247 42.067 44.8956C42.3771 44.8285 42.6859 44.7128 42.9448 44.5011C43.2119 44.2826 43.3939 43.9878 43.4855 43.6215L42.5154 43.3789ZM40.0004 44.0002C38.7727 44.0002 32.5053 44.1665 28.5212 44.0006L28.4796 44.9998C32.4886 45.1667 38.8282 45.0002 40.0004 45.0002V44.0002ZM26.7298 42.8577C26.6669 42.6581 26.6609 42.4995 26.6886 42.3671C26.7162 42.2356 26.784 42.0971 26.9191 41.9475C27.2039 41.6322 27.7535 41.3045 28.6716 40.97L28.3293 40.0304C27.3723 40.3791 26.6308 40.7748 26.177 41.2772C25.9428 41.5365 25.7794 41.8306 25.7099 42.162C25.6406 42.4925 25.6717 42.8273 25.7761 43.1584L26.7298 42.8577ZM28.6716 40.97C29.3754 40.7135 30.2295 40.6327 31.169 40.6562C32.1056 40.6798 33.0914 40.8055 34.0504 40.9398C34.996 41.0721 35.932 41.2155 36.7202 41.2598C37.1168 41.2821 37.4956 41.2808 37.835 41.2359C38.171 41.1914 38.5024 41.0998 38.7778 40.9162L38.2231 40.0842C38.1235 40.1506 37.9596 40.2106 37.7037 40.2445C37.4511 40.278 37.1414 40.2819 36.7764 40.2614C36.0414 40.2201 35.162 40.0856 34.189 39.9494C33.2295 39.8151 32.1935 39.6816 31.1941 39.6566C30.1975 39.6315 29.2012 39.7127 28.3293 40.0304L28.6716 40.97ZM41.5004 40.5002C41.5004 41.3513 42.0895 41.7863 42.3157 42.0385C42.4423 42.1798 42.527 42.3077 42.5702 42.4798C42.6148 42.6577 42.627 42.9324 42.5154 43.3789L43.4855 43.6215C43.6239 43.068 43.6361 42.6192 43.5401 42.2365C43.4427 41.848 43.2461 41.5782 43.0602 41.3709C42.6614 40.9261 42.5004 40.8611 42.5004 40.5002H41.5004ZM15.291 11.9102C14.938 12.2642 14.9381 12.2643 14.9382 12.2644C14.9382 12.2645 14.9383 12.2646 14.9384 12.2647C14.9386 12.2648 14.9388 12.265 14.939 12.2652C14.9393 12.2656 14.9398 12.266 14.9402 12.2665C14.9412 12.2674 14.9424 12.2686 14.9438 12.2699C14.9466 12.2727 14.9502 12.2762 14.9546 12.2804C14.9635 12.2889 14.9756 12.3004 14.9909 12.3145C15.0214 12.3425 15.0645 12.3809 15.1188 12.4261C15.227 12.5163 15.3823 12.6358 15.5735 12.7557C15.947 12.9898 16.5031 13.2539 17.1372 13.2539V12.2539C16.7712 12.2539 16.4043 12.0962 16.1046 11.9084C15.9593 11.8173 15.8406 11.7259 15.7589 11.6578C15.7183 11.624 15.6875 11.5965 15.6678 11.5784C15.658 11.5693 15.651 11.5627 15.6469 11.5588C15.6449 11.5569 15.6437 11.5557 15.6432 11.5552C15.643 11.555 15.6429 11.5549 15.6431 11.5551C15.6431 11.5552 15.6433 11.5553 15.6434 11.5554C15.6435 11.5555 15.6436 11.5556 15.6437 11.5557C15.6438 11.5558 15.6439 11.5559 15.6439 11.5559C15.644 11.556 15.6441 11.5561 15.291 11.9102ZM17.1372 13.2539C17.4247 13.2539 18.0874 13.1684 18.8765 13.0791C19.6945 12.9864 20.713 12.8804 21.7844 12.8238C22.8574 12.7672 23.9719 12.7609 24.9824 12.8643C26.0018 12.9685 26.87 13.1803 27.4808 13.5293L27.977 12.661C27.1878 12.2101 26.157 11.9792 25.0842 11.8694C24.0025 11.7588 22.8315 11.7672 21.7317 11.8252C20.6301 11.8834 19.5882 11.9921 18.764 12.0854C17.9108 12.182 17.3496 12.2539 17.1372 12.2539V13.2539ZM31.1856 17.6342C31.6803 19.7778 32.235 23.2674 30.9051 26.0632L31.8081 26.4927C33.2994 23.3576 32.656 19.5586 32.16 17.4093L31.1856 17.6342ZM30.9051 26.0632C30.8927 26.0892 30.8801 26.1152 30.8674 26.1411L31.7652 26.5816C31.7797 26.552 31.794 26.5224 31.8081 26.4927L30.9051 26.0632ZM11.7225 17.6337C11.7612 17.7111 11.8174 17.9365 11.8648 18.3363C11.9092 18.7106 11.9396 19.1726 11.96 19.6683C12.0008 20.6586 12.0007 21.7492 12.0006 22.4762L13.0006 22.4764C13.0007 21.7523 13.001 20.6414 12.9592 19.6271C12.9383 19.1205 12.9066 18.6295 12.8579 18.2185C12.8121 17.8329 12.744 17.4407 12.617 17.1865L11.7225 17.6337ZM12.0006 22.4762L12.0006 22.5002L13.0006 22.5004L13.0006 22.4764L12.0006 22.4762ZM12.0006 22.5002C12.0003 24.6416 13.0594 26.7659 14.1467 27.8538L14.854 27.1468C13.9413 26.2337 13.0004 24.359 13.0006 22.5004L12.0006 22.5002ZM12.6046 17.6569L15.7259 12.1569L14.8562 11.6634L11.7349 17.1634L12.6046 17.6569ZM16.5257 28.9899C16.4284 29.2817 16.3593 29.6566 16.294 30.0344C16.2262 30.4264 16.1592 30.843 16.0669 31.2684C15.8795 32.1324 15.6082 32.9213 15.1292 33.4303L15.8574 34.1157C16.5355 33.3952 16.8509 32.3715 17.0442 31.4804C17.1423 31.0282 17.2142 30.5816 17.2794 30.2048C17.347 29.8137 17.405 29.5142 17.4743 29.3061L16.5257 28.9899ZM15.1292 33.4303C14.9597 33.6104 14.7287 33.8095 14.4479 34.0525C14.1761 34.2877 13.8679 34.5555 13.5821 34.8492C13.0213 35.4255 12.4609 36.1861 12.4609 37.1387H13.4609C13.4609 36.5912 13.7845 36.0751 14.2987 35.5466C14.5505 35.2879 14.8276 35.0463 15.1022 34.8087C15.3679 34.5788 15.6446 34.3417 15.8574 34.1157L15.1292 33.4303ZM10.6465 37.6463C10.1704 38.1225 8.43875 39.8163 9.01497 42.1212L9.98511 41.8786C9.56134 40.1835 10.8297 38.8773 11.3536 38.3535L10.6465 37.6463ZM9.01497 42.1212C9.33209 43.3896 10.4368 43.9672 11.4337 44.233C12.4424 44.502 13.5038 44.4999 14 44.4999V43.4999C13.4962 43.4999 12.5576 43.4978 11.6913 43.2668C10.8132 43.0326 10.168 42.6102 9.98511 41.8786L9.01497 42.1212ZM18.863 39.0191C18.3457 39.1669 17.5697 39.2121 16.7718 39.2572C16.3879 39.279 16.002 39.301 15.6717 39.3386C15.3599 39.374 15.0227 39.4299 14.777 39.5526L15.2237 40.4472C15.2943 40.412 15.4695 40.368 15.7847 40.3322C16.0813 40.2985 16.4371 40.2778 16.8283 40.2556C17.5807 40.2131 18.4883 40.1662 19.1377 39.9807L18.863 39.0191ZM14.777 39.5526C14.4661 39.7078 13.8674 40.0006 13.431 40.5612C12.9705 41.1529 12.7311 41.9846 13.0152 43.1212L13.9854 42.8786C13.7695 42.0152 13.9638 41.5048 14.2202 41.1754C14.5006 40.8151 14.9019 40.6079 15.2237 40.4472L14.777 39.5526ZM20.9177 44.9931C22.4321 45.2456 23.763 45.3833 24.8967 45.366C26.0261 45.3488 26.9976 45.1775 27.7674 44.7807L27.3093 43.8918C26.7321 44.1893 25.9344 44.35 24.8814 44.3661C23.8327 44.3821 22.5679 44.2545 21.0822 44.0067L20.9177 44.9931ZM14.1467 27.8538C14.4883 28.1955 15.4402 28.9209 16.7747 29.5944L17.2253 28.7016C15.9555 28.0608 15.0998 27.3927 14.854 27.1468L14.1467 27.8538ZM16.7747 29.5944C19.0362 30.7355 22.5305 31.7941 26.1712 30.4702L25.8294 29.5304C22.5574 30.7202 19.3684 29.783 17.2253 28.7016L16.7747 29.5944ZM27.3556 13.4278L31.2995 17.8543L32.0461 17.1891L28.1022 12.7626L27.3556 13.4278ZM12.7989 36.6656C12.3424 36.822 11.8943 36.9867 11.5284 37.1426C11.3458 37.2205 11.1768 37.2991 11.0344 37.3761C10.9021 37.4477 10.7551 37.5377 10.6465 37.6463L11.3536 38.3535C11.3501 38.3569 11.3588 38.3479 11.3895 38.3272C11.4184 38.3078 11.4582 38.2838 11.5104 38.2556C11.6153 38.1988 11.7534 38.1338 11.9206 38.0625C12.2543 37.9203 12.6765 37.7646 13.1229 37.6117L12.7989 36.6656ZM18.0003 45.4999C18.4664 45.4999 19.8163 45.5029 21.1455 44.9632L20.7693 44.0366C19.6357 44.4969 18.4586 44.4999 18.0003 44.4999V45.4999ZM21.1455 44.9632C21.7383 44.7225 22.3372 44.3701 22.8538 43.8535L22.1467 43.1463C21.7435 43.5496 21.2657 43.8351 20.7693 44.0366L21.1455 44.9632ZM21 43.9999H20.9574V44.9999H21V43.9999ZM28.5212 44.0006C28.211 43.9877 27.9356 43.9431 27.6991 43.8628L27.3776 44.8097C27.7278 44.9286 28.1024 44.9841 28.4796 44.9998L28.5212 44.0006ZM27.6991 43.8628C27.2449 43.7086 26.9061 43.4169 26.7298 42.8577L25.7761 43.1584C26.0552 44.0435 26.6444 44.5608 27.3776 44.8097L27.6991 43.8628ZM13.0152 43.1212C13.1435 43.6341 13.4064 44.0439 13.7469 44.3642L14.432 43.6356C14.2197 43.436 14.0635 43.1909 13.9854 42.8786L13.0152 43.1212ZM13.7469 44.3642C14.3869 44.9659 15.2849 45.2375 16.0633 45.368C16.8542 45.5006 17.6034 45.4999 18.0003 45.4999V44.4999C17.6034 44.4999 16.9289 44.4992 16.2287 44.3818C15.5161 44.2623 14.8555 44.0339 14.432 43.6356L13.7469 44.3642ZM14 44.4999H14.0894V43.4999H14V44.4999ZM14.8627 36.0191C14.3417 36.168 13.5724 36.4018 12.8386 36.6521L13.1614 37.5985C13.8762 37.3548 14.6291 37.1259 15.1374 36.9807L14.8627 36.0191ZM12.8383 36.6522L12.7992 36.6655L13.1226 37.6118L13.1617 37.5984L12.8383 36.6522Z" fill="#000"/>
  <path d="M11.4238 29.7053C13.618 28.8069 17.6027 27.6035 21.289 27.4893M27.0713 28.7092C25.9808 28.0173 24.6229 27.6594 23.1502 27.5337" stroke="#000" stroke-width=".5" stroke-linecap="round"/>
  <rect x="3.45372" y="27.5786" width="7.17055" height="7.17055" rx="1.19509" transform="rotate(-22.0912 3.45372 27.5786)" fill="#F5844E" stroke="#000" stroke-width=".796728"/>
  <path d="M6.44065 30.0628L6.14535 30.1826C5.98227 30.2488 5.7964 30.1703 5.73021 30.0072C5.66401 29.8441 5.74256 29.6583 5.90565 29.5921L6.20094 29.4722C7.50564 28.9427 8.99258 29.571 9.52213 30.8757L9.64199 31.171C9.70818 31.3341 9.62963 31.52 9.46655 31.5862C9.30346 31.6524 9.11759 31.5738 9.0514 31.4107L8.93154 31.1154C8.53438 30.1369 7.41917 29.6656 6.44065 30.0628Z" fill="#000"/>
  <path d="M5.90132 28.6113L5.58494 28.7397C5.4102 28.8106 5.21106 28.7265 5.14013 28.5517C5.06921 28.377 5.15337 28.1779 5.32811 28.1069L5.64449 27.9785C7.67516 27.1543 10.1579 28.2035 10.9821 30.2342L11.1105 30.5506C11.1815 30.7253 11.0973 30.9245 10.9226 30.9954C10.7478 31.0663 10.5487 30.9821 10.4778 30.8074L10.3493 30.491C9.66699 28.8098 7.58251 27.9289 5.90132 28.6113Z" fill="#000"/>
  <circle cx="7.24783" cy="31.6281" r=".398364" transform="rotate(-22.0912 7.24783 31.6281)" fill="#000" stroke="#000" stroke-width=".796728"/>
  <path d="M16 20.5C16 20.6904 16.0145 20.917 16.049 21.1592M16.049 21.1592C16.1958 22.189 16.7046 23.5 18 23.5 19.6 23.5 19.3333 22.1667 19 21.5 18.1993 21.4394 16.4882 21.2865 16.049 21.1592ZM29.4258 20.959C29.4032 21.148 29.362 21.3713 29.299 21.6077M29.299 21.6077C29.0312 22.6129 28.3706 23.8543 27.0843 23.7008 25.4956 23.5112 25.9184 22.2188 26.3284 21.5964 27.1306 21.6311 28.8478 21.6821 29.299 21.6077Z" stroke="#000" stroke-linecap="round"/>
  <path d="M20.4678 27.1357C21.6429 27.8855 22.8565 27.8816 24.1462 27.2509" stroke="#000" stroke-width=".85" stroke-linecap="round"/>
  <path d="M14.4944 9.0297C13.222 7.23747 12.6209 5.66148 12.4834 4.98819 11.1449-.277537 12.111 5.86149 11.7037 7.50651 11.2847 9.19889 10.7924 10.7334 10.6997 12.8655 10.5627 16.0129 11.7375 17.522 12.902 17.5726 14.0425 17.4777 14.4487 16.5488 14.8723 15.1493 15.2627 13.8596 15.5677 10.5414 14.4944 9.0297ZM29.3385 9.25092C30.0872 8.40269 30.6671 6.99984 30.916 6.3593 32.4657 1.65416 31.5145 1.61897 32.0794 7.15252 32.1927 8.26232 32.5542 9.10275 32.8811 11.915 33.3745 16.1645 31.5665 18.4421 30.0355 18.2488 28.9445 18.111 28.1445 17.0898 27.9258 14.6998 27.707 12.3098 28.2144 10.5245 29.3385 9.25092Z" fill="#fff" stroke="#000"/>
</svg>