<?xml version="1.0" encoding="UTF-8" standalone="no"?>
<!-- Generator: Adobe Illustrator 19.1.0, SVG Export Plug-In . SVG Version: 6.00 Build 0)  -->

<svg
   xmlns:dc="http://purl.org/dc/elements/1.1/"
   xmlns:cc="http://creativecommons.org/ns#"
   xmlns:rdf="http://www.w3.org/1999/02/22-rdf-syntax-ns#"
   xmlns:svg="http://www.w3.org/2000/svg"
   xmlns="http://www.w3.org/2000/svg"
   xmlns:sodipodi="http://sodipodi.sourceforge.net/DTD/sodipodi-0.dtd"
   xmlns:inkscape="http://www.inkscape.org/namespaces/inkscape"
   version="1.1"
   id="Moon_x27_s_Surface"
   x="0px"
   y="0px"
   viewBox="0 0 945 198.2"
   xml:space="preserve"
   inkscape:version="0.91 r13725"
   sodipodi:docname="footer.svg"
   width="945"
   height="198.2"><metadata
     id="metadata361"><rdf:RDF><cc:Work
         rdf:about=""><dc:format>image/svg+xml</dc:format><dc:type
           rdf:resource="http://purl.org/dc/dcmitype/StillImage" /><dc:title></dc:title></cc:Work></rdf:RDF></metadata><defs
     id="defs359" /><sodipodi:namedview
     pagecolor="#ffffff"
     bordercolor="#666666"
     borderopacity="1"
     objecttolerance="10"
     gridtolerance="10"
     guidetolerance="10"
     inkscape:pageopacity="0"
     inkscape:pageshadow="2"
     inkscape:window-width="1198"
     inkscape:window-height="884"
     id="namedview357"
     showgrid="false"
     fit-margin-top="0"
     fit-margin-left="0"
     fit-margin-right="0"
     fit-margin-bottom="0"
     inkscape:zoom="0.82009421"
     inkscape:cx="574.91242"
     inkscape:cy="180.5"
     inkscape:window-x="0"
     inkscape:window-y="0"
     inkscape:window-maximized="0"
     inkscape:current-layer="Moon_x27_s_Surface" /><style
     type="text/css"
     id="style3">
	.st0{fill:#D4D4D4;}
	.st1{opacity:0.15;}
	.st2{fill-rule:evenodd;clip-rule:evenodd;fill:#D4D4D4;}
	.st3{fill-rule:evenodd;clip-rule:evenodd;fill:#CDCDCD;}
	.st4{fill-rule:evenodd;clip-rule:evenodd;fill:#E5E5E5;}
	.st5{fill-rule:evenodd;clip-rule:evenodd;fill:#BDBDBD;}
	.st6{fill-rule:evenodd;clip-rule:evenodd;fill:#DEDEDE;}
	.st7{fill-rule:evenodd;clip-rule:evenodd;fill:#D0D0D0;}
	.st8{fill-rule:evenodd;clip-rule:evenodd;fill:#C4C4C4;}
	.st9{fill-rule:evenodd;clip-rule:evenodd;fill:#D9D9D9;}
	.st10{fill-rule:evenodd;clip-rule:evenodd;fill:#CBCBCB;}
	.st11{fill-rule:evenodd;clip-rule:evenodd;fill:#BBBBBB;}
	.st12{fill-rule:evenodd;clip-rule:evenodd;fill:#B4B4B4;}
	.st13{fill-rule:evenodd;clip-rule:evenodd;fill:#E2E2E2;}
	.st14{fill-rule:evenodd;clip-rule:evenodd;fill:#E9E9E9;}
	.st15{fill-rule:evenodd;clip-rule:evenodd;fill:#AFAFAF;}
	.st16{fill-rule:evenodd;clip-rule:evenodd;fill:#BFBFBF;}
	.st17{fill-rule:evenodd;clip-rule:evenodd;fill:#9C9C9C;}
	.st18{fill-rule:evenodd;clip-rule:evenodd;fill:#9F9F9F;}
	.st19{fill-rule:evenodd;clip-rule:evenodd;fill:#474747;}
	.st20{fill-rule:evenodd;clip-rule:evenodd;fill:#898989;}
	.st21{fill-rule:evenodd;clip-rule:evenodd;fill:#7EBF61;}
	.st22{fill:#777777;}
	.st23{fill-rule:evenodd;clip-rule:evenodd;fill:#7A7A7A;}
	.st24{fill-rule:evenodd;clip-rule:evenodd;fill:#65994E;}
	.st25{opacity:0.4;}
	.st26{fill-rule:evenodd;clip-rule:evenodd;fill:#686868;}
	.st27{fill:#E5E5E5;}
	.st28{fill:#CDCDCD;}
	.st29{fill:#BDBDBD;}
	.st30{fill:#DEDEDE;}
	.st31{fill:#C4C4C4;}
	.st32{fill:#D9D9D9;}
	.st33{fill:#CBCBCB;}
	.st34{fill:#AFAFAF;}
	.st35{fill:#BFBFBF;}
	.st36{fill:#D0D0D0;}
	.st37{fill:#9C9C9C;}
	.st38{fill:#BBBBBB;}
	.st39{fill:#FFFFFF;}
	.st40{fill:#D2D2D2;}
	.st41{fill:#C3C3C3;}
	.st42{fill:#DDDDDD;}
	.st43{fill:#B7B7B7;}
	.st44{fill:#CCCCCC;}
	.st45{fill:#E3E3E3;}
	.st46{fill:#C9C9C9;}
	.st47{fill:#D8D8D8;}
	.st48{fill:#E2E2E2;}
	.st49{fill:#BABABA;}
	.st50{fill:#9B9B9B;}
	.st51{fill:#CFCFCF;}
	.st52{fill:#CECECE;}
	.st53{fill:#ACACAC;}
	.st54{fill:#8E8E8E;}
	.st55{fill:#ABABAB;}
	.st56{fill:#B2B2B2;}
	.st57{fill:#D1D1D1;}
	.st58{fill:#C7C7C7;}
	.st59{fill:#D3D3D3;}
	.st60{fill:#ADADAD;}
	.st61{fill:#9D9D9D;}
	.st62{opacity:0.6;}
	.st63{fill:none;}
	.st64{opacity:0.2;}
	.st65{fill:#E1001A;}
</style><g
     id="g5"
     transform="translate(0,-162.8)"><polygon
       class="st40"
       points="476.9,163.6 480.6,163.8 481.6,164.2 482.5,165.9 487.4,169.2 490.3,170.4 519.8,176.4 548.4,182.2 550,182.7 550.2,183 550.1,183.3 545.8,187.9 542.1,193.2 540.8,195.2 537.3,200.1 537.2,204.2 540.3,208.6 554,224.4 562.3,229.1 587.1,236 588.2,236.2 590.4,235.4 594.4,232.8 595.9,232.9 601.8,234.3 604.3,236.1 607.1,237.6 622.4,235.2 624.6,234.3 627.7,233.3 637.6,229.3 648.7,224.9 650.7,222.7 653.3,213.8 655.2,213.1 666,220.3 709,249 716.2,253.9 718.8,255 761.9,263.7 764.5,265.7 777.2,291.8 783,303.7 793.6,325.5 794.5,327.4 794.5,328.8 788.6,329.6 784.9,330 783.9,330.4 782.3,331.2 781.2,332.3 779.3,334.1 774.5,341 774.6,342 780,348.8 781.9,350.1 789.8,352.4 791.5,352.1 795.9,352.1 798.3,352.6 802.4,351.2 803.1,350.9 809.4,347.9 812.1,348.2 825.3,360 825.6,361 488.9,361 487.2,359.4 482.1,351.2 479.7,349.4 471.1,345.8 468.1,344.7 462,338.3 461,337.8 456.4,335.3 429.7,324.8 404.4,317.8 401.6,317.8 353.6,327.4 351.3,328.3 350.8,328.8 348.7,330.1 341.1,337 337.8,340.4 328.6,350.7 327.4,352 323.1,357.5 321.1,361 97,361 97.3,359.8 103.9,353.5 108.6,349.1 118.5,339.7 127.6,331.2 128.9,329.4 135.5,314.7 143.3,297.4 146,291.4 149.1,289.4 152.4,289.1 154.1,287.8 158.4,285.1 161.6,284.9 163.5,285.6 166,286 174.7,281.8 175.5,278.1 172.4,274.5 172.2,271.9 175,266.3 175.3,264.6 178.7,259.6 179.5,259 180.7,259.3 183.2,260.6 184.8,263.6 186,266.1 187.5,267.4 187.3,268.1 179.6,278.1 178.5,279.2 189.4,270.2 191.5,265.9 191.5,257.3 191.3,254.8 191.6,253.5 194.9,252.4 206.5,246.6 209.2,246.8 215.6,249 221.7,249.6 223.8,248.8 226.4,248 229.4,248.7 230.3,248.8 234.4,247.4 235,245.7 233.8,243.9 233.9,242.3 234.8,241.2 235.7,239.1 237.6,236.9 238.6,236.3 241.3,239.1 242.4,240.7 241.7,242.3 238.1,245.6 237.9,245.8 238,245.7 242.8,242.6 244.2,240.4 244.7,235.4 242.1,232.2 240.1,230.7 240.1,230.4 241.5,229.3 258.1,221.1 281.2,209.7 300.5,200.1 320.6,190.2 339.7,180.7 344.2,178.7 345.4,177.9 346.3,177.4 358.5,175.3 382,172.2 383.4,172.3 383.9,173.5 384.4,174.9 388.6,177.2 389.2,177.3 395.6,177.4 398.7,175.1 398.4,173.4 396.9,171.6 397,170.4 402.1,169.6 430.9,165.8 450.1,163.3 456.3,162.8 456.3,162.8 458.1,162.8 461.3,163 "
       id="polygon7"
       style="fill:#d2d2d2" /><polygon
       class="st41"
       points="809.8,258.2 812.7,263.6 817.2,272.7 824.2,287.1 829.3,297.8 833,302.8 845.5,313.8 856.8,323.9 867.4,333.3 876.1,341.1 887.1,350.9 896,358.9 897.2,359.9 897.5,361 825.6,361 815.1,351.6 812,348.8 809.5,348.5 803.1,351.6 803.6,350.4 808.2,346.1 808.4,337.7 806.4,334.5 805.3,333.6 795.5,329.2 794.3,328.5 793,325.5 781.8,302.6 769.2,276.8 764.1,266 761.8,264.2 718.6,255.5 716,254.4 677.1,228.4 655.4,213.9 653.6,214.5 651.1,223.2 649.3,225.2 626,234.4 624.8,234.9 624.5,234.5 626.3,233 643.3,220.9 644.1,220.1 646.3,197.5 644.6,192.5 643.3,190.9 643.6,190.2 660,194.6 708.8,205.9 718.9,208.2 727.6,211.5 746.3,219.1 748.4,220.1 750.1,220 752.7,218.2 753.9,218 753.1,219.4 747.6,226.2 746.8,227.5 744,230.9 741.8,233 741.5,234.9 743,236.9 743.4,238.3 744.9,240.8 745.6,241.8 754.2,247.7 766.3,250.7 769.4,251.1 780.9,251 787,248.4 790.8,246.6 791.8,246.7 791.8,246.7 792.9,247.7 809.2,257.8 "
       id="polygon9"
       style="fill:#c3c3c3" /><polygon
       class="st42"
       points="27.4,334.6 43.4,319.2 54.4,308.7 68.1,297.8 92.1,280.1 113.8,264.2 115.4,262.5 116.7,261 117.2,261.9 116.2,267.9 114.9,269.6 111.7,275.6 111.9,276.7 112.8,276.1 116.7,268.3 117.6,267.1 118.8,267.6 123.1,272.2 125.3,273.7 127.8,274.8 128.5,275.5 128.6,276.4 128.6,281.1 132.5,276.8 144,277.4 165.9,272.8 173.5,266.6 174.9,265 175.9,264.7 172.7,272.2 172.8,274.1 175.6,277.3 176.4,278.6 175.4,282 165.7,286.8 163.5,286.3 160.8,285.5 158.3,285.7 154.5,288.3 153,289.6 148.8,289.9 146.7,291.3 135.2,316.9 129.1,330.2 128.5,331.1 119.7,339.3 115.3,343.4 105.2,353.1 97.9,360 97,361 0,361 0,361 6.8,354.3 13.2,348.3 "
       id="polygon11"
       style="fill:#dddddd" /><polygon
       class="st43"
       points="872.7,338.8 864,331.1 852.8,321.1 844.1,313.3 833.3,303.7 828.9,298.1 824.1,288.1 812.7,264.8 810,259.2 809.8,258.2 812.7,260 824.1,265.5 840.5,271.4 845.1,274.1 873.6,298.2 874.4,298.7 875.1,300 874.7,301.5 873.6,301.1 872.4,300.7 870.9,304.1 871.3,305.9 875.3,312.2 875.8,312.8 883,314.7 885.6,314.2 886.6,312.8 886,310.2 886.1,308.6 886.7,307.9 888.1,310.5 900.8,321.3 913.6,330.5 938.7,348.3 939.7,349.4 945,361 897.5,361 897.5,361 891,355.1 881.9,347 "
       id="polygon13"
       style="fill:#b7b7b7" /><polygon
       class="st44"
       points="348,356.2 355.9,350.7 357.6,349.1 358.6,348.9 369.6,340.9 371.3,340.3 371.6,340.3 422,340.1 426.3,340.9 446.7,345.5 451.2,348.3 456.4,354.8 457.5,355.5 456.6,361 454,361 446.2,356.5 435.4,349.7 432.6,348.9 417.7,349.5 412.3,349.7 398.9,350.2 382.9,350.9 377.1,352.5 362.7,360.3 360.2,361 360.2,361 342.3,361 342.7,359.9 "
       id="polygon15"
       style="fill:#cccccc" /><polygon
       class="st45"
       points="456.9,350.2 457.1,343.1 455.4,340.6 436.7,333.4 435.2,332.8 428.7,328.7 425.1,327.4 415.5,325.5 414.2,325.5 413,325.4 405.2,323.2 403.2,323.3 374,328.7 364.5,330.5 355.6,331.9 354,333.3 346.1,344.3 340.8,351.8 339.2,356 338.9,359.3 338.2,361 330.1,361 330.1,359.6 338.7,344.1 347.1,332.1 350.8,327.8 352.6,327 401.8,317.1 404.1,317.1 425.7,322.9 453.8,333.4 460.2,336.4 461.5,337.5 462,339.2 462.7,356.4 462.9,359.7 462.3,361 456.6,361 456.6,361 457.2,355.6 456.7,354.5 "
       id="polygon17"
       style="fill:#e3e3e3" /><polygon
       class="st45"
       points="383.1,350.3 401.8,349.6 417,349 433.6,348.3 434.9,348.7 452.7,360 454,361 360.2,361 360.2,361 367,357.3 377.6,351.6 "
       id="polygon19"
       style="fill:#e3e3e3" /><polygon
       class="st38"
       points="353.9,332.4 355.3,331.4 364.3,329.9 364.7,330.9 363.9,333.2 358.9,347.9 357.7,349.7 356.4,351 344.1,359.6 342.3,361 338.2,361 338.2,361 338.8,354.3 339.4,352.8 "
       id="polygon21"
       style="fill:#bbbbbb" /><polygon
       class="st46"
       points="465.1,340.8 468.3,344.1 474.6,350 475.3,351.4 476.5,359.8 476,361 462.3,361 462.3,361 461.5,341.8 461.5,337.5 "
       id="polygon23"
       style="fill:#c9c9c9" /><polygon
       class="st47"
       points="325.1,361 324.9,359.7 325.9,356.9 327.1,351.6 332,346.4 337,340.4 344.2,333.6 349.4,328.9 350.8,327.8 350.8,327.8 348.7,330.9 330.1,361 "
       id="polygon25"
       style="fill:#d8d8d8" /><polygon
       class="st41"
       points="468.3,344.1 481.3,349.6 482.2,350.3 488.9,361 476,361 476,361 474.7,351.4 473.7,349.8 "
       id="polygon27"
       style="fill:#c3c3c3" /><polygon
       class="st42"
       points="321.1,361 327.1,351.6 327.1,351.6 327,355.1 325.1,361 "
       id="polygon29"
       style="fill:#dddddd" /><polygon
       class="st42"
       points="220.6,215.3 255.1,199 260.7,196.3 267.3,194 331.3,181 344.3,178.3 346.3,178 342.5,180 332.8,184.7 303.4,199.3 283.7,209 264,218.8 244.4,228.5 240.4,230.4 239.2,230.6 237.8,230.3 235.3,228.7 224.7,226.2 221.6,226.6 213.3,228.4 211.5,229.3 210.2,230.1 209.6,230.8 206.4,234.9 204.1,238.7 203.2,240.3 204.6,238.6 205.7,236.7 206.5,236.4 208,238.1 214.4,242.3 227.6,243 234.8,239.8 236.3,239.2 234.6,242.2 234.5,244 235.7,245.8 234.9,247.8 230.1,249.5 228.9,249.3 225.2,248.6 224.2,249.3 222.3,250.1 211.9,248.9 209.2,247.5 206.4,247.3 193.2,253.8 191.8,253.8 190.7,253.1 187.1,249.5 185.4,248.5 181.6,247.5 180.8,247.7 180,247.5 177.5,245.9 176,245.3 172.2,244.3 155.9,242.1 155,241.4 155,241.4 185,229.9 209,220.7 "
       id="polygon31"
       style="fill:#dddddd" /><polygon
       class="st42"
       points="604.4,237.5 600.2,234.5 596.7,233.6 590.7,235.9 588.4,236.8 561.3,229.4 552.4,223.5 537.7,205.8 536.8,204.3 537.3,203.3 542,199.3 547.5,192.9 549,191.5 550.1,192.5 554.4,201.1 557,204.3 560,207 559.9,208.3 557.7,216 564.3,211.6 565.5,211.2 579.8,216.4 597.1,220 615.8,218.7 625.7,214.5 629.2,212.2 630.4,211.9 630.5,212.9 627.7,216.9 623.3,221.2 622.7,224.2 625.1,230 624.8,234.5 624.8,234.5 624.8,234.9 606.1,238.3 "
       id="polygon33"
       style="fill:#dddddd" /><polygon
       class="st48"
       points="176.4,244.8 177.4,246.6 179.7,257.7 179.6,259.3 175.9,264.7 171.9,269.3 165.9,273.4 147.2,277.8 133.6,277.5 132.5,277.3 128.2,275.6 125.3,274.4 122.5,272.3 117.7,267.5 117.4,266.2 119.3,261 122.6,253.9 124.8,250.8 127.2,249 147.2,241.7 149.5,241.3 155,241.4 155,241.4 161.1,242 175.2,244.3 "
       id="polygon35"
       style="fill:#e2e2e2" /><polygon
       class="st45"
       points="738.6,292.6 758.9,301.7 760.5,302.8 760.8,306.8 760.1,318 757.3,321.1 755.4,323.1 754,323.8 742.3,329.5 726.4,328.5 715.2,325 713.7,324 710.3,321.2 709.7,320.9 708.2,319.6 705.4,315.5 702.7,309.6 713.4,295.5 714,294.9 714,294.9 718.7,293.8 734.5,292.2 "
       id="polygon37"
       style="fill:#e3e3e3" /><polygon
       class="st45"
       points="360.5,214.9 381.3,220.2 382.5,220.8 383.6,226 384.6,233.7 383.9,235.7 381.1,239.4 379.5,240.8 372.3,246.3 355.1,248.6 344.6,247.3 342.6,246.6 338.5,244.4 338.3,244.2 331.1,236.6 330.3,235.4 338.8,220.2 338.8,220.2 347.7,217.7 357.7,215.1 "
       id="polygon39"
       style="fill:#e3e3e3" /><polygon
       class="st46"
       points="517.3,310.3 505.6,301.6 487.9,288.6 487.6,286.9 492.6,279.9 494,279 507.9,278.2 518.8,277.4 520.1,278 520.7,279.5 520.4,280.3 520,287.6 520.7,291.1 524.2,299.1 526.8,302.3 535,310.2 535.3,311.3 535.3,311.3 526.1,311.6 519.5,311.3 "
       id="polygon41"
       style="fill:#c9c9c9" /><polygon
       class="st41"
       points="524.7,167.2 535.8,167.9 550.2,168.9 557.5,170.5 564.8,172.2 564.6,173.3 560.5,175.8 555,180 551.2,182.7 549.9,182.9 541.6,181.4 490,170.9 487.3,169.8 480.6,165.3 480.1,164.7 481.4,164.5 481.4,164.5 497.9,165.5 509.4,166.2 "
       id="polygon43"
       style="fill:#c3c3c3" /><polygon
       class="st42"
       points="748.2,327.4 753.1,324 755.1,322.5 755.3,323.6 751.7,328.5 751.1,332 752.5,335.1 752.1,338.5 750.5,339.6 740.8,341.7 738.9,340.8 737,339.3 733.9,338.6 730.7,340.1 728.4,341.2 709.6,335.8 707.6,334.5 695.8,319.7 695.6,319.3 696.5,317.6 702.5,310 703.3,309.6 705.8,315.1 709.2,319.7 710,320.5 710.4,323.6 709.4,326.7 709.4,326.7 713.4,323.6 713.8,323.5 713.8,323.5 717.3,325.2 735.2,329.3 "
       id="polygon45"
       style="fill:#dddddd" /><polygon
       class="st46"
       points="202,322.3 204.6,321.3 216.5,319 221.1,318.9 225.8,319.1 227.1,319.7 228.2,321.8 229.9,327.7 229.6,329.6 226.1,334.1 224.5,335 212.5,336.3 198.8,337.7 189.6,336.9 180.7,334.8 176.8,333.4 176.8,333.4 177.9,332.8 196.3,325.4 "
       id="polygon47"
       style="fill:#c9c9c9" /><polygon
       class="st46"
       points="631.7,262.4 633.8,263.4 646.5,269.6 658,274.6 658.8,275.2 652,277 644.9,278.4 636.4,278.7 611.4,275.3 609.3,274.1 605.8,269.5 605.6,268.2 607.9,261.3 609,259.5 609,259.5 610.3,259.3 624.4,260.7 "
       id="polygon49"
       style="fill:#c9c9c9" /><polygon
       class="st42"
       points="339.3,248.8 342.7,246.1 349.2,247.5 359.6,248.2 374.2,244.8 376.3,243.4 380.8,238.8 381,239.8 378.8,244.2 378.9,248.7 380.1,250.5 380.6,253.5 380.4,253.8 378.8,255 370.3,258.2 368.5,257.6 366.4,256.6 363.5,256.4 360.9,258.2 358.7,259.6 340.2,257.4 336.4,255 325.8,245.6 325.3,245.2 325.5,243.7 330,236 330.9,235.4 330.9,235.4 335.8,242 338.8,243.9 "
       id="polygon51"
       style="fill:#dddddd" /><polygon
       class="st47"
       points="519.8,290.6 519.5,287.4 519.9,280.6 520.1,279.7 521.5,279.6 528.3,282.4 549.8,291.5 550.9,293.9 549,299.6 547.9,301.1 540.8,307.5 539.2,309.1 536.8,311.3 535.3,311.3 535.3,311.3 527.1,303.3 522.9,297.6 "
       id="polygon53"
       style="fill:#d8d8d8" /><polygon
       class="st47"
       points="223.1,334.7 226.5,332.8 228.7,329.9 229.2,327.2 227.1,319.7 230.2,322.8 236.9,333.5 238.5,336.6 238.2,338.1 231.6,342.8 230.4,343.2 209.6,346.4 207.1,346.3 189.5,342 186.9,340.6 177.5,334 176.8,333.4 176.8,333.4 193.3,337.2 197.7,337.2 "
       id="polygon55"
       style="fill:#d8d8d8" /><polygon
       class="st47"
       points="609.6,273.7 611.5,274.8 639.6,278.5 643.8,278 657.8,275.3 658.8,275.2 649.6,281.2 639.7,284.5 628.7,286.8 624.9,286.9 604.8,283.2 603,282.4 597.1,277.9 596.8,276.4 603.7,265.1 609,259.5 609,259.5 606.4,267.4 606.9,270 "
       id="polygon57"
       style="fill:#d8d8d8" /><polygon
       class="st45"
       points="217.8,243.5 210.5,241.2 206.3,236.6 206.2,235.5 211,228.9 214.7,227.6 222.3,225.9 225.1,225.7 236.4,228.5 238,230 238.7,231.6 239.1,235.7 238.7,236.6 236.3,239.2 236.3,239.2 231.7,242.5 220.6,243.8 "
       id="polygon59"
       style="fill:#e3e3e3" /><polygon
       class="st45"
       points="807,338.3 806.8,341.6 804.2,344.5 802.8,345.2 796.5,347.6 784.8,345.6 778.1,338.7 777.5,337.6 779.9,333.4 783.4,330 788.1,329.2 794.3,328.5 794.3,328.5 803.6,332.1 806.7,334 "
       id="polygon61"
       style="fill:#e3e3e3" /><polygon
       class="st45"
       points="376.2,284.6 369.4,280.2 368.7,279.2 369,277.5 372.5,272.6 373.1,272 383.2,269.7 390.2,270.8 393.8,271.8 395.3,273.2 395.9,278.5 395.8,278.6 395.8,278.6 393.8,280.9 385.8,285.1 "
       id="polygon63"
       style="fill:#e3e3e3" /><polygon
       class="st45"
       points="548.7,298.7 550.5,293.6 549.9,292.1 520.3,279.7 520.1,279.7 520.1,278 521.4,277.7 538.7,284.3 555.3,290.6 556.3,291 556.2,292.9 553.8,299.6 550.7,303 543.1,310.2 541.5,310.9 536.8,311.3 536.8,311.3 540,307.5 547.1,301.2 "
       id="polygon65"
       style="fill:#e3e3e3" /><polygon
       class="st42"
       points="786.8,345.7 798.8,346.7 802.7,344.7 803.9,343.9 804.2,344.7 803.2,346.1 802.7,349.4 802.7,351.6 801.2,352.5 798.1,353.2 795.6,352.6 791.7,352.8 790.4,353.1 781.3,350.5 780.2,349.8 774.2,342.2 774.8,340.9 777.1,337.8 778,337.5 778,337.5 778.6,338.6 783.5,344.1 "
       id="polygon67"
       style="fill:#dddddd" /><polygon
       class="st41"
       points="191.4,253.1 191.8,253.8 192,267.7 191.3,269.3 177.6,280.3 177.3,280.4 187.1,267.5 184.2,253.5 183.8,252.1 180.8,248 180.4,247.7 180.9,247.1 180.9,247.1 185.9,248 186.8,248.4 "
       id="polygon69"
       style="fill:#c3c3c3" /><polygon
       class="st40"
       points="754.7,323.5 755.1,322.5 759.6,318.2 760.6,318.4 763.1,320.8 763.1,324 763.7,326.5 764.8,328 764.3,328.9 752.4,338.5 752.1,338.5 752.1,338.5 750.5,331.9 751,328.4 "
       id="polygon71"
       style="fill:#d2d2d2" /><polygon
       class="st49"
       points="553.6,298.8 556.3,291 557,303 554.8,309.9 554.2,310.8 551.4,313.3 549.1,314.1 542.8,311.9 541.5,310.9 541.5,310.9 546.3,306.4 552.5,300.5 "
       id="polygon73"
       style="fill:#bababa" /><polygon
       class="st41"
       points="764.8,321.8 765.1,310.5 763.6,307.4 763.7,306.2 767.8,308.3 768.8,309.4 771.4,314.3 771.7,316.7 768.7,329.6 767.6,331.2 753.8,338 752.4,338.5 752.4,338.5 759.6,332.5 764.3,328 "
       id="polygon75"
       style="fill:#c3c3c3" /><polygon
       class="st42"
       points="389.2,283.8 392.8,281.7 393.8,280.9 392.6,283.3 392.5,284.9 391.3,288.6 389.2,289.2 387.3,289 383.7,289.4 382.3,289.9 373.6,288.9 369.2,286.1 366.2,283.3 366.3,282 368,279.6 369,279 369,279 369.5,279.4 379.2,284.5 "
       id="polygon77"
       style="fill:#dddddd" /><polygon
       class="st47"
       points="564.8,172.2 565.9,172 566.3,172.7 565.3,173.9 550.4,190.7 549,191.9 544.8,197.2 536.8,204.3 535.9,203 535.9,201.3 540.2,194.9 545.2,191.5 546.2,190.2 549.4,183.9 549.9,183.1 549.9,182.9 549.9,182.9 556.6,178 563.8,173.2 "
       id="polygon79"
       style="fill:#d8d8d8" /><polygon
       class="st29"
       points="248,297.7 255.1,292.7 256,293 260.3,297.1 260.6,299.4 255.3,303.5 253.5,305.1 252.1,304.9 249.1,300.2 250.9,302.4 252.5,306 252.2,306.8 250.3,309 247.4,307.9 247.4,307.9 246.1,305.8 247.1,299.1 "
       id="polygon81"
       style="fill:#bdbdbd" /><polygon
       class="st41"
       points="389.6,242.2 389.4,237.1 388.2,228.1 386.4,224.6 385.9,223.4 390.3,224.7 391.3,225.5 394.5,229.6 395,231.5 394.5,239.5 394.2,243.6 393.6,244.8 380.9,253.5 380.4,253.8 380.4,253.8 380.4,253.6 382.1,251.1 "
       id="polygon83"
       style="fill:#c3c3c3" /><polygon
       class="st46"
       points="187.2,266.5 187.1,267.5 185,266.2 184.1,264.3 184.2,263 183.1,261.2 179.6,259.3 177,247.5 176.4,244.8 178.1,245.7 180.9,247.1 180.9,247.1 182.2,248.3 183.8,250.3 "
       id="polygon85"
       style="fill:#c9c9c9" /><polygon
       class="st44"
       points="258.6,309.4 267.8,307.4 270.5,303.6 271.4,302.8 273.9,305.6 273.9,306.8 269,312.2 267.2,313.2 261.1,315 259.6,314.7 247.4,308.7 247.4,307.9 247.4,307.9 250.2,308.6 251,308.2 "
       id="polygon87"
       style="fill:#cccccc" /><polygon
       class="st46"
       points="764.7,326.5 764.3,328 762.4,326 762.2,324.6 762.6,323.9 762,320.4 759.6,318.2 760.3,303.6 760.5,302.8 763.7,306.2 763.7,306.2 764.7,307.9 765.6,310.2 "
       id="polygon89"
       style="fill:#c9c9c9" /><polygon
       class="st44"
       points="640.6,338.9 637.9,339.3 632.7,339.8 631.5,339.4 620.7,332.3 620.5,331.5 621.2,331.2 623.4,332 624.2,332.6 627.4,334.4 629.8,334.6 640,333.8 643.6,330 644,329.5 644,329.5 646.9,333.3 646.7,334.5 "
       id="polygon91"
       style="fill:#cccccc" /><polygon
       class="st46"
       points="390.2,240.6 390,242.6 386.9,240.9 386.9,239.8 385.7,236.3 384,233.9 382.6,222.1 382.5,220.8 385.9,223.4 385.9,223.4 386.6,224.2 388.7,228 "
       id="polygon93"
       style="fill:#c9c9c9" /><polygon
       class="st29"
       points="634.8,323.5 634.8,325 631,327.7 626.7,329.9 625.6,329.7 625.3,328.9 623.6,325.3 622.6,324.4 622,323.6 622.2,322.9 622.2,322.9 623.1,322.1 630.4,318.4 "
       id="polygon95"
       style="fill:#bdbdbd" /><polygon
       class="st50"
       points="262.5,299.7 261.4,298 256,293 255.8,292.3 267,296.4 268.5,297.7 271.4,302.8 271.4,302.8 268.2,307.7 267,307 "
       id="polygon97"
       style="fill:#9b9b9b" /><polygon
       class="st44"
       points="290.4,304.6 287.2,309 284.2,311.4 284.6,312.8 286.2,313 294,311.4 295.5,309.4 296.7,308.6 296.8,308.6 297,312.9 296.6,313.3 292.2,316.3 285.4,315.4 280.4,312.9 280.2,312 280.9,311.6 282.2,309.4 281,307.7 280,305.6 280.2,305.3 281.2,305.6 283.2,308.3 284.2,308.6 287.3,306.7 287.4,304 285.5,302.5 285.3,301.3 285.3,301.3 286.2,301.2 289.9,304.1 "
       id="polygon99"
       style="fill:#cccccc" /><polygon
       class="st44"
       points="424.1,260.4 422.8,261.1 420.5,261.6 414.8,261 409,258.2 408.2,257.4 409.1,257.1 410.6,255.1 408.9,252.4 408.6,251.5 409.7,251.3 411.9,253.5 413.4,253.8 415.9,252.1 416,249.3 414.3,247.6 414.7,246.8 419.2,249.7 416.5,254 412.5,256.9 412.9,258.3 415,258.6 422.9,256.7 424.8,253.9 425.3,253.1 425.3,253.1 427.7,255.6 427.7,256.8 "
       id="polygon101"
       style="fill:#cccccc" /><polygon
       class="st29"
       points="416.8,252 412.6,255.1 411.8,254.7 409.2,251.8 410.3,253.5 411.1,254.9 410.9,257.3 408.6,257.6 408.2,257.4 407.3,256.1 407.6,252.5 410.1,249.3 413.4,247 414.8,246.7 414.6,246.9 414.6,246.9 415.5,248.1 416.8,249.2 "
       id="polygon103"
       style="fill:#bdbdbd" /><polygon
       class="st50"
       points="639.5,333.4 636.4,326.2 635.6,324.3 631.3,319.5 630.8,318.4 640.3,323.3 642.1,325.2 644,329.5 644,329.5 643.4,331.6 640.4,334.3 "
       id="polygon105"
       style="fill:#9b9b9b" /><polygon
       class="st47"
       points="695.4,316.2 697.6,312.4 700.3,309.8 701,309 703.3,303.6 708.1,299.3 714,294.9 710.1,299.5 703.3,309.6 703.3,309.6 701.4,312.6 695.6,319.3 "
       id="polygon107"
       style="fill:#d8d8d8" /><polygon
       class="st47"
       points="324.7,241.8 326.2,237.9 328.7,234.5 330,230.4 329.8,230 338.8,220.2 336.4,224 330.9,235.4 330.9,235.4 325.7,244.4 325.3,245.2 "
       id="polygon109"
       style="fill:#d8d8d8" /><polygon
       class="st29"
       points="283.9,309.8 283.2,309.4 280.2,305.3 285.3,301.3 285.3,301.3 287.5,303.4 287.2,307.5 "
       id="polygon111"
       style="fill:#bdbdbd" /><polygon
       class="st41"
       points="244.7,241.2 243.9,242.5 236.7,246.7 242.1,240.9 241.6,238.6 241.1,233.9 240.2,231.4 240.4,230.6 240.4,230.6 245.1,234.1 245.3,235.4 "
       id="polygon113"
       style="fill:#c3c3c3" /><polygon
       class="st44"
       points="393.3,170.4 390.6,173.6 388.3,174.8 387.9,175.6 388.7,176.1 389.4,176.1 396.3,175 397.6,173.7 398.7,173.3 398.9,176.2 392.4,179 391.4,178.8 384.7,176.1 384,175.4 384.9,175.1 385.8,173.5 385,172.5 384.9,171.6 385.9,171.6 387.1,172.7 388.1,172.9 390.4,171.6 390.5,170.2 389.1,169 388.9,168.1 388.9,168.1 389.8,168.1 392.3,169.6 "
       id="polygon115"
       style="fill:#cccccc" /><polygon
       class="st40"
       points="803.9,343.9 806.3,341.7 808.4,343.4 808.7,346.7 803.1,351.6 802.7,351.6 802.7,351.6 801.8,348.7 802.1,346.6 "
       id="polygon117"
       style="fill:#d2d2d2" /><polygon
       class="st29"
       points="387.7,173.9 386.9,173.5 385.1,171.9 386.3,173.3 386.5,175.1 384.5,175.6 384,175.4 383.4,174.2 383.3,172.6 388.9,168.1 388.9,168.1 391.4,170.1 391.3,171.7 "
       id="polygon119"
       style="fill:#bdbdbd" /><polygon
       class="st29"
       points="624.9,331.4 623.3,332.3 622.1,332.3 620.5,331.5 619.4,329.5 621.4,323.7 622.2,322.9 622.2,322.9 622.4,323.3 625.5,329.4 "
       id="polygon121"
       style="fill:#bdbdbd" /><polygon
       class="st50"
       points="423.7,250.7 425.3,253.1 425,255.1 423.2,257.2 422.2,256.4 420.2,253.1 418.7,249.9 414.6,246.9 414.6,246.9 414.8,246.7 421.3,248.8 "
       id="polygon123"
       style="fill:#9b9b9b" /><polygon
       class="st50"
       points="293,303.9 294.9,305.5 296.7,308.6 294.3,311.8 293.2,311.1 291.3,307.9 289.8,304.7 289.8,304.7 286.6,301.9 286.2,301.2 "
       id="polygon125"
       style="fill:#9b9b9b" /><polygon
       class="st29"
       points="258.9,322.7 260.1,322.4 260.5,322.9 261.7,323.5 261.7,326.1 259.7,328.3 259.1,328.8 257.4,327.3 258.2,328.8 257.9,329.5 257.3,330.5 255.6,329.8 255.6,329.8 254.9,328.6 257,324.1 "
       id="polygon127"
       style="fill:#bdbdbd" /><polygon
       class="st42"
       points="541.4,194.5 540.2,194.9 547.1,185 549.9,183.1 549.9,183.1 549.9,183.2 545.7,192.6 "
       id="polygon129"
       style="fill:#dddddd" /><polygon
       class="st46"
       points="240.7,238.8 239.9,238 238.7,236.6 238,230 238.8,229.7 240.4,230.4 240.4,230.6 240.4,230.6 242,236.1 242.1,240.9 "
       id="polygon131"
       style="fill:#c9c9c9" /><polygon
       class="st41"
       points="400.9,282 400,283.6 394.4,286.9 398.6,282.4 398,277.9 397,274.4 397,273.7 397,273.7 401,276.3 401.3,278.2 "
       id="polygon133"
       style="fill:#c3c3c3" /><polygon
       class="st51"
       points="258.8,302.9 252.5,307.9 251.1,308.6 250.2,308.6 250.7,308 251.9,306.1 250.6,302.5 247.9,298.8 252.1,304 253.5,304.3 257.8,301.4 260.3,299 260,297.5 255.1,292.7 255.8,292.3 255.8,292.3 261.8,297.6 261.8,298.7 "
       id="polygon135"
       style="fill:#cfcfcf" /><polygon
       class="st44"
       points="265.3,329.1 266.2,328.1 267.3,327.4 267.6,330.5 262.4,333 261.5,332.9 256.2,330.3 255.6,329.8 255.6,329.8 257.1,330.2 257.4,330.1 "
       id="polygon137"
       style="fill:#cccccc" /><polygon
       class="st51"
       points="622.4,323.3 625.7,328.5 627.2,329.1 630.9,327.3 634.3,324.9 634.3,323.5 631.2,319.8 630.4,318.4 630.8,318.4 634,321.9 635.9,324.2 632.5,328.4 632.3,328.4 625.2,332.3 623.7,333 623.3,332.3 623.3,332.3 623.4,332.2 624.3,327.3 "
       id="polygon139"
       style="fill:#cfcfcf" /><polygon
       class="st37"
       points="393.7,172.4 392.8,170.5 389.8,168.1 395.9,169.9 397,170.7 398.7,173.3 398.7,173.3 396.6,175.4 395.5,174.8 "
       id="polygon141"
       style="fill:#9c9c9c" /><polygon
       class="st47"
       points="775.8,337.5 783.4,330 778,337.5 778,337.5 774.2,342.2 774.2,340.3 "
       id="polygon143"
       style="fill:#d8d8d8" /><polygon
       class="st46"
       points="397.6,280.4 396.9,279.4 395.8,278.6 395.3,273.2 396,273 397,273.7 397,273.7 398.7,279.2 398.6,282.4 "
       id="polygon145"
       style="fill:#c9c9c9" /><polygon
       class="st29"
       points="280.2,312 278.9,310.1 280,305.6 280,305.6 282.6,309 282.7,311.4 "
       id="polygon147"
       style="fill:#bdbdbd" /><polygon
       class="st29"
       points="409.8,173.6 408.6,175.5 405.7,177.6 403.7,177.6 403.7,177.6 404.5,173.9 408,172.4 "
       id="polygon149"
       style="fill:#bdbdbd" /><polygon
       class="st44"
       points="408.7,175 409.2,173.7 409.9,173.6 408.7,176.1 407.3,176.9 407,177.4 407.6,177.7 412.3,176.9 414,175.9 414.8,176.6 414.8,177.4 409.5,179.9 408.5,179.7 403.7,177.6 403.7,177.6 405.6,176.4 405.7,176.2 "
       id="polygon151"
       style="fill:#cccccc" /><polygon
       class="st37"
       points="262.5,325.1 261.1,323.7 260.3,322.9 260.1,322.4 261.2,322.8 267.3,327.4 267.3,327.4 265.6,329.6 264.7,329.1 "
       id="polygon153"
       style="fill:#9c9c9c" /><polygon
       class="st47"
       points="368,277.1 371.5,273.3 373.1,272 370.1,276.6 369,279 369,279 366.2,283.3 365.8,281.6 "
       id="polygon155"
       style="fill:#d8d8d8" /><polygon
       class="st42"
       points="702.1,304.7 703.3,303.6 703.3,303.6 703.5,304.3 697.6,312.4 "
       id="polygon157"
       style="fill:#dddddd" /><polygon
       class="st42"
       points="326.5,238 326.2,237.9 328.3,232.7 329.8,230 329.8,230 330.1,231.3 329.2,234.9 "
       id="polygon159"
       style="fill:#dddddd" /><polygon
       class="st29"
       points="392.1,182.7 393.2,183.3 393.7,184 391.1,186.1 390.3,186.6 390,186.6 390,186.6 388.7,185.4 389.7,183.5 "
       id="polygon161"
       style="fill:#bdbdbd" /><polygon
       class="st37"
       points="409.7,173.9 409.2,173.7 408,172.4 409.8,172.9 414,175.9 414,175.9 412.7,177.3 411.5,176.8 "
       id="polygon163"
       style="fill:#9c9c9c" /><polygon
       class="st44"
       points="394.9,185.6 396.2,185.1 396.2,186.6 390,186.6 390,186.6 390.2,186.5 391.3,186.2 "
       id="polygon165"
       style="fill:#cccccc" /><polygon
       class="st37"
       points="392.1,182.7 396.2,185.1 396.2,185.1 395.3,185.9 393.4,184 "
       id="polygon167"
       style="fill:#9c9c9c" /><polygon
       class="st47"
       points="115.9,271.7 112.5,277.6 111.2,277.4 110.9,276.4 113.5,270.3 116.6,261.9 116.7,261 123.9,251.7 124.8,250.8 124.8,250.8 122.7,254.9 117.7,267.5 "
       id="polygon169"
       style="fill:#d8d8d8" /><polygon
       class="st45"
       points="565.9,172 571,170.7 590.5,169.7 601.4,169.2 603.8,169.6 633.8,182.3 639.3,185.5 639.3,189.8 638.4,200 637.9,205.8 637.2,207.5 631.4,212 630.4,212.2 624.6,215.9 611.6,220.3 603.4,221 589.3,219.3 567.1,212.6 565.3,211.6 563.7,211 560.6,208.6 559.5,207.1 555.9,204.1 554.4,202.2 549.6,192.8 549,191.9 549,191.9 556,182.5 565.2,173.2 "
       id="polygon171"
       style="fill:#e3e3e3" /><polygon
       class="st46"
       points="746.4,227.2 747.3,227.7 748.8,230.8 751.3,233.8 752.2,234.8 751.4,238.8 753.6,237.4 754.8,236.9 771.9,240.9 781.1,240.5 784.5,239.1 787.2,238.2 787.9,238.6 787.1,240.2 785.3,242.3 784.9,244.1 785.6,245.7 785.7,249.3 781.6,250.9 775.9,251.2 774.4,250.6 770.2,249.3 768.5,250.2 766.7,250.7 752.9,247.2 747.7,244 742.5,237.3 742.3,236.9 742.3,236.9 740.5,234.5 740.6,233.3 "
       id="polygon173"
       style="fill:#c9c9c9" /><polygon
       class="st46"
       points="639.3,185.5 643.6,190.2 645.7,193 646.8,195.9 644.9,219.1 644.5,220.6 643,220.1 640.4,217.6 640.2,216.1 641.3,214.5 640.7,210.6 638.1,208.2 637.4,206 637.4,206 638.1,196.6 639,187.3 "
       id="polygon175"
       style="fill:#c9c9c9" /><polygon
       class="st35"
       points="777.6,240.5 763.2,238.5 759,237.4 757.4,236.6 755.1,231.9 753.4,228.6 753.6,227.5 757.6,226.2 758.4,226.4 759,226.8 763.9,230.3 764.9,231 771,234.3 771,234.3 781.5,238.6 781.4,239.6 "
       id="polygon177"
       style="fill:#bfbfbf" /><polygon
       class="st52"
       points="780.9,239.3 781.5,238.6 782.1,238.6 787.2,238.2 778,241.8 760.6,239.5 754.7,237.3 752.2,235.6 751.7,234.9 747.2,228.6 746.4,227.2 749.4,223 753.9,218 753.8,220.5 753.2,221.2 752.4,222.7 750.4,226 750.5,226.7 750.9,228.5 756.5,234.9 757.7,236.2 757.7,236.2 759.3,236.9 777.7,239.9 "
       id="polygon179"
       style="fill:#cecece" /><polygon
       class="st49"
       points="881.5,315.5 877.2,315 873,309.4 870.5,305.2 870.3,304.1 871.3,304.5 873.6,303.7 873.8,302.3 874.4,301.5 874.6,300 875.1,300.6 875.5,303.2 876.4,304.1 880.2,304 881.3,302.3 880.7,299.8 881,298.7 881.4,298.9 883.5,303.7 882.3,305.1 878.8,306 874.1,306.2 873.7,307.6 874.8,308.7 882.7,311.8 886.6,310.5 886.6,310.5 887.3,313.7 886.6,314.6 "
       id="polygon181"
       style="fill:#bababa" /><polygon
       class="st49"
       points="750.7,225.7 755.6,223.6 758.4,226.4 754.7,227.5 754.2,228.9 757.3,235 757.7,236.2 757.7,236.2 750.1,228.1 750,226.6 "
       id="polygon183"
       style="fill:#bababa" /><polygon
       class="st53"
       points="875.2,304.8 874.8,304.2 874.6,300 874.4,298.7 881,298.7 881,298.7 882.1,302.9 881.3,304.4 "
       id="polygon185"
       style="fill:#acacac" /><polygon
       class="st35"
       points="787.9,238.6 789.4,243.1 791.1,245.6 790.3,246.7 786.3,249.1 785.5,249.1 785.5,249.1 784.5,244.4 784.9,241.8 "
       id="polygon187"
       style="fill:#bfbfbf" /><polygon
       class="st54"
       points="882.3,311.2 882.6,306.8 883,303.9 881.4,298.9 886.5,305.4 886.7,307.9 886.6,310.5 886.6,310.5 885.6,311.6 882.7,312.4 "
       id="polygon189"
       style="fill:#8e8e8e" /><polygon
       class="st55"
       points="753.2,221.2 755.6,223.6 755.6,223.6 754.2,224.6 750,226.6 "
       id="polygon191"
       style="fill:#ababab" /><polygon
       class="st41"
       points="771,234.3 771,234.3 767.4,233 759,226.8 "
       id="polygon193"
       style="fill:#c3c3c3" /><polygon
       class="st56"
       points="791.8,246.7 787.3,248.6 786.2,248.8 786.2,248.8 791.1,245.6 791.9,246.1 "
       id="polygon195"
       style="fill:#b2b2b2" /><polygon
       class="st40"
       points="641.7,215 642.1,218.5 644.5,220.6 637.8,225.9 624.8,234.5 624.1,228.9 621.9,223.9 622.4,221.3 625.2,218.6 630.4,212.2 635.8,207.9 637.4,206 637.4,206 639.8,209.1 641.1,210.3 "
       id="polygon197"
       style="fill:#d2d2d2" /><polygon
       class="st29"
       points="773.6,251.6 764.1,250.6 753.7,248.2 749.8,246.4 745.3,242.3 742.7,238 742.3,236.9 750.2,245.4 754.4,247.1 766.3,250.2 768.3,249.5 770.8,248.6 773.5,249.3 774.7,250.1 776.8,251 784.4,249.8 785.5,249.1 786.2,248.8 786.2,248.8 787.3,248.6 780,251.4 "
       id="polygon199"
       style="fill:#bdbdbd" /><polygon
       class="st46"
       points="806.7,334 809.3,339.4 808.7,346.7 808.7,346.7 807.8,343.8 806.3,341.7 "
       id="polygon201"
       style="fill:#c9c9c9" /><polygon
       class="st46"
       points="746.5,222.8 746.6,223.5 741.7,228.8 741.7,228.8 745.4,223.5 745.9,223 "
       id="polygon203"
       style="fill:#c9c9c9" /><polygon
       class="st57"
       points="103,307 101.2,308.7 97.3,314 98.2,315.5 102.6,314.6 109.1,311.1 111.1,309.9 112.8,306.1 112.7,305 112.8,304.3 117.1,306.6 117.4,307.7 113.7,314.3 113,314.9 107.2,318.2 105.1,318.5 93.1,316.6 92.2,315.8 93.1,315.5 94.9,314.8 94.9,312.2 91.2,308.9 90.5,307.6 91.7,307.5 95.8,310.2 97.4,310.1 101.1,305.3 100.3,302.9 96.6,301.2 95.9,300 95.9,300 96.3,299.8 103.5,302.2 "
       id="polygon205"
       style="fill:#d1d1d1" /><polygon
       class="st58"
       points="102,304.7 99.2,308.8 97.3,311.2 96.1,311.3 90.8,307.7 90.1,307.5 90.4,306.7 95.9,300 95.9,300 100.7,302.5 101.5,302.8 "
       id="polygon207"
       style="fill:#c7c7c7" /><polygon
       class="st34"
       points="108.9,300.8 112.8,304.3 113.1,306.8 111.5,310.3 110.4,309.8 104.7,304.6 103.2,302.6 103.2,302.6 96.3,299.8 107.4,300.2 "
       id="polygon209"
       style="fill:#afafaf" /><polygon
       class="st58"
       points="95.7,312.3 96,313.8 95.9,314 92.2,315.8 90.5,314.5 90.1,307.5 90.1,307.5 90.8,307.7 92.5,309.3 "
       id="polygon211"
       style="fill:#c7c7c7" /><polygon
       class="st47"
       points="128.3,282.5 128.2,281.7 128.1,276.5 128.2,275.6 128.2,275.6 132.5,277.3 131.2,278.5 "
       id="polygon213"
       style="fill:#d8d8d8" /><polygon
       class="st53"
       points="870.3,304.1 870.1,302.9 873.3,299.4 874.1,299.8 874.4,301.5 874.4,301.5 874.1,303.9 872.9,305.4 "
       id="polygon215"
       style="fill:#acacac" /><polygon
       class="st41"
       points="376,327.7 403.2,322.7 405.9,322.8 413.1,324.8 424,329.4 428.9,330.7 435.6,332.3 446.9,336.6 456.6,340.5 457.6,342.2 457.2,355.6 456.1,355.2 450.1,347.8 447.9,346.4 423.4,340.8 421.8,340.7 388.8,340.7 371.7,340.9 369.7,341.6 359.2,349 357.7,349.7 357.7,349.7 363.5,332.8 364.3,329.9 "
       id="polygon217"
       style="fill:#c3c3c3" /><polygon
       class="st40"
       points="413.1,324.8 421.8,326.3 424.7,326.7 432.6,330.1 435.6,332.3 435.6,332.3 426.7,331.2 425.5,330.9 "
       id="polygon219"
       style="fill:#d2d2d2" /><polygon
       class="st47"
       points="202.5,241.5 202.4,240.4 204.3,237.7 205.6,235.6 211,228.9 211,228.9 206.3,236.6 203.5,241 "
       id="polygon221"
       style="fill:#d8d8d8" /><polygon
       class="st47"
       points="558,216.4 556.7,217.1 559.5,207.1 559.5,207.1 565.3,211.6 563.9,212.4 "
       id="polygon223"
       style="fill:#d8d8d8" /><polygon
       class="st41"
       points="175.7,253.8 174.5,254.7 166,251.7 163.4,251.5 141.6,256.2 139.5,257.1 128.7,264.7 128.5,266.6 135.4,273.9 135.7,274.7 131.1,273.3 123.2,267.5 122.2,265.1 124.3,262.6 128.6,258.8 129.8,256.8 130.9,251.8 131.6,249.7 140.1,246.7 148.6,243.6 153,243.5 159.9,244.3 164.2,244.8 164.2,244.8 173.6,246.2 175.2,248 "
       id="polygon225"
       style="fill:#c3c3c3" /><polygon
       class="st38"
       points="129.4,258.9 122.2,265.1 124,257.3 126.5,252.8 129.5,250.3 131.6,249.7 131.6,249.7 131.6,250.9 130.3,257.2 "
       id="polygon227"
       style="fill:#bbbbbb" /><polygon
       class="st40"
       points="153,243.5 159,243.5 164.2,244.8 164.2,244.8 160.6,245 159.7,245 "
       id="polygon229"
       style="fill:#d2d2d2" /><polygon
       class="st41"
       points="757.9,310.5 757,310.1 755.4,307.8 753.3,306.2 744.4,303.4 738.9,302.7 727.7,301.7 723.2,301.3 721.1,302 709.7,308.5 708.8,309 707.8,308.1 710.1,302.8 715.1,297 716.8,296.1 728.9,295.1 733.2,294.6 741.4,295.9 745.5,297.9 747.2,298.4 749.6,299.6 749.6,299.6 757.7,303.6 758.6,305.4 "
       id="polygon231"
       style="fill:#c3c3c3" /><polygon
       class="st44"
       points="721.2,301.2 725.3,300.9 741.7,302.4 747.1,303.5 753.6,305.7 755.9,307.5 757.9,310.5 757.8,311.1 755.7,311.8 749.4,306.8 747.5,306.2 728.4,305.2 723.7,305.9 713.7,310.1 712.9,311.9 717.2,320.8 717.7,321.9 716.9,321.7 710.3,315.3 708.3,312.2 707.8,308.1 707.8,308.1 709,308.3 717.8,303.2 "
       id="polygon233"
       style="fill:#cccccc" /><polygon
       class="st47"
       points="708.6,327.6 710,320.5 713.8,323.5 713.8,323.5 713.4,324 709.1,327.5 "
       id="polygon235"
       style="fill:#d8d8d8" /><polygon
       class="st40"
       points="741.4,295.9 747,297.4 749.6,299.6 749.6,299.6 746.4,298.9 745.6,298.7 "
       id="polygon237"
       style="fill:#d2d2d2" /><polygon
       class="st44"
       points="376.6,227.9 366.9,226.1 351.8,227.8 350.1,228.4 340.6,234.1 340.2,236.1 345.3,243 345.9,244 341.7,242.3 335.4,236.3 334.8,234.1 336.4,232.1 342,227.6 342.8,227.2 343.8,226.3 350.5,223.7 364.8,222.7 371.7,223.1 375.8,223.7 379.5,225.5 380.3,226 380.7,225.1 381.2,224.4 381.2,224.4 381.2,229.5 380.2,229.8 "
       id="polygon239"
       style="fill:#cccccc" /><polygon
       class="st41"
       points="380.4,227.2 380.3,227 374.3,224 365.9,223.2 353,224.1 348.6,224.4 345.9,225.4 343.1,227.6 342,228.1 341.8,227.4 343.7,220.8 359.3,216.9 363,217.4 372,219.5 379.2,221.7 381.2,224.4 381.2,224.4 381.2,226.8 381,227.5 "
       id="polygon241"
       style="fill:#c3c3c3" /><polygon
       class="st40"
       points="388.2,241.3 390,242.6 380.4,253.6 378.8,249.6 378.6,243.4 380.8,238.8 383.3,235.5 384,233.9 384,233.9 386.4,236.1 387.6,239.6 "
       id="polygon243"
       style="fill:#d2d2d2" /><polygon
       class="st38"
       points="341.2,229.1 334.8,234.1 336.5,227.5 339.5,222.8 341.9,221.2 343.7,220.8 343.7,220.8 343.9,221.6 342,228.1 "
       id="polygon245"
       style="fill:#bbbbbb" /><polygon
       class="st47"
       points="342.7,246.1 342.7,246.1 338.7,250.5 338.8,243.9 "
       id="polygon247"
       style="fill:#d8d8d8" /><polygon
       class="st40"
       points="372,219.5 372,219.5 363,217.4 368.2,217.9 "
       id="polygon249"
       style="fill:#d2d2d2" /><polygon
       class="st44"
       points="235.1,233.4 227.1,232 220.4,232.6 217.3,233.4 212.4,235.9 212.1,237.3 214.5,240.5 215.1,241.5 209.7,237.9 208.7,236 210,234.4 213.1,232.2 214.1,231.8 217.8,230.1 228.7,229.7 235.7,230.9 236.4,230.6 236.9,229.8 236.9,229.8 237.1,233.2 236,233.8 "
       id="polygon251"
       style="fill:#cccccc" /><polygon
       class="st41"
       points="232.8,230.7 221.3,230.6 218.6,230.7 214.7,231.9 213.2,232.8 212.9,232.2 214.5,228.7 223.5,226.8 227.1,227.2 231.6,228.3 236.9,229.8 236.9,229.8 236.9,231.9 236.3,232.2 "
       id="polygon253"
       style="fill:#c3c3c3" /><polygon
       class="st38"
       points="209.8,232.5 211.2,230.7 214.5,228.7 214.5,228.7 213.2,232.8 208.7,236 "
       id="polygon255"
       style="fill:#bbbbbb" /><polygon
       class="st40"
       points="231.6,228.3 227.1,227.2 231.6,228.3 "
       id="polygon257"
       style="fill:#d2d2d2" /><polygon
       class="st44"
       points="791.5,335.1 787,336 783.7,337.3 783.1,339.1 785.2,343.2 783,342 780.6,338.7 780.4,336.4 784.9,333.5 785.4,333.5 790.5,332.5 797.3,333.1 803.9,335 805.4,337.7 805.4,337.7 804.2,338.2 796.1,335.3 "
       id="polygon259"
       style="fill:#cccccc" /><polygon
       class="st41"
       points="786.3,333.5 784.9,334 784.7,332.9 784.9,330.6 791,330 792.9,329.8 797.5,330.6 801,332.1 804.7,334 805.7,336 805.4,337.7 805.4,337.7 797.3,333.7 788.9,332.9 "
       id="polygon261"
       style="fill:#c3c3c3" /><polygon
       class="st38"
       points="781,336.5 780.4,336.4 781.4,333.9 783.4,331.6 784.9,330.6 784.9,330.6 785.7,332 784.9,334 "
       id="polygon263"
       style="fill:#bbbbbb" /><polygon
       class="st59"
       points="801,332.1 797.5,330.6 801,332.1 "
       id="polygon265"
       style="fill:#d3d3d3" /><polygon
       class="st44"
       points="380,275.4 379,275.6 374.2,278.1 373.9,279.4 375.7,281.7 376.2,282.8 371.2,278.9 371.1,276.4 374.1,275.3 374.8,274.6 375.5,274.5 380.2,273.2 387,272.8 392.9,273.7 394.5,275.6 394.5,275.6 393.5,276.2 385.7,274.9 "
       id="polygon267"
       style="fill:#cccccc" /><polygon
       class="st41"
       points="376,274.7 374.8,275.2 375.3,272.7 375.9,272.2 383.4,270.6 388.9,271.4 392.8,272.6 394.5,274.7 394.5,275.6 394.5,275.6 387.3,273.4 378.4,273.9 "
       id="polygon269"
       style="fill:#c3c3c3" /><polygon
       class="st38"
       points="371.1,276.4 373.6,273 375.9,272.2 375.9,272.2 374.8,275.2 371.7,277.5 "
       id="polygon271"
       style="fill:#bbbbbb" /><polygon
       class="st60"
       points="261.8,297.6 267.5,306.8 268.2,307.7 265.1,308.5 258.4,310 251.7,309.2 251.1,308.6 251.1,308.6 253,306.3 257.4,303 "
       id="polygon273"
       style="fill:#adadad" /><polygon
       class="st60"
       points="634.8,325.6 635.9,324.2 639.9,332.9 640.4,334.3 633.8,334.9 628.8,335.2 627.4,335 623.7,333 623.7,333 625.9,331 631.6,328 "
       id="polygon275"
       style="fill:#adadad" /><polygon
       class="st60"
       points="285.9,313.6 283,312.8 283,311.9 286.9,308.5 289.8,304.7 289.8,304.7 293.8,311 294.3,311.8 "
       id="polygon277"
       style="fill:#adadad" /><polygon
       class="st60"
       points="411.3,258.4 411.3,257.6 415.7,253.8 418.7,249.9 418.7,249.9 423.2,257.2 414.6,259.2 "
       id="polygon279"
       style="fill:#adadad" /><polygon
       class="st60"
       points="386.8,175.9 388.8,173.7 390.4,173 392.8,170.5 392.8,170.5 396.6,175.4 389.6,176.7 "
       id="polygon281"
       style="fill:#adadad" /><polygon
       class="st60"
       points="257.3,330.2 258.8,328.3 259.2,327.8 260.2,327.2 262.3,325 262.6,324.8 262.6,324.8 265.6,329.6 259.8,331 "
       id="polygon283"
       style="fill:#adadad" /><polygon
       class="st28"
       points="261.4,324.2 260.3,322.9 262.6,324.8 262.6,324.8 259.2,327.8 261.5,325.9 "
       id="polygon285"
       style="fill:#cdcdcd" /><polygon
       class="st28"
       points="256.4,326.1 257.8,327.7 258.8,328.3 258.8,328.3 257.3,330.2 257.1,330.2 "
       id="polygon287"
       style="fill:#cdcdcd" /><polygon
       class="st60"
       points="407.5,178.3 407.3,178.3 405.7,177.7 406.7,176.6 408.1,175.8 409.7,173.9 409.7,173.9 411.9,176.5 412.7,177.3 "
       id="polygon289"
       style="fill:#adadad" /><polygon
       class="st60"
       points="391.6,185.2 393.4,184 393.4,184 395.3,185.9 390.2,186.5 "
       id="polygon291"
       style="fill:#adadad" /><polygon
       class="st44"
       points="625.5,193.3 622.1,190.8 618.2,189.4 596.6,187.6 585.2,186.6 583.9,186.8 564.5,193.1 563.9,194.7 570.9,208.4 571.3,209.6 570.3,209.2 569,208.3 559.6,199.2 556.4,194.5 556.1,190.8 559.9,188.6 570,183.9 570.9,183.7 578.4,180.1 580.7,179.9 605.9,182.8 611.9,183.5 618.7,185.4 629.5,189 631.4,190.4 633.7,193.6 634.8,196 634.8,196 634.2,198.3 632.9,198.7 "
       id="polygon293"
       style="fill:#cccccc" /><polygon
       class="st41"
       points="613.8,184.5 607.6,183.6 588.1,181.3 580.1,180.4 578,180.8 571,184.1 570,184.4 569.9,183.5 574.7,174.6 576,173.5 598.1,172.6 600,172.4 606.7,173.8 608.7,174.6 615.9,178.1 617.4,178.7 622.2,180.3 633.8,185.9 636,190.2 634.8,196 634.8,196 631,190.7 629.4,189.5 "
       id="polygon295"
       style="fill:#c3c3c3" /><polygon
       class="st38"
       points="556.1,190.8 557.2,186 559.7,182.9 567.9,175 571.5,173.5 576,173.5 576,173.5 570,184.4 564.1,187.3 "
       id="polygon297"
       style="fill:#bbbbbb" /><polygon
       class="st40"
       points="608.7,174.6 618.2,177.2 622.2,180.3 622.2,180.3 616.7,179.2 616.1,179 "
       id="polygon299"
       style="fill:#d2d2d2" /><polygon
       class="st31"
       points="750.6,239.9 751.7,234.9 751.7,234.9 754.7,237.3 753.2,238.2 "
       id="polygon301"
       style="fill:#c4c4c4" /><polygon
       class="st61"
       points="874.5,309.2 872.4,306.7 872.9,306 878.8,305.4 883,303.9 883,303.9 882.9,310.8 882.7,312.4 "
       id="polygon303"
       style="fill:#9d9d9d" /><polygon
       class="st38"
       points="98.1,316.1 96.7,313.9 101.1,308.1 103.2,302.6 103.2,302.6 111.5,310.3 101.1,316 "
       id="polygon305"
       style="fill:#bbbbbb" /></g></svg>