<!-- Downloaded from https://github.com/friendica/friendica/blob/stable/images/friendica.svg -->
<svg xmlns="http://www.w3.org/2000/svg" xmlns:svg="http://www.w3.org/2000/svg" xmlns:xlink="http://www.w3.org/1999/xlink" id="svg2" width="96" height="96" version="1.1"><defs id="defs4"><linearGradient id="highlightgradient"><stop id="stop3833" offset="0" style="stop-color:#fff;stop-opacity:.74374998"/><stop style="stop-color:#fff;stop-opacity:0" id="stop3829" offset="1"/></linearGradient><linearGradient id="shadowgradient"><stop id="stop3833-5" offset="0" style="stop-color:#000;stop-opacity:.5"/><stop style="stop-color:#818080;stop-opacity:0" id="stop3829-9" offset="1"/></linearGradient><linearGradient id="linearGradient4011" x1="44.948" x2="54.103" y1="0" y2="46.797" gradientTransform="scale(1,0.54545455)" gradientUnits="userSpaceOnUse" xlink:href="#highlightgradient"/><linearGradient id="linearGradient4021" x1="52.017" x2="42.868" y1="96" y2="41.838" gradientTransform="matrix(1,0,0,0.5,0,48)" gradientUnits="userSpaceOnUse" xlink:href="#shadowgradient"/><filter id="filter4055" width="1.06" height="1.24" x="-.03" y="-.12"><feGaussianBlur id="feGaussianBlur4057" stdDeviation="1.2"/></filter><filter id="filter4059" width="1.06" height="1.244" x="-.03" y="-.122"><feGaussianBlur id="feGaussianBlur4061" stdDeviation="1.22"/></filter></defs><metadata id="metadata7"/><g id="layer1" transform="translate(0,-956.3622)" style="display:inline"><path style="fill:#ffc019;fill-opacity:1;stroke:none" id="rect2993" d="M 16,0 C 7.0091019,0.04308252 0,7.0521845 0,16 0,16 0,57.499123 0,80 0,89.120146 7.0091019,96 16,96 L 32,96 32,70 64,70 63.916016,46.068359 32,46.236328 32,26 64,26 64,0 C 64,0 24,0 16,0 z" transform="translate(0,956.3622)"/><path style="fill:#1872a2;fill-opacity:1;stroke:none" id="rect2993-6" d="m 80,1052.3622 c 8.990898,0 16.086165,-6.966 16,-16 0,0 0,-41.4991 0,-64 0.07767,-9.01639 -7.067354,-16 -16,-16 l -16,0 0,26 -32,0 0,22 32,0 0,22 -32,0 0,26 c 0,0 32,0 48,0 z"/></g><g style="display:inline" id="g3997"><path id="path3999" d="m 64,0 0,26 -32,0 0,22 m 32,0 0,22 -32,0 0,26" style="fill:none;stroke:#000;stroke-width:4;stroke-linecap:butt;stroke-linejoin:miter;stroke-miterlimit:4;stroke-opacity:1;stroke-dasharray:none"/><rect id="rect4001" width="96" height="96" x="0" y="0" rx="16" ry="16" style="fill:none;stroke:#000;stroke-width:4;stroke-linecap:round;stroke-linejoin:round;stroke-miterlimit:4;stroke-opacity:1;stroke-dasharray:none"/></g><g id="layer3" style="display:none"><path style="fill:none;stroke:#000;stroke-width:4;stroke-linecap:butt;stroke-linejoin:miter;stroke-miterlimit:4;stroke-opacity:1;stroke-dasharray:none" id="path3926" d="m 64,0 0,26 -32,0 0,22 32,0 0,22 -32,0 0,26"/><rect style="fill:none;stroke:#000;stroke-width:4;stroke-linecap:round;stroke-linejoin:round;stroke-miterlimit:4;stroke-opacity:1;stroke-dasharray:none" id="rect3928" width="96" height="96" x="0" y="0" rx="16" ry="16"/></g><g id="layer2" style="display:inline"><rect style="fill:url(#linearGradient3930);fill-opacity:1;stroke:none" id="rect3823" width="96" height="48.044" x="0" y="0" rx="15.215" ry="15.216"/><rect style="fill:url(#linearGradient3904);fill-opacity:1;stroke:none" id="rect3823-8" width="96" height="47.867" x="0" y="-96" rx="15.215" ry="15.16" transform="scale(1,-1)"/><rect style="fill:url(#linearGradient4011);fill-opacity:1;stroke:none;filter:url(#filter4059)" id="rect4003" width="98" height="24" x="0" y="0" rx="15.215" ry="8.299" transform="matrix(1.0296115,0,0,1.1963836,-2.901924,-4.7132067)"/><rect style="opacity:.56746030000000003;fill:url(#linearGradient4021);fill-opacity:1;stroke:none;filter:url(#filter4055)" id="rect4013" width="96" height="24" x="0" y="72" rx="14.008" ry="12" transform="matrix(0.9768331,0,0,0.91974646,1.1649641,8.098115)"/></g></svg>
