<?xml version="1.0" encoding="utf-8"?>
<!-- Generator: Adobe Illustrator 22.0.0, SVG Export Plug-In . SVG Version: 6.00 Build 0)  -->
<svg version="1.1" id="Layer_1" xmlns="http://www.w3.org/2000/svg" xmlns:xlink="http://www.w3.org/1999/xlink" x="0px" y="0px"
	 viewBox="0 0 1000 1000" style="enable-background:new 0 0 1000 1000;" xml:space="preserve">
<style type="text/css">
	.st0{fill:#79C152;}
	.st1{fill:#FFFFFF;}
</style>
<g>
	<path class="st0" d="M1000,483.7c0,91.7-23.6,180.9-68.5,259.4c-3.7,6.5-7.6,13-11.6,19.4c-18.3,29-39.5,56.3-63.2,81.1
		C810,892.6,755.4,931,694.1,958c-61.5,27.1-126.7,41.2-194.1,42c-67.4-0.9-132.6-15-194.1-42c-61.3-26.9-116-65.4-162.6-114.3
		c-23.7-24.8-44.9-52.1-63.2-81.1c-4-6.4-7.9-12.9-11.6-19.4C23.6,664.6,0,575.4,0,483.7c0-6.8,0.1-13.7,0.4-20.5
		c0.5-13.2,1.5-26.4,3-39.5c2.9-25.2,7.5-50,13.9-74.3c15.1-57.4,39.9-111.8,73.8-161.2c0,0,1.5-2.2,3.1-4.4
		C129.5,133.9,227.8-5.1,329.6,0.1c102.1,5.3,166.1,153.6,170.4,164c4.3-10.4,68.3-158.8,170.4-164c73-3.8,144.2,66.6,191.6,125.2
		c1.8,2.2,3.6,4.5,5.3,6.6c1.2,1.5,2.4,3,3.6,4.5c0.3,0.4,0.5,0.7,0.8,1.1c3.4,4.4,6.6,8.6,9.7,12.7c9.9,13.1,18.1,24.7,24.3,33.6
		c1.6,2.2,3.1,4.4,3.1,4.4c9,13,17.3,26.4,24.9,40.2c14.5,25.9,26.7,53,36.5,80.8c3.4,9.8,6.6,19.7,9.4,29.7c1,3.5,2,7,2.9,10.5
		c2.3,8.8,4.4,17.6,6.2,26.5c3.3,15.8,5.8,31.7,7.7,47.8c1.5,13.1,2.5,26.2,3,39.5v0.1C999.9,470.1,1000,476.9,1000,483.7z"/>
	<path class="st1" d="M970.4,309.3c-9.8-27.9-22-54.9-36.5-80.8c-7.7-13.7-16-27.1-24.9-40.2c0,0-1.5-2.2-3.1-4.4
		c-6.2-8.8-14.5-20.4-24.3-33.6c-3.1-4.1-6.3-8.4-9.7-12.7c-0.3-0.3-0.6-0.7-0.8-1.1c-1.2-1.5-2.4-3-3.6-4.5
		c-1.7-2.2-3.5-4.4-5.3-6.6l-4.3,11.7l-5,13.6C810.6,265.2,702.9,554,685.4,593.3c-2.2,4.8-4.7,10.5-7.4,16.6c-1.7-1-3.3-2-4.9-2.9
		l-0.1,0l-0.1,0l-0.8-0.5l-3.9-2.3c-27.8-16.6-69.8-42.1-99.1-61.3c-3.6-2.4-4.4-7.3-1.7-10.6c5.5-6.8,11.9-12.6,26.2-17.2
		c15-4.8,37.4-16,42.4-25.2c9.4-17.4,4.3-52.4-8.4-71.2c-0.9-1.3-2.1-3.1-4.1-5.2c-11.3-12.6-27.8-17.7-47.7-14.8
		c-33.4,4.9-44.5,24.8-44.9,41.9c-0.3,13.2-5.7,26.4-5.6,32c-0.7-0.5-1.5-1.2-2.3-2.1c-0.7-0.7-1.2-1.3-1.5-2v0
		c-8.4-16.9-12.7-29-14.4-40.2c-2-13.1-0.3-25.1,5.2-37.9c5.2-12.1,5.8-26.2,1.7-39.6c-5.4-17.3-18.1-32.4-34-40.4
		c-6.2-3.1-12.5-5.1-18.5-5.9c-2.1-0.3-4.2-0.4-6.3-0.4c-15.9,0-29.8,8.3-40.1,24c-14.9,22.5-6.3,54.8,20.9,78.4
		c0.6,0.6,1.3,1,2,1.6l0.2,0.2l0.2,0.2c8.9,7.5,13.3,13.5,14.7,19.8c1.3,6.1,0.1,13.3-4.2,23.1c-7-4-14.3-7.3-20.8-10.3l-0.6-0.2
		l0,0l0,0c-13.4-6.1-26.1-11.9-34.7-21.3c-9.4-10.3-13.5-24.4-12.9-44.4c0.4-14.2-4.6-27.3-14.3-36.8c-7.6-7.6-17.9-12.6-28.8-14
		c-2.2-0.3-4.4-0.4-6.7-0.4c-2.9,0-5.8,0.3-8.7,0.8c-15.5,2.8-29.7,11.4-40.2,24.2c-10.4,12.8-15.8,28.2-15.2,43.5
		c0.5,14.1,4.5,25.4,11.9,33.6c7.4,8.2,18.4,13.4,32.4,15.3c3.7,0.5,7.5,0.8,11.5,0.8c0.7,0,1.4,0.1,2,0.2
		c9.1,1.2,23.1,9.4,36.6,21.3c13.5,11.9,23.4,24.9,26.1,34.1c-0.4,1.8-2,5.4-3.1,6.3l0,0l-0.1,0c-10.4,9-21.7,13.7-32.8,13.7
		c-1.8,0-3.6-0.1-5.3-0.4c-10-1.3-19.7-6.4-28.8-15c-8.4-7.9-18.6-12.9-28.7-14.3c-1.8-0.2-3.7-0.4-5.5-0.4c-2.7,0-5.3,0.3-7.9,0.8
		l0,0h0c-10.8,2.4-19.7,9.2-25.1,19.4c-5.1,9.6-6.3,25.3-3.3,42c3,16.7,9.7,30.8,17.9,37.7c8.6,7.3,17.6,11.7,26.6,12.9
		c1.7,0.2,3.5,0.4,5.3,0.4c11.2,0,22.5-4.7,33.7-13.9l0,0l0,0c10.6-8.9,21.7-14.3,29.7-14.5c2.3,0,4.6-0.1,6.9-0.1
		c11.2,0,22.1,0.7,32.4,2.1c9.8,1.3,19.3,3.3,28.4,5.8c6.3,1.8,12.6,3.7,18.9,5.8C510.4,607,573.4,644,642.4,700.9l0.1,0.1l0.3,0.2
		c26.3,21.6,43.6,35.9,59.6,38c1.4,0.2,2.9,0.3,4.3,0.3c2,0,4-0.2,5.9-0.6h0.1l1-0.2c18.6-4.3,31.1-24,56.1-63.2l0.2-0.3l0,0l0,0
		l0.2-0.2l0.2-0.3c10.5-16.5,21.9-33.6,31.1-47c2.3-3.3,4.4-6.4,6.3-9.2l0.1-0.2l0.1-0.2l172.1-279.3
		C977,329,973.8,319.1,970.4,309.3z"/>
</g>
</svg>
