<?xml version="1.0" encoding="UTF-8" standalone="no"?>
<!DOCTYPE svg PUBLIC "-//W3C//DTD SVG 1.1//EN" "http://www.w3.org/Graphics/SVG/1.1/DTD/svg11.dtd">
<svg width="100%" height="100%" viewBox="0 0 1772 1772" version="1.1" xmlns="http://www.w3.org/2000/svg" xmlns:xlink="http://www.w3.org/1999/xlink" xml:space="preserve" xmlns:serif="http://www.serif.com/" style="fill-rule:evenodd;clip-rule:evenodd;stroke-linejoin:round;stroke-miterlimit:2;">
    <g transform="matrix(0.427908,0,0,0.427908,510.179,298.914)">
        <g transform="matrix(9.72343,0,0,9.72343,-482.362,2391.77)">
            <path d="M0,-53.822L0,-29.422L-30.678,-29.422L-30.678,-53.822L-36.958,-53.822L-36.958,0L-30.678,0L-30.678,-23.681L0,-23.681L0,0L6.278,0L6.278,-53.822L0,-53.822Z" style="fill-rule:nonzero;"/>
        </g>
        <g transform="matrix(9.72343,0,0,9.72343,22.4729,2217.67)">
            <path d="M0,-0.072L0,2.332L-30.427,2.332C-29.829,5.513 -28.292,8.127 -25.816,10.172C-23.341,12.217 -20.357,13.24 -16.865,13.24C-14.926,13.24 -12.881,12.863 -10.728,12.11C-8.576,11.356 -6.615,10.142 -4.844,8.468L-1.364,12.917C-3.971,15.094 -6.573,16.589 -9.168,17.402C-11.764,18.215 -14.269,18.622 -16.685,18.622C-20.56,18.622 -24.005,17.815 -27.019,16.2C-30.032,14.585 -32.395,12.356 -34.105,9.508C-35.815,6.662 -36.671,3.421 -36.671,-0.215C-36.671,-3.756 -35.869,-6.919 -34.266,-9.706C-32.664,-12.492 -30.463,-14.687 -27.664,-16.291C-24.865,-17.893 -21.697,-18.694 -18.156,-18.694C-14.615,-18.694 -11.482,-17.893 -8.755,-16.291C-6.028,-14.687 -3.887,-12.487 -2.333,-9.688C-0.778,-6.89 0,-3.684 0,-0.072M-30.499,-2.692L-6.172,-2.692C-6.698,-5.825 -8.05,-8.378 -10.226,-10.352C-12.403,-12.326 -15.058,-13.312 -18.191,-13.312C-21.373,-13.312 -24.088,-12.313 -26.336,-10.316C-28.585,-8.319 -29.973,-5.777 -30.499,-2.692" style="fill-rule:nonzero;"/>
        </g>
        <g transform="matrix(9.72343,0,0,9.72343,261.466,2231.27)">
            <path d="M0,-20.093C2.631,-20.093 5.071,-19.614 7.32,-18.657C9.568,-17.7 11.494,-16.373 13.096,-14.675L13.096,-37.316L19.017,-37.316L19.017,16.506L13.671,16.506L13.348,11.518C11.744,13.289 9.795,14.682 7.499,15.699C5.203,16.715 2.703,17.223 0,17.223C-3.469,17.223 -6.573,16.416 -9.312,14.802C-12.051,13.187 -14.204,10.974 -15.77,8.163C-17.337,5.353 -18.12,2.154 -18.12,-1.435C-18.12,-5.023 -17.337,-8.222 -15.77,-11.033C-14.204,-13.844 -12.051,-16.056 -9.312,-17.671C-6.573,-19.286 -3.469,-20.093 0,-20.093M-12.021,-1.435C-12.021,1.101 -11.477,3.373 -10.387,5.382C-9.3,7.392 -7.811,8.97 -5.92,10.119C-4.031,11.267 -1.878,11.841 0.538,11.841C2.954,11.841 5.107,11.267 6.996,10.119C8.886,8.97 10.375,7.392 11.464,5.382C12.552,3.373 13.096,1.101 13.096,-1.435C13.096,-3.994 12.552,-6.273 11.464,-8.27C10.375,-10.267 8.886,-11.84 6.996,-12.988C5.107,-14.137 2.954,-14.711 0.538,-14.711C-1.878,-14.711 -4.031,-14.137 -5.92,-12.988C-7.811,-11.84 -9.3,-10.267 -10.387,-8.27C-11.477,-6.273 -12.021,-3.994 -12.021,-1.435" style="fill-rule:nonzero;"/>
        </g>
        <g transform="matrix(9.72343,0,0,9.72343,709.786,2210.34)">
            <path d="M0,19.376C-3.469,19.376 -6.573,18.569 -9.312,16.954C-12.051,15.339 -14.204,13.127 -15.77,10.316C-17.337,7.506 -18.12,4.306 -18.12,0.717C-18.12,-2.871 -17.337,-6.069 -15.77,-8.88C-14.204,-11.691 -12.051,-13.904 -9.312,-15.519C-6.573,-17.133 -3.469,-17.94 0,-17.94C2.702,-17.94 5.203,-17.432 7.499,-16.416C9.795,-15.398 11.744,-14.006 13.347,-12.235L13.671,-17.223L19.017,-17.223L19.017,15.141C19.017,19.567 18.215,23.442 16.613,26.768C15.01,30.092 12.648,32.682 9.527,34.535C6.404,36.389 2.559,37.316 -2.009,37.316C-4.521,37.316 -6.878,36.952 -9.078,36.222C-11.279,35.492 -13.265,34.47 -15.034,33.154L-12.093,28.203C-10.753,29.374 -9.221,30.289 -7.499,30.947C-5.777,31.605 -3.911,31.934 -1.902,31.934C3.193,31.934 6.966,30.468 9.419,27.539C11.87,24.608 13.096,20.703 13.096,15.824L13.096,13.958C11.494,15.657 9.567,16.984 7.32,17.941C5.071,18.897 2.63,19.376 0,19.376M-12.021,0.717C-12.021,3.253 -11.477,5.526 -10.387,7.535C-9.3,9.544 -7.811,11.123 -5.921,12.271C-4.031,13.42 -1.878,13.994 0.538,13.994C2.954,13.994 5.107,13.42 6.996,12.271C8.886,11.123 10.375,9.544 11.464,7.535C12.552,5.526 13.096,3.253 13.096,0.717C13.096,-1.841 12.552,-4.12 11.464,-6.118C10.375,-8.114 8.886,-9.687 6.996,-10.836C5.107,-11.984 2.954,-12.558 0.538,-12.558C-1.878,-12.558 -4.031,-11.984 -5.921,-10.836C-7.811,-9.687 -9.3,-8.114 -10.387,-6.118C-11.477,-4.12 -12.021,-1.841 -12.021,0.717" style="fill-rule:nonzero;"/>
        </g>
        <g transform="matrix(9.72343,0,0,9.72343,1338.48,2217.67)">
            <path d="M0,-0.072L0,2.332L-30.427,2.332C-29.829,5.513 -28.292,8.127 -25.816,10.172C-23.34,12.217 -20.356,13.24 -16.864,13.24C-14.926,13.24 -12.881,12.863 -10.728,12.11C-8.575,11.356 -6.615,10.142 -4.844,8.468L-1.364,12.917C-3.971,15.094 -6.573,16.589 -9.167,17.402C-11.763,18.215 -14.268,18.622 -16.685,18.622C-20.56,18.622 -24.004,17.815 -27.018,16.2C-30.032,14.585 -32.395,12.356 -34.105,9.508C-35.815,6.662 -36.671,3.421 -36.671,-0.215C-36.671,-3.756 -35.869,-6.919 -34.266,-9.706C-32.664,-12.492 -30.463,-14.687 -27.664,-16.291C-24.865,-17.893 -21.696,-18.694 -18.156,-18.694C-14.615,-18.694 -11.482,-17.893 -8.755,-16.291C-6.028,-14.687 -3.887,-12.487 -2.333,-9.688C-0.778,-6.89 0,-3.684 0,-0.072M-30.499,-2.692L-6.172,-2.692C-6.698,-5.825 -8.05,-8.378 -10.226,-10.352C-12.403,-12.326 -15.058,-13.312 -18.191,-13.312C-21.373,-13.312 -24.088,-12.313 -26.336,-10.316C-28.585,-8.319 -29.973,-5.777 -30.499,-2.692" style="fill-rule:nonzero;"/>
        </g>
        <g transform="matrix(9.72343,0,0,9.72343,1568.04,1869.13)">
            <path d="M0,53.822L-14.639,53.822L-14.639,0L0,0C10.573,0 18.694,2.339 24.363,7.015C30.032,11.692 32.867,18.3 32.867,26.839C32.867,35.403 30.032,42.041 24.363,46.753C18.694,51.466 10.573,53.822 0,53.822M0,48.081C8.515,48.081 15.046,46.227 19.591,42.519C24.135,38.812 26.408,33.585 26.408,26.839C26.408,20.118 24.135,14.921 19.591,11.249C15.046,7.577 8.515,5.741 0,5.741L-8.36,5.741L-8.36,48.081L0,48.081Z" style="fill-rule:nonzero;"/>
        </g>
        <g transform="matrix(9.72343,0,0,9.72343,1946.93,2217.33)">
            <path d="M0,-0.001C0,-3.589 0.808,-6.788 2.422,-9.599C4.037,-12.41 6.249,-14.622 9.06,-16.237C11.871,-17.852 15.07,-18.659 18.659,-18.659C22.247,-18.659 25.446,-17.852 28.256,-16.237C31.067,-14.622 33.28,-12.41 34.895,-9.599C36.51,-6.788 37.317,-3.589 37.317,-0.001C37.317,3.588 36.51,6.787 34.895,9.597C33.28,12.408 31.067,14.621 28.256,16.236C25.446,17.851 22.247,18.658 18.659,18.658C15.07,18.658 11.871,17.851 9.06,16.236C6.249,14.621 4.037,12.408 2.422,9.597C0.808,6.787 0,3.588 0,-0.001M6.1,-0.001C6.1,2.535 6.644,4.807 7.733,6.817C8.821,8.826 10.31,10.404 12.2,11.553C14.089,12.702 16.242,13.275 18.659,13.275C21.074,13.275 23.228,12.702 25.117,11.553C27.007,10.404 28.496,8.826 29.584,6.817C30.673,4.807 31.217,2.535 31.217,-0.001C31.217,-2.56 30.673,-4.839 29.584,-6.836C28.496,-8.833 27.007,-10.406 25.117,-11.554C23.228,-12.703 21.074,-13.277 18.659,-13.277C16.242,-13.277 14.089,-12.703 12.2,-11.554C10.31,-10.406 8.821,-8.833 7.733,-6.836C6.644,-4.839 6.1,-2.56 6.1,-0.001" style="fill-rule:nonzero;"/>
        </g>
        <g transform="matrix(9.72343,0,0,9.72343,2684.13,2087.54)">
            <path d="M0,26.696C-1.674,28.37 -3.648,29.674 -5.92,30.607C-8.193,31.54 -10.68,32.006 -13.383,32.006C-16.972,32.006 -20.171,31.199 -22.981,29.584C-25.792,27.969 -28.005,25.757 -29.62,22.946C-31.234,20.136 -32.042,16.936 -32.042,13.348C-32.042,9.76 -31.234,6.561 -29.62,3.75C-28.005,0.939 -25.792,-1.273 -22.981,-2.888C-20.171,-4.503 -16.972,-5.31 -13.383,-5.31C-10.68,-5.31 -8.193,-4.844 -5.92,-3.911C-3.648,-2.978 -1.674,-1.686 0,-0.036L-4.126,4.091C-5.251,2.823 -6.602,1.836 -8.18,1.13C-9.76,0.425 -11.494,0.072 -13.383,0.072C-15.8,0.072 -17.953,0.646 -19.842,1.794C-21.732,2.943 -23.221,4.516 -24.309,6.513C-25.398,8.51 -25.942,10.789 -25.942,13.348C-25.942,15.883 -25.398,18.156 -24.309,20.165C-23.221,22.175 -21.732,23.753 -19.842,24.902C-17.953,26.05 -15.8,26.624 -13.383,26.624C-11.494,26.624 -9.76,26.265 -8.18,25.547C-6.602,24.83 -5.251,23.85 -4.126,22.605L0,26.696Z" style="fill-rule:nonzero;"/>
        </g>
        <g transform="matrix(0.965909,0,0,0.965909,70.6117,105.231)">
            <path d="M1553.66,961.083L1628.91,885.825L1553.66,810.579L1610.27,720.483L1520.17,663.867L1555.32,563.421L1454.88,528.279L1466.79,422.533L1361.05,410.621L1349.13,304.871L1243.39,316.783L1208.24,216.338L1107.81,251.483L1051.18,161.383L961.073,218L885.831,142.754L810.589,218.004L720.485,161.392L663.873,251.488L563.431,216.338L528.289,316.779L422.539,304.863L410.627,410.604L304.885,422.517L316.802,528.258L216.348,563.408L251.493,663.846L161.393,720.458L218.014,810.575L142.756,885.825L218.006,961.083L161.393,1051.19L251.493,1107.8L216.348,1208.24L316.798,1243.39L304.885,1349.12L410.627,1361.04L422.539,1466.78L528.289,1454.87L563.431,1555.3L663.868,1520.17L720.485,1610.27L810.581,1553.65L885.831,1628.2L961.081,1553.67L1051.18,1610.28L1107.79,1520.17L1208.24,1555.32L1243.38,1454.88L1349.13,1466.79L1361.04,1361.04L1466.79,1349.13L1454.87,1243.39L1555.32,1208.24L1520.17,1107.79L1610.27,1051.18L1553.66,961.083Z" style="fill:rgb(181,31,8);fill-rule:nonzero;"/>
        </g>
        <g transform="matrix(0.965909,0,0,0.965909,70.6117,105.231)">
            <path d="M1401.3,1004.78C1401.3,859.343 1283.4,741.439 1137.96,741.439C1065.72,741.439 1000.28,770.551 952.708,817.664L952.675,817.63L885.579,884.73L830.717,829.868C782.45,774.801 711.646,739.989 632.675,739.989C487.233,739.989 369.333,857.893 369.333,1003.33C369.333,1079.33 401.563,1147.76 453.054,1195.82L885.833,1628.37L1309.05,1204.88C1361.93,1155.11 1401.3,1084.88 1401.3,1004.78" style="fill:rgb(253,212,154);fill-rule:nonzero;"/>
        </g>
        <g transform="matrix(0.965909,0,0,0.965909,70.6117,105.231)">
            <path d="M885.579,884.73L830.717,829.868C782.45,774.801 711.646,739.989 632.675,739.989C487.233,739.989 369.333,857.893 369.333,1003.33C369.333,1079.33 401.563,1147.76 453.054,1195.82L885.833,1628.37" style="fill:url(#_Linear1);fill-rule:nonzero;"/>
        </g>
        <g transform="matrix(0.965909,0,0,0.965909,70.6117,105.231)">
            <path d="M885.833,1628.37L885.579,884.73" style="fill:none;"/>
        </g>
        <g transform="matrix(0.965909,0,0,0.965909,70.6117,105.231)">
            <path d="M961.011,1553.59C941.732,1534.24 915.094,1522.28 885.686,1522.28C856.269,1522.28 829.64,1534.24 810.357,1553.59C810.665,1594.93 844.265,1628.35 885.682,1628.35C927.098,1628.35 960.702,1594.92 961.011,1553.59" style="fill:rgb(1,0,7);fill-rule:nonzero;"/>
        </g>
        <g transform="matrix(0.965909,0,0,0.965909,70.6117,105.231)">
            <path d="M797.707,1098.22C797.707,1130.02 771.94,1155.79 740.136,1155.79C708.349,1155.79 682.578,1130.02 682.578,1098.22C682.578,1066.42 708.349,1040.65 740.136,1040.65C771.94,1040.65 797.707,1066.42 797.707,1098.22" style="fill:rgb(1,0,7);fill-rule:nonzero;"/>
        </g>
        <g transform="matrix(0.965909,0,0,0.965909,70.6117,105.231)">
            <path d="M777.962,1089.59C777.962,1098.41 770.816,1105.53 762.012,1105.53C753.204,1105.53 746.054,1098.41 746.054,1089.59C746.054,1080.78 753.204,1073.63 762.012,1073.63C770.816,1073.63 777.962,1080.78 777.962,1089.59" style="fill:rgb(255,255,250);fill-rule:nonzero;"/>
        </g>
        <g transform="matrix(0.965909,0,0,0.965909,70.6117,105.231)">
            <path d="M1089.65,1098.22C1089.65,1130.02 1063.88,1155.79 1032.08,1155.79C1000.29,1155.79 974.513,1130.02 974.513,1098.22C974.513,1066.42 1000.29,1040.65 1032.08,1040.65C1063.88,1040.65 1089.65,1066.42 1089.65,1098.22" style="fill:rgb(1,0,7);fill-rule:nonzero;"/>
        </g>
        <g transform="matrix(0.965909,0,0,0.965909,70.6117,105.231)">
            <path d="M1069.9,1089.59C1069.9,1098.41 1062.75,1105.53 1053.95,1105.53C1045.14,1105.53 1037.99,1098.41 1037.99,1089.59C1037.99,1080.78 1045.14,1073.63 1053.95,1073.63C1062.75,1073.63 1069.9,1080.78 1069.9,1089.59" style="fill:rgb(255,255,250);fill-rule:nonzero;"/>
        </g>
    </g>
    <defs>
        <linearGradient id="_Linear1" x1="0" y1="0" x2="1" y2="0" gradientUnits="userSpaceOnUse" gradientTransform="matrix(200,-420,420,200,660,1340)"><stop offset="0" style="stop-color:rgb(253,212,154);stop-opacity:1"/><stop offset="1" style="stop-color:rgb(220,160,85);stop-opacity:1"/></linearGradient>
    </defs>
</svg>
