<?xml version="1.0" standalone="no"?>
<!DOCTYPE svg PUBLIC "-//W3C//DTD SVG 1.1//EN" "http://www.w3.org/Graphics/SVG/1.1/DTD/svg11.dtd">
<svg width="5461px" height="5461px" version="1.1" xmlns="http://www.w3.org/2000/svg" xmlns:xlink="http://www.w3.org/1999/xlink" xml:space="preserve" style="fill-rule:evenodd;clip-rule:evenodd;stroke-linecap:round;stroke-linejoin:round;stroke-miterlimit:1.41421;">
    <g>
        <g id="Logo">
            <g id="The Cube">
                <g>
                    <path d="M2725.01,388.949L2725.01,2912.34L220.316,2912.34L2725.01,388.949Z" style="fill:rgb(114,148,244);stroke-width:1px;stroke:rgb(114,148,244);"/>
                </g>
                <g>
                    <path d="M2725.01,5448.67L2725.01,2909.56L220.316,2909.56L2725.01,5448.67Z" style="fill:rgb(84,109,178);stroke-width:1px;stroke:rgb(84,109,178);"/>
                </g>
                <g>
                    <path d="M5240.99,2932.93L2720.15,2929.22L2723.9,389.627L5240.99,2932.93Z" style="fill:rgb(84,109,178);stroke-width:1px;stroke:rgb(84,109,178);"/>
                </g>
                <g>
                    <path d="M5241.02,2924.34L2720.18,2928.06L2723.9,5447.99L5241.02,2924.34Z" style="fill:rgb(48,63,106);stroke-width:1px;stroke:rgb(48,63,106);"/>
                </g>
            </g>
            <g>
                <path d="M737.985,3656.06C737.985,3656.06 650.104,4123.3 705.273,4177.91C760.442,4232.52 755.501,4162.6 847.196,4178.95C938.89,4195.31 911.447,4239.16 911.447,4239.16L1441.03,4237.46L1676.75,4145.74L1694.92,3723.34L1487.2,3603.74L737.985,3656.06Z" style="fill:rgb(242,242,242);stroke-width:69.33px;stroke:black;"/>
                <path d="M860.793,3479.27L942.535,3136.29L1264.09,3094.99L1524.63,3115.64L1778.21,3115.64L1880.53,3266.91L1859.96,3569.52L1560.67,3589.32L809.133,3622.88L860.793,3479.27Z" style="fill:rgb(242,242,242);stroke-width:69.33px;stroke:black;"/>
                <path d="M1704.05,4145.58L1840.78,4212.71L1983.54,4212.71L2082.53,4112.02L2171.07,3861.77L2264.03,3583.13L2105.03,3475.56L1957.01,3536.65L1800.56,3727.51L1704.28,3945.91L1704.05,4145.58Z" style="fill:rgb(242,242,242);stroke-width:69.33px;stroke:black;"/>
                <path d="M1213.44,3015.8L1213.44,2812.03L1341.58,2717.37L1572.97,2657.12L1796.54,2657.12L2010.25,2637.97L2169.58,2694.87L2260.21,2774.67L2247.29,3027.49L2008.05,3093.14L1459.59,3073.34L1213.44,3015.8Z" style="fill:rgb(242,242,242);stroke-width:69.33px;stroke:black;"/>
                <path d="M2081.91,3406.81L2219.41,3187.56C2300.25,3113.86 2421.97,3031.95 2459.18,2988.62L2575.52,3017.42C2630.33,3010.58 2646.75,3101.14 2695.44,3165.68L2597.88,3276.11L2407.79,3480.74L2204.02,3536.67L2081.91,3406.81Z" style="fill:rgb(242,242,242);stroke-width:69.33px;stroke:black;"/>
                <path d="M3147.89,3027.71L2901.11,2953.7L2686.04,3001.88L2686.04,3221.13L2883.02,3276.96L3032.66,3351.74L3177.28,3425.13L3277.73,3308.67L3263.97,3112.55L3147.89,3027.71Z" style="fill:rgb(242,242,242);stroke-width:69.33px;stroke:black;"/>
                <path d="M3382.52,3266.37L3532.16,3340.3L3727.03,3455.53L3800.11,3679.18L3587.22,3834.85L3350.66,3582.9L3223.37,3428.92L3382.52,3266.37Z" style="fill:rgb(242,242,242);stroke-width:69.33px;stroke:black;"/>
                <path d="M3861.3,3715.84L3988.55,3927.62L4030.66,4138.93L3896.71,4229.45C3782.81,4230.66 3755.93,4166.57 3715.63,4106.84C3670.33,4047.08 3591.78,3976.56 3596.35,3872.36L3705.43,3747.81L3861.3,3715.84Z" style="fill:rgb(242,242,242);stroke-width:69.33px;stroke:black;"/>
                <path d="M1399.12,2580.25L1568.56,2397.9L1795.92,2342.82L1892.82,2452.96L1844.33,2602.54L1559.2,2649L1399.12,2580.25Z" style="fill:rgb(242,242,242);stroke-width:69.33px;stroke:black;"/>
                <path d="M1667.39,2136.59L1865.14,2041.93L2081.91,1913.78L2538.49,1913.78L2662.3,2111.53L2595.18,2226.83L2150.66,2281.82L1842.01,2281.82C1697.09,2324.66 1638.88,2276.25 1667.39,2136.59Z" style="fill:rgb(242,242,242);stroke-width:69.33px;stroke:black;"/>
                <path d="M1957.86,2594.02C2100.4,2620.49 2219.31,2639.9 2291.72,2613.43L2602.68,2607.79C2759.9,2610.36 2870.05,2588.11 2933.15,2541.05C2922.39,2421.1 2875.88,2325.26 2793.62,2253.52C2713.56,2240.18 2631.57,2224.75 2524.73,2238.09C2433.61,2214.14 2301.21,2229.57 2150.42,2253.52C2099.29,2251.91 2038.25,2271.96 1967.3,2313.68L1957.86,2594.02Z" style="fill:rgb(242,242,242);stroke-width:69.33px;stroke:black;"/>
                <path d="M2388.54,2643.36L2314.53,2873.89L2505.47,2990.82L2785.73,2950.38L2997.34,2909.93L2978.37,2760.81L2744.43,2577.93L2388.54,2643.36Z" style="fill:rgb(242,242,242);stroke-width:69.33px;stroke:black;"/>
                <path d="M4075.43,4173.63C4234.73,4225 4394.37,4216.45 4554.06,4199.33L4718.32,4105.67C4751.23,4027.19 4764.97,3919.7 4759.54,3783.19L4684.76,3647.32L4548.88,3593.11L4336.52,3579.34L4036.36,3621.65L3896.33,3763.4L3971.19,3974.06L4075.43,4173.63Z" style="fill:rgb(242,242,242);stroke-width:69.33px;stroke:black;"/>
                <path d="M3838.02,3061.04L4091.6,3041.25L4222.3,3041.25L4384.85,3061.04L4467.37,3217.57L4529.24,3402.4L4413.16,3518.48L4132.05,3553.81L3937.86,3554.85L3782.11,3333.65L3838.02,3061.04Z" style="fill:rgb(242,242,242);stroke-width:69.33px;stroke:black;"/>
                <path d="M3671.29,3061.04L3348.88,3061.04L3110.61,2958.73L3029.8,2769.49L3077.9,2646.53L3317.79,2625.88L3953.25,2625.88L4047.83,2701.51L4150.99,2776.37L4199.17,2974.97L3944.67,3029.18L3671.29,3061.04Z" style="fill:rgb(242,242,242);stroke-width:69.33px;stroke:black;"/>
                <path d="M2914.43,2287.85L3336.74,2285.53L3562.01,2252.05L3829.44,2252.05L3925.72,2450.64L3851.71,2593.4L3371.15,2593.4C3270.41,2625.68 3183.38,2635.96 3110.08,2624.26C3038.36,2626.86 2974.09,2610.41 2917.27,2574.9L2886.19,2492.71L2914.43,2287.85Z" style="fill:rgb(242,242,242);stroke-width:69.33px;stroke:black;"/>
                <path d="M2659.21,1891.67L3262.81,1891.67L3446.79,1952.76L3446.79,2251.2L3186.32,2251.2L2891.37,2271.84C2791.29,2255.07 2736.85,2200.32 2728.04,2107.59C2698.19,2046.6 2675.25,1974.62 2659.21,1891.67Z" style="fill:rgb(242,242,242);stroke-width:69.33px;stroke:black;"/>
                <path d="M2255.21,1771.3L2392.71,1679.31L2624.87,1638.86L2850.15,1638.86L2905.13,1781.62L2742.58,1856.48L2399.6,1897.7C2303.21,1914.44 2255.08,1872.31 2255.21,1771.3Z" style="fill:rgb(242,242,242);stroke-width:69.33px;stroke:black;"/>
                <path d="M3718.38,3085.87L3833.61,3332.57L3780.94,3519.71L3464.78,3311.14L3346.5,3077.42L3718.38,3085.87Z" style="fill:rgb(242,242,242);stroke-width:69.33px;stroke:black;"/>
                <path d="M1908.42,3150.44L2193.31,3104.34L2193.06,3238.99L2131.32,3388.63L1996.47,3460.86L1911.91,3422.98L1908.42,3150.44Z" style="fill:rgb(242,242,242);stroke-width:69.33px;stroke:black;"/>
                <path d="M2802.74,1656.41L4320.2,22.8755" style="fill:rgb(242,242,242);stroke-width:64px;stroke:black;"/>
                <path d="M2384.28,1694.31L701.793,12.6674" style="fill:rgb(242,242,242);stroke-width:64px;stroke:black;"/>
            </g>
        </g>
    </g>
</svg>
