<?xml version="1.0" encoding="UTF-8" standalone="no"?>
<svg
   xmlns:dc="http://purl.org/dc/elements/1.1/"
   xmlns:cc="http://creativecommons.org/ns#"
   xmlns:rdf="http://www.w3.org/1999/02/22-rdf-syntax-ns#"
   xmlns:svg="http://www.w3.org/2000/svg"
   xmlns="http://www.w3.org/2000/svg"
   xmlns:sodipodi="http://sodipodi.sourceforge.net/DTD/sodipodi-0.dtd"
   xmlns:inkscape="http://www.inkscape.org/namespaces/inkscape"
   preserveAspectRatio="xMidYMid"
   width="23.013838"
   height="15.014946"
   viewBox="0 0 23.013838 15.014946"
   id="svg2"
   version="1.1"
   inkscape:version="0.91 r13725"
   sodipodi:docname="icn-rocket.svg">
  <metadata
     id="metadata16">
    <rdf:RDF>
      <cc:Work
         rdf:about="">
        <dc:format>image/svg+xml</dc:format>
        <dc:type
           rdf:resource="http://purl.org/dc/dcmitype/StillImage" />
        <dc:title></dc:title>
      </cc:Work>
    </rdf:RDF>
  </metadata>
  <sodipodi:namedview
     pagecolor="#ffffff"
     bordercolor="#666666"
     borderopacity="1"
     objecttolerance="10"
     gridtolerance="10"
     guidetolerance="10"
     inkscape:pageopacity="0"
     inkscape:pageshadow="2"
     inkscape:window-width="640"
     inkscape:window-height="480"
     id="namedview14"
     showgrid="false"
     fit-margin-top="0"
     fit-margin-left="0"
     fit-margin-right="0"
     fit-margin-bottom="0"
     inkscape:zoom="10.26087"
     inkscape:cx="11.517919"
     inkscape:cy="7.5005542"
     inkscape:window-x="0"
     inkscape:window-y="0"
     inkscape:window-maximized="0"
     inkscape:current-layer="svg2" />
  <defs
     id="defs4">
    <style
       id="style6">
      .cls-1 {
        fill: #e2001a;
        fill-rule: evenodd;
      }

      .cls-2 {
        fill: #fff;
      }
    </style>
  </defs>
  <g
     id="g8"
     transform="matrix(0,1,-1,0,23,0.01847322)">
    <path
       d="m 14.988,17.288 -1.422,5.409 c -0.018,0.072 -0.053,0.125 -0.106,0.178 -0.071,0.072 -0.169,0.116 -0.285,0.125 l -1.137,0 c -0.151,-0.009 -0.284,-0.089 -0.355,-0.213 l -1.697,-3.213 -4.993,0 -1.697,3.213 C 3.278,22.822 3.251,22.849 3.224,22.875 3.153,22.947 3.047,23 2.94,23 L 1.803,23 C 1.616,22.991 1.456,22.867 1.412,22.697 L -0.01,17.288 c -0.026,-0.134 0.009,-0.276 0.089,-0.374 l 3.19,-3.55 C 3.171,12.198 3.109,11.086 3.1,10.063 3.109,5.623 4.095,3.212 7.187,0.115 c 0.16,-0.16 0.427,-0.177 0.586,-0.017 2.95,2.953 4.096,5.738 4.105,9.965 -0.009,1.023 -0.071,2.135 -0.169,3.301 l 3.19,3.55 c 0.08,0.098 0.115,0.24 0.089,0.374 z"
       class="cls-1"
       id="path10"
       inkscape:connector-curvature="0"
       style="fill:#e2001a;fill-rule:evenodd" />
    <circle
       cx="7.5"
       cy="7.5"
       r="1.5"
       class="cls-2"
       id="circle12"
       style="fill:#ffffff" />
  </g>
</svg>
