<?xml version="1.0" encoding="UTF-8" standalone="no"?>
<svg
   id="Guides"
   viewBox="0 0 1000 250"
   version="1.1"
   sodipodi:docname="keycloak.svg"
   inkscape:version="1.1.1 (3bf5ae0d25, 2021-09-20)"
   width="1000"
   height="250"
   xmlns:inkscape="http://www.inkscape.org/namespaces/inkscape"
   xmlns:sodipodi="http://sodipodi.sourceforge.net/DTD/sodipodi-0.dtd"
   xmlns="http://www.w3.org/2000/svg"
   xmlns:svg="http://www.w3.org/2000/svg"
   xmlns:rdf="http://www.w3.org/1999/02/22-rdf-syntax-ns#"
   xmlns:cc="http://creativecommons.org/ns#"
   xmlns:dc="http://purl.org/dc/elements/1.1/">
  <sodipodi:namedview
     id="namedview307"
     pagecolor="#ffffff"
     bordercolor="#666666"
     borderopacity="1.0"
     inkscape:pageshadow="2"
     inkscape:pageopacity="0.0"
     inkscape:pagecheckerboard="0"
     showgrid="false"
     inkscape:zoom="0.3868649"
     inkscape:cx="-138.29117"
     inkscape:cy="-103.39527"
     inkscape:window-width="1920"
     inkscape:window-height="1127"
     inkscape:window-x="0"
     inkscape:window-y="0"
     inkscape:window-maximized="1"
     inkscape:current-layer="Guides" />
  <defs
     id="defs12">
    <style
       id="style2">.cls-1{fill:none;}.cls-2{fill:#4d4d4d;}.cls-3{clip-path:url(#clip-path);}.cls-4{fill:url(#linear-gradient);}.cls-5{fill:#e1e1e1;}.cls-6{fill:#585858;}.cls-7{fill:#696969;}.cls-8{fill:#5e5e5e;}.cls-9{fill:#6d6d6d;}.cls-10{fill:#636363;}.cls-11{fill:#737373;}.cls-12{fill:#757575;}.cls-13{fill:#646464;}.cls-14{fill:#6c6c6c;}.cls-15{fill:#606060;}.cls-16{fill:#707070;}.cls-17{fill:#767676;}.cls-18{fill:#797979;}.cls-19{fill:#7f7f7f;}.cls-20{fill:#868686;}.cls-21{fill:#8a8a8a;}.cls-22{fill:#7d7d7d;}.cls-23{fill:#919191;}.cls-24{fill:#858585;}.cls-25{fill:#929292;}.cls-26{fill:#898989;}.cls-27{fill:#8f8f8f;}.cls-28{fill:#999;}.cls-29{fill:#979797;}.cls-30{fill:#9f9f9f;}.cls-31{fill:#a6a6a6;}.cls-32{fill:#a0a0a0;}.cls-33{fill:#9b9b9b;}.cls-34{fill:#9d9d9d;}.cls-35{fill:#a3a3a3;}.cls-36{fill:#aaa;}.cls-37{fill:#a9a9a9;}.cls-38{fill:#989898;}.cls-39{fill:#b1b1b1;}.cls-40{fill:#9e9e9e;}.cls-41{fill:#a4a4a4;}.cls-42{fill:#aeaeae;}.cls-43{fill:#ababab;}.cls-44{fill:#b4b4b4;}.cls-45{fill:#a2a2a2;}.cls-46{fill:#bcbcbc;}.cls-47{fill:#b8b8b8;}.cls-48{fill:#b0b0b0;}.cls-49{fill:#b9b9b9;}.cls-50{fill:#bfbfbf;}.cls-51{fill:#b5b5b5;}.cls-52{fill:#bdbdbd;}.cls-53{fill:#b6b6b6;}.cls-54{fill:#c3c3c3;}.cls-55{fill:#c9c9c9;}.cls-56{fill:#bbb;}.cls-57{fill:#c1c1c1;}.cls-58{fill:#c6c6c6;}.cls-59{fill:#cdcdcd;}.cls-60{fill:#ccc;}.cls-61{fill:#c2c2c2;}.cls-62{fill:#c8c8c8;}.cls-63{fill:#c7c7c7;}.cls-64{fill:#cecece;}.cls-65{fill:#d3d3d3;}.cls-66{fill:#d5d5d5;}.cls-67{fill:#d0d0d0;}.cls-68{fill:#d9d9d9;}.cls-69{fill:#d4d4d4;}.cls-70{fill:#d8d8d8;}.cls-71{fill:#e2e2e2;}.cls-72{fill:#e4e4e4;}.cls-73{fill:#dedede;}.cls-74{fill:#c5c5c5;}.cls-75{fill:#d1d1d1;}.cls-76{fill:#cbcbcb;}.cls-77{fill:#d7d7d7;}.cls-78{fill:#ddd;}.cls-79{fill:#e3e3e3;}.cls-80{fill:#00b8e3;}.cls-81{fill:#33c6e9;}.cls-82{fill:#008aaa;}</style>
    <clipPath
       id="clip-path">
      <path
         class="cls-1"
         d="m 95.1,54.6 h -2.17 a 0.09,0.09 0 0 1 -0.07,0 L 92.69,54.37 92.23,53.75 91,52 90.29,51 a 0.09,0.09 0 0 0 -0.14,0 L 89.41,51.82 89.29,52 a 0.09,0.09 0 0 0 0,0.06 v 2.48 a 0.09,0.09 0 0 1 -0.09,0.09 h -1.89 a 0.09,0.09 0 0 1 -0.09,-0.09 v -9 a 0.09,0.09 0 0 1 0.09,-0.09 h 1.87 a 0.09,0.09 0 0 1 0.09,0.09 v 3.45 a 0.09,0.09 0 0 0 0.16,0.06 l 1,-1.12 1.57,-1.71 0.72,-0.78 a 0.09,0.09 0 0 1 0.07,0 h 2.3 a 0.09,0.09 0 0 1 0.09,0.09 0.1,0.1 0 0 1 0,0.06 l -1,1.15 -1.72,1.91 -0.72,0.8 a 0.09,0.09 0 0 0 0,0.11 l 0.89,1.25 0.81,1.15 0.1,0.14 0.62,0.86 0.64,0.9 0.45,0.63 A 0.09300538,0.09300538 0 0 1 95.1,54.6 Z m -8.61,-0.13 a 0.09,0.09 0 0 1 -0.08,0.13 h -2 a 0.09,0.09 0 0 1 -0.08,-0.06 v -0.09 0 L 83.56,52.66 A 0.09,0.09 0 0 0 83.48,52.6 h -3.76 a 0.09,0.09 0 0 0 -0.08,0.06 l -0.11,0.27 -0.69,1.61 v 0 a 0.09,0.09 0 0 1 -0.08,0.05 h -2 A 0.09,0.09 0 0 1 76.68,54.46 L 76.82,54.14 77.75,52 v 0 -0.08 -0.09 0 L 78.16,51 v 0 l 2.41,-5.57 a 0.09,0.09 0 0 1 0.08,-0.06 h 1.87 a 0.09,0.09 0 0 1 0.08,0.06 l 1.25,2.9 0.62,1.43 0.69,1.6 1.31,3 z m -3.81,-3.79 -0.13,-0.31 -0.44,-1 -0.44,-1 a 0.09,0.09 0 0 0 -0.17,0 l -0.78,1.8 -0.24,0.55 a 0.09,0.09 0 0 0 0.08,0.13 h 2 a 0.10404326,0.10404326 0 0 0 0.12,-0.17 z m -5.89,1 a 3.93,3.93 0 0 1 -0.18,0.41 4.61,4.61 0 0 1 -0.89,1.19 v 0 a 4.91,4.91 0 0 1 -0.5,0.43 4.67,4.67 0 0 1 -2.59,0.92 h -0.35 a 4.8,4.8 0 0 1 -2.69,-0.76 4.88,4.88 0 0 1 -0.74,-0.6 l -0.26,-0.28 a 4.54,4.54 0 0 1 -1.13,-3.11 5.22,5.22 0 0 1 0.06,-0.8 v 0 -0.06 l 0.07,-0.1 A 4.46,4.46 0 0 1 68.9,46.5 4.89,4.89 0 0 1 69.55,46 4.52,4.52 0 0 1 71.19,45.31 v 0 a 5.28,5.28 0 0 1 1.09,-0.11 4.72,4.72 0 0 1 3.43,1.36 4.5,4.5 0 0 1 1.37,2.88 v 0 c 0,0.17 0,0.33 0,0.51 a 4.83,4.83 0 0 1 -0.29,1.77 z M 75,49.95 a 3,3 0 0 0 -0.71,-2 L 74.21,47.86 A 2.52,2.52 0 0 0 72.29,47 a 2.78,2.78 0 0 0 -0.59,0.06 2.53,2.53 0 0 0 -1.35,0.8 3,3 0 0 0 -0.79,2 c 0,0 0,0 0,0.07 a 3,3 0 0 0 0.79,2.07 2.62,2.62 0 0 0 0.24,0.23 2.52,2.52 0 0 0 0.52,0.36 2.69,2.69 0 0 0 2.4,0 2.61,2.61 0 0 0 0.64,-0.48 L 74.23,52 A 3,3 0 0 0 74.67,51.37 3.08,3.08 0 0 0 75,49.95 Z m -7.67,2.82 H 63.61 A 0.09,0.09 0 0 1 63.52,52.68 V 45.5 a 0.09,0.09 0 0 0 -0.05,-0.08 h -1.91 a 0.09,0.09 0 0 0 -0.09,0.09 v 9 0 a 0.09,0.09 0 0 0 0.09,0.09 h 5.79 a 0.09,0.09 0 0 0 0.09,-0.09 V 52.86 A 0.09,0.09 0 0 0 67.35,52.77 Z M 57.18,45.21 h -0.45 a 4.72,4.72 0 0 0 -3.43,1.37 4.93,4.93 0 0 0 -0.46,0.52 v 0 a 4.59,4.59 0 0 0 -0.94,2.9 5,5 0 0 0 0.3,1.75 4.28,4.28 0 0 0 0.46,0.9 v 0 a 4.54,4.54 0 0 0 0.61,0.73 4.65,4.65 0 0 0 0.92,0.7 v 0 l 0.25,0.14 0.19,0.09 v 0 a 5.25,5.25 0 0 0 2.13,0.42 4.75,4.75 0 0 0 0.68,0 v 0 l 0.42,-0.08 A 4.77,4.77 0 0 0 60,53.39 c 0.13,-0.12 0.26,-0.25 0.38,-0.39 a 0.09,0.09 0 0 0 0,-0.13 l -1.19,-1.22 a 0.09,0.09 0 0 0 -0.08,0 h -0.05 a 3,3 0 0 1 -2.41,1.12 2.68,2.68 0 0 1 -0.93,-0.16 2.61,2.61 0 0 1 -1,-0.62 2.51,2.51 0 0 1 -0.6,-1 3.26,3.26 0 0 1 -0.18,-1.1 2.66,2.66 0 0 1 0.79,-1.89 l 0.11,-0.11 a 2.82,2.82 0 0 1 2,-0.76 3,3 0 0 1 2.35,1.13 0.09,0.09 0 0 0 0.13,0 L 60.46,47 a 0.09,0.09 0 0 0 0,-0.12 4.83,4.83 0 0 0 -3.28,-1.67 z M 52,46.15 52.35,45.54 a 0.09,0.09 0 0 0 -0.08,-0.13 h -2 a 0.09,0.09 0 0 0 -0.08,0 l -1.83,3.14 v 0 l -0.1,0.07 -0.07,0.06 v 0 -0.05 -0.08 l -1.8,-3.11 a 0.09,0.09 0 0 0 -0.08,0 h -2 a 0.09,0.09 0 0 0 -0.08,0.13 l 0.77,1.5 1.58,2.76 0.64,1.11 v 3.52 a 0.09,0.09 0 0 0 0.09,0.09 h 1.87 a 0.09,0.09 0 0 0 0.09,-0.09 V 51 l 0.45,-0.79 1.71,-3 0.35,-0.61 z m -8.63,6.63 H 38.82 A 0.09,0.09 0 0 1 38.73,52.69 V 51 a 0.09,0.09 0 0 1 0.09,-0.09 h 3.94 a 0.09,0.09 0 0 0 0.09,-0.09 v -1.6 A 0.09,0.09 0 0 0 42.76,49.13 H 38.82 A 0.09,0.09 0 0 1 38.73,49 v -1.68 a 0.09,0.09 0 0 1 0.09,-0.09 h 4.4 a 0.09,0.09 0 0 0 0.09,-0.09 V 45.5 a 0.09,0.09 0 0 0 -0.09,-0.09 h -6.45 a 0.09,0.09 0 0 0 -0.09,0.09 v 9 a 0.09,0.09 0 0 0 0.09,0.09 h 6.59 a 0.09,0.09 0 0 0 0.09,-0.09 v -1.63 a 0.09,0.09 0 0 0 -0.09,-0.09 z m -7.74,1.56 -0.85,-1.2 -0.88,-1.22 v 0 l -1.68,-2.35 a 0.09,0.09 0 0 1 0,-0.11 L 33,48.51 v 0 L 33.67,47.76 34.34,47 35.67,45.52 A 0.09,0.09 0 0 0 35.6,45.37 h -2.3 a 0.09,0.09 0 0 0 -0.07,0 L 31.82,47 30,49 A 0.09,0.09 0 0 1 29.84,48.94 V 45.5 a 0.09,0.09 0 0 0 -0.09,-0.09 h -1.92 a 0.09,0.09 0 0 0 -0.09,0.09 v 0 9 a 0.09,0.09 0 0 0 0.09,0.09 H 29.7 A 0.09,0.09 0 0 0 29.79,54.5 V 52 a 0.09,0.09 0 0 1 0,-0.06 l 0.39,-0.44 0.43,-0.48 a 0.09,0.09 0 0 1 0.14,0 l 1.3,1.75 0.95,1.29 0.37,0.5 a 0.09,0.09 0 0 0 0.07,0 h 2.17 a 0.09,0.09 0 0 0 0.07,-0.14 z m -9,-8.95 H 7.54 a 0.17,0.17 0 0 0 -0.15,0.08 v 0 l -0.09,0.16 -1.17,2 -1.3,2.29 a 0.17,0.17 0 0 0 0,0.17 l 0.28,0.49 2.28,3.95 a 0.17,0.17 0 0 0 0.15,0.09 h 19.14 a 0.19,0.19 0 0 0 0.19,-0.19 v -8.84 a 0.19,0.19 0 0 0 -0.2,-0.19 z"
         id="path4" />
    </clipPath>
    <linearGradient
       id="linear-gradient"
       x1="4.5999999"
       y1="50.139999"
       x2="95.739998"
       y2="50.139999"
       gradientUnits="userSpaceOnUse">
      <stop
         offset="0"
         stop-color="#e6e6e6"
         id="stop7" />
      <stop
         offset="1"
         stop-color="#595959"
         id="stop9" />
    </linearGradient>
  </defs>
  <title
     id="title14">keycloak_deliverables</title>
  <g
     id="g1118"
     transform="matrix(9.9541608,0,0,9.9541608,2.2919601,0.57299)">
    <path
       class="cls-2"
       d="m 23.452393,7.895 a 0.17,0.17 0 0 1 -0.15,-0.08 l -2.56,-4.44 a 0.17,0.17 0 0 0 -0.15,-0.08 h -10.44 a 0.17,0.17 0 0 0 -0.15,0.08 l -2.66,4.6 v 0 l -2.55,4.45 a 0.17,0.17 0 0 0 0,0.17 l 2.56,4.43 2.61,4.6 a 0.17,0.17 0 0 0 0.15,0.08 h 10.48 a 0.17,0.17 0 0 0 0.15,-0.08 l 2.56,-4.44 a 0.17,0.17 0 0 1 0.15,-0.08 h 3.19 a 0.19,0.19 0 0 0 0.19,-0.19 v -8.82 a 0.19,0.19 0 0 0 -0.19,-0.19 h -3.19 z"
       id="path16" />
    <g
       class="cls-3"
       clip-path="url(#clip-path)"
       id="g20"
       transform="translate(-0.03760698,-37.495)">
      <rect
         class="cls-4"
         x="4.5999999"
         y="43.98"
         width="91.139999"
         height="12.31"
         id="rect18"
         style="fill:url(#linear-gradient)" />
    </g>
    <path
       class="cls-5"
       d="m 7.962393,12.045 -2.86,1 -0.28,-0.49 a 0.17,0.17 0 0 1 0,-0.17 l 1.29,-2.24 z"
       id="path22" />
    <path
       class="cls-6"
       d="m 95.062393,17.105 h -1.18 l -1.08,-0.68 1.88,-0.09 0.45,0.63 a 0.09,0.09 0 0 1 -0.07,0.14 z"
       id="path24" />
    <path
       class="cls-6"
       d="m 93.882393,17.105 h -1 a 0.09,0.09 0 0 1 -0.07,0 l -0.17,-0.23 0.16,-0.41 z"
       id="path26" />
    <path
       class="cls-7"
       d="m 95.132393,8.005 a 0.1,0.1 0 0 1 0,0.06 l -1,1.15 -0.17,-0.65 z"
       id="path28" />
    <path
       class="cls-8"
       d="m 94.692393,16.335 -1.88,0.09 1.24,-1 z"
       id="path30" />
    <path
       class="cls-9"
       d="m 95.132393,8.005 -1.17,0.56 0.19,-0.65 h 0.84 a 0.09,0.09 0 0 1 0.14,0.09 z"
       id="path32" />
    <path
       class="cls-10"
       d="m 94.052393,15.425 -1.24,1 0.63,-1.86 z"
       id="path34" />
    <polygon
       class="cls-11"
       points="92.95,45.41 94.24,45.41 94.05,46.06 "
       id="polygon36"
       transform="translate(-0.03760698,-37.495)" />
    <path
       class="cls-12"
       d="m 89.232393,8.005 v 0.93 l -2.05,0.16 v -1.09 a 0.09,0.09 0 0 1 0.09,-0.09 h 1.87 a 0.09,0.09 0 0 1 0.09,0.09 z"
       id="path38" />
    <path
       class="cls-12"
       d="m 93.962393,8.565 -2,0.16 0.72,-0.78 a 0.09,0.09 0 0 1 0.07,0 h 0.21 z"
       id="path40" />
    <path
       class="cls-13"
       d="m 93.432393,14.565 -0.63,1.86 -0.62,-0.21 -1.22,-1.71 1.6,-1.23 0.81,1.15 z"
       id="path42" />
    <polygon
       class="cls-9"
       points="87.22,46.59 89.27,46.43 89.27,47.44 87.22,46.66 "
       id="polygon44"
       transform="translate(-0.03760698,-37.495)" />
    <polygon
       class="cls-9"
       points="92.39,48.62 90.46,47.89 91.99,46.22 94.05,46.06 94.11,46.7 "
       id="polygon46"
       transform="translate(-0.03760698,-37.495)" />
    <path
       class="cls-14"
       d="m 92.522393,13.285 -1.56,1.22 -0.71,-1 a 0.09,0.09 0 0 0 -0.14,0 l -0.74,0.82 -2.19,-4.82 v -0.34 l 2.05,0.78 v 1.51 a 0.09,0.09 0 0 0 0.16,0.06 l 1,-1.12 1.93,0.73 -0.72,0.8 a 0.09,0.09 0 0 0 0,0.11 z"
       id="path48" />
    <polygon
       class="cls-15"
       points="92.22,53.71 92.84,53.92 92.69,54.33 "
       id="polygon50"
       transform="translate(-0.03760698,-37.495)" />
    <path
       class="cls-16"
       d="m 89.342393,14.375 -0.09,0.13 a 0.09,0.09 0 0 0 0,0.06 v 0.39 l -2.05,-1.74 v -3.71 z"
       id="path52" />
    <path
       class="cls-10"
       d="m 86.462393,16.975 a 0.09,0.09 0 0 1 -0.08,0.13 h -0.3 l 0.36,-0.17 z"
       id="path54" />
    <path
       class="cls-10"
       d="m 89.232393,15.645 v 1.36 a 0.09,0.09 0 0 1 -0.09,0.09 h -1.87 a 0.09,0.09 0 0 1 -0.09,-0.09 v -0.41 z"
       id="path56" />
    <path
       class="cls-9"
       d="m 86.442393,16.935 -0.36,0.17 h -1.69 a 0.09,0.09 0 0 1 -0.08,-0.06 v -0.09 0 l 0.86,-3.06 z"
       id="path58" />
    <polygon
       class="cls-9"
       points="87.22,50.68 89.27,52.42 89.27,53.14 87.22,54.09 "
       id="polygon60"
       transform="translate(-0.03760698,-37.495)" />
    <path
       class="cls-17"
       d="m 85.132393,13.905 -0.86,3.06 -0.77,-1.79 a 0.09,0.09 0 0 0 -0.08,-0.06 h -3.74 a 0.09,0.09 0 0 0 -0.08,0.06 l -0.11,0.27 -1.74,-1 v -0.09 l 3.3,-1 h 1.51 a 0.09,0.09 0 0 0 0.08,-0.13 l -0.13,-0.31 1.92,-0.59 z"
       id="path62" />
    <path
       class="cls-18"
       d="m 81.092393,13.315 -3.3,1 v 0 l 2.89,-1.64 -0.24,0.55 a 0.09,0.09 0 0 0 0.08,0.13 h 0.56 z"
       id="path64" />
    <polygon
       class="cls-18"
       points="83.86,48.36 84.47,49.79 82.55,50.38 82.11,49.35 "
       id="polygon66"
       transform="translate(-0.03760698,-37.495)" />
    <polygon
       class="cls-12"
       points="79.52,52.93 78.83,54.54 78.83,54.55 77.75,51.98 77.79,51.91 "
       id="polygon68"
       transform="translate(-0.03760698,-37.495)" />
    <path
       class="cls-19"
       d="m 83.822393,10.865 -1.74,1 -0.44,-1 a 0.09,0.09 0 0 0 -0.17,0 l -0.78,1.8 -2.89,1.64 0.32,-0.8 v 0 l 3.19,-5.63 h 1.17 a 0.09,0.09 0 0 1 0.08,0.06 z"
       id="path70" />
    <path
       class="cls-20"
       d="m 76.692393,10.505 a 4.55,4.55 0 0 1 0.36,1.43 z"
       id="path72" />
    <path
       class="cls-20"
       d="m 81.312393,7.915 -3.19,5.59 2.41,-5.57 a 0.09,0.09 0 0 1 0.08,-0.06 h 0.7 z"
       id="path74" />
    <path
       class="cls-21"
       d="m 77.072393,12.445 a 4.83,4.83 0 0 1 -0.32,1.78 l -2.12,-0.31 a 3.08,3.08 0 0 0 0.33,-1.46 3,3 0 0 0 -0.71,-2 l 0.83,-1.88 a 4.77,4.77 0 0 1 0.58,0.49 4.53,4.53 0 0 1 1,1.44 l 0.36,1.43 v 0 c 0.04,0.17 0.05,0.34 0.05,0.51 z"
       id="path76" />
    <path
       class="cls-22"
       d="m 74.722393,15.105 1.85,-0.47 a 4.61,4.61 0 0 1 -0.89,1.19 z"
       id="path78" />
    <path
       class="cls-22"
       d="m 78.792393,17.055 a 0.09,0.09 0 0 1 -0.08,0.05 h -1.34 l -0.59,-0.45 0.93,-2.15 z"
       id="path80" />
    <path
       class="cls-18"
       d="m 74.722393,15.105 1,0.73 v 0 a 4.91,4.91 0 0 1 -0.5,0.43 z"
       id="path82" />
    <path
       class="cls-18"
       d="m 77.372393,17.105 h -0.65 a 0.09,0.09 0 0 1 -0.08,-0.13 l 0.14,-0.32 z"
       id="path84" />
    <path
       class="cls-20"
       d="m 76.752393,14.225 a 3.93,3.93 0 0 1 -0.18,0.41 l -1.85,0.47 -0.61,-0.47 0.08,-0.13 a 3,3 0 0 0 0.44,-0.63 z"
       id="path86" />
    <path
       class="cls-22"
       d="m 75.172393,16.265 a 4.67,4.67 0 0 1 -2.59,0.92 l 2.14,-2.08 z"
       id="path88" />
    <path
       class="cls-23"
       d="m 75.102393,8.575 -0.83,1.88 -0.08,-0.09 a 2.52,2.52 0 0 0 -1.94,-0.86 2.78,2.78 0 0 0 -0.59,0.06 l -0.51,-1.76 a 5.28,5.28 0 0 1 1.09,-0.11 4.76,4.76 0 0 1 2.86,0.88 z"
       id="path90" />
    <path
       class="cls-24"
       d="m 74.722393,15.105 -2.14,2.08 h -0.34 a 4.8,4.8 0 0 1 -2.69,-0.76 l 0.24,-1.29 h 1.27 a 2.69,2.69 0 0 0 2.4,0 h 1.25 z"
       id="path92" />
    <path
       class="cls-25"
       d="m 71.662393,9.505 a 2.53,2.53 0 0 0 -1.35,0.8 3,3 0 0 0 -0.79,2 l -2,-0.78 v 0 l 0.07,-0.1 2,-3 a 4.52,4.52 0 0 1 1.64,-0.69 v 0 z"
       id="path94" />
    <path
       class="cls-26"
       d="m 70.552393,14.775 a 2.52,2.52 0 0 0 0.52,0.36 h -1.27 z"
       id="path96" />
    <path
       class="cls-26"
       d="m 74.722393,15.105 h -1.25 a 2.61,2.61 0 0 0 0.64,-0.48 z"
       id="path98" />
    <path
       class="cls-27"
       d="m 70.552393,14.775 -0.75,0.37 -2.32,-3.5 v 0 -0.06 0 l 2,0.78 c 0,0 0,0 0,0.07 a 3,3 0 0 0 0.83,2.07 2.62,2.62 0 0 0 0.24,0.27 z"
       id="path100" />
    <path
       class="cls-28"
       d="m 69.512393,8.505 -2,3 a 4.46,4.46 0 0 1 1.31,-2.42 4.89,4.89 0 0 1 0.69,-0.58 z"
       id="path102" />
    <path
       class="cls-26"
       d="m 63.892393,17.105 3.51,-1.16 v 1.07 a 0.09,0.09 0 0 1 -0.09,0.09 z"
       id="path104" />
    <path
       class="cls-26"
       d="m 69.802393,15.145 -0.24,1.29 a 4.88,4.88 0 0 1 -0.74,-0.6 l -0.26,-0.28 z"
       id="path106" />
    <path
       class="cls-23"
       d="m 67.402393,15.365 v 0.57 l -3.51,1.17 h -1.93 l 1.81,-1.83 h 3.51 a 0.09,0.09 0 0 1 0.12,0.09 z"
       id="path108" />
    <path
       class="cls-23"
       d="m 69.802393,15.145 -1.24,0.41 a 4.54,4.54 0 0 1 -1.13,-3.11 5.22,5.22 0 0 1 0.06,-0.8 z"
       id="path110" />
    <path
       class="cls-29"
       d="m 63.802393,15.275 -1.84,1.83 h -0.44 a 0.09,0.09 0 0 1 -0.09,-0.09 v 0 l 2.05,-5.79 v 4 a 0.09,0.09 0 0 0 0.09,0.09 h 0.22 z"
       id="path112" />
    <path
       class="cls-30"
       d="m 63.482393,8.005 v 0.5 l -0.05,-0.59 a 0.09,0.09 0 0 1 0.05,0.09 z"
       id="path114" />
    <path
       class="cls-31"
       d="m 60.422393,9.365 a 0.09,0.09 0 0 1 0,0.12 l -1.15,1.31 a 0.09,0.09 0 0 1 -0.13,0 3.06,3.06 0 0 0 -1.55,-1 l -0.45,-2 a 4.83,4.83 0 0 1 3.28,1.57 z"
       id="path116" />
    <path
       class="cls-31"
       d="m 62.362393,7.915 -0.92,0.94 v -0.85 a 0.09,0.09 0 0 1 0.09,-0.09 z"
       id="path118" />
    <path
       class="cls-32"
       d="m 63.482393,8.505 v 2.21 l -2.05,0.57 v -2.43 l 0.92,-0.94 h 1.07 z"
       id="path120" />
    <path
       class="cls-33"
       d="m 60.362393,15.385 a 0.09,0.09 0 0 1 0,0.13 c -0.13,0.14 -0.25,0.27 -0.38,0.39 l -0.88,-1.76 a 0.09,0.09 0 0 1 0.08,0 z"
       id="path122" />
    <polygon
       class="cls-33"
       points="61.47,48.79 63.52,48.22 63.52,48.7 61.47,54.5 "
       id="polygon124"
       transform="translate(-0.03760698,-37.495)" />
    <path
       class="cls-28"
       d="m 59.962393,15.895 a 4.77,4.77 0 0 1 -2.14,1.18 l 0.14,-2.06 a 3.14,3.14 0 0 0 1.08,-0.84 h 0.05 z"
       id="path126" />
    <path
       class="cls-34"
       d="m 57.962393,15.015 -0.12,2.07 -0.42,0.08 v 0 l -2.81,-0.37 v 0 l -0.19,-0.09 1.3,-1.57 a 2.68,2.68 0 0 0 0.93,0.16 3.13,3.13 0 0 0 1.31,-0.28 z"
       id="path128" />
    <path
       class="cls-35"
       d="m 55.712393,15.135 -1.3,1.57 -0.25,-0.14 v 0 l -1.53,-1.43 v 0 a 4.28,4.28 0 0 1 -0.46,-0.9 l 2,-0.68 a 2.51,2.51 0 0 0 0.6,1 2.61,2.61 0 0 0 0.94,0.58 z"
       id="path130" />
    <polygon
       class="cls-36"
       points="51.76,46.56 51.34,46.35 51.99,46.15 "
       id="polygon132"
       transform="translate(-0.03760698,-37.495)" />
    <path
       class="cls-36"
       d="m 57.592393,9.765 a 3,3 0 0 0 -0.81,-0.11 2.82,2.82 0 0 0 -2,0.76 l -0.09,0.09 -1.89,-0.93 v 0 a 4.93,4.93 0 0 1 0.46,-0.52 4.72,4.72 0 0 1 3.43,-1.37 h 0.45 z"
       id="path134" />
    <polygon
       class="cls-37"
       points="51.41,47.17 51.34,46.35 51.76,46.56 "
       id="polygon136"
       transform="translate(-0.03760698,-37.495)" />
    <path
       class="cls-37"
       d="m 53.962393,12.455 a 3.26,3.26 0 0 0 0.18,1.1 l -2,0.68 a 5,5 0 0 1 -0.28,-1.73 4.59,4.59 0 0 1 0.94,-2.89 l 1.89,0.89 a 2.66,2.66 0 0 0 -0.73,1.95 z"
       id="path138" />
    <polygon
       class="cls-38"
       points=""
       id="polygon140"
       transform="translate(-0.03760698,-37.495)" />
    <path
       class="cls-38"
       d="m 57.422393,17.155 a 4.75,4.75 0 0 1 -0.68,0 5.25,5.25 0 0 1 -2.13,-0.42 z"
       id="path142" />
    <path
       class="cls-39"
       d="m 52.302393,8.045 -0.34,0.61 -0.66,0.2 -0.34,-0.94 h 1.26 a 0.09,0.09 0 0 1 0.08,0.13 z"
       id="path144" />
    <polygon
       class="cls-40"
       points="48.77,53.43 49.24,53.49 49.24,53.73 "
       id="polygon146"
       transform="translate(-0.03760698,-37.495)" />
    <path
       class="cls-34"
       d="m 49.202393,16.235 v 0.77 a 0.09,0.09 0 0 1 -0.09,0.09 h -0.44 l 0.06,-1.17 z"
       id="path148" />
    <polygon
       class="cls-41"
       points="49.24,53.49 48.77,53.43 49.24,53.19 "
       id="polygon150"
       transform="translate(-0.03760698,-37.495)" />
    <path
       class="cls-41"
       d="m 54.162393,16.565 a 4.65,4.65 0 0 1 -0.92,-0.7 4.54,4.54 0 0 1 -0.61,-0.73 z"
       id="path152" />
    <polygon
       class="cls-42"
       points="48.03,48.83 48.17,48.73 48.25,48.67 48.34,48.6 48.34,48.59 51.34,46.35 51.41,47.17 49.7,50.16 "
       id="polygon154"
       transform="translate(-0.03760698,-37.495)" />
    <path
       class="cls-43"
       d="m 49.662393,12.665 -0.45,0.79 v 2.2 l -0.46,0.24 -0.79,-4.56 z"
       id="path156" />
    <path
       class="cls-44"
       d="m 48.092393,11.195 v 0 l -0.13,0.14 0.07,-0.19 z"
       id="path158" />
    <path
       class="cls-44"
       d="m 51.302393,8.855 -3,2.24 1.83,-3.14 a 0.09,0.09 0 0 1 0.08,0 h 0.75 z"
       id="path160" />
    <polygon
       class="cls-45"
       points="47.29,54.6 48.77,53.43 48.71,54.6 "
       id="polygon162"
       transform="translate(-0.03760698,-37.495)" />
    <path
       class="cls-46"
       d="m 43.272393,8.005 v 0.63 l -1.25,-0.72 h 1.16 a 0.09,0.09 0 0 1 0.09,0.09 z"
       id="path164" />
    <path
       class="cls-46"
       d="m 48.022393,11.065 v 0.27 l -3.06,-1.76 -0.87,-1.53 a 0.09,0.09 0 0 1 0.08,-0.13 h 2 a 0.09,0.09 0 0 1 0.08,0 z"
       id="path166" />
    <polygon
       class="cls-47"
       points="48.06,48.56 48.1,48.64 48.03,48.83 "
       id="polygon168"
       transform="translate(-0.03760698,-37.495)" />
    <path
       class="cls-37"
       d="m 48.732393,15.935 -1.48,1.17 v 0 a 0.09,0.09 0 0 1 -0.09,-0.09 v -0.7 z"
       id="path170" />
    <path
       class="cls-48"
       d="m 47.152393,15.095 v -1.59 l -0.64,-1.11 1.49,-1 0.74,4.59 z"
       id="path172" />
    <path
       class="cls-42"
       d="m 42.902393,17.105 0.51,-1.11 v 1 a 0.09,0.09 0 0 1 -0.09,0.09 h -0.42 z"
       id="path174" />
    <polygon
       class="cls-42"
       points="47.19,52.59 48.77,53.43 47.19,53.81 "
       id="polygon176"
       transform="translate(-0.03760698,-37.495)" />
    <path
       class="cls-49"
       d="m 43.272393,8.625 v 1 a 0.09,0.09 0 0 1 -0.09,0.09 h -0.87 l -1,-1.83 h 0.7 z"
       id="path178" />
    <polygon
       class="cls-49"
       points="44.96,47.07 48.03,48.83 46.54,49.83 "
       id="polygon180"
       transform="translate(-0.03760698,-37.495)" />
    <polygon
       class="cls-50"
       points="41.44,47.23 40.08,45.48 40.19,45.41 41.35,45.41 42.35,47.23 "
       id="polygon182"
       transform="translate(-0.03760698,-37.495)" />
    <path
       class="cls-51"
       d="m 43.412393,15.375 v 0.62 l -0.51,1.11 h -0.7 l -5.34,-2.6 1.84,-0.2 v 0.87 a 0.09,0.09 0 0 0 0.09,0.09 h 4.54 a 0.09,0.09 0 0 1 0.08,0.11 z"
       id="path184" />
    <polygon
       class="cls-52"
       points="40.08,45.48 41.44,47.23 39.23,47.23 "
       id="polygon186"
       transform="translate(-0.03760698,-37.495)" />
    <path
       class="cls-52"
       d="m 42.812393,11.725 v 1.57 a 0.09,0.09 0 0 1 -0.09,0.09 h -3.94 a 0.09,0.09 0 0 0 -0.09,0.09 v 0.85 l -1.83,0.18 1.84,-3.77 v 0.77 a 0.09,0.09 0 0 0 0.09,0.09 h 3.94 a 0.09,0.09 0 0 1 0.08,0.13 z"
       id="path188" />
    <polygon
       class="cls-53"
       points="36.9,52.02 42.24,54.6 37.71,54.6 "
       id="polygon190"
       transform="translate(-0.03760698,-37.495)" />
    <path
       class="cls-54"
       d="m 40.042393,7.985 -0.85,1.75 h -0.41 a 0.09,0.09 0 0 0 -0.09,0.09 v 0.93 l -1.83,3.75 -0.22,-0.35 v -4.6 z"
       id="path192" />
    <path
       class="cls-55"
       d="m 35.632393,8.065 -1.33,1.44 -0.25,-1.63 h 1.51 a 0.10124228,0.10124228 0 0 1 0.07,0.19 z"
       id="path194" />
    <path
       class="cls-55"
       d="m 40.042393,7.985 -3.4,1.59 v -1.57 a 0.09,0.09 0 0 1 0.09,-0.09 h 2.83 z"
       id="path196" />
    <path
       class="cls-56"
       d="m 34.732393,15.655 0.85,1.2 -2.08,-0.54 z"
       id="path198" />
    <path
       class="cls-56"
       d="m 37.672393,17.105 h -0.94 a 0.09,0.09 0 0 1 -0.09,-0.09 v -2.38 l 0.22,-0.13 z"
       id="path200" />
    <path
       class="cls-53"
       d="m 35.592393,17.105 h -1.85 l -0.24,-0.8 2.08,0.54 0.08,0.11 a 0.09,0.09 0 0 1 -0.07,0.15 z"
       id="path202" />
    <path
       class="cls-57"
       d="m 33.862393,14.425 0.87,1.23 -1.23,0.65 0.32,-1.92 z"
       id="path204" />
    <polygon
       class="cls-57"
       points="36.68,51.67 36.9,52.02 36.68,52.13 "
       id="polygon206"
       transform="translate(-0.03760698,-37.495)" />
    <path
       class="cls-58"
       d="m 33.832393,14.385 -0.33,1.92 -1.47,-1 -1.3,-1.75 a 0.09,0.09 0 0 0 -0.14,0 l -0.43,0.48 -2.33,-1.58 5.13,-1.44 -0.82,0.91 a 0.09,0.09 0 0 0 0,0.11 z"
       id="path208" />
    <path
       class="cls-47"
       d="m 33.742393,17.105 h -0.32 a 0.09,0.09 0 0 1 -0.07,0 l -0.39,-0.54 0.53,-0.26 z"
       id="path210" />
    <polygon
       class="cls-59"
       points="29.79,46.15 28.79,45.73 29.79,45.49 "
       id="polygon212"
       transform="translate(-0.03760698,-37.495)" />
    <path
       class="cls-59"
       d="m 34.302393,9.505 -0.65,0.72 -1.87,-0.72 1.42,-1.55 a 0.09,0.09 0 0 1 0.07,0 h 0.79 z"
       id="path214" />
    <path
       class="cls-60"
       d="m 33.652393,10.255 -0.69,0.75 v 0 l -5.14,1.44 0.91,-4.22 1,0.42 v 2.8 a 0.11884864,0.11884864 0 0 0 0.23,0.06 l 1.87,-2 z"
       id="path216" />
    <path
       class="cls-61"
       d="m 27.832393,12.455 2.33,1.58 -0.38,0.47 a 0.09,0.09 0 0 0 0,0.06 v 2.48 a 0.09,0.09 0 0 1 -0.09,0.09 v 0 z"
       id="path218" />
    <polygon
       class="cls-61"
       points="32.08,52.8 33.55,53.8 33.01,54.06 "
       id="polygon220"
       transform="translate(-0.03760698,-37.495)" />
    <polygon
       class="cls-62"
       points="26.86,52.28 24.98,50.36 26.86,50.09 "
       id="polygon222"
       transform="translate(-0.03760698,-37.495)" />
    <polygon
       class="cls-62"
       points="29.14,54.6 27.74,53.17 27.74,49.97 27.88,49.95 29.68,54.6 "
       id="polygon224"
       transform="translate(-0.03760698,-37.495)" />
    <path
       class="cls-61"
       d="m 24.962393,12.865 1.88,1.92 v 2.13 a 0.19,0.19 0 0 1 -0.19,0.19 h -2.21 z"
       id="path226" />
    <path
       class="cls-61"
       d="m 29.102393,17.105 h -1.31 a 0.09,0.09 0 0 1 -0.09,-0.09 v -1.34 z"
       id="path228" />
    <polygon
       class="cls-63"
       points="21.05,52.68 24.98,50.36 24.48,54.6 21.85,54.6 "
       id="polygon230"
       transform="translate(-0.03760698,-37.495)" />
    <polygon
       class="cls-64"
       points="26.86,50.09 24.98,50.36 26.86,48.07 "
       id="polygon232"
       transform="translate(-0.03760698,-37.495)" />
    <polygon
       class="cls-64"
       points="27.74,47 28.79,45.73 27.88,49.95 27.74,49.97 "
       id="polygon234"
       transform="translate(-0.03760698,-37.495)" />
    <path
       class="cls-65"
       d="m 26.822393,8.095 v 2.48 l -1.86,2.29 -1.42,-5 h 3.11 a 0.19,0.19 0 0 1 0.17,0.23 z"
       id="path236" />
    <polygon
       class="cls-65"
       points="27.74,45.51 28.79,45.73 27.74,47 "
       id="polygon238"
       transform="translate(-0.03760698,-37.495)" />
    <polygon
       class="cls-58"
       points="21.05,52.68 21.85,54.6 20.46,54.6 20.09,54.09 "
       id="polygon240"
       transform="translate(-0.03760698,-37.495)" />
    <polygon
       class="cls-66"
       points="23.56,45.4 24.98,50.36 19.76,48.16 22.51,45.4 "
       id="polygon242"
       transform="translate(-0.03760698,-37.495)" />
    <path
       class="cls-67"
       d="m 19.722393,10.665 1.24,4.52 4,-2.32 z"
       id="path244" />
    <polygon
       class="cls-50"
       points="20.09,54.09 20.46,54.6 20.08,54.6 "
       id="polygon246"
       transform="translate(-0.03760698,-37.495)" />
    <polygon
       class="cls-68"
       points="20.33,45.4 22.51,45.4 19.76,48.16 19.27,45.69 "
       id="polygon248"
       transform="translate(-0.03760698,-37.495)" />
    <path
       class="cls-69"
       d="m 19.722393,10.665 -6.33,1.46 6.66,4.47 z"
       id="path250" />
    <path
       class="cls-67"
       d="m 19.722393,10.665 0.33,5.93 1,-1.41 z"
       id="path252" />
    <path
       class="cls-68"
       d="m 19.232393,8.195 -5.84,3.93 6.33,-1.46 z"
       id="path254" />
    <polygon
       class="cls-70"
       points="7.97,49.53 13.43,49.62 10.69,54.6 9.13,54.6 "
       id="polygon256"
       transform="translate(-0.03760698,-37.495)" />
    <path
       class="cls-71"
       d="m 10.582393,7.905 -2.62,4.14 -0.71,-3.9 0.09,-0.16 v 0 a 0.17,0.17 0 0 1 0.15,-0.08 h 3.08 z"
       id="path258" />
    <path
       class="cls-70"
       d="m 9.092393,17.105 h -1.59 a 0.17,0.17 0 0 1 -0.15,-0.09 l -2.28,-3.94 2.86,-1 z"
       id="path260" />
    <polygon
       class="cls-72"
       points="7.29,45.64 7.97,49.53 6.12,47.67 "
       id="polygon262"
       transform="translate(-0.03760698,-37.495)" />
    <polygon
       class="cls-73"
       points="17.51,45.4 16.32,45.4 14.5,45.4 11.7,45.4 13.43,49.62 19.27,45.69 "
       id="polygon264"
       transform="translate(-0.03760698,-37.495)" />
    <polygon
       class="cls-73"
       points="10.62,45.4 7.97,49.53 13.43,49.62 11.7,45.4 10.98,45.4 "
       id="polygon266"
       transform="translate(-0.03760698,-37.495)" />
    <polygon
       class="cls-74"
       points="20.09,54.09 18.82,54.6 19.84,54.6 20.08,54.6 "
       id="polygon268"
       transform="translate(-0.03760698,-37.495)" />
    <polygon
       class="cls-67"
       points="13.43,49.62 14.63,54.6 16.32,54.6 18.82,54.6 20.09,54.09 "
       id="polygon270"
       transform="translate(-0.03760698,-37.495)" />
    <polygon
       class="cls-75"
       points="10.98,54.6 14.5,54.6 14.63,54.6 13.43,49.62 10.69,54.6 "
       id="polygon272"
       transform="translate(-0.03760698,-37.495)" />
    <polygon
       class="cls-62"
       points="40.03,45.41 40.19,45.41 40.08,45.48 "
       id="polygon274"
       transform="translate(-0.03760698,-37.495)" />
    <polygon
       class="cls-76"
       points="40.03,45.41 40.08,45.48 39.6,45.41 "
       id="polygon276"
       transform="translate(-0.03760698,-37.495)" />
    <path
       class="cls-75"
       d="m 29.752393,7.995 -1,0.23 0.28,-0.32 h 0.63 a 0.09,0.09 0 0 1 0.09,0.09 z"
       id="path278" />
    <polygon
       class="cls-77"
       points="28.73,45.41 29.06,45.41 28.79,45.73 "
       id="polygon280"
       transform="translate(-0.03760698,-37.495)" />
    <path
       class="cls-68"
       d="m 28.752393,8.235 -1,-0.22 v 0 a 0.09,0.09 0 0 1 0.09,-0.09 h 0.9 z"
       id="path282" />
    <polygon
       class="cls-78"
       points="19.84,45.4 19.29,45.4 19.27,45.69 20.33,45.4 "
       id="polygon284"
       transform="translate(-0.03760698,-37.495)" />
    <polygon
       class="cls-79"
       points="19.11,45.4 17.51,45.4 19.27,45.69 "
       id="polygon286"
       transform="translate(-0.03760698,-37.495)" />
    <polygon
       class="cls-71"
       points="19.29,45.4 19.11,45.4 19.27,45.69 "
       id="polygon288"
       transform="translate(-0.03760698,-37.495)" />
    <path
       class="cls-80"
       d="m 14.442393,7.975 -2.57,4.46 a 0.15,0.15 0 0 0 0,0.07 h -1.82 l 3.53,-6.12 0.05,0.05 v 0 l 0.8,1.39 a 0.15,0.15 0 0 1 0.01,0.15 z"
       id="path290" />
    <path
       class="cls-81"
       d="m 14.442393,17.195 -0.8,1.38 -0.05,0.05 -3.54,-6.12 h 1.8 a 0.14,0.14 0 0 0 0,0.07 v 0 l 2.57,4.45 a 0.15,0.15 0 0 1 0.02,0.17 z"
       id="path292" />
    <path
       class="cls-82"
       d="m 13.592393,6.395 -3.54,6.11 v 0 l -0.88,1.54 -0.85,-1.47 a 0.14,0.14 0 0 1 0,-0.07 0.15,0.15 0 0 1 0,-0.07 l 0.86,-1.48 2.6,-4.5 a 0.15,0.15 0 0 1 0.18,-0.08 h 1.6 z"
       id="path294" />
    <path
       class="cls-80"
       d="m 13.592393,18.625 h -0.08 -1.55 a 0.15,0.15 0 0 1 -0.13,-0.08 l -2.43,-4.09 -0.24,-0.41 0.89,-1.54 z"
       id="path296" />
    <path
       class="cls-82"
       d="m 20.692393,12.505 -3.53,6.12 -0.05,-0.05 v 0 l -0.8,-1.39 a 0.15,0.15 0 0 1 0,-0.14 l 2.57,-4.46 a 0.15,0.15 0 0 0 0,-0.08 h 1.8 z"
       id="path298" />
    <path
       class="cls-80"
       d="m 22.442393,12.505 a 0.15,0.15 0 0 1 0,0.08 l -3.46,6 a 0.15,0.15 0 0 1 -0.13,0.07 h -1.6 -0.08 l 3.52,-6.15 0.89,-1.53 0.84,1.46 a 0.15,0.15 0 0 1 0.02,0.07 z"
       id="path300" />
    <path
       class="cls-80"
       d="m 20.692393,12.505 h -1.8 a 0.15,0.15 0 0 0 0,-0.08 l -2.57,-4.45 a 0.15,0.15 0 0 1 0,-0.15 l 0.8,-1.39 0.05,-0.05 z"
       id="path302" />
    <path
       class="cls-81"
       d="m 21.572393,10.975 v 0 l -0.88,1.53 -3.53,-6.12 h 0.08 1.6 a 0.15,0.15 0 0 1 0.13,0.07 z"
       id="path304" />
  </g>
  <metadata
     id="metadata1124">
    <rdf:RDF>
      <cc:Work
         rdf:about="">
        <dc:title>keycloak_deliverables</dc:title>
      </cc:Work>
    </rdf:RDF>
  </metadata>
</svg>
