<?xml version="1.0" encoding="utf-8"?>
<svg version="1.1" xmlns="http://www.w3.org/2000/svg" xmlns:xlink="http://www.w3.org/1999/xlink" width="160" height="55.5" x="0px" y="0px"
	 viewBox="0 0 160 55.5" style="enable-background:new 0 0 160 55.5;" xml:space="preserve">
<path d="M23.8,0l23.8,13.9v27.8L23.8,55.5L0,41.7V13.9L23.8,0z M2.6,15.5v24.6l21.2,12.3L45,40.1V15.5L23.8,3.1L2.6,15.5z"/>
<path d="M34.4,27.8l-6.6,3.4v0.5h6.6V37H13.2v-5.3h6.6v-0.6l-6.6-3.4v-6.6l10.6,5.7l10.6-5.7"/>
<g>
	<path d="M83,31.2l-2.6,2.9V41H74V14.7h6.4v11.6l2.2-3.3l5.7-8.3h7.9l-8.9,11.7L96.1,41h-7.5L83,31.2L83,31.2z M103.9,41h-6.1V21.4
		h6.1V41z M119.5,27l-2-0.1c-1.9,0-3.1,0.6-3.7,1.8V41h-6.1V21.4h5.7l0.2,2.5c1-1.9,2.5-2.9,4.3-2.9c0.7,0,1.2,0.1,1.7,0.2
		C119.6,21.3,119.5,27,119.5,27z M139.9,31.4c0,3.2-0.7,5.7-2,7.4c-1.3,1.7-3.2,2.6-5.6,2.6c-2,0-3.6-0.8-4.8-2.4l-0.3,2h-5.5V13.2
		h6.1V23c1.1-1.3,2.6-1.9,4.4-1.9c2.4,0,4.3,0.9,5.6,2.6c1.3,1.7,2,4.2,2,7.4L139.9,31.4L139.9,31.4z M133.8,31c0-1.9-0.3-3.2-0.8-4
		c-0.5-0.8-1.3-1.2-2.3-1.2c-1.4,0-2.3,0.5-2.9,1.6v7.8c0.5,1,1.5,1.6,2.9,1.6c1.4,0,2.3-0.7,2.7-2.1
		C133.7,33.9,133.8,32.7,133.8,31z M150.2,32.5l3.3-11h6.5l-8,22.9l-0.3,0.8c-1.1,2.5-3.1,3.8-6,3.8c-0.9,0-1.7-0.1-2.5-0.4v-4.4
		h0.8c0.9,0,1.5-0.1,2-0.4c0.5-0.2,0.8-0.7,1-1.3l0.5-1.3l-6.8-19.8h6.5C147.1,21.4,150.2,32.5,150.2,32.5z M100.8,19.8
		c-1.8,0-3.3-1.5-3.3-3.3c0-1.8,1.5-3.3,3.3-3.3s3.3,1.5,3.3,3.3C104.1,18.4,102.7,19.8,100.8,19.8z"/>
</g>
</svg>
