<?xml version="1.0" encoding="utf-8"?>
<!-- Generator: Adobe Illustrator 17.1.0, SVG Export Plug-In . SVG Version: 6.00 Build 0)  -->
<!DOCTYPE svg PUBLIC "-//W3C//DTD SVG 1.1//EN" "http://www.w3.org/Graphics/SVG/1.1/DTD/svg11.dtd">
<svg version="1.1" id="Layer_1" xmlns="http://www.w3.org/2000/svg" xmlns:xlink="http://www.w3.org/1999/xlink" x="0px" y="0px"
	 viewBox="0 0 434.3 158.6" enable-background="new 0 0 434.3 158.6" xml:space="preserve">
<g>
	<path fill="#FF0200" d="M69.9,0L0,39.7V119l69.9,39.7l69.9-39.7V39.7L69.9,0z M101,81L81.4,91.6V93H101v15.3H38.7V93h19.6v-1.5
		L38.7,81V62l31.2,16.8L101,62V81z"/>
	<g>
		<path fill="#222222" d="M211.5,39.6v47l26.2-25.1h12.7l-22.8,20.9l24.5,36.6h-12l-19.7-30l-8.9,8.2v21.8H202V39.6H211.5z"/>
		<path fill="#222222" d="M259.7,51.1V39.6h9.4v11.6H259.7z M269.2,61.5v57.5h-9.4V61.5H269.2z"/>
		<path fill="#222222" d="M292.4,61.5v12.1h0.2c2.3-4.7,5.1-8.1,8.4-10.3c3.3-2.2,7.6-3.3,12.7-3.1v10c-3.8,0-7,0.5-9.7,1.6
			c-2.7,1-4.8,2.6-6.4,4.6c-1.6,2-2.8,4.4-3.6,7.3c-0.7,2.9-1.1,6.1-1.1,9.8v25.6h-9.4V61.5H292.4z"/>
		<path fill="#222222" d="M330.6,39.6v29.7h0.2c1.6-3.2,4-5.5,7.3-6.9c3.3-1.4,7-2.2,11-2.2c4.4,0,8.3,0.8,11.6,2.4
			c3.3,1.6,6,3.8,8.2,6.6c2.2,2.8,3.8,6,4.9,9.6c1.1,3.6,1.7,7.5,1.7,11.6c0,4.1-0.5,7.9-1.6,11.6c-1.1,3.6-2.7,6.8-4.9,9.5
			c-2.2,2.7-4.9,4.8-8.2,6.4c-3.3,1.6-7.1,2.3-11.5,2.3c-1.4,0-3-0.2-4.7-0.4c-1.7-0.3-3.5-0.8-5.2-1.4c-1.7-0.7-3.3-1.6-4.8-2.7
			c-1.5-1.1-2.8-2.6-3.8-4.3h-0.2v7.7h-9.4V39.6H330.6z M364.6,81.9c-0.7-2.6-1.8-4.8-3.2-6.8c-1.4-2-3.3-3.6-5.6-4.8
			c-2.3-1.2-4.9-1.8-7.9-1.8c-3.2,0-5.9,0.6-8.1,1.9c-2.2,1.3-4,2.9-5.4,4.9c-1.4,2-2.4,4.4-3.1,6.9c-0.6,2.6-0.9,5.2-0.9,7.9
			c0,2.8,0.3,5.5,1,8.2c0.7,2.6,1.7,4.9,3.2,6.9c1.4,2,3.3,3.6,5.6,4.8c2.3,1.2,5.1,1.8,8.3,1.8c3.3,0,6-0.6,8.2-1.9
			c2.2-1.3,3.9-2.9,5.3-5c1.3-2.1,2.3-4.4,2.9-7.1c0.6-2.7,0.9-5.4,0.9-8.2C365.6,87,365.3,84.4,364.6,81.9z"/>
		<path fill="#222222" d="M406.1,133.6c-1.1,1.9-2.3,3.5-3.6,4.7c-1.3,1.2-2.7,2.1-4.3,2.7c-1.6,0.6-3.4,0.8-5.6,0.8
			c-1.1,0-2.2-0.1-3.3-0.2c-1.1-0.2-2.2-0.4-3.2-0.8v-8.7c0.9,0.3,1.8,0.6,2.7,0.9c0.9,0.3,1.9,0.4,2.8,0.4c1.9,0,3.5-0.4,4.7-1.3
			c1.2-0.9,2.2-2.2,3.1-3.9l3.9-9.7l-22.8-57.1h10.7l16.8,47h0.2l16.1-47h10l-25,65C408.2,129.3,407.1,131.7,406.1,133.6z"/>
	</g>
</g>
<g>
</g>
<g>
</g>
<g>
</g>
<g>
</g>
<g>
</g>
<g>
</g>
<g>
</g>
</svg>
