<svg enable-background="new 0 0 24 24" height="512" viewBox="0 0 24 24" width="512" xmlns="http://www.w3.org/2000/svg"><path d="m11.84 7.63c-.52.26-1.16.26-1.68 0l-10.16-5.03v9.4c0 1.238 1.013 2.25 2.25 2.25h7.513 9.487c1.105 0 2-.895 2-2v-9.65z" fill="#eceff1"/><path d="m21.25 3.5v.6l-9.41 5.03c-.52.26-1.16.26-1.68 0l-10.16-5.03v-.6c0-1.24 1.01-2.25 2.25-2.25h16.75c1.24 0 2.25 1.01 2.25 2.25z" fill="#b0bec5"/><path d="m16 14.004v-2.254c0-.307-.187-.583-.472-.697-.286-.113-.611-.042-.822.181l-4.5 4.75c-.274.289-.274.742 0 1.031l4.5 4.75c.211.224.537.293.822.181.285-.113.472-.389.472-.696v-2.25h.593c2.343 0 4.482 1.186 5.724 3.173l.297.475c.14.223.382.352.636.352.069 0 .138-.009.207-.029.321-.093.543-.387.543-.721 0-4.465-3.566-8.114-8-8.246z" fill="#4caf50"/><path d="m23.25 23c-.254 0-.496-.129-.636-.353l-.297-.475c-1.241-1.985-3.38-3.172-5.724-3.172h-.593v2.25c0 .307-.187.583-.472.696-.286.114-.611.042-.822-.181l-4.5-4.75c-.274-.289-.274-.742 0-1.031l4.5-4.75c.211-.224.536-.294.822-.181.285.114.472.39.472.697v2.254c4.434.133 8 3.78 8 8.246 0 .335-.222.629-.543.721-.069.019-.138.029-.207.029zm-8-5.5h1.343c1.968 0 3.818.685 5.275 1.9-1.077-2.302-3.415-3.9-6.119-3.9h-.5c-.414 0-.75-.336-.75-.75v-1.118l-2.716 2.868 2.717 2.868v-1.118c0-.414.336-.75.75-.75z"/><path d="m9.25 15h-7c-1.241 0-2.25-1.01-2.25-2.25v-9.5c0-1.241 1.009-2.25 2.25-2.25h17.5c1.241 0 2.25 1.009 2.25 2.25v9c0 .414-.336.75-.75.75s-.75-.336-.75-.75v-9c0-.414-.336-.75-.75-.75h-17.5c-.414 0-.75.336-.75.75v9.5c0 .413.336.75.75.75h7c.414 0 .75.336.75.75s-.336.75-.75.75z"/><path d="m11.001 9.827c-.404 0-.808-.092-1.176-.276l-9.408-4.659c-.371-.184-.523-.633-.339-1.005.184-.371.634-.523 1.005-.339l9.41 4.66c.313.157.7.157 1.011.001l9.413-4.661c.371-.185.822-.032 1.005.339.184.372.032.821-.339 1.005l-9.41 4.66c-.366.183-.769.275-1.172.275z"/></svg>