<?xml version="1.0" encoding="UTF-8"?>
<svg xmlns="http://www.w3.org/2000/svg" xmlns:xlink="http://www.w3.org/1999/xlink" width="1068pt" height="552pt" viewBox="0 0 1068 552" version="1.1">
<defs>
<clipPath id="clip1">
  <path d="M 0 414 L 1000 414 L 1000 551.941406 L 0 551.941406 Z M 0 414 "/>
</clipPath>
<clipPath id="clip2">
  <path d="M 327 0.453125 L 673 0.453125 L 673 346 L 327 346 Z M 327 0.453125 "/>
</clipPath>
</defs>
<g id="surface1">
<g clip-path="url(#clip1)" clip-rule="nonzero">
<path style=" stroke:none;fill-rule:evenodd;fill:rgb(12.750244%,12.11853%,11.871338%);fill-opacity:1;" d="M 218.054688 481.996094 C 218.054688 478.816406 217.523438 476.230469 216.460938 474.238281 C 215.402344 472.253906 213.945312 470.691406 212.089844 469.570312 C 210.230469 468.441406 207.945312 467.675781 205.226562 467.28125 C 202.507812 466.882812 199.492188 466.683594 196.179688 466.683594 C 189.019531 466.683594 181.394531 468.074219 173.308594 470.859375 C 171.449219 467.410156 170.058594 464.164062 169.132812 461.113281 C 168.203125 458.066406 167.738281 454.421875 167.738281 450.175781 C 173.574219 448.1875 179.40625 446.730469 185.238281 445.800781 C 191.070312 444.875 196.511719 444.410156 201.546875 444.410156 C 215.335938 444.410156 226.109375 447.722656 233.863281 454.355469 C 241.621094 460.984375 245.496094 471.585938 245.496094 486.171875 L 245.496094 545.835938 C 240.855469 547.292969 235.222656 548.683594 228.59375 550.011719 C 221.964844 551.335938 214.472656 552 206.121094 552 C 199.359375 552 193.160156 551.402344 187.523438 550.210938 C 181.890625 549.015625 177.050781 547.027344 173.011719 544.242188 C 168.964844 541.460938 165.851562 537.878906 163.660156 533.503906 C 161.476562 529.128906 160.382812 523.757812 160.382812 517.394531 C 160.382812 511.03125 161.738281 505.695312 164.457031 501.386719 C 167.175781 497.078125 170.691406 493.628906 174.996094 491.046875 C 179.308594 488.460938 184.113281 486.605469 189.417969 485.476562 C 194.71875 484.347656 200.023438 483.785156 205.324219 483.785156 C 209.171875 483.785156 213.414062 483.984375 218.054688 484.382812 Z M 218.054688 502.480469 C 216.460938 502.214844 214.738281 501.980469 212.882812 501.785156 C 211.027344 501.585938 209.371094 501.488281 207.910156 501.488281 C 201.414062 501.488281 196.277344 502.644531 192.496094 504.96875 C 188.71875 507.285156 186.828125 511.03125 186.828125 516.203125 C 186.828125 519.652344 187.558594 522.300781 189.019531 524.15625 C 190.476562 526.015625 192.234375 527.371094 194.289062 528.230469 C 196.34375 529.09375 198.527344 529.625 200.851562 529.824219 C 203.171875 530.023438 205.191406 530.125 206.914062 530.125 C 208.90625 530.125 210.894531 529.957031 212.882812 529.625 C 214.871094 529.296875 216.59375 528.996094 218.054688 528.730469 Z M 264.324219 468.273438 L 251.398438 468.273438 L 250.402344 464.296875 L 287.59375 416.765625 L 292.167969 416.765625 L 292.167969 446.796875 L 316.230469 446.796875 C 316.625 448.785156 316.894531 450.574219 317.027344 452.164062 C 317.15625 453.757812 317.222656 455.414062 317.222656 457.136719 C 317.222656 458.992188 317.15625 460.78125 317.027344 462.507812 C 316.894531 464.230469 316.625 466.152344 316.230469 468.273438 L 292.167969 468.273438 L 292.167969 508.644531 C 292.167969 512.753906 292.5 516.070312 293.164062 518.589844 C 293.824219 521.105469 294.785156 523.097656 296.042969 524.554688 C 297.304688 526.015625 298.863281 527.007812 300.71875 527.539062 C 302.574219 528.070312 304.765625 528.335938 307.28125 528.335938 C 309.269531 528.335938 311.222656 528.167969 313.148438 527.835938 C 315.070312 527.503906 316.761719 527.207031 318.21875 526.941406 C 319.148438 529.460938 319.808594 532.078125 320.207031 534.796875 C 320.605469 537.515625 320.804688 539.9375 320.804688 542.058594 C 320.804688 543.515625 320.769531 544.738281 320.703125 545.734375 C 320.640625 546.726562 320.539062 547.691406 320.40625 548.617188 C 314.308594 550.078125 308.011719 550.804688 301.515625 550.804688 C 289.449219 550.804688 280.234375 547.988281 273.871094 542.355469 C 267.507812 536.71875 264.324219 527.539062 264.324219 514.808594 Z M 338.9375 468.273438 L 326.011719 468.273438 L 325.015625 464.296875 L 362.207031 416.765625 L 366.78125 416.765625 L 366.78125 446.796875 L 390.84375 446.796875 C 391.238281 448.785156 391.507812 450.574219 391.640625 452.164062 C 391.769531 453.757812 391.839844 455.414062 391.839844 457.136719 C 391.839844 458.992188 391.769531 460.78125 391.640625 462.507812 C 391.507812 464.230469 391.238281 466.152344 390.84375 468.273438 L 366.78125 468.273438 L 366.78125 508.644531 C 366.78125 512.753906 367.113281 516.070312 367.777344 518.589844 C 368.441406 521.105469 369.398438 523.097656 370.660156 524.554688 C 371.921875 526.015625 373.476562 527.007812 375.332031 527.539062 C 377.1875 528.070312 379.378906 528.335938 381.894531 528.335938 C 383.882812 528.335938 385.839844 528.167969 387.761719 527.835938 C 389.683594 527.503906 391.375 527.207031 392.832031 526.941406 C 393.761719 529.460938 394.421875 532.078125 394.820312 534.796875 C 395.222656 537.515625 395.417969 539.9375 395.417969 542.058594 C 395.417969 543.515625 395.386719 544.738281 395.320312 545.734375 C 395.253906 546.726562 395.152344 547.691406 395.019531 548.617188 C 388.921875 550.078125 382.628906 550.804688 376.128906 550.804688 C 364.0625 550.804688 354.847656 547.988281 348.484375 542.355469 C 342.121094 536.71875 338.9375 527.539062 338.9375 514.808594 Z M 469.570312 487.167969 C 469.308594 480.804688 467.550781 475.664062 464.300781 471.753906 C 461.054688 467.84375 456.511719 465.886719 450.679688 465.886719 C 444.050781 465.886719 439.011719 467.742188 435.566406 471.453125 C 432.117188 475.167969 430.066406 480.40625 429.402344 487.167969 Z M 429.199219 506.855469 C 429.730469 514.808594 432.515625 520.578125 437.554688 524.15625 C 442.59375 527.738281 449.222656 529.527344 457.441406 529.527344 C 461.949219 529.527344 466.554688 529.09375 471.261719 528.230469 C 475.96875 527.371094 480.445312 526.144531 484.6875 524.554688 C 486.144531 527.207031 487.40625 530.386719 488.464844 534.101562 C 489.527344 537.8125 490.121094 541.789062 490.257812 546.03125 C 479.914062 550.011719 468.246094 552 455.253906 552 C 445.707031 552 437.523438 550.675781 430.691406 548.019531 C 423.867188 545.371094 418.296875 541.691406 413.988281 536.984375 C 409.679688 532.277344 406.496094 526.675781 404.441406 520.179688 C 402.386719 513.683594 401.363281 506.589844 401.363281 498.902344 C 401.363281 491.34375 402.421875 484.25 404.542969 477.621094 C 406.660156 470.992188 409.8125 465.226562 413.988281 460.320312 C 418.164062 455.414062 423.335938 451.535156 429.5 448.683594 C 435.664062 445.835938 442.859375 444.410156 451.078125 444.410156 C 458.234375 444.410156 464.601562 445.667969 470.167969 448.1875 C 475.738281 450.707031 480.476562 454.15625 484.386719 458.53125 C 488.300781 462.902344 491.25 468.109375 493.238281 474.140625 C 495.226562 480.171875 496.222656 486.640625 496.222656 493.53125 C 496.222656 496.050781 496.125 498.539062 495.925781 500.988281 C 495.726562 503.441406 495.492188 505.398438 495.226562 506.855469 Z M 507.007812 446.796875 C 508.996094 446.398438 510.882812 446.101562 512.675781 445.902344 C 514.464844 445.699219 516.417969 445.601562 518.539062 445.601562 C 520.53125 445.601562 522.488281 445.738281 524.40625 446 C 526.332031 446.265625 528.222656 446.597656 530.074219 446.996094 C 530.472656 447.660156 530.839844 448.617188 531.167969 449.878906 C 531.5 451.136719 531.800781 452.464844 532.066406 453.855469 C 532.328125 455.25 532.558594 456.640625 532.761719 458.03125 C 532.960938 459.425781 533.121094 460.582031 533.257812 461.515625 C 536.175781 457.402344 539.757812 453.722656 543.996094 450.476562 C 548.238281 447.226562 553.542969 445.601562 559.90625 445.601562 C 561.234375 445.601562 562.757812 445.667969 564.480469 445.800781 C 566.203125 445.933594 567.464844 446.132812 568.257812 446.398438 C 568.523438 447.722656 568.722656 449.246094 568.855469 450.972656 C 568.988281 452.695312 569.054688 454.484375 569.054688 456.34375 C 569.054688 458.597656 568.953125 461.050781 568.757812 463.699219 C 568.558594 466.351562 568.191406 468.871094 567.660156 471.257812 C 566.203125 470.992188 564.578125 470.859375 562.789062 470.859375 C 561 470.859375 559.90625 470.859375 559.511719 470.859375 C 557.253906 470.859375 554.738281 471.09375 551.949219 471.554688 C 549.167969 472.019531 546.515625 473.246094 543.996094 475.234375 C 541.476562 477.222656 539.390625 480.207031 537.730469 484.1875 C 536.074219 488.160156 535.242188 493.730469 535.242188 500.890625 L 535.242188 549.8125 C 532.859375 550.210938 530.472656 550.472656 528.085938 550.605469 C 525.699219 550.738281 523.382812 550.804688 521.128906 550.804688 C 518.871094 550.804688 516.585938 550.738281 514.265625 550.605469 C 511.945312 550.472656 509.527344 550.210938 507.007812 549.8125 Z M 582.292969 446.796875 C 584.148438 446.398438 586.003906 446.101562 587.859375 445.902344 C 589.71875 445.699219 591.769531 445.601562 594.027344 445.601562 C 596.28125 445.601562 598.269531 445.699219 599.992188 445.902344 C 601.714844 446.101562 603.503906 446.398438 605.359375 446.796875 C 605.757812 447.457031 606.125 448.421875 606.457031 449.679688 C 606.785156 450.9375 607.085938 452.265625 607.351562 453.65625 C 607.617188 455.050781 607.847656 456.40625 608.046875 457.734375 C 608.246094 459.058594 608.410156 460.1875 608.542969 461.113281 C 609.601562 459.128906 610.996094 457.136719 612.722656 455.148438 C 614.445312 453.160156 616.496094 451.371094 618.882812 449.78125 C 621.269531 448.1875 623.953125 446.894531 626.9375 445.902344 C 629.921875 444.90625 633.269531 444.410156 636.984375 444.410156 C 653.023438 444.410156 663.300781 450.507812 667.808594 462.707031 C 670.457031 457.800781 674.203125 453.527344 679.042969 449.878906 C 683.882812 446.230469 690.015625 444.410156 697.441406 444.410156 C 709.105469 444.410156 717.691406 447.628906 723.191406 454.058594 C 728.695312 460.484375 731.445312 470.527344 731.445312 484.1875 L 731.445312 549.613281 C 726.675781 550.410156 721.964844 550.804688 717.328125 550.804688 C 712.6875 550.804688 707.980469 550.410156 703.207031 549.613281 L 703.207031 491.539062 C 703.207031 484.382812 702.3125 478.882812 700.519531 475.039062 C 698.730469 471.191406 695.121094 469.269531 689.683594 469.269531 C 687.429688 469.269531 685.210938 469.601562 683.023438 470.261719 C 680.832031 470.925781 678.84375 472.152344 677.058594 473.941406 C 675.265625 475.730469 673.808594 478.253906 672.679688 481.5 C 671.554688 484.746094 670.988281 488.957031 670.988281 494.128906 L 670.988281 549.613281 C 666.21875 550.410156 661.507812 550.804688 656.871094 550.804688 C 652.230469 550.804688 647.523438 550.410156 642.746094 549.613281 L 642.746094 491.539062 C 642.746094 484.382812 641.855469 478.882812 640.0625 475.039062 C 638.273438 471.191406 634.660156 469.269531 629.226562 469.269531 C 626.976562 469.269531 624.71875 469.601562 622.464844 470.261719 C 620.210938 470.925781 618.1875 472.21875 616.398438 474.140625 C 614.609375 476.0625 613.183594 478.746094 612.125 482.195312 C 611.0625 485.640625 610.53125 490.152344 610.53125 495.71875 L 610.53125 549.613281 C 605.757812 550.410156 601.054688 550.804688 596.410156 550.804688 C 591.769531 550.804688 587.066406 550.410156 582.292969 549.613281 Z M 788.960938 530.519531 C 796.386719 530.519531 801.722656 527.769531 804.96875 522.269531 C 808.21875 516.765625 809.84375 508.84375 809.84375 498.503906 C 809.84375 488.160156 808.21875 480.238281 804.96875 474.738281 C 801.722656 469.234375 796.386719 466.484375 788.960938 466.484375 C 781.667969 466.484375 776.398438 469.234375 773.152344 474.738281 C 769.902344 480.238281 768.273438 488.160156 768.273438 498.503906 C 768.273438 508.84375 769.902344 516.765625 773.152344 522.269531 C 776.398438 527.769531 781.667969 530.519531 788.960938 530.519531 Z M 788.960938 552 C 780.609375 552 773.347656 550.640625 767.183594 547.921875 C 761.019531 545.203125 755.914062 541.425781 751.871094 536.585938 C 747.824219 531.746094 744.777344 526.078125 742.722656 519.582031 C 740.667969 513.085938 739.640625 506.0625 739.640625 498.503906 C 739.640625 490.945312 740.667969 483.851562 742.722656 477.222656 C 744.777344 470.59375 747.824219 464.859375 751.871094 460.023438 C 755.914062 455.179688 761.019531 451.371094 767.183594 448.585938 C 773.347656 445.800781 780.609375 444.410156 788.960938 444.410156 C 797.3125 444.410156 804.601562 445.800781 810.835938 448.585938 C 817.066406 451.371094 822.234375 455.179688 826.347656 460.023438 C 830.460938 464.859375 833.507812 470.59375 835.496094 477.222656 C 837.484375 483.851562 838.480469 490.945312 838.480469 498.503906 C 838.480469 506.0625 837.484375 513.085938 835.496094 519.582031 C 833.507812 526.078125 830.460938 531.746094 826.347656 536.585938 C 822.234375 541.425781 817.066406 545.203125 810.835938 547.921875 C 804.601562 550.640625 797.3125 552 788.960938 552 Z M 874.734375 504.867188 C 867.308594 502.746094 861.507812 499.597656 857.335938 495.421875 C 853.15625 491.246094 851.070312 484.980469 851.070312 476.625 C 851.070312 466.550781 854.683594 458.664062 861.910156 452.960938 C 869.132812 447.261719 878.980469 444.410156 891.441406 444.410156 C 896.613281 444.410156 901.714844 444.875 906.753906 445.800781 C 911.792969 446.730469 916.894531 448.121094 922.066406 449.976562 C 921.800781 453.425781 921.136719 457.003906 920.074219 460.71875 C 919.015625 464.429688 917.757812 467.675781 916.300781 470.464844 C 913.117188 469.136719 909.605469 467.976562 905.757812 466.980469 C 901.914062 465.988281 897.871094 465.492188 893.628906 465.492188 C 889.121094 465.492188 885.609375 466.1875 883.085938 467.578125 C 880.566406 468.972656 879.308594 471.191406 879.308594 474.238281 C 879.308594 477.15625 880.203125 479.210938 881.992188 480.40625 C 883.785156 481.597656 886.335938 482.726562 889.648438 483.785156 L 900.984375 487.167969 C 904.699219 488.226562 908.046875 489.519531 911.027344 491.046875 C 914.011719 492.570312 916.566406 494.460938 918.6875 496.714844 C 920.808594 498.964844 922.464844 501.75 923.65625 505.066406 C 924.851562 508.382812 925.449219 512.421875 925.449219 517.195312 C 925.449219 522.101562 924.421875 526.675781 922.363281 530.917969 C 920.308594 535.160156 917.324219 538.839844 913.414062 541.953125 C 909.503906 545.074219 904.765625 547.523438 899.195312 549.3125 C 893.628906 551.105469 887.328125 552 880.304688 552 C 877.121094 552 874.207031 551.898438 871.554688 551.699219 C 868.902344 551.5 866.351562 551.171875 863.898438 550.707031 C 861.445312 550.242188 859.023438 549.679688 856.636719 549.015625 C 854.253906 548.355469 851.664062 547.492188 848.882812 546.429688 C 849.148438 542.851562 849.777344 539.238281 850.769531 535.59375 C 851.765625 531.949219 853.058594 528.398438 854.648438 524.953125 C 859.023438 526.675781 863.167969 527.96875 867.078125 528.828125 C 870.992188 529.691406 875.066406 530.125 879.308594 530.125 C 881.167969 530.125 883.1875 529.957031 885.375 529.625 C 887.5625 529.296875 889.585938 528.699219 891.441406 527.835938 C 893.296875 526.976562 894.855469 525.847656 896.113281 524.457031 C 897.375 523.0625 898 521.242188 898 518.984375 C 898 515.804688 897.042969 513.519531 895.117188 512.125 C 893.195312 510.734375 890.511719 509.503906 887.066406 508.445312 Z M 943.519531 468.273438 L 930.597656 468.273438 L 929.597656 464.296875 L 966.789062 416.765625 L 971.363281 416.765625 L 971.363281 446.796875 L 995.425781 446.796875 C 995.824219 448.785156 996.089844 450.574219 996.222656 452.164062 C 996.355469 453.757812 996.421875 455.414062 996.421875 457.136719 C 996.421875 458.992188 996.355469 460.78125 996.222656 462.507812 C 996.089844 464.230469 995.824219 466.152344 995.425781 468.273438 L 971.363281 468.273438 L 971.363281 508.644531 C 971.363281 512.753906 971.695312 516.070312 972.359375 518.589844 C 973.019531 521.105469 973.980469 523.097656 975.242188 524.554688 C 976.503906 526.015625 978.058594 527.007812 979.914062 527.539062 C 981.769531 528.070312 983.960938 528.335938 986.476562 528.335938 C 988.46875 528.335938 990.421875 528.167969 992.34375 527.835938 C 994.265625 527.503906 995.957031 527.207031 997.414062 526.941406 C 998.34375 529.460938 999.007812 532.078125 999.402344 534.796875 C 999.804688 537.515625 1000 539.9375 1000 542.058594 C 1000 543.515625 999.96875 544.738281 999.898438 545.734375 C 999.835938 546.726562 999.734375 547.691406 999.601562 548.617188 C 993.503906 550.078125 987.207031 550.804688 980.710938 550.804688 C 968.644531 550.804688 959.429688 547.988281 953.066406 542.355469 C 946.703125 536.71875 943.519531 527.539062 943.519531 514.808594 Z M 6.03125 415.3125 C 11.777344 414.515625 17.308594 414.113281 22.621094 414.113281 C 28.222656 414.113281 33.753906 414.515625 39.210938 415.3125 L 74.757812 489.097656 L 111.382812 415.3125 C 115.835938 414.515625 120.789062 414.113281 126.246094 414.113281 C 131.707031 414.113281 136.945312 414.515625 141.976562 415.3125 L 149.300781 550.800781 C 143.84375 551.601562 138.671875 552 133.789062 552 C 128.902344 552 124.09375 551.601562 119.355469 550.800781 L 115.476562 452.839844 L 84.019531 520.546875 C 82.007812 520.8125 79.929688 521.050781 77.773438 521.246094 C 75.617188 521.445312 73.464844 521.546875 71.308594 521.546875 C 69.441406 521.546875 67.578125 521.480469 65.710938 521.347656 C 63.84375 521.214844 61.902344 520.945312 59.890625 520.546875 L 30.59375 451.4375 L 27.578125 550.800781 C 22.980469 551.601562 18.527344 552 14.21875 552 C 9.621094 552 4.878906 551.601562 0 550.800781 L 6.03125 415.3125 "/>
</g>
<g clip-path="url(#clip2)" clip-rule="nonzero">
<path style=" stroke:none;fill-rule:evenodd;fill:rgb(12.750244%,12.11853%,11.871338%);fill-opacity:1;" d="M 601.285156 33.347656 L 603.097656 69.933594 C 632.757812 102.699219 644.464844 149.101562 629.699219 192.714844 C 607.664062 257.816406 534.992188 292.035156 467.386719 269.152344 C 399.78125 246.265625 362.839844 174.9375 384.878906 109.835938 C 399.691406 66.078125 437.378906 36.269531 481.027344 28.378906 L 504.609375 0.515625 C 431.035156 -1.476562 361.621094 44.191406 336.785156 117.558594 C 306.269531 207.699219 354.605469 305.507812 444.746094 336.023438 C 534.890625 366.539062 632.699219 318.203125 663.214844 228.0625 C 688.011719 154.8125 660.742188 76.503906 601.285156 33.347656 "/>
</g>
<path style=" stroke:none;fill-rule:evenodd;fill:rgb(12.750244%,12.11853%,11.871338%);fill-opacity:1;" d="M 559.03125 141.296875 L 557.78125 90.152344 L 556.78125 60.726562 L 556.101562 35.230469 C 556.101562 35.230469 556.246094 22.9375 555.816406 20.046875 C 555.726562 19.4375 555.535156 18.945312 555.308594 18.511719 L 555.21875 18.332031 L 555.121094 18.175781 C 554.652344 17.363281 553.910156 16.703125 552.949219 16.378906 C 551.96875 16.046875 550.953125 16.128906 550.074219 16.507812 L 550.019531 16.53125 C 549.914062 16.578125 549.8125 16.628906 549.714844 16.6875 C 549.296875 16.890625 548.871094 17.152344 548.453125 17.554688 C 546.359375 19.589844 539.003906 29.441406 539.003906 29.441406 L 522.980469 49.28125 L 504.308594 72.050781 L 472.25 111.917969 C 472.25 111.917969 457.535156 130.28125 460.789062 152.878906 C 464.039062 175.480469 480.839844 186.488281 493.875 190.902344 C 506.910156 195.3125 526.945312 196.773438 543.253906 180.796875 C 559.566406 164.820312 559.03125 141.296875 559.03125 141.296875 "/>
<path style=" stroke:none;fill-rule:nonzero;fill:rgb(73.497009%,72.653198%,72.235107%);fill-opacity:1;" d="M 1043.578125 550.753906 C 1030.558594 550.753906 1020 540.199219 1020 527.171875 C 1020 514.144531 1030.558594 503.585938 1043.578125 503.585938 C 1056.609375 503.585938 1067.171875 514.144531 1067.171875 527.171875 C 1067.171875 540.199219 1056.609375 550.753906 1043.578125 550.753906 M 1043.578125 507.800781 C 1032.898438 507.800781 1024.210938 516.484375 1024.210938 527.171875 C 1024.210938 537.855469 1032.898438 546.542969 1043.578125 546.542969 C 1054.269531 546.542969 1062.949219 537.855469 1062.949219 527.171875 C 1062.949219 516.484375 1054.269531 507.800781 1043.578125 507.800781 M 1039.53125 518.433594 L 1039.53125 525.828125 L 1043.789062 525.828125 C 1046.109375 525.828125 1047.421875 524.460938 1047.421875 522.089844 C 1047.421875 520.5625 1046.898438 519.484375 1045.851562 518.90625 C 1045.320312 518.617188 1044.578125 518.433594 1042.769531 518.433594 L 1039.53125 518.433594 M 1053.449219 540.644531 L 1049.449219 540.644531 C 1049.140625 540.644531 1048.851562 540.488281 1048.710938 540.199219 L 1043.609375 530.59375 L 1039.53125 530.59375 L 1039.53125 539.804688 C 1039.53125 540.277344 1039.160156 540.644531 1038.691406 540.644531 L 1035.160156 540.644531 C 1034.691406 540.644531 1034.320312 540.277344 1034.320312 539.804688 L 1034.320312 514.535156 C 1034.320312 514.0625 1034.691406 513.695312 1035.160156 513.695312 L 1042.898438 513.695312 C 1045.660156 513.695312 1046.871094 513.933594 1047.898438 514.328125 C 1050.871094 515.433594 1052.71875 518.351562 1052.71875 521.933594 C 1052.71875 525.171875 1051.109375 527.90625 1048.558594 529.171875 C 1048.640625 529.304688 1048.710938 529.433594 1048.789062 529.59375 L 1054.191406 539.410156 C 1054.320312 539.671875 1054.320312 539.988281 1054.160156 540.226562 C 1054.03125 540.488281 1053.738281 540.644531 1053.449219 540.644531 "/>
</g>
</svg>
