<?xml version="1.0" encoding="UTF-8" standalone="no"?>
<svg
   xmlns:dc="http://purl.org/dc/elements/1.1/"
   xmlns:cc="http://creativecommons.org/ns#"
   xmlns:rdf="http://www.w3.org/1999/02/22-rdf-syntax-ns#"
   xmlns:svg="http://www.w3.org/2000/svg"
   xmlns="http://www.w3.org/2000/svg"
   viewBox="0 0 2589.0667 737.64001"
   height="737.64001"
   width="2589.0667"
   xml:space="preserve"
   id="svg2"
   version="1.1"><metadata
     id="metadata8"><rdf:RDF><cc:Work
         rdf:about=""><dc:format>image/svg+xml</dc:format><dc:type
           rdf:resource="http://purl.org/dc/dcmitype/StillImage" /></cc:Work></rdf:RDF></metadata><defs
     id="defs6"><clipPath
       id="clipPath20"
       clipPathUnits="userSpaceOnUse"><path
         id="path18"
         d="m 1006.58,104.609 -109.291,36.192 c 0,0 13.93,553.125 -185.551,591.844 -131.55,152.429 20.235,6510.805 498.132,21.804 0,0 -163.58,-82.144 -194.53,-221.609 -30.953,-139.551 -8.76,-428.231 -8.76,-428.231 z" /></clipPath><linearGradient
       id="linearGradient28"
       spreadMethod="pad"
       gradientTransform="matrix(1256.2567,-423.84291,-382.33557,-1127.3918,283.65375,2101.0885)"
       gradientUnits="userSpaceOnUse"
       y2="0"
       x2="1"
       y1="0"
       x1="0"><stop
         id="stop22"
         offset="0"
         style="stop-opacity:1;stop-color:#929669" /><stop
         id="stop24"
         offset="0.230769"
         style="stop-opacity:1;stop-color:#929669" /><stop
         id="stop26"
         offset="1"
         style="stop-opacity:1;stop-color:#fdfcf0" /></linearGradient><clipPath
       id="clipPath38"
       clipPathUnits="userSpaceOnUse"><path
         id="path36"
         d="m 1065.49,638.75 c 0,0 949.66,625.47 727.17,1924.45 -214.26,943.73 -720.11,1253.96 -774.48,1372.41 -59.832,83.82 -120.106,232.37 -120.106,232.37 L 938.465,1538.5 c 0,0 -83.563,-802.898 127.025,-899.75 z" /></clipPath><linearGradient
       id="linearGradient44"
       spreadMethod="pad"
       gradientTransform="matrix(879.70902,-3415.0356,-3674.4423,-589.11534,743.88687,4143.2629)"
       gradientUnits="userSpaceOnUse"
       y2="0"
       x2="1"
       y1="0"
       x1="0"><stop
         id="stop40"
         offset="0"
         style="stop-opacity:1;stop-color:#44aa3a" /><stop
         id="stop42"
         offset="1"
         style="stop-opacity:1;stop-color:#3d9439" /></linearGradient><clipPath
       id="clipPath54"
       clipPathUnits="userSpaceOnUse"><path
         id="path52"
         d="M 0,0 V 4179 H 14669 V 0 Z" /></clipPath><clipPath
       id="clipPath60"
       clipPathUnits="userSpaceOnUse"><path
         id="path58"
         d="m 841.688,603.805 c 0,0 -890.8169,607.695 -839.55909,1679.925 C 53.3906,3355.98 682.566,3883.18 805.105,3978.82 c 79.219,84.48 82.497,117.02 88.625,200.32 C 949.258,4059.88 940.035,2397.5 945.914,2203.21 968.75,1446.85 904.027,746.574 841.688,603.805 Z" /></clipPath><linearGradient
       id="linearGradient66"
       spreadMethod="pad"
       gradientTransform="matrix(1539.6853,349.83117,481.12314,-1437.5996,-91.497896,2173.5321)"
       gradientUnits="userSpaceOnUse"
       y2="0"
       x2="1"
       y1="0"
       x1="0"><stop
         id="stop62"
         offset="0"
         style="stop-opacity:1;stop-color:#40a73c" /><stop
         id="stop64"
         offset="1"
         style="stop-opacity:1;stop-color:#5ebc45" /></linearGradient><clipPath
       id="clipPath76"
       clipPathUnits="userSpaceOnUse"><path
         id="path74"
         d="M 0,0 H 14668.5 V 4179 H 0 Z" /></clipPath></defs><g
     transform="matrix(1.3333333,0,0,-1.3333333,0,737.64)"
     id="g10"><g
       transform="scale(0.132379)"
       id="g12"><g
         id="g14"><g
           clip-path="url(#clipPath20)"
           id="g16"><path
             id="path30"
             style="fill:url(#linearGradient28);fill-opacity:1;fill-rule:nonzero;stroke:none"
             d="m 1006.58,104.609 -109.291,36.192 c 0,0 13.93,553.125 -185.551,591.844 -131.55,152.429 20.235,6510.805 498.132,21.804 0,0 -163.58,-82.144 -194.53,-221.609 -30.953,-139.551 -8.76,-428.231 -8.76,-428.231" /></g></g><g
         id="g32"><g
           clip-path="url(#clipPath38)"
           id="g34"><path
             id="path46"
             style="fill:url(#linearGradient44);fill-opacity:1;fill-rule:nonzero;stroke:none"
             d="m 1065.49,638.75 c 0,0 949.66,625.47 727.17,1924.45 -214.26,943.73 -720.11,1253.96 -774.48,1372.41 -59.832,83.82 -120.106,232.37 -120.106,232.37 L 938.465,1538.5 c 0,0 -83.563,-802.898 127.025,-899.75" /></g></g><g
         id="g48"><g
           clip-path="url(#clipPath54)"
           id="g50"><g
             clip-path="url(#clipPath60)"
             id="g56"><path
               id="path68"
               style="fill:url(#linearGradient66);fill-opacity:1;fill-rule:nonzero;stroke:none"
               d="m 841,603 v 1 h -2 v 1 h -1 v 1 h -1 v 1 h -2 v 1 h -1 v 1 h -2 v 1 h -1 v 1 h -1 v 1 h -2 v 1 h -1 v 1 h -1 v 1 h -2 v 1 h -1 v 1 h -1 v 1 h -2 v 1 h -1 v 1 h -2 v 1 h -1 v 1 h -1 v 1 h -1 v 1 h -2 v 1 h -1 v 1 h -1 v 1 h -2 v 1 h -1 v 1 h -1 v 1 h -2 v 1 h -1 v 1 h -1 v 1 h -2 v 1 h -1 v 1 h -1 v 1 h -1 v 1 h -2 v 1 h -1 v 1 h -1 v 1 h -2 v 1 h -1 v 1 h -1 v 1 h -1 v 1 h -2 v 1 h -1 v 1 h -1 v 1 h -1 v 1 h -2 v 1 h -1 v 1 h -1 v 1 h -1 v 1 h -2 v 1 h -1 v 1 h -1 v 1 h -1 v 1 h -2 v 1 h -1 v 1 h -1 v 1 h -1 v 1 h -1 v 1 h -2 v 1 h -1 v 1 h -1 v 1 h -1 v 1 h -2 v 1 h -1 v 1 h -1 v 1 h -1 v 1 h -1 v 1 h -2 v 1 h -1 v 1 h -1 v 1 h -1 v 1 h -1 v 1 h -2 v 1 h -1 v 1 h -1 v 1 h -1 v 1 h -1 v 1 h -1 v 1 h -2 v 1 h -1 v 1 h -1 v 1 h -1 v 1 h -1 v 1 h -2 v 1 h -1 v 1 h -1 v 1 h -1 v 1 h -1 v 1 h -1 v 1 h -1 v 1 h -2 v 1 h -1 v 1 h -1 v 1 h -1 v 1 h -1 v 1 h -1 v 1 h -2 v 1 h -1 v 1 h -1 v 1 h -1 v 1 h -1 v 1 h -1 v 1 h -1 v 1 h -2 v 1 h -1 v 1 h -1 v 1 h -1 v 1 h -1 v 1 h -1 v 1 h -1 v 1 h -1 v 1 h -2 v 1 h -1 v 1 h -1 v 1 h -1 v 1 h -1 v 1 h -1 v 1 h -1 v 1 h -1 v 1 h -2 v 1 h -1 v 1 h -1 v 1 h -1 v 1 h -1 v 1 h -1 v 1 h -1 v 1 h -1 v 1 h -1 v 1 h -1 v 1 h -2 v 1 h -1 v 1 h -1 v 1 h -1 v 1 h -1 v 1 h -1 v 1 h -1 v 1 h -1 v 1 h -1 v 1 h -1 v 1 h -1 v 1 h -2 v 1 h -1 v 1 h -1 v 1 h -1 v 1 h -1 v 1 h -1 v 1 h -1 v 1 h -1 v 1 h -1 v 1 h -1 v 1 h -1 v 1 h -1 v 1 h -1 v 1 h -1 v 1 h -1 v 1 h -2 v 1 h -1 v 1 h -1 v 1 h -1 v 1 h -1 v 1 h -1 v 1 h -1 v 1 h -1 v 1 h -1 v 1 h -1 v 1 h -1 v 1 h -1 v 1 h -1 v 1 h -1 v 1 h -1 v 1 h -1 v 1 h -1 v 1 h -1 v 1 h -1 v 1 h -1 v 1 h -1 v 1 h -1 v 1 h -1 v 1 h -1 v 1 h -1 v 1 h -2 v 1 h -1 v 1 h -1 v 1 h -1 v 1 h -1 v 1 h -1 v 1 h -1 v 1 h -1 v 1 h -1 v 1 h -1 v 1 h -1 v 1 h -1 v 1 h -1 v 1 h -1 v 1 h -1 v 1 h -1 v 1 h -1 v 1 h -1 v 1 h -1 v 1 h -1 v 1 h -1 v 1 h -1 v 1 h -1 v 1 h -1 v 1 h -1 v 1 h -1 v 1 h -1 v 1 h -1 v 1 h -1 v 1 h -1 v 1 h -1 v 1 h -1 v 1 h -1 v 1 h -1 v 1 h -1 v 1 h -1 v 1 h -1 v 1 h -1 v 1 h -1 v 1 h -1 v 2 h -1 v 1 h -1 v 1 h -1 v 1 h -1 v 1 h -1 v 1 h -1 v 1 h -1 v 1 h -1 v 1 h -1 v 1 h -1 v 1 h -1 v 1 h -1 v 1 h -1 v 1 h -1 v 1 h -1 v 1 h -1 v 1 h -1 v 1 h -1 v 1 h -1 v 1 h -1 v 1 h -1 v 1 h -1 v 1 h -1 v 1 h -1 v 1 h -1 v 2 h -1 v 1 h -1 v 1 h -1 v 1 h -1 v 1 h -1 v 1 h -1 v 1 h -1 v 1 h -1 v 1 h -1 v 1 h -1 v 1 h -1 v 1 h -1 v 1 h -1 v 1 h -1 v 2 h -1 v 1 h -1 v 1 h -1 v 1 h -1 v 1 h -1 v 1 h -1 v 1 h -1 v 1 h -1 v 1 h -1 v 1 h -1 v 1 h -1 v 1 h -1 v 2 h -1 v 1 h -1 v 1 h -1 v 1 h -1 v 1 h -1 v 1 h -1 v 1 h -1 v 1 h -1 v 1 h -1 v 1 h -1 v 2 h -1 v 1 h -1 v 1 h -1 v 1 h -1 v 1 h -1 v 1 h -1 v 1 h -1 v 1 h -1 v 1 h -1 v 2 h -1 v 1 h -1 v 1 h -1 v 1 h -1 v 1 h -1 v 1 h -1 v 1 h -1 v 1 h -1 v 2 h -1 v 1 h -1 v 1 h -1 v 1 h -1 v 1 h -1 v 1 h -1 v 1 h -1 v 2 h -1 v 1 h -1 v 1 h -1 v 1 h -1 v 1 h -1 v 1 h -1 v 1 h -1 v 2 h -1 v 1 h -1 v 1 h -1 v 1 h -1 v 1 h -1 v 1 h -1 v 2 h -1 v 1 h -1 v 1 h -1 v 1 h -1 v 1 h -1 v 1 h -1 v 2 h -1 v 1 h -1 v 1 h -1 v 1 h -1 v 1 h -1 v 1 h -1 v 2 h -1 v 1 h -1 v 1 h -1 v 1 h -1 v 1 h -1 v 2 h -1 v 1 h -1 v 1 h -1 v 1 h -1 v 1 h -1 v 2 h -1 v 1 h -1 v 1 h -1 v 1 h -1 v 1 h -1 v 2 h -1 v 1 h -1 v 1 h -1 v 1 h -1 v 1 h -1 v 2 h -1 v 1 h -1 v 1 h -1 v 1 h -1 v 2 h -1 v 1 h -1 v 1 h -1 v 1 h -1 v 1 h -1 v 2 h -1 v 1 h -1 v 1 h -1 v 1 h -1 v 2 h -1 v 1 h -1 v 1 h -1 v 1 h -1 v 1 h -1 v 2 h -1 v 1 h -1 v 1 h -1 v 2 h -1 v 1 h -1 v 1 h -1 v 1 h -1 v 2 h -1 v 1 h -1 v 1 h -1 v 1 h -1 v 2 h -1 v 1 h -1 v 1 h -1 v 1 h -1 v 2 h -1 v 1 h -1 v 1 h -1 v 1 h -1 v 2 h -1 v 1 h -1 v 1 h -1 v 2 h -1 v 1 h -1 v 1 h -1 v 2 h -1 v 1 h -1 v 1 h -1 v 1 h -1 v 2 h -1 v 1 h -1 v 1 h -1 v 2 h -1 v 1 h -1 v 1 h -1 v 2 h -1 v 1 h -1 v 1 h -1 v 1 h -1 v 2 h -1 v 1 h -1 v 1 h -1 v 2 h -1 v 1 h -1 v 1 h -1 v 2 h -1 v 1 h -1 v 2 h -1 v 1 h -1 v 1 h -1 v 2 h -1 v 1 h -1 v 1 h -1 v 2 h -1 v 1 h -1 v 1 h -1 v 2 h -1 v 1 h -1 v 1 h -1 v 2 h -1 v 1 h -1 v 1 h -1 v 2 h -1 v 1 h -1 v 2 h -1 v 1 h -1 v 1 h -1 v 2 h -1 v 1 h -1 v 1 h -1 v 2 h -1 v 1 h -1 v 2 h -1 v 1 h -1 v 1 h -1 v 2 h -1 v 1 h -1 v 2 h -1 v 1 h -1 v 1 h -1 v 2 h -1 v 1 h -1 v 2 h -1 v 1 h -1 v 1 h -1 v 2 h -1 v 1 h -1 v 2 h -1 v 1 h -1 v 2 h -1 v 1 h -1 v 2 h -1 v 1 h -1 v 1 h -1 v 2 h -1 v 1 h -1 v 2 h -1 v 1 h -1 v 2 h -1 v 1 h -1 v 1 h -1 v 2 h -1 v 1 h -1 v 2 h -1 v 1 h -1 v 2 h -1 v 1 h -1 v 2 h -1 v 1 h -1 v 2 h -1 v 1 h -1 v 2 h -1 v 1 h -1 v 2 h -1 v 1 h -1 v 2 h -1 v 1 h -1 v 2 h -1 v 1 h -1 v 2 h -1 v 1 h -1 v 2 h -1 v 1 h -1 v 2 h -1 v 1 h -1 v 2 h -1 v 1 h -1 v 2 h -1 v 1 h -1 v 2 h -1 v 2 h -1 v 1 h -1 v 2 h -1 v 1 h -1 v 2 h -1 v 1 h -1 v 2 h -1 v 1 h -1 v 2 h -1 v 1 h -1 v 2 h -1 v 2 h -1 v 1 h -1 v 2 h -1 v 1 h -1 v 2 h -1 v 2 h -1 v 1 h -1 v 2 h -1 v 1 h -1 v 2 h -1 v 2 h -1 v 1 h -1 v 2 h -1 v 1 h -1 v 2 h -1 v 2 h -1 v 1 h -1 v 2 h -1 v 1 h -1 v 2 h -1 v 2 h -1 v 1 h -1 v 2 h -1 v 2 h -1 v 1 h -1 v 2 h -1 v 2 h -1 v 1 h -1 v 2 h -1 v 2 h -1 v 1 h -1 v 2 h -1 v 2 h -1 v 1 h -1 v 2 h -1 v 2 h -1 v 1 h -1 v 2 h -1 v 2 h -1 v 1 h -1 v 2 h -1 v 2 h -1 v 2 h -1 v 1 h -1 v 2 h -1 v 2 h -1 v 2 h -1 v 1 h -1 v 2 h -1 v 2 h -1 v 2 h -1 v 1 h -1 v 2 h -1 v 2 h -1 v 1 h -1 v 2 h -1 v 2 h -1 v 2 h -1 v 2 h -1 v 1 h -1 v 2 h -1 v 2 h -1 v 2 h -1 v 2 h -1 v 1 h -1 v 2 h -1 v 2 h -1 v 2 h -1 v 2 h -1 v 1 h -1 v 2 h -1 v 2 h -1 v 2 h -1 v 2 h -1 v 2 h -1 v 1 h -1 v 2 h -1 v 2 h -1 v 2 h -1 v 2 h -1 v 2 h -1 v 2 h -1 v 2 h -1 v 2 h -1 v 1 h -1 v 2 h -1 v 2 h -1 v 2 h -1 v 2 h -1 v 2 h -1 v 2 h -1 v 2 h -1 v 2 h -1 v 2 h -1 v 2 h -1 v 1 h -1 v 2 h -1 v 2 h -1 v 2 h -1 v 2 h -1 v 2 h -1 v 2 h -1 v 2 h -1 v 2 h -1 v 2 h -1 v 2 h -1 v 2 h -1 v 2 h -1 v 2 h -1 v 2 h -1 v 2 h -1 v 2 h -1 v 2 h -1 v 3 h -1 v 2 h -1 v 2 h -1 v 2 h -1 v 2 h -1 v 2 h -1 v 2 h -1 v 2 h -1 v 2 h -1 v 2 h -1 v 2 h -1 v 3 h -1 v 2 h -1 v 2 h -1 v 2 h -1 v 2 h -1 v 2 h -1 v 2 h -1 v 3 h -1 v 2 h -1 v 2 h -1 v 2 h -1 v 2 h -1 v 3 h -1 v 2 h -1 v 2 h -1 v 2 h -1 v 2 h -1 v 3 h -1 v 2 h -1 v 2 h -1 v 2 h -1 v 3 h -1 v 2 h -1 v 2 h -1 v 3 h -1 v 2 h -1 v 2 h -1 v 3 h -1 v 2 h -1 v 2 h -1 v 3 h -1 v 2 h -1 v 2 h -1 v 3 h -1 v 2 h -1 v 2 h -1 v 3 h -1 v 2 h -1 v 3 h -1 v 2 h -1 v 2 h -1 v 3 h -1 v 2 h -1 v 3 h -1 v 2 h -1 v 3 h -1 v 2 h -1 v 3 h -1 v 2 h -1 v 3 h -1 v 2 h -1 v 3 h -1 v 2 h -1 v 3 h -1 v 3 h -1 v 2 h -1 v 3 h -1 v 3 h -1 v 2 h -1 v 3 h -1 v 2 h -1 v 3 h -1 v 3 h -1 v 2 h -1 v 3 h -1 v 3 h -1 v 2 h -1 v 3 h -1 v 3 h -1 v 3 h -1 v 3 h -1 v 2 h -1 v 3 h -1 v 3 h -1 v 3 h -1 v 3 h -1 v 3 h -1 v 2 h -1 v 3 h -1 v 3 h -1 v 3 h -1 v 3 h -1 v 3 h -1 v 3 h -1 v 3 h -1 v 3 h -1 v 3 h -1 v 3 h -1 v 3 h -1 v 3 h -1 v 3 h -1 v 3 h -1 v 3 h -1 v 4 h -1 v 3 h -1 v 3 h -1 v 3 h -1 v 4 h -1 v 3 h -1 v 3 h -1 v 4 h -1 v 3 h -1 v 3 h -1 v 3 h -1 v 4 h -1 v 3 h -1 v 4 h -1 v 3 h -1 v 4 h -1 v 3 h -1 v 4 h -1 v 4 h -1 v 3 h -1 v 4 h -1 v 3 h -1 v 4 h -1 v 4 h -1 v 3 h -1 v 4 h -1 v 4 h -1 v 4 h -1 v 4 h -1 v 4 h -1 v 4 h -1 v 4 h -1 v 4 h -1 v 4 h -1 v 4 h -1 v 4 h -1 v 5 h -1 v 4 h -1 v 4 h -1 v 5 h -1 v 4 h -1 v 5 h -1 v 4 h -1 v 4 h -1 v 5 h -1 v 5 h -1 v 5 h -1 v 5 h -1 v 5 h -1 v 5 h -1 v 4 h -1 v 5 h -1 v 5 h -1 v 6 h -1 v 5 h -1 v 6 h -1 v 6 h -1 v 5 h -1 v 6 h -1 v 6 h -1 v 5 h -1 v 6 h -1 v 7 h -1 v 7 h -1 v 6 h -1 v 7 h -1 v 7 h -1 v 6 h -1 v 8 h -1 v 8 h -1 v 8 h -1 v 8 h -1 v 8 h -1 v 8 h -1 v 11 H 9 v 10 H 8 v 10 H 7 v 10 H 6 v 12 H 5 v 14 H 4 v 14 H 3 v 15 H 2 v 22 H 1 v 22 H 0 v 117 h 1 v 29 h 1 v 18 h 1 v 15 h 1 v 15 h 1 v 15 h 1 v 16 h 1 v 15 h 1 v 13 h 1 v 10 h 1 v 10 h 1 v 10 h 1 v 10 h 1 v 10 h 1 v 10 h 1 v 10 h 1 v 10 h 1 v 9 h 1 v 8 h 1 v 8 h 1 v 7 h 1 v 7 h 1 v 8 h 1 v 7 h 1 v 7 h 1 v 8 h 1 v 7 h 1 v 7 h 1 v 8 h 1 v 7 h 1 v 7 h 1 v 6 h 1 v 6 h 1 v 6 h 1 v 5 h 1 v 6 h 1 v 6 h 1 v 6 h 1 v 6 h 1 v 5 h 1 v 6 h 1 v 6 h 1 v 6 h 1 v 6 h 1 v 5 h 1 v 6 h 1 v 5 h 1 v 5 h 1 v 5 h 1 v 5 h 1 v 4 h 1 v 5 h 1 v 5 h 1 v 5 h 1 v 5 h 1 v 4 h 1 v 5 h 1 v 5 h 1 v 5 h 1 v 5 h 1 v 4 h 1 v 5 h 1 v 5 h 1 v 5 h 1 v 4 h 1 v 4 h 1 v 4 h 1 v 4 h 1 v 4 h 1 v 4 h 1 v 4 h 1 v 5 h 1 v 4 h 1 v 4 h 1 v 4 h 1 v 4 h 1 v 4 h 1 v 4 h 1 v 4 h 1 v 4 h 1 v 4 h 1 v 4 h 1 v 4 h 1 v 4 h 1 v 4 h 1 v 4 h 1 v 4 h 1 v 3 h 1 v 4 h 1 v 3 h 1 v 4 h 1 v 3 h 1 v 4 h 1 v 3 h 1 v 4 h 1 v 3 h 1 v 4 h 1 v 4 h 1 v 3 h 1 v 4 h 1 v 3 h 1 v 4 h 1 v 3 h 1 v 4 h 1 v 3 h 1 v 4 h 1 v 3 h 1 v 4 h 1 v 3 h 1 v 3 h 1 v 3 h 1 v 3 h 1 v 3 h 1 v 4 h 1 v 3 h 1 v 3 h 1 v 3 h 1 v 3 h 1 v 3 h 1 v 3 h 1 v 4 h 1 v 3 h 1 v 3 h 1 v 3 h 1 v 3 h 1 v 3 h 1 v 3 h 1 v 3 h 1 v 4 h 1 v 3 h 1 v 3 h 1 v 3 h 1 v 3 h 1 v 3 h 1 v 2 h 1 v 3 h 1 v 3 h 1 v 3 h 1 v 3 h 1 v 2 h 1 v 3 h 1 v 3 h 1 v 3 h 1 v 3 h 1 v 3 h 1 v 2 h 1 v 3 h 1 v 3 h 1 v 3 h 1 v 3 h 1 v 2 h 1 v 3 h 1 v 3 h 1 v 3 h 1 v 3 h 1 v 2 h 1 v 3 h 1 v 3 h 1 v 3 h 1 v 2 h 1 v 3 h 1 v 2 h 1 v 3 h 1 v 2 h 1 v 3 h 1 v 2 h 1 v 3 h 1 v 3 h 1 v 2 h 1 v 3 h 1 v 2 h 1 v 3 h 1 v 2 h 1 v 3 h 1 v 2 h 1 v 3 h 1 v 2 h 1 v 3 h 1 v 2 h 1 v 3 h 1 v 3 h 1 v 2 h 1 v 3 h 1 v 2 h 1 v 3 h 1 v 2 h 1 v 3 h 1 v 2 h 1 v 2 h 1 v 3 h 1 v 2 h 1 v 2 h 1 v 3 h 1 v 2 h 1 v 2 h 1 v 2 h 1 v 3 h 1 v 2 h 1 v 2 h 1 v 3 h 1 v 2 h 1 v 2 h 1 v 3 h 1 v 2 h 1 v 2 h 1 v 3 h 1 v 2 h 1 v 2 h 1 v 3 h 1 v 2 h 1 v 2 h 1 v 3 h 1 v 2 h 1 v 2 h 1 v 3 h 1 v 2 h 1 v 2 h 1 v 2 h 1 v 2 h 1 v 2 h 1 v 2 h 1 v 3 h 1 v 2 h 1 v 2 h 1 v 2 h 1 v 2 h 1 v 2 h 1 v 2 h 1 v 2 h 1 v 3 h 1 v 2 h 1 v 2 h 1 v 2 h 1 v 2 h 1 v 2 h 1 v 2 h 1 v 3 h 1 v 2 h 1 v 2 h 1 v 2 h 1 v 2 h 1 v 2 h 1 v 2 h 1 v 2 h 1 v 3 h 1 v 2 h 1 v 2 h 1 v 2 h 1 v 2 h 1 v 2 h 1 v 2 h 1 v 2 h 1 v 2 h 1 v 1 h 1 v 2 h 1 v 2 h 1 v 2 h 1 v 2 h 1 v 2 h 1 v 2 h 1 v 2 h 1 v 2 h 1 v 2 h 1 v 2 h 1 v 2 h 1 v 2 h 1 v 2 h 1 v 2 h 1 v 2 h 1 v 2 h 1 v 2 h 1 v 2 h 1 v 2 h 1 v 2 h 1 v 2 h 1 v 2 h 1 v 2 h 1 v 2 h 1 v 2 h 1 v 1 h 1 v 2 h 1 v 2 h 1 v 2 h 1 v 2 h 1 v 2 h 1 v 1 h 1 v 2 h 1 v 2 h 1 v 2 h 1 v 2 h 1 v 2 h 1 v 1 h 1 v 2 h 1 v 2 h 1 v 2 h 1 v 2 h 1 v 1 h 1 v 2 h 1 v 2 h 1 v 2 h 1 v 2 h 1 v 2 h 1 v 1 h 1 v 2 h 1 v 2 h 1 v 2 h 1 v 2 h 1 v 2 h 1 v 1 h 1 v 2 h 1 v 2 h 1 v 2 h 1 v 1 h 1 v 2 h 1 v 2 h 1 v 2 h 1 v 1 h 1 v 2 h 1 v 2 h 1 v 1 h 1 v 2 h 1 v 2 h 1 v 2 h 1 v 1 h 1 v 2 h 1 v 2 h 1 v 1 h 1 v 2 h 1 v 2 h 1 v 1 h 1 v 2 h 1 v 2 h 1 v 2 h 1 v 1 h 1 v 2 h 1 v 2 h 1 v 1 h 1 v 2 h 1 v 2 h 1 v 2 h 1 v 1 h 1 v 2 h 1 v 2 h 1 v 1 h 1 v 2 h 1 v 2 h 1 v 1 h 1 v 2 h 1 v 1 h 1 v 2 h 1 v 2 h 1 v 1 h 1 v 2 h 1 v 1 h 1 v 2 h 1 v 2 h 1 v 1 h 1 v 2 h 1 v 1 h 1 v 2 h 1 v 2 h 1 v 1 h 1 v 2 h 1 v 1 h 1 v 2 h 1 v 2 h 1 v 1 h 1 v 2 h 1 v 1 h 1 v 2 h 1 v 2 h 1 v 1 h 1 v 2 h 1 v 1 h 1 v 2 h 1 v 2 h 1 v 1 h 1 v 2 h 1 v 1 h 1 v 2 h 1 v 1 h 1 v 2 h 1 v 1 h 1 v 2 h 1 v 1 h 1 v 2 h 1 v 1 h 1 v 2 h 1 v 1 h 1 v 2 h 1 v 1 h 1 v 2 h 1 v 1 h 1 v 2 h 1 v 1 h 1 v 2 h 1 v 1 h 1 v 2 h 1 v 1 h 1 v 2 h 1 v 1 h 1 v 2 h 1 v 1 h 1 v 2 h 1 v 1 h 1 v 2 h 1 v 1 h 1 v 2 h 1 v 1 h 1 v 2 h 1 v 1 h 1 v 2 h 1 v 1 h 1 v 2 h 1 v 1 h 1 v 1 h 1 v 2 h 1 v 1 h 1 v 2 h 1 v 1 h 1 v 2 h 1 v 1 h 1 v 1 h 1 v 2 h 1 v 1 h 1 v 2 h 1 v 1 h 1 v 1 h 1 v 2 h 1 v 1 h 1 v 2 h 1 v 1 h 1 v 2 h 1 v 1 h 1 v 1 h 1 v 2 h 1 v 1 h 1 v 2 h 1 v 1 h 1 v 2 h 1 v 1 h 1 v 1 h 1 v 2 h 1 v 1 h 1 v 2 h 1 v 1 h 1 v 1 h 1 v 2 h 1 v 1 h 1 v 1 h 1 v 2 h 1 v 1 h 1 v 1 h 1 v 2 h 1 v 1 h 1 v 1 h 1 v 2 h 1 v 1 h 1 v 1 h 1 v 2 h 1 v 1 h 1 v 1 h 1 v 2 h 1 v 1 h 1 v 1 h 1 v 2 h 1 v 1 h 1 v 2 h 1 v 1 h 1 v 1 h 1 v 2 h 1 v 1 h 1 v 1 h 1 v 2 h 1 v 1 h 1 v 1 h 1 v 2 h 1 v 1 h 1 v 1 h 1 v 1 h 1 v 2 h 1 v 1 h 1 v 1 h 1 v 2 h 1 v 1 h 1 v 1 h 1 v 1 h 1 v 2 h 1 v 1 h 1 v 1 h 1 v 2 h 1 v 1 h 1 v 1 h 1 v 1 h 1 v 2 h 1 v 1 h 1 v 1 h 1 v 1 h 1 v 2 h 1 v 1 h 1 v 1 h 1 v 2 h 1 v 1 h 1 v 1 h 1 v 1 h 1 v 2 h 1 v 1 h 1 v 1 h 1 v 1 h 1 v 2 h 1 v 1 h 1 v 1 h 1 v 1 h 1 v 2 h 1 v 1 h 1 v 1 h 1 v 1 h 1 v 2 h 1 v 1 h 1 v 1 h 1 v 1 h 1 v 1 h 1 v 2 h 1 v 1 h 1 v 1 h 1 v 1 h 1 v 1 h 1 v 2 h 1 v 1 h 1 v 1 h 1 v 1 h 1 v 2 h 1 v 1 h 1 v 1 h 1 v 1 h 1 v 1 h 1 v 2 h 1 v 1 h 1 v 1 h 1 v 1 h 1 v 1 h 1 v 2 h 1 v 1 h 1 v 1 h 1 v 1 h 1 v 1 h 1 v 1 h 1 v 2 h 1 v 1 h 1 v 1 h 1 v 1 h 1 v 1 h 1 v 1 h 1 v 2 h 1 v 1 h 1 v 1 h 1 v 1 h 1 v 1 h 1 v 1 h 1 v 2 h 1 v 1 h 1 v 1 h 1 v 1 h 1 v 1 h 1 v 1 h 1 v 1 h 1 v 2 h 1 v 1 h 1 v 1 h 1 v 1 h 1 v 1 h 1 v 1 h 1 v 2 h 1 v 1 h 1 v 1 h 1 v 1 h 1 v 1 h 1 v 1 h 1 v 1 h 1 v 1 h 1 v 1 h 1 v 2 h 1 v 1 h 1 v 1 h 1 v 1 h 1 v 1 h 1 v 1 h 1 v 1 h 1 v 1 h 1 v 1 h 1 v 2 h 1 v 1 h 1 v 1 h 1 v 1 h 1 v 1 h 1 v 1 h 1 v 1 h 1 v 1 h 1 v 1 h 1 v 1 h 1 v 2 h 1 v 1 h 1 v 1 h 1 v 1 h 1 v 1 h 1 v 1 h 1 v 1 h 1 v 1 h 1 v 1 h 1 v 1 h 1 v 1 h 1 v 1 h 1 v 1 h 1 v 2 h 1 v 1 h 1 v 1 h 1 v 1 h 1 v 1 h 1 v 1 h 1 v 1 h 1 v 1 h 1 v 1 h 1 v 1 h 1 v 1 h 1 v 1 h 1 v 1 h 1 v 1 h 1 v 1 h 1 v 1 h 1 v 1 h 1 v 2 h 1 v 1 h 1 v 1 h 1 v 1 h 1 v 1 h 1 v 1 h 1 v 1 h 1 v 1 h 1 v 1 h 1 v 1 h 1 v 1 h 1 v 1 h 1 v 1 h 1 v 1 h 1 v 1 h 1 v 1 h 1 v 1 h 1 v 1 h 1 v 1 h 1 v 1 h 1 v 1 h 1 v 1 h 1 v 1 h 1 v 1 h 1 v 1 h 1 v 1 h 1 v 1 h 1 v 1 h 1 v 1 h 1 v 1 h 1 v 1 h 1 v 1 h 1 v 1 h 1 v 1 h 1 v 1 h 1 v 1 h 1 v 1 h 1 v 1 h 1 v 1 h 1 v 1 h 1 v 1 h 1 v 1 h 1 v 1 h 1 v 1 h 1 v 1 h 1 v 1 h 1 v 1 h 1 v 1 h 1 v 1 h 1 v 1 h 1 v 1 h 1 v 1 h 1 v 1 h 1 v 1 h 2 v 1 h 1 v 1 h 1 v 1 h 1 v 1 h 1 v 1 h 1 v 1 h 1 v 1 h 1 v 1 h 1 v 1 h 1 v 1 h 1 v 1 h 1 v 1 h 1 v 1 h 1 v 1 h 1 v 1 h 1 v 1 h 1 v 1 h 1 v 1 h 2 v 1 h 1 v 1 h 1 v 1 h 1 v 1 h 1 v 1 h 1 v 1 h 1 v 1 h 1 v 1 h 1 v 1 h 1 v 1 h 1 v 1 h 1 v 1 h 1 v 1 h 2 v 1 h 1 v 1 h 1 v 1 h 1 v 1 h 1 v 1 h 1 v 1 h 1 v 1 h 1 v 1 h 1 v 1 h 2 v 1 h 1 v 1 h 1 v 1 h 1 v 1 h 1 v 1 h 1 v 1 h 1 v 1 h 1 v 1 h 1 v 1 h 2 v 1 h 1 v 1 h 1 v 1 h 1 v 1 h 1 v 1 h 1 v 1 h 2 v 1 h 1 v 1 h 1 v 1 h 1 v 1 h 1 v 1 h 1 v 1 h 1 v 1 h 2 v 1 h 1 v 1 h 1 v 1 h 1 v 1 h 1 v 1 h 1 v 1 h 2 v 1 h 1 v 1 h 1 v 1 h 1 v 1 h 1 v 1 h 1 v 1 h 2 v 1 h 1 v 1 h 1 v 1 h 1 v 1 h 1 v 1 h 2 v 1 h 1 v 1 h 1 v 1 h 1 v 1 h 1 v 1 h 2 v 1 h 1 v 1 h 1 v 1 h 1 v 1 h 2 v 1 h 1 v 1 h 1 v 1 h 1 v 1 h 1 v 1 h 2 v 1 h 1 v 1 h 1 v 1 h 1 v 1 h 2 v 1 h 1 v 1 h 1 v 1 h 2 v 1 h 1 v 1 h 1 v 1 h 1 v 1 h 2 v 1 h 1 v 1 h 1 v 1 h 1 v 1 h 1 v 2 h 1 v 1 h 1 v 1 h 1 v 1 h 1 v 1 h 1 v 1 h 1 v 1 h 1 v 1 h 1 v 1 h 1 v 1 h 1 v 1 h 1 v 2 h 1 v 1 h 1 v 1 h 1 v 1 h 1 v 1 h 1 v 1 h 1 v 2 h 1 v 1 h 1 v 1 h 1 v 1 h 1 v 1 h 1 v 1 h 1 v 1 h 1 v 2 h 1 v 1 h 1 v 1 h 1 v 1 h 1 v 2 h 1 v 1 h 1 v 1 h 1 v 1 h 1 v 2 h 1 v 1 h 1 v 1 h 1 v 1 h 1 v 2 h 1 v 1 h 1 v 1 h 1 v 2 h 1 v 1 h 1 v 2 h 1 v 1 h 1 v 1 h 1 v 2 h 1 v 1 h 1 v 2 h 1 v 1 h 1 v 2 h 1 v 1 h 1 v 2 h 1 v 1 h 1 v 2 h 1 v 2 h 1 v 1 h 1 v 2 h 1 v 2 h 1 v 1 h 1 v 2 h 1 v 2 h 1 v 2 h 1 v 2 h 1 v 2 h 1 v 2 h 1 v 2 h 1 v 2 h 1 v 3 h 1 v 2 h 1 v 2 h 1 v 3 h 1 v 3 h 1 v 3 h 1 v 3 h 1 v 3 h 1 v 4 h 1 v 3 h 1 v 5 h 1 v 4 h 1 v 6 h 1 v 6 h 1 v 6 h 1 v 8 h 1 v 10 h 1 v 11 h 1 v 12 h 1 v 9 h 2 v -3 h 1 v -2 h 1 v -4 h 1 v -3 h 1 v -4 h 1 v -5 h 1 v -4 h 1 v -6 h 1 v -6 h 1 v -6 h 1 v -7 h 1 v -7 h 1 v -8 h 1 v -9 h 1 v -9 h 1 v -10 h 1 v -10 h 1 v -11 h 1 v -12 h 1 v -13 h 1 v -14 h 1 v -14 h 1 v -15 h 1 v -16 h 1 v -18 h 1 v -18 h 1 v -19 h 1 v -21 h 1 v -22 h 1 v -24 h 1 v -25 h 1 v -26 h 1 v -28 h 1 v -31 h 1 v -33 h 1 v -35 h 1 v -38 h 1 v -41 h 1 v -45 h 1 v -48 h 1 v -54 h 1 v -59 h 1 v -66 h 1 v -74 h 1 v -86 h 1 v -101 h 1 v -121 h 1 v -153 h 1 v -198 h 1 v -214 h 1 v -129 h 1 v -54 h 1 v -37 h 1 v -40 h 1 v -51 h 1 v -71 h 1 v -224 h -1 v -72 h -1 v -52 h -1 v -40 h -1 v -37 h -1 v -32 h -1 v -30 h -1 v -26 h -1 v -27 h -1 v -23 h -1 v -23 h -1 v -21 h -1 v -20 h -1 v -20 h -1 v -19 h -1 v -18 h -1 v -18 h -1 v -17 h -1 v -16 h -1 v -16 h -1 v -15 h -1 v -15 h -1 v -15 h -1 v -14 h -1 v -14 h -1 v -14 h -1 v -13 h -1 v -13 h -1 v -13 h -1 v -12 h -1 v -12 h -1 v -12 h -1 v -11 h -1 v -12 h -1 v -11 h -1 v -11 h -1 v -10 h -1 v -11 h -1 v -10 h -1 v -10 h -1 v -10 h -1 v -10 h -1 v -10 h -1 v -9 h -1 v -9 h -1 v -9 h -1 v -10 h -1 v -9 h -1 v -8 h -1 v -8 h -1 v -9 h -1 v -8 h -1 v -8 h -1 v -8 h -1 v -8 h -1 v -8 h -1 v -7 h -1 v -8 h -1 v -7 h -1 v -7 h -1 v -7 h -1 v -7 h -1 v -7 h -1 v -7 h -1 v -6 h -1 v -7 h -1 v -6 h -1 v -7 h -1 v -6 h -1 v -6 h -1 v -6 h -1 v -6 h -1 v -6 h -1 v -5 h -1 v -6 h -1 v -5 h -1 v -6 h -1 v -5 h -1 v -5 h -1 v -5 h -1 v -5 h -1 v -5 h -1 v -5 h -1 v -5 h -1 v -4 h -1 v -5 h -1 v -4 h -1 v -4 h -1 v -5 h -1 v -4 h -1 v -4 h -1 v -4 h -1 v -4 h -1 v -3 h -1 v -4 h -1 v -4 h -1 v -3 h -1 v -4 h -1 v -3 h -1 v -3 h -1 v -3 h -1 v -3 h -1 v -3 h -1 v -3 h -1 v -3 h -1 v -2 h -1 v -3 h -1 v -2 h -1 v -3 h -1 v -1" /></g></g></g><g
         id="g70"><g
           clip-path="url(#clipPath76)"
           id="g72"><path
             id="path78"
             style="fill:#bfbdba;fill-opacity:1;fill-rule:nonzero;stroke:none"
             d="m 11605.6,949.91 c 63,-50.387 189,-71.129 300.1,-71.129 144,0 285.1,26.711 423,151.099 141,127.47 237,323.02 237,634.15 0,299.28 -114,542.26 -348,684.5 -132,82.96 -303,115.54 -498.1,115.54 -57,0 -114,-2.95 -147,-17.76 -9,-5.93 -27,-29.64 -27,-41.52 -6,-53.31 -6,-459.26 -6,-699.27 0,-245.93 0,-589.66 6,-631.18 3.1,-35.54 21,-97.758 60,-124.43 z m -598.9,1647.51 c 51,0 244.9,-8.88 334.9,-8.88 168,0 285,8.88 600,8.88 264.1,0 486.1,-71.12 645.1,-207.4 192.1,-165.96 294.1,-397.07 294.1,-678.57 0,-400.03 -183,-631.15 -366,-761.54 -183.1,-136.293 -420.1,-213.344 -759.2,-213.344 -180,0 -489.1,5.93 -747.1,8.856 h -3.5 c -12,23.742 22.1,116.141 43.2,118.543 69.7,7.902 88.6,10.578 121,23.918 54.5,22.406 67.3,50.168 73.4,147.957 9,183.7 6,402.97 6,651.9 0,177.78 3,524.47 -3,634.12 -9.1,91.85 -48,115.53 -126,133.34 -39.1,8.87 -93.1,17.78 -168,26.67 -6.1,17.76 40.2,97.79 55.1,115.55" /><path
             id="path80"
             style="fill:#bfbdba;fill-opacity:1;fill-rule:nonzero;stroke:none"
             d="m 13675.4,2452.21 c -12,-2.96 -27,-32.6 -27,-47.42 -3,-106.64 -6,-385.18 -6,-577.76 0,-5.93 8.9,-14.82 15,-14.82 39,-3 135,-5.96 215.9,-5.96 114.1,0 180.1,14.85 216.2,32.63 96,47.38 140.9,151.1 140.9,263.7 0,257.79 -180,355.58 -446.9,355.58 -18.1,0 -69.2,0 -108.1,-5.95 z m 681,-1185.25 c 0,260.75 -191.9,408.9 -543,408.9 -15,0 -126,3 -153,-2.97 -9.1,-2.93 -18,-8.86 -18,-14.78 0,-186.71 -3.1,-485.98 6,-604.48 6,-50.38 42,-121.505 87,-142.247 48.1,-26.672 156,-32.602 231,-32.602 207.1,0 390,115.574 390,388.179 z m -1222.9,1330.46 c 27,0 106.9,-8.88 310.9,-8.88 192,0 348,5.9 534,5.9 231,0 549.1,-82.96 549.1,-426.69 0,-168.88 -120,-305.2 -276,-370.39 -9.1,-2.97 -9.1,-8.9 0,-11.86 222,-56.28 417,-192.59 417,-453.34 0,-254.83 -159,-414.855 -390,-515.609 -141.1,-62.203 -315,-82.946 -492.2,-82.946 -135,0 -496.7,14.813 -697.8,11.817 -21,8.926 19.2,103.762 37.2,118.543 48.1,2.961 85.1,6.422 136.1,21.234 72,17.785 80.5,40.996 89.5,147.681 6,91.83 6,420.74 6,654.86 0,320.03 3.1,536.32 0,642.98 -3,82.99 -33,109.66 -90,124.48 -45,8.87 -120,17.78 -180,26.67 -15,14.81 31.2,103.7 46.2,115.55" /><path
             id="path82"
             style="fill:#414043;fill-opacity:1;fill-rule:nonzero;stroke:none"
             d="m 2399.55,737.867 c -5,7.977 -10.29,31.543 -9.18,59.91 0.82,21.551 5.11,35.239 9.14,39.93 56.59,8.93 83.38,14.965 115.18,23.465 53.04,13.16 73.05,41.805 76.16,109.652 8.72,159.816 9.22,459.476 6.03,670.236 l 0.04,6.21 c 0.25,22.61 0.61,53.52 -27.79,75.32 -41.61,27.41 -93.49,50.09 -159.15,69.79 -25.12,7.44 -39.01,20.64 -38.26,36.09 0.79,14.85 16.55,33.72 49.3,40.04 86.88,8.95 314.69,63.18 404.07,104.42 5.29,-6.42 13.64,-20.36 12.03,-42.58 -0.67,-9.34 -1.49,-19.12 -2.32,-29.24 -2.54,-29.78 -5.39,-63.54 -5.39,-97.2 0,-9.91 10.75,-19.3 22.14,-19.3 5.79,0 11.15,2.26 15.51,6.57 170.36,133.32 322.73,180.91 401.17,180.91 128.89,0 229.2,-61.53 306.72,-188.01 4.54,-6.7 10.65,-10.22 17.47,-10.22 6.51,0 12.65,3.34 16.25,8.7 156.65,118.69 311.9,189.53 415.68,189.53 245.63,0 392.35,-183.66 392.35,-491.2 0,-88.37 -0.9,-200.39 -1.68,-304.96 -0.75,-91.73 -1.4,-177.727 -1.4,-237.246 0,-14.43 19.3,-54.442 48.44,-62.442 35.9,-17.465 87.81,-26.394 153.32,-37.687 l 2.54,-0.422 c 4.97,-17.602 -5.46,-86.188 -15.43,-100.231 -16.25,0.145 -38.8,1.309 -66.84,2.723 -51.01,2.613 -120.89,6.133 -202.26,6.133 -163.22,0 -248.49,-3.211 -329.94,-8.469 -6.15,20.359 -8.29,85.981 -0.82,99.668 47.51,8.891 71.01,14.883 99.52,23.32 51.94,17.11 66.91,40.641 69.95,109.547 1.17,49.036 10.61,480.326 -6.12,582.746 -15.38,106.12 -95.48,230.34 -270.63,230.34 -64.95,0 -169.94,-26.99 -269.99,-102.77 -6.22,-6.03 -9.79,-17.74 -9.79,-25.44 l 0.18,-1.97 c 11.78,-55.29 11.78,-119.74 11.78,-217.29 0,-55.6 -0.35,-114.59 -0.67,-173.15 -0.68,-118.9 -1.32,-231.19 0.67,-316.001 0,-57.828 35.01,-71.613 63.16,-82.766 15.29,-3.39 27.44,-6.312 39.58,-9.207 23.58,-5.679 47.98,-11.535 84.11,-17.32 4.91,-11.398 5.38,-45.437 -1.4,-74.551 -3.8,-16.09 -8.16,-23.175 -10.44,-25.472 -90.77,3.105 -183.9,5.824 -318.25,5.824 -40.73,0 -107.24,-1.762 -165.9,-3.317 -47.55,-1.269 -92.6,-2.507 -118.18,-2.613 -3.71,5.852 -8.89,24.625 -8.89,51.645 0,25.125 4.6,42.84 9.36,48.301 12.61,2.335 24.61,4.449 36.08,6.5 31.51,5.601 58.72,10.398 84.84,16.82 44.48,13.547 61.16,38.246 64.41,94.73 8.68,131.877 15.47,511.727 -3.22,606.877 -31.78,152.65 -118.81,230.02 -258.56,230.02 -81.95,0 -185.37,-39.37 -269.93,-102.7 -14.17,-10.44 -24.89,-36.72 -24.89,-60.99 0,-45.23 -0.15,-99.11 -0.32,-156.86 -0.57,-190.79 -1.25,-428.25 3.39,-531.026 2.86,-31.575 13.86,-69.18 73.48,-83.051 13,-3.633 35.54,-7.41 61.66,-11.707 15.04,-2.508 31.47,-5.219 48.37,-8.258 6.08,-16.332 2.36,-80.367 -8.04,-100.301 -26.07,0.18 -58.15,1.66 -94.95,3.285 -56.23,2.461 -126.14,5.606 -205.83,5.606 -93.78,0 -159.08,-3.145 -211.53,-5.606 -35.15,-1.66 -65.66,-3.14 -96.09,-3.285 v 0" /><path
             id="path84"
             style="fill:#414043;fill-opacity:1;fill-rule:nonzero;stroke:none"
             d="m 5376.17,1846.1 c -54.62,0 -105.6,-14.28 -143.54,-40.25 -104.2,-63.29 -157.22,-189.67 -157.22,-375.31 0,-347.63 174.27,-590.392 423.75,-590.392 73.6,0 133.61,21.129 183.48,64.625 76.66,62.489 117.31,190.087 117.31,368.747 0,342.49 -170.32,572.58 -423.78,572.58 z m 48.05,-1134.901 c -450.79,0 -611.4,330.291 -611.4,639.331 0,215.88 88.37,384.69 262.77,501.67 123.96,76.1 271.93,119.89 405.61,119.89 344.01,0 584.32,-247.07 584.32,-600.85 0,-240.53 -96.02,-430.373 -277.64,-549.017 -87.1,-53.383 -238.24,-111.024 -363.66,-111.024 v 0" /><path
             id="path86"
             style="fill:#414043;fill-opacity:1;fill-rule:nonzero;stroke:none"
             d="m 10044.3,1846.1 c -54.73,0 -105.71,-14.28 -143.64,-40.25 -104.17,-63.29 -157.2,-189.63 -157.2,-375.31 0,-347.63 174.2,-590.392 423.74,-590.392 73.6,0 133.6,21.129 183.5,64.665 76.6,62.449 117.3,190.007 117.3,368.677 0,342.48 -170.3,572.61 -423.7,572.61 z m 47.9,-1134.901 c -450.79,0 -611.39,330.251 -611.39,639.291 0,215.96 88.46,384.77 262.88,501.75 123.89,76.1 271.91,119.85 405.61,119.85 344,0 584.3,-247.1 584.3,-600.82 0,-240.6 -96,-430.434 -277.6,-549.008 -87.1,-53.422 -238.3,-111.063 -363.8,-111.063 v 0" /><path
             id="path88"
             style="fill:#414043;fill-opacity:1;fill-rule:nonzero;stroke:none"
             d="m 8535.72,1857.92 c -138.92,0 -228.74,-109.62 -228.74,-279.23 0,-171.22 77.2,-371.1 294.84,-371.1 37.39,0 105.07,16.58 138.61,53.55 50.54,46.39 83.55,142.24 83.55,243.49 0,221.24 -107.72,353.29 -288.26,353.29 z m -17.9,-1170.393 c -52.2,0 -90.2,-15.172 -112.86,-27.906 -109.99,-70.418 -160.98,-140.769 -160.98,-221.734 0,-76.379 29.69,-137.063 93.45,-191.004 77.2,-65.375 181.37,-97.153 318.32,-97.153 269.46,0 390.25,144.711 390.25,288.157 0,99.804 -50.16,166.726 -153.28,204.551 -79.54,29.035 -212.34,45.089 -374.9,45.089 z M 8535.72,0 c -161.81,0 -278.37,34.1133 -378.01,110.668 -96.92,74.723 -140.28,185.504 -140.28,262.066 0,22.012 5.22,78.914 53.03,133.274 28.25,32 93.52,91.902 244.38,195.555 4.68,1.738 7.86,6.312 7.86,11.859 0,6.172 -3.93,11.18 -9.45,12.351 -124.34,47.551 -161.88,125.586 -173.14,167.926 -0.15,1.52 -0.68,3.949 -1.21,6.528 -3.62,16.609 -6.95,32.316 15.56,48.437 17.38,12.418 45.33,28.961 74.94,46.426 43.74,25.8 93.3,55 120.72,78.5 4.3,4.23 6.11,10.44 5.06,16.65 -1.06,6.29 -4.69,11.43 -10.05,14.08 -184.02,61.77 -276.7,198.31 -276.7,406.24 0,134.24 61.94,255.57 169.96,332.94 74.03,58.42 259.79,128.66 380.2,128.66 l 6.95,-0.07 c 123.81,-2.93 193.61,-28.82 290.23,-64.57 52.42,-19.39 102.12,-27.26 171.55,-27.26 102.51,0 147.23,32.45 185.68,69.71 2.19,-4.62 7.4,-19.26 9.74,-52.99 2.42,-34.4 -6.95,-85.38 -33.31,-121.75 -20.93,-29 -69.5,-50.02 -115.35,-50.02 -4.61,0 -9.14,0.21 -13.45,0.66 -47.21,4.63 -69.42,11.51 -69.57,11.61 l -11.63,-4.03 c -3.63,-5.32 -1.29,-11.24 1.73,-18.72 0.76,-1.8 1.44,-3.5 1.74,-4.63 6.04,-23.99 16.69,-94.02 16.69,-113.63 0,-218.06 -86.11,-313.18 -179.18,-383.49 -88.84,-66.96 -192.7,-107.21 -309.71,-119.57 h -0.08 c -2.42,0 -13.45,-0.98 -35.81,-2.96 -14.43,-1.31 -32.4,-2.92 -35.05,-2.92 l -2.64,-0.35 c -20.32,-5.75 -73.05,-30.81 -73.05,-77.45 0,-38.804 23.95,-86.886 137.94,-95.492 23.11,-1.738 47.97,-3.468 73.88,-5.226 150.63,-10.477 338.72,-23.532 427.18,-53.52 121.77,-44.312 197.54,-153.25 197.54,-284.285 0,-195.695 -139.3,-379.672 -372.57,-492.1093 C 8774.88,25.8945 8659.98,0 8535.72,0 v 0" /><path
             id="path90"
             style="fill:#414043;fill-opacity:1;fill-rule:nonzero;stroke:none"
             d="m 7803.28,846.781 c -66.03,8.891 -114.07,17.782 -171.03,44.449 -8.99,5.93 -21.07,32.594 -21.07,41.485 -5.97,91.865 -5.97,358.545 -5.97,533.365 0,142.24 -23.95,266.67 -83.98,355.62 -72.02,100.72 -174.02,159.98 -306.05,159.98 -116.98,0 -273.03,-80.01 -402.02,-189.66 -3.01,-2.96 -22.83,-21.73 -22.4,7.45 0.46,29.14 4.96,88.44 7.68,125.8 2.71,37.33 -19.65,54.93 -19.65,54.93 -84.02,-41.49 -320.61,-97.65 -407.99,-106.68 -63.86,-12.28 -79.95,-73.61 -11.97,-94.79 v -0.01 c 0,-0.11 0.65,-0.22 1.02,-0.33 71.18,-21.38 119.12,-44.24 154.92,-67.82 27,-20.75 23.98,-50.39 23.98,-74.09 3,-198.53 2.99,-503.76 -6.02,-669.679 -2.99,-65.199 -21,-88.867 -69.01,-100.766 l 4.38,1.488 c -36,-8.851 -66.01,-14.82 -111.02,-20.742 -15,-14.785 -15,-100.726 0,-118.539 30.01,0 183.05,8.922 309.04,8.922 174.01,0 264.03,-8.922 309.04,-8.922 18,20.774 24.01,100.793 12,118.539 -51.01,2.961 -87.02,8.891 -123.03,17.782 -48.01,11.851 -60.02,35.558 -62.98,88.898 -6,139.249 -6,435.559 -6,637.079 0,56.31 15,82.98 33.01,97.8 59.98,53.33 159,88.86 246.03,88.86 83.99,0 140.99,-26.66 183,-62.19 57.02,-47.42 78.02,-115.58 84.03,-165.96 12,-112.61 8.96,-337.8 8.96,-533.35 0,-106.688 -8.96,-133.364 -47.97,-145.216 -18.01,-8.89 -66.02,-17.781 -123.03,-23.703 -17.97,-17.746 -12,-100.726 0,-118.539 78.01,0 168.03,8.922 300.03,8.922 165.05,0 270.06,-8.922 312.06,-8.922 17.98,20.774 23.94,97.824 12.01,118.539" /></g></g></g></g></svg>