<svg xmlns="http://www.w3.org/2000/svg" viewBox="0 0 1230.87 315.18"><title>Moodle-Logo-RGB</title><g id="Layer_2" data-name="Layer 2"><g id="Layer_1-2" data-name="Layer 1"><path d="M289.61,309.77V201.51q0-33.94-28-33.95t-28.06,33.95V309.77H178.4V201.51q0-33.94-27.57-33.95-28.05,0-28,33.95V309.77H67.67V195.12q0-35.43,24.6-53.63,21.66-16.25,58.56-16.25,37.41,0,55.12,19.19,15.26-19.19,55.62-19.19,36.9,0,58.54,16.25,24.6,18.19,24.61,53.63V309.77Z" style="fill:#f98012"/><path d="M965.1,309.27V0h55.16V309.27Z" style="fill:#f98012"/><path d="M894.8,309.27V291.05q-7.39,9.84-25.11,15.76a92.81,92.81,0,0,1-30.05,5.41q-39.4,0-63.28-27.09t-23.89-67c0-26.25,7.76-48.3,23.4-66,13.85-15.65,36.35-26.59,62.29-26.59,29.22,0,46.28,11,56.64,23.63V0h53.68V309.27Zm0-102.92q0-14.78-14-28.33T852,164.47q-21.16,0-33.48,17.24-10.85,15.3-10.84,37.43,0,21.68,10.84,36.94,12.3,17.75,33.48,17.73,12.81,0,27.83-12.07t15-24.86Z" style="fill:#f98012"/><path d="M648.57,314.19q-41.87,0-69.19-26.59T552,219.14q0-41.83,27.34-68.45t69.19-26.59q41.85,0,69.44,26.59t27.58,68.45q0,41.88-27.58,68.46T648.57,314.19Zm0-145.77q-19.94,0-30.65,15.1T607.21,219.4q0,20.78,10,35.13,11.46,16.34,31.4,16.32T680,254.53q10.46-14.34,10.46-35.13t-10-35.13Q669,168.41,648.57,168.42Z" style="fill:#f98012"/><path d="M449.13,314.19q-41.86,0-69.2-26.59T352.6,219.14q0-41.83,27.33-68.45t69.2-26.59q41.83,0,69.44,26.59t27.57,68.45q0,41.88-27.57,68.46T449.13,314.19Zm0-145.77q-19.94,0-30.66,15.1T407.76,219.4q0,20.78,10,35.13,11.46,16.34,31.41,16.32t31.39-16.32Q491,240.19,491,219.4t-10-35.13Q469.56,168.41,449.13,168.42Z" style="fill:#f98012"/><path d="M1085.58,235.89c1.18,13.13,18.25,41.37,46.31,41.37,27.31,0,40.23-15.77,40.87-22.16l58.11-.5c-6.34,19.39-32.1,60.58-100,60.58-28.24,0-54.08-8.79-72.64-26.35s-27.82-40.45-27.82-68.7q0-43.83,27.82-69.68t72.16-25.85q48.25,0,75.34,32,25.13,29.53,25.12,79.28Zm90.13-34c-2.3-11.83-7.23-21.49-14.77-29.06q-12.82-12.3-29.55-12.31-17.25,0-28.82,11.82t-15.5,29.55Z" style="fill:#f98012"/><path d="M174.74,116.9l54.74-40-.7-2.44C130,86.57,85.08,95.15,0,144.47l.79,2.24,6.76.07c-.62,6.81-1.7,23.64-.32,48.95-9.44,27.32-.24,45.88,8.4,66.07,1.37-21,1.23-44-5.22-66.89-1.35-25.14-.24-41.67.37-48.1l56.4.54a258,258,0,0,0,1.67,33.06c50.4,17.71,101.09-.06,128-43.72C189.38,128.32,174.74,116.9,174.74,116.9Z" style="fill:#333"/></g></g></svg>