<svg xmlns="http://www.w3.org/2000/svg" width="281" height="216" viewBox="0 0 281 216"><title>Slice 1</title><g fill="none" fill-rule="evenodd"><path fill="#F3771C" d="M140.116 214.182l3.88-52.993 3.149-43.031c6.49-2.743 11.044-9.168 11.044-16.655 0-9.98-8.093-18.073-18.073-18.073s-18.073 8.093-18.073 18.073c0 7.487 4.555 13.912 11.045 16.655l3.149 43.03 3.88 52.994z"/><path fill="#3C5280" d="M16.685 101.434c0 30.572 11.178 59.19 30.564 81.304l-11.684 10.474C13.69 168.317 1 135.984 1 101.434c0-38.93 16.001-74.13 41.782-99.383l.588.527 34.559 30.98c-32.48 29.776-39.207 78.198-16.608 115.5l11.93-10.694c-17.226-31.12-10.663-70.428 16.424-94.275l11.834 10.606 10.524 9.436 10.917 9.786a32.545 32.545 0 0 0-10.144 10.067 32.21 32.21 0 0 0-5.054 17.373c0 14.25 9.215 26.352 22.01 30.672l1.1 15.038c-21.317-4.294-37.376-23.13-37.376-45.71a46.412 46.412 0 0 1 8.599-26.984L91.64 65.007l-.04-.035c-17.123 22.744-16.065 54.32 2.374 75.88l-35.043 31.414c-34.5-39.509-35.485-98.149-2.441-138.768L44.8 23.018C28.666 42.608 18.45 67.25 16.893 94.213l-.07.08.063.057c-.133 2.345-.2 4.707-.2 7.085zm133.786 30.595c12.795-4.32 22.01-16.422 22.01-30.672a32.21 32.21 0 0 0-5.055-17.372 32.543 32.543 0 0 0-10.143-10.068l10.916-9.786 10.526-9.435v-.001l11.832-10.606c27.088 23.847 33.651 63.155 16.425 94.275l11.93 10.695c22.598-37.303 15.872-85.725-16.608-115.5l34.56-30.983.586-.525c25.782 25.253 41.783 60.453 41.783 99.383 0 34.55-12.69 66.883-34.566 91.778l-11.683-10.474c19.385-22.113 30.563-50.732 30.563-81.304 0-2.378-.067-4.74-.2-7.085l.063-.057-.07-.08c-1.557-26.962-11.774-51.605-27.908-71.193l-11.689 10.48c33.044 40.618 32.059 99.258-2.442 138.767l-35.043-31.413c18.44-21.56 19.497-53.137 2.374-75.881l-.04.035-10.444 9.366a46.414 46.414 0 0 1 8.598 26.984c0 22.58-16.059 41.416-37.375 45.71l1.1-15.038z"/></g></svg>