<?xml version="1.0" encoding="UTF-8" standalone="no"?>
<!-- Created with Inkscape (http://www.inkscape.org/) -->
<svg xmlns:rdf="http://www.w3.org/1999/02/22-rdf-syntax-ns#" xmlns="http://www.w3.org/2000/svg" height="512" width="512" version="1.1" xmlns:cc="http://creativecommons.org/ns#" xmlns:dc="http://purl.org/dc/elements/1.1/" viewBox="0 0 511.99999 511.99999">
 <metadata>
  <rdf:RDF>
   <cc:Work rdf:about="">
    <dc:format>image/svg+xml</dc:format>
    <dc:type rdf:resource="http://purl.org/dc/dcmitype/StillImage"/>
    <dc:title/>
   </cc:Work>
  </rdf:RDF>
 </metadata>
 <g transform="translate(0 -540.36)">
  <rect style="color:#000000" height="392" width="512" y="540.36" x=".000013828" fill="#8f0000"/>
  <rect ry="0" height="108.23" width="500.23" stroke="#fff" y="938.25" x="5.886" stroke-width="11.772" fill="#fff"/>
  <g transform="matrix(4 0 0 4 -162 -450.91)">
   <path style="color-rendering:auto;text-decoration-color:#000000;color:#000000;isolation:auto;mix-blend-mode:normal;shape-rendering:auto;solid-color:#000000;block-progression:tb;text-decoration-line:none;image-rendering:auto;white-space:normal;text-indent:0;text-transform:none;text-decoration-style:solid" d="m122.88 305.82c-2.3846 0-4.3789 2.0376-4.3789 4.4222v0.77344c-2.2304 0.10995-4.0388 0.5467-5.3281 1.4316-1.5951 1.0948-2.4675 2.582-3.1816 3.877-0.71415 1.295-1.2996 2.4093-2.1504 3.1894-0.72545 0.66525-1.7997 1.1216-3.4512 1.3301-0.21359-2.192-2.0615-3.9512-4.3052-3.9512h-17.167c-2.3846 0-4.4165 1.965-4.4165 4.3496v4.2422c0 2.3846 2.0319 4.3516 4.4165 4.3516h17.167c2.3846 0 4.3872-1.9669 4.3872-4.3516v-1.6133c9.7257 0.15307 12.467 2.6032 15.594 5.3379 3.0006 2.6241 6.6658 5.3789 15.436 5.4948v0.73633c0 2.3846 2.0695 4.3799 4.4541 4.3799h17.092c2.3846 0 4.4541-1.9952 4.4541-4.3799v-4.2422c0-2.3846-2.0695-4.3779-4.4541-4.3779h-17.092c-2.3846 0-4.4541 1.9933-4.4541 4.3779v0.58594c-8.0984-0.0599-10.486-2.1557-13.498-4.7897-2.5035-2.1893-5.6398-4.5852-11.947-5.5859 1.176-1.1795 1.8834-2.5192 2.5137-3.6621 0.67724-1.228 1.2899-2.2006 2.2695-2.873 0.76303-0.52371 1.9757-0.83922 3.6621-0.93945v0.55078c0 2.3846 1.9943 4.3356 4.3789 4.3356h17.242c2.3846 0 4.3789-1.951 4.3789-4.3356v-4.2422c0-2.3846-1.9943-4.4222-4.3789-4.4222zm0 3h17.242c0.80513 0 1.3789 0.6171 1.3789 1.4222v4.2422c0 0.80514-0.57378 1.3356-1.3789 1.3356h-17.242c-0.80513 0-1.3789-0.53045-1.3789-1.3356v-4.2422c0-0.80513 0.57378-1.4222 1.3789-1.4222zm-39.962 11.016h17.167c0.80513 0 1.4165 0.60112 1.4165 1.4062v4.2422c0 0.80513-0.61138 1.4082-1.4165 1.4082h-17.167c-0.80513 0-1.4165-0.60307-1.4165-1.4082v-4.2422c0-0.80513 0.61137-1.4062 1.4165-1.4062zm57.038 9.984h17.092c0.80513 0 1.4541 0.5728 1.4541 1.3779v4.168c0 0.80513-0.64898 1.4541-1.4541 1.4541h-17.092c-0.80513 0-1.4541-0.64897-1.4541-1.4541v-4.168c0-0.80513 0.64897-1.3779 1.4541-1.3779z" fill="#fff"/>
  </g>
  <g transform="matrix(1.0024 0 0 1.0024 .26914 -2.6855)" fill="#8f0000">
   <path d="m90.51 954.73v8.4388l-7.9801 1.4384v59.934h-13.931l-28.465-46.989-0.49878 0.048v37.111l7.9805 1.4384v8.3908h-28.929v-8.3908l7.4319-1.4384v-50.105l-7.4319-1.4384v-8.4388h7.4319 14.001l28.302 46.989 0.14384-0.048v-37.063l-6.983-1.4384v-8.4388h20.971 7.9586z"/>
   <path d="m94.501 998.12q0-11.603 6.4729-18.987 6.5209-7.4319 17.98-7.4319 11.507 0 17.98 7.3839 6.5209 7.3839 6.5209 19.035v1.0069q0 11.699-6.5209 19.083-6.4729 7.3359-17.884 7.3359-11.555 0-18.076-7.3359-6.4729-7.384-6.4729-19.083v-1.0069zm14.001 1.0069q0 7.0963 2.4933 11.411 2.4933 4.2674 8.0552 4.2674 5.4181 0 7.9114-4.3153 2.5412-4.3153 2.5412-11.364v-1.0069q0-6.9044-2.5412-11.268-2.5412-4.3632-8.0072-4.3632t-7.9593 4.3632-2.4933 11.268v1.0069z"/>
   <path d="m183.77 1018.2c-1.6302 2.3973-3.5641 4.2193-5.8017 5.466-2.2056 1.2466-4.7308 1.8797-7.5757 1.8797-6.393 0-11.364-2.3432-14.912-7.0101-3.5161-4.6669-5.1162-10.836-5.1162-18.508v-1.0069c0-8.1833 1.6161-14.784 5.1642-19.802 3.5481-5.0185 8.5348-7.5278 14.96-7.5278 2.5892 0 4.9226 0.57537 7.0003 1.7261 2.0777 1.1188 4.2289 2.7171 5.7952 4.7948v-18.604l-7.9806-1.4384v-8.4388h7.6513 14.295v64.969l5.9854 1.4384v8.4102h-18.41l-1.0548-6.3484zm-19.44-18.172c0 4.5391 0.62786 8.1191 2.1302 10.74 1.5343 2.5891 4.0276 3.8837 7.4798 3.8837 2.0457 0 3.8198-0.4155 5.3222-1.2466 1.5023-0.8311 3.0626-2.0298 4.0216-3.5961v-22.008c-0.95893-1.6622-2.5192-2.9408-4.0216-3.8358-1.4704-0.927-3.2125-1.3905-5.2263-1.3905-3.4203 0-5.9135 1.5183-7.4798 4.555s-2.2261 7.0003-2.2261 11.891v1.0069z"/>
   <path d="m232.87 1025.5c-7.48 0-13.457-2.3974-17.932-7.1921-4.4751-4.7947-6.7127-10.884-6.7127-18.268v-1.9179c0-7.7033 2.1097-14.048 6.3291-19.035 4.2513-4.9865 9.941-7.4419 17.069-7.41 7.0007 0 12.435 2.0878 16.302 6.3072 3.8678 4.2194 6.4539 9.93 6.188 17.117v7.5004h-31.36l-0.0959 0.4109c0.25573 3.4203 1.3905 6.2332 3.4043 8.4388 2.0457 2.2056 4.8107 3.3084 8.2949 3.3084 3.1006 0 5.6738-0.3037 7.7196-0.911 2.0457-0.6393 4.2833-1.6303 6.7127-2.9728l3.7879 8.6306c-2.1417 1.6941-4.9226 3.1166-8.3429 4.2673-3.3883 1.1507-7.1763 1.7261-11.364 1.7261zm-1.2466-43.057c-2.5892 0-4.635 0.99093-6.1373 2.9728s-2.4293 4.587-2.781 7.8154l0.14385 0.39233h17.299v-1.3992c0-2.9727-0.83677-5.3381-2.2432-7.0962-1.3745-1.7901-3.4682-2.6851-6.2811-2.6851z"/>
   <path d="m291.02 1000.6h-26.934v-10.973h26.934z"/>
   <path d="m330.82 954.73c7.9273 0 14.145 1.822 18.652 5.466 4.5071 3.6121 6.3914 8.6152 6.3914 15.008 0 3.5161-0.57382 6.5684-2.4598 9.1576-1.8859 2.5892-4.6509 4.6829-8.2949 6.2811 4.1235 1.2147 7.0802 3.2445 8.8703 6.0894 1.822 2.8129 2.8819 6.3133 2.8819 10.501v3.5481c0 1.5343 0.15475 2.733 0.76208 3.5961 0.60734 0.8311 1.6142 1.3265 3.0207 1.4863l1.2051 0.2398v8.4387h-6.7191c-4.571 0-7.7835-1.2306-9.6375-3.6919s-2.5972-5.6419-2.5972-9.5416v-3.9796c0-3.3883-1.0948-6.0414-2.9168-7.9593-1.7901-1.9499-4.3313-2.9727-7.6237-3.0686h-11.406v18.412l6.9825 1.4384v8.3908h-28.929v-8.3908l7.9805-1.4384v-50.105l-7.9805-1.4384v-8.4388h7.8932 23.926zm-9.9252 30.782h9.6854c3.8997 0 6.8245-0.8311 8.7744-2.4933s2.9248-4.0596 2.9248-7.1921c0-3.1326-0.97493-5.6259-2.9248-7.4798-1.9179-1.8859-4.7628-2.8289-8.5347-2.8289h-9.8718v19.994z"/>
   <path d="m411.73 993.62h-22.944v19.951h22.163l0.62332-7.9805h10.181v18.942h-54.914v-8.3908l7.9806-1.4384v-50.105l-7.9806-1.4384v-8.4451h7.5735 47.245v18.954h-10.277l-0.62332-7.9806h-21.972v16.959h22.944v10.973z"/>
   <path d="m461.1 954.75c8.5347 0 15.567 2.7087 21.097 8.1747 5.5299 5.4341 8.3382 12.392 8.3382 20.927v11.555c0 8.5667-2.8082 15.593-8.3382 21.027-5.5299 5.4021-12.562 8.1031-21.097 8.1031h-31.416v-8.3908l6.983-1.5117v-50.105l-6.983-1.3652v-8.4145l7.4424-0.0733 23.974 0.0754zm-10.468 10.737v48.283l9.7484 0.026c5.0185 0.013 8.9502-1.6942 11.795-5.0825 2.8449-3.3883 4.3934-7.7938 4.3934-13.26v-11.651c0-5.4021-1.5486-9.8189-4.3934-13.207-2.8449-3.3883-6.7765-5.0824-11.795-5.0824l-9.7484-0.0262z"/>
  </g>
 </g>
</svg>