<?xml version="1.0" encoding="UTF-8" standalone="no"?>
<svg width="213px" height="35px" viewBox="0 0 213 35" version="1.1" xmlns="http://www.w3.org/2000/svg" xmlns:xlink="http://www.w3.org/1999/xlink" xmlns:sketch="http://www.bohemiancoding.com/sketch/ns">
    <!-- Generator: Sketch 3.4.4 (17248) - http://www.bohemiancoding.com/sketch -->
    <title>october-color-logo</title>
    <desc>Created with Sketch.</desc>
    <defs>
        <path id="path-1" d="M0,0.354846154 L212.75088,0.354846154 L212.75088,35 L0,35"></path>
    </defs>
    <g id="Page-1" stroke="none" stroke-width="1" fill="none" fill-rule="evenodd" sketch:type="MSPage">
        <g id="logo" sketch:type="MSLayerGroup">
            <path d="M26.6569234,17.6650923 C26.6569234,15.9888615 26.4433923,14.4817077 26.0173923,13.1393231 C25.5924546,11.7990923 24.979482,10.6607846 24.1805993,9.7314 C23.3822476,8.79986154 22.4032975,8.08747692 21.2479983,7.58993846 C20.0911055,7.09401538 18.7743299,6.84578462 17.2992651,6.84578462 C15.8082651,6.84578462 14.4798037,7.09401538 13.3175993,7.58993846 C12.1527389,8.08747692 11.1727264,8.79986154 10.3733125,9.7314 C9.57336733,10.6607846 8.96198828,11.7990923 8.53439476,13.1393231 C8.10945711,14.4817077 7.89592594,15.9888615 7.89592594,17.6650923 C7.89592594,19.3558615 8.10945711,20.8721692 8.53439476,22.2124 C8.96198828,23.5553231 9.57336733,24.6914769 10.3733125,25.6230154 C11.1727264,26.5529385 12.1527389,27.2626308 13.3175993,27.7504769 C14.4798037,28.2404769 15.8082651,28.4838615 17.2992651,28.4838615 C18.7743299,28.4838615 20.0911055,28.2404769 21.2479983,27.7504769 C22.4032975,27.2626308 23.3822476,26.5529385 24.1805993,25.6230154 C24.979482,24.6914769 25.5924546,23.5553231 26.0173923,22.2124 C26.4433923,20.8721692 26.6569234,19.3558615 26.6569234,17.6650923 M34.5543898,17.6650923 C34.5543898,20.1167077 34.138482,22.3965538 33.3093224,24.5062462 C32.4796317,26.6154 31.313709,28.4499385 29.8067738,30.0082462 C28.300901,31.5660154 26.4864172,32.7877846 24.3633224,33.6719385 C22.2402277,34.5560923 19.8866042,34.9987077 17.2992651,34.9987077 C14.7124571,34.9987077 12.3551155,34.5560923 10.2245843,33.6719385 C8.09458429,32.7877846 6.27319526,31.5660154 4.75882369,30.0082462 C3.2428586,28.4499385 2.07321771,26.6154 1.24299576,24.5062462 C0.414367332,22.3965538 5.31172069e-05,20.1167077 5.31172069e-05,17.6650923 C5.31172069e-05,15.2150923 0.414367332,12.9347077 1.24299576,10.8234 C2.07321771,8.71424615 3.2428586,6.88563077 4.75882369,5.33324615 C6.27319526,3.78193846 8.09458429,2.56447692 10.2245843,1.68032308 C12.3551155,0.796169231 14.7124571,0.355169231 17.2992651,0.355169231 C19.8866042,0.355169231 22.2402277,0.800476923 24.3633224,1.69216923 C26.4864172,2.58601538 28.300901,3.80724615 29.8067738,5.35747692 C31.313709,6.90824615 32.4796317,8.73901538 33.3093224,10.8487077 C34.138482,12.9578615 34.5543898,15.2301692 34.5543898,17.6650923" id="Fill-1" fill="#586667" sketch:type="MSShapeGroup"></path>
            <g id="Group-5">
                <mask id="mask-2" sketch:name="Clip 4" fill="white">
                    <use xlink:href="#path-1"></use>
                </mask>
                <g id="Clip-4"></g>
                <path d="M56.1784579,25.6231769 C55.391792,26.5531 54.4271835,27.2627923 53.2888818,27.7511769 C52.1489865,28.2401 50.8513332,28.4840231 49.3980464,28.4840231 C47.9288244,28.4840231 46.6200165,28.2401 45.4753406,27.7511769 C44.3269466,27.2627923 43.3612758,26.5531 42.5740788,25.6231769 C41.7852883,24.6916385 41.1834703,23.5554846 40.7622509,22.2125615 C40.3431561,20.8723308 40.132812,19.3554846 40.132812,17.6652538 C40.132812,15.9890231 40.3431561,14.4818692 40.7622509,13.1394846 C41.1834703,11.7992538 41.7852883,10.6609462 42.5740788,9.73102308 C43.3612758,8.80002308 44.3269466,8.08763846 45.4753406,7.5901 C46.6200165,7.09363846 47.9288244,6.84540769 49.3980464,6.84540769 C50.8513332,6.84540769 52.1489865,7.09363846 53.2888818,7.5901 C54.4271835,8.08763846 55.391792,8.80002308 56.1784579,9.73102308 C56.5587771,10.1801 56.8966025,10.6771 57.1892783,11.2236385 C57.7544454,12.2790231 59.173206,12.1530231 59.173206,12.1530231 L65.6067621,12.1530231 C65.4750314,11.7131 65.3385202,11.2753308 65.1727945,10.8488692 C64.3558519,8.73917692 63.2063955,6.90840769 61.7217696,5.35763846 C60.2376748,3.80686923 58.4497496,2.58563846 56.3585252,1.69233077 C54.2662384,0.8001 51.9482035,0.354792308 49.3980464,0.354792308 C46.8494828,0.354792308 44.5266673,0.796330769 42.4280065,1.68048462 C40.3293456,2.56463846 38.533984,3.78156154 37.0419217,5.33286923 C35.548797,6.88579231 34.3961536,8.71440769 33.5781486,10.8235615 C32.7617372,12.9348692 32.3532658,15.2147154 32.3532658,17.6652538 C32.3532658,20.1163308 32.7617372,22.3967154 33.5781486,24.5064077 C34.3961536,26.6155615 35.548797,28.4501 37.0419217,30.0084077 C38.533984,31.5661769 40.3293456,32.7879462 42.4280065,33.6715615 C44.5266673,34.5562538 46.8494828,34.9988692 49.3980464,34.9988692 C51.9482035,34.9988692 54.2662384,34.5562538 56.3585252,33.6715615 C58.4497496,32.7879462 60.2376748,31.5661769 61.7217696,30.0084077 C63.2063955,28.4501 64.3558519,26.6155615 65.1727945,24.5064077 C65.3385202,24.0794077 65.4755626,23.6394846 65.6072933,23.1990231 L59.173206,23.1990231 C58.5825426,23.1990231 57.6349317,23.2577154 57.0447995,24.2684077 C56.8105526,24.6695615 56.6113631,25.1111 56.1784579,25.6231769" id="Fill-3" fill="#586667" sketch:type="MSShapeGroup" mask="url(#mask-2)"></path>
            </g>
            <path d="M103.098746,17.6650923 C103.098746,15.9888615 102.885746,14.4817077 102.460277,13.1393231 C102.035339,11.7990923 101.422367,10.6607846 100.623484,9.7314 C99.8246012,8.79986154 98.8456511,8.08747692 97.690883,7.58993846 C96.5334591,7.09401538 95.2166835,6.84578462 93.7410875,6.84578462 C92.2506187,6.84578462 90.9226885,7.09401538 89.760484,7.58993846 C88.5945613,8.08747692 87.6145489,8.79986154 86.8156661,9.7314 C86.0157209,10.6607846 85.4038107,11.7990923 84.9767484,13.1393231 C84.5518107,14.4817077 84.3377484,15.9888615 84.3377484,17.6650923 C84.3377484,19.3558615 84.5518107,20.8721692 84.9767484,22.2124 C85.4038107,23.5553231 86.0157209,24.6914769 86.8156661,25.6230154 C87.6145489,26.5529385 88.5945613,27.2626308 89.760484,27.7504769 C90.9226885,28.2404769 92.2506187,28.4838615 93.7410875,28.4838615 C95.2166835,28.4838615 96.5334591,28.2404769 97.690883,27.7504769 C98.8456511,27.2626308 99.8246012,26.5529385 100.623484,25.6230154 C101.422367,24.6914769 102.035339,23.5553231 102.460277,22.2124 C102.885746,20.8721692 103.098746,19.3558615 103.098746,17.6650923 M110.996212,17.6650923 C110.996212,20.1167077 110.579242,22.3965538 109.752738,24.5062462 C108.921454,26.6154 107.755,28.4499385 106.25019,30.0082462 C104.742723,31.5660154 102.929302,32.7877846 100.805145,33.6719385 C98.6825813,34.5560923 96.3289579,34.9987077 93.7410875,34.9987077 C91.1542796,34.9987077 88.7974691,34.5560923 86.6674691,33.6719385 C84.5364067,32.7877846 82.7144865,31.5660154 81.2017085,30.0082462 C79.684681,28.4499385 78.514509,26.6154 77.6853494,24.5062462 C76.8567209,22.3965538 76.4424067,20.1167077 76.4424067,17.6650923 C76.4424067,15.2150923 76.8567209,12.9347077 77.6853494,10.8234 C78.514509,8.71424615 79.684681,6.88563077 81.2017085,5.33324615 C82.7144865,3.78193846 84.5364067,2.56447692 86.6674691,1.68032308 C88.7974691,0.796169231 91.1542796,0.355169231 93.7410875,0.355169231 C96.3289579,0.355169231 98.6825813,0.800476923 100.805145,1.69216923 C102.929302,2.58601538 104.742723,3.80724615 106.25019,5.35747692 C107.755,6.90824615 108.921454,8.73901538 109.752738,10.8487077 C110.579242,12.9578615 110.996212,15.2301692 110.996212,17.6650923" id="Fill-6" fill="#586667" sketch:type="MSShapeGroup"></path>
            <path d="M119.623934,20.2475 L119.623934,28.6943462 L125.083852,28.6943462 C126.109545,28.6943462 126.948797,28.5613462 127.599483,28.2985769 C128.249106,28.0336538 128.7585,27.6922692 129.125009,27.2744231 C129.49258,26.8555 129.744355,26.3827308 129.88246,25.8534231 C130.019502,25.3278846 130.088555,24.7921154 130.088555,24.2504231 C130.088555,23.6290385 130.008879,23.0706538 129.848465,22.5741923 C129.688051,22.0782692 129.412904,21.6598846 129.023024,21.3174231 C128.632081,20.9765769 128.114188,20.7127308 127.47147,20.5258846 C126.828752,20.3406538 126.018714,20.2475 125.039764,20.2475 L119.623934,20.2475 Z M119.623934,14.9888846 L123.662966,14.9888846 C124.519216,14.9888846 125.29154,14.9275 125.981532,14.8041923 C126.668869,14.6792692 127.254752,14.4633462 127.737056,14.1526538 C128.21936,13.8419615 128.584807,13.4155 128.839238,12.8721923 C129.091545,12.3288846 129.21637,11.6471923 129.21637,10.8238846 C129.21637,10.0194231 129.118103,9.34742308 128.918914,8.81111538 C128.719724,8.2775 128.413238,7.84726923 127.999986,7.51988462 C127.587797,7.19411538 127.062468,6.96311538 126.428779,6.82311538 C125.792435,6.68311538 125.039764,6.61311538 124.168111,6.61311538 L119.623934,6.61311538 L119.623934,14.9888846 Z M111.866697,34.6265769 L111.866697,0.726115385 L124.168111,0.726115385 C126.478709,0.726115385 128.445108,0.944192308 130.066246,1.37765385 C131.687914,1.81273077 133.012126,2.42442308 134.036757,3.2165 C135.061919,4.00696154 135.807685,4.96919231 136.275116,6.10157692 C136.741485,7.23396154 136.975732,8.49880769 136.975732,9.8945 C136.975732,10.6537308 136.867373,11.3860385 136.653842,12.0925 C136.438717,12.7989615 136.103016,13.4612692 135.643021,14.0826538 C135.184089,14.7018846 134.596612,15.2635 133.876343,15.7696538 C133.157667,16.2731154 132.292388,16.7108846 131.281567,17.0835 C133.486994,17.6273462 135.115036,18.5077308 136.1726,19.7251923 C137.227507,20.9431923 137.754961,22.5041923 137.754961,24.4125 C137.754961,25.8534231 137.479283,27.1963462 136.928458,28.4364231 C136.377632,29.6786538 135.570251,30.7593462 134.507906,31.6838846 C133.443969,32.6062692 132.131974,33.3278077 130.570859,33.8463462 C129.010276,34.3670385 127.227662,34.6265769 125.222488,34.6265769 L111.866697,34.6265769 Z" id="Fill-8" fill="#586667" sketch:type="MSShapeGroup"></path>
            <path d="M160.405944,0.7259 L160.405944,6.77551538 L146.679927,6.77551538 L146.679927,14.6865923 L157.191822,14.6865923 L157.191822,20.5035923 L146.679927,20.5035923 L146.679927,28.5762077 L160.405944,28.5762077 L160.405944,34.6263615 L138.877009,34.6263615 L138.877009,0.7259 L160.405944,0.7259 Z" id="Fill-10" fill="#586667" sketch:type="MSShapeGroup"></path>
            <path d="M169.650091,16.6652231 L172.77179,16.6652231 C173.826166,16.6652231 174.725972,16.5289923 175.468019,16.2581462 C176.210598,15.9856846 176.819321,15.6103769 177.293657,15.1289923 C177.767994,14.6486846 178.111662,14.0859923 178.326256,13.4430692 C178.538725,12.7985308 178.648146,12.1039154 178.648146,11.3597615 C178.648146,9.87145385 178.169029,8.70676154 177.212919,7.87053077 C176.256809,7.03160769 174.775902,6.61322308 172.77179,6.61322308 L169.650091,6.61322308 L169.650091,16.6652231 Z M169.650091,22.0859154 L169.650091,34.6266846 L161.892854,34.6266846 L161.892854,0.725684615 L172.77179,0.725684615 C175.188091,0.725684615 177.250101,0.979838462 178.957288,1.4833 C180.662882,1.9873 182.056677,2.68945385 183.133894,3.58868462 C184.213236,4.48899231 184.996184,5.5503 185.488049,6.77583846 C185.976196,8.00083846 186.221066,9.33514615 186.221066,10.7787615 C186.221066,11.8804538 186.075525,12.9180692 185.783912,13.8948385 C185.495485,14.8721462 185.061518,15.7773 184.488914,16.6065308 C183.914717,17.4357615 183.210383,18.1761462 182.377505,18.8282231 C181.542503,19.4803 180.582144,20.0144538 179.495366,20.4333769 C180.016445,20.6983 180.502468,21.0240692 180.953433,21.4101462 C181.403867,21.7983769 181.799059,22.2716846 182.137415,22.8300692 L189.250872,34.6266846 L182.228777,34.6266846 C180.926343,34.6266846 179.994136,34.1302231 179.427907,33.1383769 L173.87344,23.2958385 C173.62857,22.8602231 173.340675,22.5516846 173.011879,22.3637615 C172.684146,22.1790692 172.219902,22.0859154 171.624989,22.0859154 L169.650091,22.0859154 Z" id="Fill-12" fill="#586667" sketch:type="MSShapeGroup"></path>
            <path d="M67.6336616,0.7259 L67.6336616,14.3182846 L59.1120681,14.3182846 C58.3408062,14.3182846 57.7161479,14.9256692 57.7161479,15.6735923 L57.7161479,19.6786692 C57.7161479,20.4276692 58.3408062,21.0345154 59.1120681,21.0345154 L67.6336616,21.0345154 L67.6336616,34.6263615 L75.3908985,34.6263615 L75.3908985,0.7259 L67.6336616,0.7259 Z" id="Fill-14" fill="#586667" sketch:type="MSShapeGroup"></path>
            <path d="M212.7248,16.9507692 C212.182473,8.09953846 202.5417,0.440461538 198.570126,0.355923077 C194.596959,0.270307692 187.171705,9.64438462 186.871062,19.1686923 C186.58954,28.0990769 194.211328,34.223 197.492378,35 C197.58374,30.7983846 197.919972,15.3289231 197.976276,13.5250769 C198.094727,9.83876923 198.275857,4.10307692 198.891486,3.91246154 C199.244715,3.80315385 199.725957,7.02746154 199.666997,8.93307692 C199.65478,9.29653846 199.65053,10.4741538 199.65053,12.1455385 C200.315027,11.4697692 201.008737,10.7681538 201.430488,10.3535385 C202.58685,9.21738462 203.098368,9.35253846 202.543825,10.3659231 C202.202281,10.9894615 200.73359,13.0625385 199.653717,14.5648462 C199.65956,17.5947692 199.673371,21.4081538 199.687712,24.9614615 C201.212707,23.1764615 203.079777,21.0366154 204.060321,20.0851538 C206.11755,18.0912308 206.336393,18.3426923 205.36488,20.4356923 C204.768373,21.7183077 201.851176,25.1396923 199.698336,27.8379231 C199.711615,30.9911538 199.722239,33.642 199.724363,34.9073846 C205.499797,33.6371538 213.255441,25.641 212.7248,16.9507692" id="Fill-16" fill="#DB6A26" sketch:type="MSShapeGroup"></path>
        </g>
    </g>
</svg>