<?xml version="1.0" encoding="UTF-8" standalone="no"?>
<svg
   xmlns:dc="http://purl.org/dc/elements/1.1/"
   xmlns:cc="http://creativecommons.org/ns#"
   xmlns:rdf="http://www.w3.org/1999/02/22-rdf-syntax-ns#"
   xmlns:svg="http://www.w3.org/2000/svg"
   xmlns="http://www.w3.org/2000/svg"
   viewBox="0 0 486.66666 415.54666"
   height="415.54666"
   width="486.66666"
   xml:space="preserve"
   id="svg2"
   version="1.1"><metadata
     id="metadata8"><rdf:RDF><cc:Work
         rdf:about=""><dc:format>image/svg+xml</dc:format><dc:type
           rdf:resource="http://purl.org/dc/dcmitype/StillImage" /></cc:Work></rdf:RDF></metadata><defs
     id="defs6"><clipPath
       id="clipPath20"
       clipPathUnits="userSpaceOnUse"><path
         id="path18"
         d="M 0,3116.58 V 0 h 3650 v 3116.58 z" /></clipPath></defs><g
     transform="matrix(1.3333333,0,0,-1.3333333,0,415.54667)"
     id="g10"><g
       transform="scale(0.1)"
       id="g12"><g
         id="g14"><g
           clip-path="url(#clipPath20)"
           id="g16"><path
             id="path22"
             style="fill:#8f1f25;fill-opacity:1;fill-rule:nonzero;stroke:none"
             d="M 3506.99,716.141 C 3312.21,614.602 2303.15,199.719 2088.32,87.7305 1873.51,-24.2813 1754.17,-23.1992 1584.46,57.9297 1414.76,139.059 340.941,572.809 147.516,665.262 50.832,711.48 0,750.469 0,787.309 v 368.941 c 0,0 1397.97,304.34 1623.66,385.3 225.68,80.97 303.99,83.89 496.04,13.54 192.08,-70.36 1340.48,-277.56 1530.3,-347.09 0,0 -0.09,-329.5 -0.09,-363.711 0.03,-36.469 -43.77,-76.48 -142.92,-128.148" /><path
             id="path24"
             style="fill:#c82629;fill-opacity:1;fill-rule:nonzero;stroke:none"
             d="M 3506.92,1082.89 C 3312.15,981.41 2303.12,566.512 2088.3,454.52 1873.49,342.5 1754.15,343.602 1584.46,424.73 1414.75,505.801 340.977,939.621 147.555,1032.02 c -193.4183,92.46 -197.4847,156.1 -7.469,230.49 190,74.43 1257.884,493.39 1483.594,574.36 225.67,80.95 303.96,83.9 496.01,13.52 192.07,-70.35 1195.08,-469.58 1384.88,-539.09 189.84,-69.59 197.13,-126.88 2.35,-228.41" /><path
             id="path26"
             style="fill:#8f1f25;fill-opacity:1;fill-rule:nonzero;stroke:none"
             d="M 3506.99,1313.1 C 3312.21,1211.56 2303.15,796.68 2088.32,684.648 1873.51,572.68 1754.17,573.762 1584.46,654.891 1414.75,735.98 340.941,1169.77 147.516,1262.22 50.832,1308.43 0,1347.39 0,1384.23 v 368.98 c 0,0 1397.97,304.32 1623.66,385.3 225.68,80.95 303.99,83.89 496.04,13.54 192.08,-70.36 1340.48,-277.52 1530.3,-347.06 0,0 -0.09,-329.51 -0.09,-363.75 0.03,-36.46 -43.77,-76.47 -142.92,-128.14" /><path
             id="path28"
             style="fill:#c82629;fill-opacity:1;fill-rule:nonzero;stroke:none"
             d="M 3506.92,1679.85 C 3312.15,1578.34 2303.12,1163.46 2088.3,1051.44 1873.49,939.461 1754.15,940.559 1584.46,1021.68 c -169.71,81.07 -1243.483,514.88 -1436.905,607.3 -193.4183,92.43 -197.4847,156.08 -7.469,230.51 190,74.38 1257.884,493.37 1483.594,574.33 225.67,80.95 303.96,83.89 496.01,13.53 192.07,-70.35 1195.08,-469.55 1384.88,-539.09 189.84,-69.56 197.13,-126.88 2.35,-228.39 v -0.02" /><path
             id="path30"
             style="fill:#8f1f25;fill-opacity:1;fill-rule:nonzero;stroke:none"
             d="M 3506.99,1932.2 C 3312.21,1830.66 2303.15,1415.76 2088.32,1303.74 1873.51,1191.75 1754.17,1192.85 1584.46,1273.98 1414.75,1355.06 340.941,1788.87 147.516,1881.29 50.832,1927.52 0,1966.49 0,2003.3 v 368.99 c 0,0 1397.97,304.32 1623.66,385.27 225.68,80.98 303.99,83.9 496.04,13.55 192.08,-70.36 1340.48,-277.52 1530.3,-347.06 0,0 -0.09,-329.51 -0.09,-363.74 0.03,-36.43 -43.77,-76.44 -142.92,-128.11" /><path
             id="path32"
             style="fill:#c82629;fill-opacity:1;fill-rule:nonzero;stroke:none"
             d="m 3506.92,2298.95 c -194.77,-101.51 -1203.8,-516.41 -1418.62,-628.41 -214.81,-111.98 -334.15,-110.88 -503.84,-29.78 -169.7,81.09 -1243.483,514.87 -1436.905,607.31 -193.4183,92.43 -197.4847,156.09 -7.469,230.5 190,74.4 1257.884,493.35 1483.594,574.34 225.67,80.97 303.96,83.88 496.01,13.51 192.07,-70.36 1195.08,-469.56 1384.88,-539.1 189.84,-69.52 197.13,-126.85 2.35,-228.37" /><path
             id="path34"
             style="fill:#ffffff;fill-opacity:1;fill-rule:nonzero;stroke:none"
             d="m 2271.03,2657.86 -313.8,-32.59 -70.26,-169.03 -113.47,188.63 -362.36,32.56 270.38,97.51 -81.12,149.68 253.14,-99.01 238.65,78.14 -64.5,-154.77 243.34,-91.12" /><path
             id="path36"
             style="fill:#ffffff;fill-opacity:1;fill-rule:nonzero;stroke:none"
             d="m 1868.23,1837.78 -585.67,242.91 839.23,128.81 -253.56,-371.72" /><path
             id="path38"
             style="fill:#ffffff;fill-opacity:1;fill-rule:nonzero;stroke:none"
             d="m 1056.24,2563.9 c 247.73,0 448.56,-77.85 448.56,-173.87 0,-96.03 -200.83,-173.87 -448.56,-173.87 -247.717,0 -448.552,77.84 -448.552,173.87 0,96.02 200.835,173.87 448.552,173.87" /><path
             id="path40"
             style="fill:#5d191e;fill-opacity:1;fill-rule:nonzero;stroke:none"
             d="m 2641.9,2611.65 496.68,-196.28 -496.26,-196.08 -0.42,392.36" /><path
             id="path42"
             style="fill:#982127;fill-opacity:1;fill-rule:nonzero;stroke:none"
             d="m 2092.4,2394.29 549.5,217.36 0.42,-392.36 -53.87,-21.08 -496.05,196.08" /></g></g></g></g></svg>