<?xml version="1.0" encoding="UTF-8" standalone="no"?>
<!-- Generator: Adobe Illustrator 15.1.0, SVG Export Plug-In . SVG Version: 6.00 Build 0)  -->

<svg
   xmlns:dc="http://purl.org/dc/elements/1.1/"
   xmlns:cc="http://creativecommons.org/ns#"
   xmlns:rdf="http://www.w3.org/1999/02/22-rdf-syntax-ns#"
   xmlns:svg="http://www.w3.org/2000/svg"
   xmlns="http://www.w3.org/2000/svg"
   xmlns:sodipodi="http://sodipodi.sourceforge.net/DTD/sodipodi-0.dtd"
   xmlns:inkscape="http://www.inkscape.org/namespaces/inkscape"
   version="1.1"
   id="Ebene_2"
   x="0px"
   y="0px"
   width="238.216"
   height="150.52"
   viewBox="0 0 238.21601 150.52001"
   enable-background="new 0 0 283.46 283.46"
   xml:space="preserve"
   inkscape:version="0.91 r13725"
   sodipodi:docname="logo.svg"><metadata
     id="metadata379"><rdf:RDF><cc:Work
         rdf:about=""><dc:format>image/svg+xml</dc:format><dc:type
           rdf:resource="http://purl.org/dc/dcmitype/StillImage" /><dc:title></dc:title></cc:Work></rdf:RDF></metadata><defs
     id="defs377" /><sodipodi:namedview
     pagecolor="#ffffff"
     bordercolor="#666666"
     borderopacity="1"
     objecttolerance="10"
     gridtolerance="10"
     guidetolerance="10"
     inkscape:pageopacity="0"
     inkscape:pageshadow="2"
     inkscape:window-width="1418"
     inkscape:window-height="1182"
     id="namedview375"
     showgrid="false"
     inkscape:zoom="3.330276"
     inkscape:cx="100.95375"
     inkscape:cy="118.03697"
     inkscape:window-x="0"
     inkscape:window-y="0"
     inkscape:window-maximized="0"
     inkscape:current-layer="Ebene_2"
     fit-margin-top="0"
     fit-margin-left="0"
     fit-margin-right="0"
     fit-margin-bottom="0" /><g
     id="g3"
     transform="translate(-19.843,-62.404)"><path
       d="m 258.059,62.404 0,129.274 -119.107,21.246 -119.109,-21.245 0,-129.275 238.216,0 z"
       id="path5"
       inkscape:connector-curvature="0" /></g><g
     id="g7"
     transform="translate(-19.843,-62.404)"
     style="opacity:0.3"><g
       id="g9"><ellipse
         transform="matrix(0.9998,0.0188,-0.0188,0.9998,1.4766,-1.9872)"
         cx="106.306"
         cy="77.449997"
         rx="1.531"
         ry="1.177"
         id="ellipse11"
         style="fill:#ffffff" /></g><g
       id="g13"><circle
         cx="119.188"
         cy="70.481003"
         r="2.47"
         id="circle15"
         style="fill:#ffffff" /></g><g
       id="g17"><path
         d="m 119.777,81.117 c -0.018,0.844 -0.715,1.518 -1.561,1.5 -0.842,-0.016 -1.517,-0.713 -1.498,-1.557 0.014,-0.848 0.713,-1.519 1.557,-1.504 0.844,0.018 1.517,0.713 1.502,1.561 z"
         id="path19"
         inkscape:connector-curvature="0"
         style="fill:#ffffff" /></g><g
       id="g21"><path
         d="m 115.671,86.574 c -0.019,1.037 -0.877,1.865 -1.919,1.846 -1.038,-0.018 -1.866,-0.879 -1.847,-1.917 0.019,-1.042 0.88,-1.87 1.919,-1.849 1.041,0.02 1.866,0.879 1.847,1.92 z"
         id="path23"
         inkscape:connector-curvature="0"
         style="fill:#ffffff" /></g><g
       id="g25"><circle
         cx="105.624"
         cy="88.857002"
         r="0.58899999"
         id="circle27"
         style="fill:#ffffff" /></g><g
       id="g29"><circle
         cx="164.12399"
         cy="70.402"
         r="2.2360001"
         id="circle31"
         style="fill:#ffffff" /></g><g
       id="g33"><path
         d="m 170.573,84.418 c -0.021,1.104 -0.932,1.98 -2.037,1.96 -1.106,-0.021 -1.986,-0.931 -1.966,-2.036 0.021,-1.105 0.936,-1.982 2.039,-1.963 1.109,0.021 1.986,0.932 1.964,2.039 z"
         id="path35"
         inkscape:connector-curvature="0"
         style="fill:#ffffff" /></g><g
       id="g37"><path
         d="m 177.05,98.271 c -0.041,2.276 -1.919,4.086 -4.193,4.043 -2.275,-0.043 -4.085,-1.92 -4.041,-4.196 0.038,-2.275 1.919,-4.085 4.194,-4.042 2.273,0.043 4.084,1.92 4.04,4.195 z"
         id="path39"
         inkscape:connector-curvature="0"
         style="fill:#ffffff" /></g><g
       id="g41"><circle
         cx="163.117"
         cy="111.826"
         r="2.471"
         id="circle43"
         style="fill:#ffffff" /></g><g
       id="g45"><circle
         cx="151.045"
         cy="121.608"
         r="1.4119999"
         id="circle47"
         style="fill:#ffffff" /></g><g
       id="g49"><path
         d="m 118.383,130.651 c -0.016,0.782 -0.658,1.401 -1.438,1.39 -0.783,-0.016 -1.4,-0.658 -1.387,-1.441 0.016,-0.779 0.656,-1.4 1.438,-1.386 0.782,0.014 1.402,0.659 1.387,1.437 z"
         id="path51"
         inkscape:connector-curvature="0"
         style="fill:#ffffff" /></g><g
       id="g53"><path
         d="m 106.194,140.314 c -0.022,1.171 -0.987,2.103 -2.156,2.082 -1.17,-0.023 -2.103,-0.988 -2.081,-2.158 0.022,-1.172 0.988,-2.104 2.16,-2.082 1.17,0.025 2.098,0.989 2.077,2.158 z"
         id="path55"
         inkscape:connector-curvature="0"
         style="fill:#ffffff" /></g><g
       id="g57"><path
         d="m 124.67,164.864 c -0.043,2.274 -1.922,4.084 -4.195,4.039 -2.275,-0.039 -4.085,-1.917 -4.043,-4.196 0.041,-2.272 1.92,-4.082 4.195,-4.039 2.276,0.04 4.086,1.92 4.043,4.196 z"
         id="path59"
         inkscape:connector-curvature="0"
         style="fill:#ffffff" /></g><g
       id="g61"><circle
         cx="140.586"
         cy="164.737"
         r="3.5309999"
         id="circle63"
         style="fill:#ffffff" /></g><g
       id="g65"><path
         d="m 138.516,149.513 c -0.04,2.146 -1.811,3.85 -3.957,3.809 -2.145,-0.038 -3.85,-1.808 -3.811,-3.953 0.043,-2.146 1.811,-3.852 3.955,-3.812 2.146,0.04 3.852,1.811 3.813,3.956 z"
         id="path67"
         inkscape:connector-curvature="0"
         style="fill:#ffffff" /></g><g
       id="g69"><path
         d="m 124.341,152.073 c -0.011,0.585 -0.493,1.051 -1.077,1.039 -0.588,-0.01 -1.05,-0.494 -1.041,-1.078 0.013,-0.585 0.492,-1.051 1.079,-1.039 0.585,0.01 1.05,0.494 1.039,1.078 z"
         id="path71"
         inkscape:connector-curvature="0"
         style="fill:#ffffff" /></g><g
       id="g73"><circle
         cx="158.35001"
         cy="140.228"
         r="2.237"
         id="circle75"
         style="fill:#ffffff" /></g><g
       id="g77"><path
         d="m 172.195,136.484 c -0.018,0.844 -0.715,1.518 -1.557,1.502 -0.848,-0.018 -1.52,-0.716 -1.504,-1.56 0.016,-0.847 0.714,-1.521 1.559,-1.503 0.843,0.015 1.518,0.714 1.502,1.561 z"
         id="path79"
         inkscape:connector-curvature="0"
         style="fill:#ffffff" /></g><g
       id="g81"><path
         d="m 196.297,119.244 c -0.021,1.119 -0.946,2.011 -2.069,1.99 -1.119,-0.021 -2.013,-0.947 -1.992,-2.067 0.021,-1.124 0.946,-2.013 2.068,-1.992 1.122,0.019 2.015,0.946 1.993,2.069 z"
         id="path83"
         inkscape:connector-curvature="0"
         style="fill:#ffffff" /></g><g
       id="g85"><circle
         cx="206.23199"
         cy="103.614"
         r="2.471"
         id="circle87"
         style="fill:#ffffff" /></g><g
       id="g89"><path
         d="m 198.97,89.417 c -0.014,0.716 -0.603,1.284 -1.316,1.271 -0.718,-0.014 -1.285,-0.602 -1.271,-1.317 0.016,-0.715 0.604,-1.283 1.318,-1.269 0.714,0.012 1.283,0.601 1.269,1.315 z"
         id="path91"
         inkscape:connector-curvature="0"
         style="fill:#ffffff" /></g><g
       id="g93"><circle
         cx="192.448"
         cy="79.407997"
         r="2.0009999"
         id="circle95"
         style="fill:#ffffff" /></g><g
       id="g97"><path
         d="m 189.97,66.999 c -0.014,0.78 -0.656,1.399 -1.437,1.386 -0.783,-0.015 -1.403,-0.658 -1.387,-1.439 0.014,-0.777 0.656,-1.398 1.439,-1.383 0.781,0.014 1.401,0.658 1.385,1.436 z"
         id="path99"
         inkscape:connector-curvature="0"
         style="fill:#ffffff" /></g><g
       id="g101"><path
         d="m 140.396,99.16 c -0.021,1.104 -0.932,1.982 -2.037,1.961 -1.104,-0.02 -1.985,-0.93 -1.964,-2.035 0.02,-1.107 0.934,-1.986 2.04,-1.967 1.102,0.022 1.982,0.934 1.961,2.041 z"
         id="path103"
         inkscape:connector-curvature="0"
         style="fill:#ffffff" /></g><g
       id="g105"><path
         d="m 78.945,162.178 c -0.018,1.038 -0.88,1.866 -1.918,1.849 -1.041,-0.021 -1.87,-0.883 -1.849,-1.92 0.019,-1.039 0.878,-1.866 1.919,-1.848 1.038,0.02 1.868,0.878 1.848,1.919 z"
         id="path107"
         inkscape:connector-curvature="0"
         style="fill:#ffffff" /></g><g
       id="g109"><path
         d="m 89.893,168.503 c -0.024,1.301 -1.098,2.335 -2.396,2.309 -1.304,-0.022 -2.337,-1.096 -2.312,-2.397 0.026,-1.299 1.099,-2.335 2.399,-2.311 1.297,0.025 2.333,1.1 2.309,2.399 z"
         id="path111"
         inkscape:connector-curvature="0"
         style="fill:#ffffff" /></g><g
       id="g113"><circle
         cx="102.716"
         cy="175.334"
         r="3.5309999"
         id="circle115"
         style="fill:#ffffff" /></g><g
       id="g117"><circle
         cx="114.926"
         cy="183.45"
         r="4.3540001"
         id="circle119"
         style="fill:#ffffff" /></g><g
       id="g121"><circle
         cx="129.131"
         cy="185.715"
         r="2.3540001"
         id="circle123"
         style="fill:#ffffff" /></g><g
       id="g125"><path
         d="m 154.6,183.481 c -0.023,1.369 -1.151,2.451 -2.515,2.426 -1.365,-0.025 -2.452,-1.15 -2.427,-2.519 0.026,-1.364 1.152,-2.446 2.519,-2.424 1.366,0.028 2.451,1.153 2.423,2.517 z"
         id="path127"
         inkscape:connector-curvature="0"
         style="fill:#ffffff" /></g><g
       id="g129"><path
         d="m 166.159,182.285 c -0.036,2.013 -1.7,3.616 -3.714,3.58 -2.013,-0.038 -3.618,-1.702 -3.579,-3.715 0.035,-2.018 1.701,-3.619 3.715,-3.581 2.015,0.037 3.618,1.7 3.578,3.716 z"
         id="path131"
         inkscape:connector-curvature="0"
         style="fill:#ffffff" /></g><g
       id="g133"><circle
         cx="172.28"
         cy="176.041"
         r="1.7640001"
         id="circle135"
         style="fill:#ffffff" /></g><g
       id="g137"><circle
         cx="190.812"
         cy="173.44299"
         r="3.5309999"
         id="circle139"
         style="fill:#ffffff" /></g><g
       id="g141"><path
         d="m 199.162,167.713 c -0.004,0.257 -0.219,0.467 -0.48,0.462 -0.259,-0.007 -0.468,-0.22 -0.462,-0.479 0.006,-0.261 0.221,-0.47 0.48,-0.464 0.263,0.004 0.467,0.222 0.462,0.481 z"
         id="path143"
         inkscape:connector-curvature="0"
         style="fill:#ffffff" /></g><g
       id="g145"><path
         d="m 190.998,150.959 c -0.013,0.716 -0.603,1.286 -1.32,1.272 -0.713,-0.013 -1.283,-0.604 -1.271,-1.32 0.014,-0.713 0.604,-1.281 1.318,-1.269 0.717,0.013 1.288,0.603 1.273,1.317 z"
         id="path147"
         inkscape:connector-curvature="0"
         style="fill:#ffffff" /></g><g
       id="g149"><path
         d="m 176.416,150.099 c -0.029,1.431 1.111,2.612 2.539,2.639 1.429,0.025 2.61,-1.112 2.638,-2.543 0.025,-1.427 -1.11,-2.606 -2.543,-2.634 -1.426,-0.028 -2.611,1.11 -2.634,2.538 z"
         id="path151"
         inkscape:connector-curvature="0"
         style="fill:#ffffff" /></g><g
       id="g153"><circle
         cx="174.14799"
         cy="154.827"
         r="1.355"
         id="circle155"
         style="fill:#ffffff" /></g><g
       id="g157"><path
         d="m 158.692,153.45 c -0.012,0.598 -0.021,1.089 -0.021,1.089 0,0 0.01,-0.491 0.021,-1.089 0.011,-0.604 0.021,-1.09 0.021,-1.09 0,0 -0.01,0.487 -0.021,1.09 z"
         id="path159"
         inkscape:connector-curvature="0"
         style="fill:#ffffff" /></g><g
       id="g161"><circle
         cx="158.41299"
         cy="154.269"
         r="1.648"
         id="circle163"
         style="fill:#ffffff" /></g><g
       id="g165"><path
         d="m 180.036,126.328 c -0.021,1.139 -0.96,2.043 -2.098,2.023 -1.14,-0.023 -2.043,-0.961 -2.02,-2.102 0.018,-1.137 0.957,-2.041 2.096,-2.021 1.138,0.022 2.043,0.962 2.022,2.1 z"
         id="path167"
         inkscape:connector-curvature="0"
         style="fill:#ffffff" /></g><g
       id="g169"><path
         d="m 181.64,127.167 c -0.01,0.446 -0.378,0.804 -0.827,0.796 -0.445,-0.01 -0.798,-0.381 -0.791,-0.826 0.01,-0.443 0.378,-0.803 0.821,-0.794 0.45,0.008 0.804,0.378 0.797,0.824 z"
         id="path171"
         inkscape:connector-curvature="0"
         style="fill:#ffffff" /></g><g
       id="g173"><path
         d="m 183.882,128.342 c -0.009,0.625 -0.527,1.123 -1.153,1.111 -0.624,-0.01 -1.124,-0.527 -1.112,-1.154 0.012,-0.625 0.529,-1.123 1.154,-1.11 0.626,0.01 1.125,0.529 1.111,1.153 z"
         id="path175"
         inkscape:connector-curvature="0"
         style="fill:#ffffff" /></g></g><path
     d="m 195.378,29.657 c -0.11,-0.674 -0.292,-1.322 -0.543,-1.938 -0.028,-0.103 -0.062,-0.205 -0.1,-0.307 -0.281,-0.756 -0.586,-1.475 -0.907,-2.135 -0.363,-0.751 -0.893,-1.6 -1.611,-2.584 -0.047,-0.063 -0.096,-0.126 -0.146,-0.187 -1.264,-1.812 -2.799,-2.604 -3.909,-2.951 -0.66,-0.205 -1.358,-0.308 -2.085,-0.308 -1.154,0 -2.371,0.25 -3.718,0.764 l -0.307,0.117 c -0.043,0.016 -0.086,0.033 -0.128,0.051 -2.271,0.957 -4.562,2.032 -6.807,3.198 -2.202,1.142 -4.385,2.327 -6.485,3.521 -2.083,1.185 -4.117,2.391 -6.045,3.586 -1.878,1.163 -3.652,2.29 -5.274,3.35 -0.529,0.346 -0.969,0.812 -1.283,1.36 l -0.662,1.154 c -0.286,0.499 -0.461,1.054 -0.514,1.626 l -4.06,44.465 c -0.007,0.075 -0.012,0.15 -0.015,0.227 -0.031,0.913 0.024,1.812 0.166,2.674 0.281,1.689 0.846,3.108 1.679,4.225 0.773,1.037 1.751,1.899 2.903,2.561 0.117,0.067 0.237,0.128 0.359,0.183 0.683,0.435 1.332,0.827 1.938,1.173 0.877,0.501 1.754,0.918 2.606,1.238 1.065,0.398 2.185,0.601 3.33,0.601 0.076,0 0.152,-0.001 0.229,-0.003 1.186,-0.026 2.419,-0.289 3.766,-0.801 0.897,-0.342 1.877,-0.844 2.981,-1.528 0.167,-0.074 0.329,-0.16 0.487,-0.259 2.492,-1.55 5.075,-3.143 7.749,-4.783 2.683,-1.645 5.297,-3.252 7.842,-4.824 1.613,-0.975 2.718,-1.9 3.443,-2.89 0.721,-0.984 1.492,-2.688 1.079,-5.208 -0.253,-1.521 -0.794,-3.014 -1.611,-4.446 -0.706,-1.231 -1.467,-2.337 -2.265,-3.292 -0.028,-0.034 -0.058,-0.067 -0.087,-0.101 -1.038,-1.373 -2.23,-2.082 -3.243,-2.445 1.104,-0.592 2.098,-1.213 2.951,-1.842 1.091,-0.805 1.978,-1.713 2.639,-2.701 0.973,-1.463 1.335,-3.126 1.055,-4.818 -0.087,-0.529 -0.251,-1.088 -0.495,-1.691 -0.056,-0.21 -0.129,-0.418 -0.221,-0.621 -0.348,-0.771 -0.694,-1.536 -1.037,-2.289 -0.508,-1.108 -1.216,-2.184 -2.112,-3.213 -0.078,-0.09 -0.16,-0.176 -0.244,-0.257 -1.498,-1.724 -3.152,-2.274 -4.323,-2.425 -0.299,-0.039 -0.614,-0.059 -0.933,-0.059 -0.953,0 -1.968,0.173 -3.08,0.526 0.055,-0.33 0.109,-0.655 0.163,-0.975 1.838,-0.974 3.604,-1.89 5.27,-2.733 2.18,-1.104 4.339,-2.173 6.419,-3.176 0.025,-0.013 0.052,-0.025 0.078,-0.039 2.002,-1.02 3.319,-2.076 4.146,-3.321 0.995,-1.499 1.322,-3.333 0.972,-5.45 z"
     id="path177"
     inkscape:connector-curvature="0" /><g
     id="g179"
     transform="translate(-19.843,-62.404)"><polygon
       points="28.715,183.43 30.229,183.699 138.629,203.034 138.951,203.092 139.273,203.034 247.673,183.699 249.186,183.43 249.186,181.893 249.186,62.404 247.35,62.404 247.35,181.893 138.951,201.228 30.551,181.893 30.551,62.404 28.715,62.404 28.715,181.893 "
       id="polygon181"
       style="fill:#6d6e71" /></g><g
     id="g183"
     transform="matrix(1.2304918,0,0,1.1044829,-32.018193,-75.611851)"><path
       d="m 178.812,99.877 c 1.579,-1.03 3.311,-2.131 5.195,-3.3 1.885,-1.168 3.855,-2.339 5.916,-3.509 2.058,-1.17 4.175,-2.32 6.352,-3.449 2.175,-1.129 4.346,-2.148 6.514,-3.061 l 0.308,-0.117 c 1.317,-0.502 2.379,-0.625 3.187,-0.375 0.807,0.252 1.483,0.832 2.027,1.74 l -0.01,-0.061 c 0.564,0.773 0.98,1.432 1.244,1.975 0.265,0.544 0.517,1.137 0.754,1.775 l -0.072,-0.037 c 0.251,0.463 0.426,0.978 0.518,1.543 0.182,1.092 0.061,1.954 -0.358,2.586 -0.421,0.635 -1.296,1.289 -2.628,1.968 -2.106,1.016 -4.27,2.087 -6.488,3.211 -2.222,1.125 -4.576,2.354 -7.066,3.69 -0.273,1.521 -0.55,3.164 -0.827,4.922 -0.276,1.76 -0.577,3.518 -0.897,5.271 1.735,-0.875 3.504,-1.678 5.309,-2.408 l 0.433,-0.164 c 1.192,-0.455 2.168,-0.633 2.93,-0.535 0.759,0.098 1.448,0.564 2.068,1.402 l -0.01,-0.061 c 0.648,0.742 1.144,1.488 1.486,2.238 0.342,0.75 0.686,1.511 1.032,2.28 l -0.07,-0.037 c 0.265,0.544 0.428,0.998 0.486,1.36 0.115,0.688 -0.03,1.332 -0.433,1.938 -0.403,0.604 -0.966,1.173 -1.687,1.705 -0.722,0.532 -1.574,1.062 -2.56,1.587 -0.984,0.525 -1.999,1.072 -3.041,1.641 l 0.062,-0.023 c -1.511,0.92 -2.983,1.793 -4.422,2.619 -1.438,0.828 -2.85,1.676 -4.236,2.547 -0.196,0.935 -0.381,1.938 -0.553,3.012 -0.172,1.078 -0.238,1.994 -0.2,2.752 1.517,-0.877 3.089,-1.756 4.716,-2.633 1.625,-0.877 3.365,-1.668 5.216,-2.373 1.111,-0.423 2.041,-0.551 2.791,-0.387 0.749,0.167 1.389,0.664 1.92,1.493 l -0.01,-0.06 c 0.654,0.781 1.272,1.685 1.858,2.707 0.585,1.023 0.964,2.061 1.139,3.111 0.152,0.93 0.034,1.662 -0.359,2.197 -0.392,0.536 -1.165,1.154 -2.318,1.851 -2.54,1.569 -5.15,3.175 -7.831,4.818 -2.68,1.644 -5.271,3.241 -7.769,4.795 l 0.052,-0.084 c -1.105,0.721 -2.049,1.232 -2.831,1.529 -0.905,0.344 -1.717,0.524 -2.437,0.541 -0.72,0.017 -1.405,-0.1 -2.058,-0.344 -0.653,-0.246 -1.33,-0.567 -2.03,-0.967 -0.7,-0.4 -1.467,-0.869 -2.301,-1.412 l 0.01,0.061 c -0.676,-0.388 -1.238,-0.882 -1.688,-1.484 -0.449,-0.602 -0.761,-1.428 -0.936,-2.479 -0.1,-0.606 -0.139,-1.236 -0.116,-1.889 l 4.061,-44.466 0.658,-1.15 z"
       id="path185"
       inkscape:connector-curvature="0"
       style="fill:#ffffff" /></g><path
     d="m 52.953,67.778 c -0.405,-1.873 -1.392,-3.561 -2.931,-5.017 -0.872,-0.823 -1.906,-1.556 -3.076,-2.179 -1.108,-0.59 -2.282,-1.061 -3.493,-1.404 -1.175,-0.332 -2.358,-0.553 -3.519,-0.654 -0.432,-0.037 -0.854,-0.056 -1.261,-0.056 -0.824,0 -1.62,0.077 -2.366,0.228 -1.488,0.3 -2.895,0.818 -4.18,1.542 -1.21,0.683 -2.239,1.459 -3.063,2.311 -1.148,0.999 -2.319,2.184 -3.487,3.525 -1.238,1.423 -2.412,2.938 -3.49,4.505 -1.084,1.578 -2.064,3.213 -2.915,4.862 -0.89,1.722 -1.572,3.376 -2.03,4.915 -0.023,0.08 -0.045,0.16 -0.063,0.241 -0.831,2.441 -1.267,4.716 -1.294,6.77 -0.029,2.205 0.303,4.201 0.988,5.933 0.59,1.491 1.379,2.841 2.348,4.02 -0.15,0.024 -0.301,0.052 -0.451,0.082 -1.787,0.36 -3.482,1.105 -5.035,2.214005 -0.036,0.026 -0.072,0.053 -0.107,0.08 l -0.095,0.072 c -0.046,0.036 -0.091,0.072 -0.136,0.109 -1.775,1.486995 -1.793,3.449995 -1.945,5.677995 -0.006,0.078 -0.008,0.157 -0.01,0.235 l 0,0.106 c -0.027,2.037 -0.078,4.069 1.904,6.195 2.58,3.094 5.357,5.214 8.257,6.302 1.868,0.701 3.831,1.058 5.835,1.058 1.177,0 2.387,-0.124 3.596,-0.368 l 0.604,-0.122 c 0.022,-0.004 0.046,-0.009 0.069,-0.015 2.459,-0.54 4.652,-1.407 6.517,-2.578 1.763,-1.106 3.302,-2.349 4.575,-3.691 1.274,-1.34 2.334,-2.76 3.145,-4.216 0.64,-1.147 1.177,-2.245 1.6,-3.269 0.055,-0.104 0.104,-0.209 0.149,-0.318 0.673,-1.617 1.024,-3.211 1.046,-4.738 0.031,-2.461 -0.678,-4.61 -2.108,-6.39 -0.347,-0.431 -0.718,-0.85 -1.113,-1.257 0.852,-0.377 1.608,-0.938 2.229,-1.663 0.548,-0.639 1.057,-1.41 1.55,-2.355 0.044,-0.086 0.086,-0.172 0.124,-0.26 0.438,-1.008 0.859,-2.148 1.293,-3.488 0.402,-1.248 0.787,-2.54 1.144,-3.841 0.361,-1.316 0.679,-2.639 0.944,-3.928 0.256,-1.248 0.461,-2.357 0.609,-3.301 0.029,-0.188 0.045,-0.377 0.047,-0.566 l 0.018,-1.32 c 0.015,-1.278 -0.127,-2.62 -0.423,-3.989 z"
     id="path193"
     inkscape:connector-curvature="0" /><path
     d="M 86.867,63.344 C 86.51,62.008 86.039,60.75 85.468,59.602 84.914,58.493 84.284,57.458 83.596,56.528 82.956,55.669 82.333,54.907 81.741,54.26 81.717,54.235 81.693,54.209 81.669,54.184 80.244,52.713 78.525,51.796 76.56,51.458 75.872,51.34 75.159,51.281 74.434,51.281 c -0.975,0 -2,0.107 -3.049,0.318 -1.654,0.334 -3.394,0.9 -5.171,1.684 -1.646,0.728 -3.317,1.582 -4.972,2.543 -1.645,0.955 -3.238,1.968 -4.738,3.01 -1.477,1.025 -2.874,2.039 -4.15,3.012 -0.027,0.021 -0.055,0.043 -0.082,0.064 -1.171,0.943 -1.938,2.41 -2.731,5.23 -0.526,1.87 -1.071,4.169 -1.62,6.834 -0.538,2.605 -1.091,5.461 -1.645,8.485 -0.55,3.013 -1.094,5.922 -1.626,8.729 -0.521,2.744 -1.03,5.248 -1.517,7.442 -0.576,2.58801 -0.97,3.68701 -1.153,4.11101 -0.066,0.154 -0.124,0.312 -0.17,0.474 -0.379,1.308 -0.562,2.348 -0.572,3.273 -0.022,1.776 0.405,3.293 1.271,4.505 0.758,1.064 1.757,1.898 2.965,2.473 0.898,0.43 1.931,0.752 3.059,0.951 l 0.453,0.08 1.845,0.327 c 0.151,0.026 0.304,0.045 0.458,0.054 0.176,0.011 0.352,0.017 0.529,0.017 0.586,0 1.179,-0.061 1.762,-0.179 2.055,-0.412 3.25,-1.505 3.891,-2.348 0.569,-0.751 1.057,-1.675 1.494,-2.828 0.068,-0.182 0.125,-0.368 0.166,-0.558 0.463,-2.101 0.976,-4.266 1.525,-6.436 0.422,-1.664 0.849,-3.355995 1.28,-5.076 1.53,-0.871 3.065,-1.812 4.583,-2.811 2.035,-1.335 4.024,-2.767 5.912,-4.254 1.91,-1.506 3.711,-3.094 5.354,-4.721 1.67,-1.654 3.148,-3.326 4.398,-4.969 0.018,-0.023 0.034,-0.046 0.051,-0.069 1.282,-1.764 2.422,-3.603 3.387,-5.463 1.158,-2.238 1.761,-4.664 1.794,-7.215 0.019,-1.633 -0.164,-3.19 -0.548,-4.626 z"
     id="path195"
     inkscape:connector-curvature="0" /><path
     d="m 118.052,82.165 c -0.084,-4.028 -0.137,-8.016 -0.155,-11.851 -0.021,-3.922 -0.012,-7.625 0.026,-11.008 0.037,-3.301 0.121,-6.197 0.252,-8.615 0.049,-0.405 0.062,-0.817 0.043,-1.227 l -0.013,-0.219 -0.023,-0.412 c -0.105,-1.859 -0.652,-3.393 -1.626,-4.576 -1.125,-1.357 -2.807,-2.154 -5.006,-2.38 -0.105,-0.011 -0.213,-0.017 -0.32,-0.02 l -0.844,-0.019 c -1.18,-0.1 -2.518,-0.15 -3.979,-0.15 -0.226,0 -0.456,10e-4 -0.69,0.003 -2.041,0.022 -4.395,0.405 -7.197,1.17 -2.205,0.603 -3.986,1.648 -5.301,3.11 -1.044,1.16 -1.937,2.503 -2.649,3.989 -1.481,3.139 -3.094,6.79 -4.806,10.878 -1.703,4.062 -3.424,8.299 -5.113,12.588 -1.691,4.295 -3.318,8.553 -4.837,12.658 -1.53,4.14 -2.841,7.868 -3.894,11.081 -0.011,0.033 -0.021,0.066 -0.031,0.1 -0.279,0.934 -0.459,1.750005 -0.55,2.498005 -0.087,0.737995 -0.114,1.434995 -0.081,2.078995 0.082,1.437 0.557,2.732 1.375,3.768 0.613,0.777 1.377,1.44 2.27,1.966 0.731,0.431 1.543,0.786 2.414,1.06 0.672,0.21 1.34,0.398 1.986,0.559 l 0.658,0.164 c 0.098,0.025 0.197,0.046 0.297,0.062 0.518,0.088 1.031,0.133 1.529,0.133 0.719,0 1.42,-0.093 2.085,-0.274 1.138,-0.31 2.774,-1.134 4.073,-3.293 0.604,-1.005 1.188,-2.208 1.736,-3.577 0.498,-1.24 0.992,-2.606995 1.469,-4.062 0.256,-0.781 0.524,-1.541 0.805,-2.272 1.353,-0.709 2.871,-1.441 4.533,-2.185 0.631,-0.282 1.27,-0.567 1.914,-0.853 0.066,0.724 0.137,1.41 0.211,2.058 0.246,2.341 0.838,3.996005 1.859,5.166 1.153,1.33 2.867,2.087 5.086,2.239 0.079,0.006 0.159,0.009 0.238,0.01 0.467,0.054 0.931,0.081 1.387,0.081 0.681,0 1.358,-0.061 2.014,-0.181 0.969,-0.178 2.014,-0.419 3.109,-0.719 2.257,-0.613 3.824,-1.577 4.787,-2.943 0.936,-1.329 1.336,-3.005 1.226,-5.124 -0.095,-3.619 -0.185,-7.44 -0.267,-11.46 z"
     id="path197"
     inkscape:connector-curvature="0" /><g
     id="g203"
     transform="translate(-19.843,-62.404)"><path
       d="m 226.451,150.197 c 0,0 3.016,11.738 12.945,1.891 0,0 -2.009,4.032 -7.241,4.894 0,-0.001 -5.489,0.078 -5.704,-6.785 z"
       id="path205"
       inkscape:connector-curvature="0" /></g><g
     id="g207"
     transform="translate(-19.843,-62.404)"><rect
       x="62.334"
       y="185.254"
       width="157.37199"
       height="22.028999"
       id="rect209"
       style="fill:#ed1c24" /></g><g
     id="g211"
     transform="translate(-19.843,-62.404)"><polygon
       points="65.117,182.471 45.869,182.471 52.008,193.515 45.869,204.645 62.334,204.645 62.334,185.254 "
       id="polygon213"
       style="fill:#c4161c" /></g><g
     id="g215"
     transform="translate(-19.843,-62.404)"><polygon
       points="216.839,182.471 236.086,182.471 229.948,193.515 236.086,204.645 219.621,204.645 219.621,185.254 "
       id="polygon217"
       style="fill:#c4161c" /></g><g
     id="g219"
     transform="translate(-19.843,-62.404)"><g
       id="g221"><path
         d="m 84.001,190.534 0,5.009 2.684,0 0,-5.009 1.545,0 0,11.625 -1.545,0 0,-5.399 -2.684,0 0,5.399 -1.561,0 0,-11.625 1.561,0 z"
         id="path223"
         inkscape:connector-curvature="0"
         style="fill:#ffffff" /></g><g
       id="g225"><path
         d="m 95.674,196.354 c 0,4.058 -0.078,6.007 -3.152,6.007 -3.073,0 -3.244,-2.028 -3.244,-6.007 0,-3.947 0.171,-6.022 3.244,-6.022 3.074,0 3.152,1.997 3.152,6.022 z m -4.774,0 c 0,3.448 0.14,4.774 1.621,4.774 1.468,0 1.514,-1.326 1.514,-4.774 0,-3.433 -0.046,-4.806 -1.514,-4.806 -1.481,0.001 -1.621,1.39 -1.621,4.806 z"
         id="path227"
         inkscape:connector-curvature="0"
         style="fill:#ffffff" /></g><g
       id="g229"><path
         d="m 101.849,192.953 -1.232,0.172 c -0.062,-1.015 -0.171,-1.576 -1.202,-1.576 -1.076,0 -1.248,0.593 -1.248,1.545 0,1.201 0.562,1.731 1.404,2.216 1.249,0.717 2.481,1.357 2.481,3.932 0,1.997 -0.765,3.12 -2.887,3.12 -2.06,0 -2.543,-0.982 -2.699,-3.604 l 1.326,-0.265 c 0.094,1.966 0.343,2.637 1.373,2.637 1.108,0 1.326,-0.655 1.326,-1.95 0,-1.514 -0.608,-2.044 -1.653,-2.684 -1.107,-0.656 -2.154,-1.514 -2.154,-3.448 0,-1.654 0.625,-2.715 2.716,-2.715 2.091,0 2.387,1.153 2.449,2.62 z"
         id="path231"
         inkscape:connector-curvature="0"
         style="fill:#ffffff" /></g><g
       id="g233"><path
         d="m 108.031,190.534 0,1.218 -1.982,0 0,10.407 -1.544,0 0,-10.407 -1.935,0 0,-1.218 5.461,0 z"
         id="path235"
         inkscape:connector-curvature="0"
         style="fill:#ffffff" /></g><g
       id="g237"><path
         d="m 110.367,190.534 0,11.625 -1.545,0 0,-11.625 1.545,0 z"
         id="path239"
         inkscape:connector-curvature="0"
         style="fill:#ffffff" /></g><g
       id="g241"><path
         d="m 111.508,190.534 1.607,0 2.824,8.052 0,-8.052 1.326,0 0,11.625 -1.592,0 -2.84,-8.036 0,8.036 -1.326,0 0,-11.625 z"
         id="path243"
         inkscape:connector-curvature="0"
         style="fill:#ffffff" /></g><g
       id="g245"><path
         d="m 124.289,196.198 0,5.961 -1.14,0 -0.14,-1.108 c -0.281,0.687 -0.844,1.311 -2.139,1.311 -2.496,0 -2.574,-2.371 -2.574,-6.085 0,-3.619 0.078,-5.944 3.105,-5.944 2.715,0 2.777,1.045 2.887,3.636 l -1.279,0.312 c -0.094,-1.95 -0.141,-2.715 -1.545,-2.715 -1.529,0 -1.607,1.576 -1.607,4.712 0,2.918 0.078,4.853 1.373,4.853 0.904,0 1.514,-0.655 1.607,-1.576 l 0,-2.137 -1.451,0 0.203,-1.218 2.7,0 z"
         id="path247"
         inkscape:connector-curvature="0"
         style="fill:#ffffff" /></g><g
       id="g249"><path
         d="m 134.978,196.354 c 0,4.058 -0.078,6.007 -3.151,6.007 -3.074,0 -3.246,-2.028 -3.246,-6.007 0,-3.947 0.172,-6.022 3.246,-6.022 3.072,0 3.151,1.997 3.151,6.022 z m -4.775,0 c 0,3.448 0.141,4.774 1.623,4.774 1.467,0 1.514,-1.326 1.514,-4.774 0,-3.433 -0.047,-4.806 -1.514,-4.806 -1.482,0.001 -1.623,1.39 -1.623,4.806 z"
         id="path251"
         inkscape:connector-curvature="0"
         style="fill:#ffffff" /></g><g
       id="g253"><path
         d="m 136.018,190.534 1.607,0 2.824,8.052 0,-8.052 1.326,0 0,11.625 -1.592,0 -2.84,-8.036 0,8.036 -1.326,0 0,-11.625 z"
         id="path255"
         inkscape:connector-curvature="0"
         style="fill:#ffffff" /></g><g
       id="g257"><path
         d="m 149.936,199.365 -2.169,0 -0.483,2.794 -1.467,0 2.31,-11.625 1.638,0 2.341,11.625 -1.701,0 -0.469,-2.794 z m -2.06,-1.232 1.919,0 -0.936,-5.086 -0.983,5.086 z"
         id="path259"
         inkscape:connector-curvature="0"
         style="fill:#ffffff" /></g><g
       id="g261"><path
         d="m 157.89,192.953 -1.232,0.172 c -0.062,-1.015 -0.172,-1.576 -1.201,-1.576 -1.077,0 -1.249,0.593 -1.249,1.545 0,1.201 0.562,1.731 1.405,2.216 1.247,0.717 2.479,1.357 2.479,3.932 0,1.997 -0.765,3.12 -2.886,3.12 -2.06,0 -2.543,-0.982 -2.699,-3.604 l 1.325,-0.265 c 0.095,1.966 0.344,2.637 1.374,2.637 1.107,0 1.326,-0.655 1.326,-1.95 0,-1.514 -0.608,-2.044 -1.653,-2.684 -1.108,-0.656 -2.153,-1.514 -2.153,-3.448 0,-1.654 0.624,-2.715 2.714,-2.715 2.091,-0.001 2.387,1.153 2.45,2.62 z"
         id="path263"
         inkscape:connector-curvature="0"
         style="fill:#ffffff" /></g><g
       id="g265"><path
         d="m 164.072,190.534 0,1.218 -1.982,0 0,10.407 -1.544,0 0,-10.407 -1.936,0 0,-1.218 5.462,0 z"
         id="path267"
         inkscape:connector-curvature="0"
         style="fill:#ffffff" /></g><g
       id="g269"><path
         d="m 169.325,190.534 0,1.218 -2.918,0 0,3.667 2.45,0 -0.109,1.232 -2.341,0 0,4.321 2.996,0 0,1.187 -4.541,0 0,-11.625 4.463,0 z"
         id="path271"
         inkscape:connector-curvature="0"
         style="fill:#ffffff" /></g><g
       id="g273"><path
         d="m 174.134,202.159 -1.106,-5.212 -1.155,0 0,5.212 -1.545,0 0,-11.625 2.465,0 c 2.591,0 2.966,0.905 2.966,2.98 0,1.747 -0.234,2.934 -1.327,3.245 l 1.42,5.399 -1.718,0 z m -1.138,-6.397 c 1.17,0 1.311,-0.547 1.311,-2.185 0,-1.42 -0.109,-1.903 -1.42,-1.903 l -1.015,0 0,4.088 1.124,0 z"
         id="path275"
         inkscape:connector-curvature="0"
         style="fill:#ffffff" /></g><g
       id="g277"><path
         d="m 182.933,196.354 c 0,4.058 -0.078,6.007 -3.152,6.007 -3.073,0 -3.245,-2.028 -3.245,-6.007 0,-3.947 0.172,-6.022 3.245,-6.022 3.073,0 3.152,1.997 3.152,6.022 z m -4.776,0 c 0,3.448 0.141,4.774 1.623,4.774 1.467,0 1.514,-1.326 1.514,-4.774 0,-3.433 -0.047,-4.806 -1.514,-4.806 -1.482,0.001 -1.623,1.39 -1.623,4.806 z"
         id="path279"
         inkscape:connector-curvature="0"
         style="fill:#ffffff" /></g><g
       id="g281"><path
         d="m 185.536,190.534 0,11.625 -1.544,0 0,-11.625 1.544,0 z"
         id="path283"
         inkscape:connector-curvature="0"
         style="fill:#ffffff" /></g><g
       id="g285"><path
         d="m 189.299,190.534 c 3.37,0 3.636,1.936 3.636,5.82 0,4.244 -0.234,5.805 -3.526,5.805 l -2.716,0 0,-11.625 2.606,0 z m -1.077,1.187 0,9.159 1.218,0 c 1.764,0 1.919,-1.28 1.919,-4.525 0,-3.401 -0.094,-4.634 -2.028,-4.634 l -1.109,0 z"
         id="path287"
         inkscape:connector-curvature="0"
         style="fill:#ffffff" /></g><g
       id="g289"><path
         d="m 199.102,192.953 -1.232,0.172 c -0.062,-1.015 -0.171,-1.576 -1.201,-1.576 -1.076,0 -1.249,0.593 -1.249,1.545 0,1.201 0.562,1.731 1.405,2.216 1.248,0.717 2.48,1.357 2.48,3.932 0,1.997 -0.765,3.12 -2.887,3.12 -2.059,0 -2.543,-0.982 -2.699,-3.604 l 1.326,-0.265 c 0.094,1.966 0.343,2.637 1.373,2.637 1.107,0 1.326,-0.655 1.326,-1.95 0,-1.514 -0.608,-2.044 -1.653,-2.684 -1.108,-0.656 -2.153,-1.514 -2.153,-3.448 0,-1.654 0.624,-2.715 2.715,-2.715 2.091,0 2.386,1.153 2.449,2.62 z"
         id="path291"
         inkscape:connector-curvature="0"
         style="fill:#ffffff" /></g></g><path
     d="m 45.473,30.804 c -0.559,-0.857 -1.399,-1.554 -2.496,-2.065 -0.092,-0.043 -0.186,-0.082 -0.279,-0.117 -0.322,-0.121 -0.668,-0.248 -1.039,-0.38 -0.494,-0.175 -0.991,-0.318 -1.48,-0.431 -0.5,-0.114 -1.011,-0.197 -1.512,-0.246 -0.229,-0.021 -0.446,-0.031 -0.66,-0.031 -0.569,0 -1.13,0.072 -1.664,0.216 -1.135,0.304 -2.155,0.921 -2.952,1.784 -0.501,0.543 -0.893,1.183 -1.173,1.912 -0.806,-0.408 -1.668,-0.688 -2.566,-0.833 -0.449,-0.071 -0.889,-0.107 -1.313,-0.107 -0.639,0 -1.263,0.08 -1.854,0.239 -1.189,0.32 -2.218,0.985 -2.979,1.924 -0.542,0.667 -0.976,1.5 -1.32,2.543 -0.552,1.703 -1.106,3.518 -1.651,5.414 -0.547,1.901 -1.052,3.816 -1.5,5.689 -0.461,1.932 -0.838,3.821 -1.121,5.619 -0.301,1.908 -0.453,3.674 -0.453,5.245 0,1.983 0.251,3.642 0.769,5.073 0.011,0.029 0.022,0.06 0.034,0.089 1.307,3.363 3.582,4.718 5.26,5.261 0.955,0.311 2,0.469 3.1,0.469 1.178,0 2.458,-0.183 3.805,-0.543 1.015,-0.272 1.977,-0.657 2.862,-1.145 0.86,-0.475 1.706,-1.075 2.516,-1.787 0.06,-0.053 0.117,-0.107 0.174,-0.162 1.315,-1.306 2.505,-3.029 3.537,-5.123 0.926,-1.884 1.786,-4.084 2.56,-6.543 0.746,-2.376 1.461,-5.047 2.122,-7.937 0.638,-2.785 1.281,-5.821 1.914,-9.024 0.09,-0.354 0.151,-0.689 0.187,-1.02 0.035,-0.312 0.052,-0.617 0.052,-0.908 -0.006,-1.152 -0.3,-2.187 -0.88,-3.075 z"
     id="path293"
     inkscape:connector-curvature="0" /><path
     d="m 62.553,41.076 c 0.992,-1.244 1.846,-2.613 2.539,-4.07 0.82,-1.723 1.236,-3.5 1.236,-5.282 0,-0.949 -0.105,-1.865 -0.314,-2.723 -0.21,-0.856 -0.5,-1.647 -0.862,-2.367 -0.337,-0.669 -0.729,-1.299 -1.165,-1.87 -0.393,-0.51 -0.795,-0.975 -1.206,-1.396 -0.028,-0.029 -0.056,-0.058 -0.085,-0.086 -0.857,-0.828 -2.387,-1.834 -4.815,-1.924 -0.148,-0.006 -0.3,-0.008 -0.453,-0.008 -1.199,0 -2.47,0.178 -3.776,0.528 -1.023,0.273 -2.105,0.656 -3.213,1.136 -1.055,0.459 -2.102,0.979 -3.112,1.547 -0.991,0.557 -1.975,1.166 -2.921,1.811 -0.972,0.663 -1.859,1.333 -2.641,1.993 -0.772,0.652 -1.27,1.573 -1.391,2.577 -0.201,1.674 -0.475,3.475 -0.812,5.351 -0.345,1.915 -0.713,3.88 -1.096,5.84 -0.382,1.958 -0.758,3.871 -1.131,5.738 -0.385,1.933 -0.701,3.745 -0.941,5.392 -0.038,0.258 -0.076,0.516 -0.107,0.754 -0.052,0.396 -0.078,0.792 -0.078,1.182 0,1.203 0.238,2.22 0.728,3.107 0.212,0.385 0.464,0.773 0.766,1.184 0.021,0.029 0.04,0.06 0.062,0.089 0.787,1.128 1.732,2.005 2.809,2.606 0.672,0.377 1.369,0.686 2.073,0.919 0.579,0.282 1.158,0.48 1.728,0.589 0.336,0.066 0.709,0.103 1.083,0.103 0.539,0 1.093,-0.075 1.646,-0.223 0.879,-0.235 1.819,-0.684 2.874,-1.371 0.037,-0.024 0.074,-0.049 0.109,-0.074 0.732,-0.448 1.501,-0.952 2.29,-1.501 0.89,-0.619 1.794,-1.299 2.687,-2.021 0.914,-0.74 1.795,-1.525 2.619,-2.339 0.891,-0.876 1.678,-1.784 2.342,-2.698 0.043,-0.061 0.085,-0.121 0.125,-0.183 0.846,-1.099 1.516,-2.196 1.996,-3.268 0.623,-1.39 0.939,-2.915 0.939,-4.536 0,-1.416 -0.291,-2.798 -0.863,-4.109 0.086,-0.1 0.171,-0.2 0.256,-0.301 0.024,-0.032 0.05,-0.064 0.075,-0.096 z"
     id="path295"
     inkscape:connector-curvature="0" /><path
     d="m 84.845,20.965 c -0.007,-0.069 -0.016,-0.139 -0.027,-0.207 -0.074,-0.469 -0.168,-0.933 -0.277,-1.379 -0.131,-0.533 -0.334,-1.122 -0.62,-1.806 -0.021,-0.048 -0.04,-0.095 -0.062,-0.142 -0.638,-1.57 -1.644,-2.426 -2.407,-2.873 -0.817,-0.479 -1.736,-0.72 -2.734,-0.72 -0.582,0 -1.195,0.086 -1.825,0.255 l -0.154,0.041 c -0.052,0.014 -0.103,0.029 -0.153,0.045 -1.178,0.366 -2.385,0.807 -3.591,1.309 -1.155,0.482 -2.285,0.982 -3.362,1.488 -1.084,0.508 -2.146,1.033 -3.154,1.561 -0.961,0.5 -1.884,0.996 -2.741,1.473 -0.56,0.311 -1.038,0.752 -1.392,1.285 l -0.395,0.594 c -0.277,0.418 -0.473,0.885 -0.578,1.375 l -5.276,24.645 c -0.013,0.061 -0.024,0.122 -0.035,0.184 -0.097,0.581 -0.146,1.162 -0.146,1.725 0,1.16 0.186,2.156 0.566,3.045 0.38,0.876 0.904,1.636 1.566,2.275 0.055,0.053 0.112,0.105 0.17,0.154 0.282,0.298 0.545,0.562 0.798,0.805 0.439,0.426 0.913,0.813 1.392,1.137 0.78,0.525 1.643,0.861 2.564,1.001 0.293,0.044 0.601,0.067 0.91,0.067 0.607,0 1.244,-0.088 1.895,-0.264 0.561,-0.148 1.166,-0.389 1.833,-0.729 0.128,-0.051 0.255,-0.109 0.38,-0.174 1.266,-0.664 2.576,-1.344 3.933,-2.042 1.367,-0.704 2.701,-1.394 3.999,-2.068 1.07,-0.541 1.86,-1.134 2.451,-1.848 0.832,-1.009 1.252,-2.271 1.252,-3.756 0,-0.999 -0.157,-2.015 -0.467,-3.019 -0.254,-0.827 -0.553,-1.59 -0.887,-2.267 -0.008,-0.015 -0.016,-0.029 -0.022,-0.044 -0.099,-0.221 -0.205,-0.426 -0.317,-0.616 0.697,-0.47 1.295,-1.029 1.775,-1.664 0.759,-0.999 1.16,-2.199 1.16,-3.467 0,-0.364 -0.035,-0.747 -0.109,-1.159 -0.015,-0.16 -0.039,-0.32 -0.074,-0.48 l -0.307,-1.378 c -0.18,-0.79 -0.469,-1.572 -0.864,-2.339 -0.038,-0.072 -0.077,-0.145 -0.119,-0.215 -0.334,-0.637 -0.724,-1.135 -1.128,-1.522 0.809,-0.322 1.607,-0.632 2.383,-0.926 0.03,-0.012 0.061,-0.023 0.091,-0.036 1.358,-0.553 2.355,-1.266 3.048,-2.181 0.778,-1.027 1.174,-2.319 1.174,-3.837 -0.004,-0.445 -0.041,-0.882 -0.117,-1.306 z"
     id="path297"
     inkscape:connector-curvature="0" /><path
     d="m 105.903,17.231 c -0.262,-1.031 -0.614,-1.98 -1.049,-2.83 -0.414,-0.811 -0.888,-1.558 -1.408,-2.222 -0.432,-0.55 -0.861,-1.058 -1.279,-1.513 -0.018,-0.02 -0.035,-0.039 -0.055,-0.058 -1.217,-1.272 -2.766,-2.0539996 -4.477,-2.2609996 -0.397,-0.047 -0.795,-0.07 -1.19,-0.07 -0.93,0 -1.883,0.129 -2.833,0.384 C 92.608,8.93 91.563,9.336 90.507,9.865 c -0.916,0.459 -1.863,0.99 -2.811,1.58 -0.932,0.58 -1.865,1.217 -2.775,1.893 -0.867,0.645 -1.709,1.291 -2.504,1.924 -1.049,0.824 -1.826,2.075 -2.579,4.166 -0.501,1.392 -0.995,3.049 -1.47,4.926 -0.455,1.806 -0.908,3.801 -1.346,5.931 -0.426,2.069 -0.828,4.105 -1.195,6.054 -0.365,1.934 -0.693,3.7 -0.984,5.301 l -0.217,1.188 -0.438,2.409 c -0.008,0.043 -0.015,0.088 -0.021,0.133 -0.091,0.622 -0.136,1.184 -0.136,1.715 0,1.438 0.308,2.617 0.94,3.609 0.667,1.053 1.644,1.848 2.817,2.283 0.729,0.275 1.551,0.438 2.428,0.477 0.41,0.02 0.852,0.043 1.312,0.074 0.17,0.014 0.338,0.021 0.505,0.021 0.543,0 1.081,-0.069 1.601,-0.208 1.297,-0.348 2.381,-1.074 3.141,-2.106 0.541,-0.735 0.927,-1.598 1.18,-2.638 0.006,-0.02 0.01,-0.041 0.016,-0.062 0.085,-0.378 0.173,-0.761 0.262,-1.146 0.01,0.007 0.018,0.014 0.027,0.021 0.604,0.506 1.148,0.93 1.655,1.288 0.124,0.087 0.251,0.167 0.384,0.239 0.973,0.534 1.971,0.854 2.967,0.951 0.264,0.025 0.527,0.038 0.785,0.038 0.654,0 1.298,-0.083 1.911,-0.247 0.56,-0.15 1.089,-0.355 1.577,-0.612 0.119,-0.063 0.236,-0.127 0.354,-0.19 0.001,0 0.001,0 0.001,0 0.452,-0.188 0.92,-0.457 1.473,-0.847 0.456,-0.319 0.91,-0.693 1.347,-1.106 0.552,-0.52 1.039,-1.12 1.441,-1.778 0.607,-0.995 0.914,-2.058 0.914,-3.159 0,-1.718 -0.754,-3.291 -2.126,-4.432 -0.079,-0.066 -0.16,-0.129 -0.243,-0.188 -0.275,-0.254 -0.572,-0.539 -0.883,-0.851 -0.455,-0.456 -0.923,-0.946 -1.389,-1.457 -0.078,-0.084 -0.154,-0.169 -0.232,-0.253 1.141,-1.084 2.186,-2.171 3.127,-3.252 1.775,-2.037 3.126,-4.146 4.021,-6.275 0.069,-0.137 0.132,-0.277 0.186,-0.424 0.233,-0.633 0.419,-1.271 0.552,-1.902 0.15,-0.718 0.226,-1.481 0.226,-2.275 -0.004,-1.232 -0.138,-2.392 -0.405,-3.447 z"
     id="path299"
     inkscape:connector-curvature="0" /><g
     id="g301"
     transform="matrix(1.2304918,0,0,1.1044829,-32.018193,-75.611851)"><g
       id="g303"><path
         d="m 41.393,119.583 c 0,-1.37 0.135,-2.911 0.405,-4.622 0.27,-1.712 0.624,-3.481 1.061,-5.312 0.438,-1.83 0.923,-3.669 1.453,-5.514 0.53,-1.846 1.065,-3.6 1.605,-5.266 0.187,-0.562 0.396,-0.99 0.628,-1.276 0.233,-0.287 0.535,-0.48 0.908,-0.581 0.447,-0.119 0.945,-0.135 1.494,-0.047 0.549,0.09 1.066,0.267 1.55,0.533 0.484,0.266 0.895,0.611 1.229,1.035 0.335,0.425 0.502,0.916 0.502,1.473 0,0.406 -0.083,0.868 -0.25,1.384 l 0.027,-0.04 c -0.43,1.336 -0.88,2.823 -1.354,4.459 -0.476,1.639 -0.922,3.279 -1.341,4.922 -0.419,1.645 -0.764,3.191 -1.033,4.646 -0.271,1.454 -0.405,2.652 -0.405,3.594 0,0.493 0.037,0.879 0.111,1.159 0.075,0.28 0.206,0.395 0.392,0.345 0.41,-0.109 0.842,-0.616 1.299,-1.521 0.456,-0.903 0.912,-2.06 1.367,-3.468 0.457,-1.406 0.913,-2.979 1.369,-4.719 0.457,-1.74 0.891,-3.5 1.299,-5.279 0.41,-1.78 0.787,-3.499 1.131,-5.154 0.345,-1.656 0.639,-3.105 0.88,-4.349 l -0.027,0.072 c 0.093,-0.624 0.284,-1.094 0.572,-1.407 0.288,-0.312 0.638,-0.523 1.048,-0.633 0.279,-0.075 0.582,-0.098 0.907,-0.066 0.325,0.032 0.661,0.085 1.005,0.164 0.345,0.078 0.689,0.18 1.034,0.301 0.345,0.122 0.665,0.24 0.964,0.353 0.408,0.19 0.688,0.399 0.837,0.627 0.149,0.228 0.224,0.523 0.224,0.888 0,0.149 -0.01,0.307 -0.027,0.474 -0.019,0.165 -0.056,0.352 -0.112,0.56 -0.633,3.211 -1.271,6.221 -1.913,9.027 -0.642,2.807 -1.322,5.35 -2.039,7.629 -0.717,2.281 -1.494,4.271 -2.331,5.975 -0.839,1.702 -1.761,3.053 -2.766,4.05 -0.596,0.524 -1.196,0.952 -1.802,1.286 -0.604,0.332 -1.261,0.595 -1.969,0.785 -1.844,0.493 -3.389,0.538 -4.637,0.133 -1.247,-0.404 -2.168,-1.373 -2.764,-2.905 -0.354,-0.978 -0.531,-2.215 -0.531,-3.715 z"
         id="path305"
         inkscape:connector-curvature="0"
         style="fill:#ffffff" /></g><g
       id="g307"><path
         d="m 78.256,102.273 c -0.373,0.43 -0.78,0.869 -1.221,1.317 0.594,0.415 1.072,1.03 1.438,1.847 0.362,0.816 0.545,1.666 0.545,2.547 0,1.057 -0.196,2.024 -0.589,2.9 -0.394,0.877 -0.972,1.791 -1.737,2.744 l 0.028,-0.007 c -0.536,0.739 -1.173,1.472 -1.911,2.198 -0.736,0.727 -1.513,1.418 -2.326,2.078 -0.814,0.657 -1.633,1.274 -2.457,1.848 -0.823,0.572 -1.6,1.076 -2.326,1.516 l 0.028,-0.009 c -0.688,0.449 -1.265,0.735 -1.723,0.858 -0.346,0.092 -0.661,0.111 -0.948,0.055 -0.287,-0.055 -0.604,-0.179 -0.948,-0.373 -0.556,-0.158 -1.106,-0.393 -1.651,-0.697 -0.546,-0.305 -1.039,-0.773 -1.48,-1.404 l 0.029,0.025 c -0.269,-0.348 -0.479,-0.66 -0.632,-0.938 -0.153,-0.278 -0.23,-0.671 -0.23,-1.178 0,-0.22 0.015,-0.438 0.043,-0.656 0.028,-0.217 0.063,-0.451 0.101,-0.704 0.23,-1.582 0.532,-3.31 0.904,-5.183 0.375,-1.873 0.752,-3.792 1.136,-5.757 0.383,-1.964 0.752,-3.93 1.106,-5.897 0.354,-1.967 0.636,-3.827 0.848,-5.58 0.688,-0.582 1.459,-1.162 2.312,-1.744 0.852,-0.58 1.727,-1.123 2.627,-1.629 0.901,-0.506 1.815,-0.959 2.744,-1.363 0.928,-0.402 1.814,-0.717 2.658,-0.942 1.092,-0.293 2.106,-0.421 3.045,-0.386 0.938,0.034 1.666,0.303 2.183,0.802 0.307,0.315 0.604,0.659 0.892,1.033 0.285,0.375 0.545,0.791 0.774,1.246 0.23,0.456 0.412,0.96 0.546,1.507 0.134,0.548 0.201,1.141 0.201,1.78 0,1.189 -0.283,2.378 -0.848,3.563 -0.564,1.188 -1.25,2.285 -2.054,3.294 -0.365,0.429 -0.733,0.858 -1.107,1.289 z m -10.356,7.5 c -0.191,0.822 -0.379,1.601 -0.561,2.331 -0.182,0.731 -0.369,1.476 -0.561,2.231 0.805,-0.502 1.537,-1.022 2.197,-1.563 0.661,-0.54 1.227,-1.061 1.695,-1.562 0.47,-0.5 0.838,-0.973 1.106,-1.419 0.268,-0.446 0.402,-0.835 0.402,-1.165 -0.038,-0.166 -0.192,-0.269 -0.46,-0.307 -0.268,-0.039 -0.65,0.01 -1.148,0.143 -0.726,0.196 -1.617,0.634 -2.67,1.311 z m 1.982,-7.734 c 0.919,-0.666 1.753,-1.356 2.5,-2.074 0.747,-0.719 1.384,-1.401 1.909,-2.049 0.527,-0.647 0.93,-1.229 1.207,-1.744 0.277,-0.515 0.418,-0.916 0.418,-1.203 0,-0.176 -0.327,-0.176 -0.978,-0.002 -0.46,0.123 -1.005,0.357 -1.638,0.703 -0.632,0.346 -1.322,0.806 -2.068,1.381 -0.191,0.646 -0.378,1.318 -0.561,2.018 -0.182,0.698 -0.368,1.425 -0.56,2.182 -0.095,0.29 -0.172,0.552 -0.229,0.788 z"
         id="path309"
         inkscape:connector-curvature="0"
         style="fill:#ffffff" /></g><g
       id="g311"><path
         d="m 85.61,85.911 c 0.809,-0.448 1.692,-0.925 2.653,-1.426 0.96,-0.501 1.961,-0.997 3.002,-1.484 1.041,-0.489 2.107,-0.96 3.199,-1.415 1.092,-0.455 2.174,-0.85 3.244,-1.184 l 0.152,-0.041 c 0.646,-0.174 1.146,-0.155 1.5,0.052 0.354,0.207 0.622,0.589 0.805,1.145 l 0,-0.034 c 0.201,0.48 0.344,0.885 0.424,1.211 0.08,0.328 0.152,0.681 0.213,1.059 l -0.03,-0.026 c 0.081,0.281 0.121,0.585 0.121,0.909 0,0.628 -0.121,1.104 -0.364,1.424 -0.243,0.32 -0.697,0.617 -1.365,0.889 -1.051,0.398 -2.132,0.821 -3.244,1.271 -1.111,0.449 -2.295,0.945 -3.547,1.49 -0.243,0.832 -0.496,1.732 -0.759,2.697 -0.263,0.965 -0.536,1.928 -0.818,2.888 0.868,-0.349 1.748,-0.653 2.638,-0.917 l 0.213,-0.057 c 0.586,-0.157 1.05,-0.176 1.395,-0.059 0.343,0.117 0.626,0.437 0.849,0.959 l 0,-0.035 c 0.242,0.469 0.414,0.93 0.517,1.378 0.1,0.45 0.201,0.905 0.303,1.366 L 96.68,97.944 c 0.081,0.328 0.122,0.597 0.122,0.806 0,0.396 -0.117,0.747 -0.349,1.052 -0.232,0.309 -0.537,0.58 -0.91,0.82 -0.375,0.24 -0.809,0.467 -1.304,0.68 -0.495,0.215 -1.006,0.439 -1.531,0.673 l 0.03,-0.008 c -0.768,0.392 -1.516,0.761 -2.244,1.106 -0.728,0.348 -1.445,0.707 -2.152,1.083 -0.162,0.509 -0.324,1.058 -0.485,1.647 -0.161,0.589 -0.263,1.1 -0.303,1.528 0.768,-0.368 1.562,-0.731 2.38,-1.091 0.818,-0.36 1.683,-0.66 2.592,-0.904 0.546,-0.146 0.986,-0.142 1.32,0.014 0.333,0.154 0.59,0.486 0.772,0.996 l 0,-0.035 c 0.243,0.492 0.46,1.051 0.651,1.674 0.192,0.623 0.289,1.236 0.289,1.841 0,0.535 -0.112,0.938 -0.334,1.206 -0.223,0.27 -0.627,0.551 -1.213,0.848 -1.293,0.673 -2.623,1.36 -3.987,2.062 -1.364,0.703 -2.685,1.387 -3.958,2.055 l 0.031,-0.043 c -0.566,0.313 -1.041,0.523 -1.426,0.626 -0.444,0.12 -0.834,0.154 -1.168,0.104 -0.332,-0.05 -0.641,-0.171 -0.924,-0.362 -0.283,-0.191 -0.572,-0.428 -0.864,-0.711 -0.294,-0.281 -0.611,-0.608 -0.955,-0.981 l 0,0.034 c -0.282,-0.272 -0.505,-0.598 -0.667,-0.972 -0.161,-0.376 -0.243,-0.864 -0.243,-1.47 0,-0.349 0.03,-0.705 0.091,-1.07 l 5.277,-24.646 0.392,-0.595 z"
         id="path313"
         inkscape:connector-curvature="0"
         style="fill:#ffffff" /></g><g
       id="g315"><path
         d="m 110.756,106.741 c -0.52,-0.434 -1.053,-0.917 -1.602,-1.45 -0.551,-0.532 -1.096,-1.096 -1.635,-1.692 -0.539,-0.595 -1.048,-1.21 -1.525,-1.847 -0.352,1.455 -0.695,2.859 -1.027,4.213 -0.331,1.355 -0.653,2.719 -0.964,4.09 -0.124,0.511 -0.296,0.914 -0.514,1.211 -0.218,0.297 -0.534,0.502 -0.948,0.613 -0.25,0.066 -0.51,0.088 -0.779,0.064 -0.498,-0.034 -0.975,-0.061 -1.432,-0.082 -0.457,-0.021 -0.861,-0.097 -1.213,-0.229 -0.354,-0.132 -0.633,-0.36 -0.84,-0.688 -0.208,-0.325 -0.312,-0.811 -0.312,-1.455 0,-0.334 0.031,-0.712 0.094,-1.135 0.146,-0.803 0.363,-2 0.654,-3.594 0.289,-1.594 0.616,-3.352 0.979,-5.275 0.363,-1.922 0.757,-3.918 1.183,-5.99 0.426,-2.07 0.861,-3.99 1.307,-5.756 0.446,-1.766 0.898,-3.283 1.354,-4.551 0.456,-1.268 0.892,-2.064 1.307,-2.391 0.768,-0.611 1.566,-1.225 2.396,-1.842 0.829,-0.616 1.665,-1.186 2.505,-1.709 0.841,-0.523 1.67,-0.99 2.49,-1.4 0.819,-0.411 1.604,-0.717 2.35,-0.917 0.871,-0.233 1.707,-0.302 2.506,-0.206 0.798,0.097 1.488,0.449 2.068,1.057 0.354,0.383 0.711,0.807 1.074,1.27 0.363,0.463 0.695,0.989 0.996,1.576 0.301,0.589 0.544,1.251 0.731,1.988 0.187,0.737 0.28,1.561 0.28,2.467 0,0.525 -0.047,1.01 -0.141,1.451 -0.093,0.443 -0.223,0.891 -0.389,1.34 l 0,-0.036 c -0.727,1.842 -1.883,3.672 -3.471,5.495 -1.586,1.82 -3.48,3.646 -5.68,5.477 0.416,0.533 0.866,1.088 1.354,1.66 0.486,0.574 0.984,1.139 1.493,1.693 0.509,0.557 1.012,1.084 1.51,1.583 0.498,0.499 0.965,0.94 1.4,1.325 l 0,-0.036 c 0.456,0.379 0.685,0.831 0.685,1.356 0,0.357 -0.108,0.715 -0.326,1.072 -0.219,0.357 -0.478,0.676 -0.778,0.959 -0.301,0.285 -0.602,0.532 -0.902,0.744 -0.302,0.212 -0.535,0.352 -0.701,0.42 l 0.031,-0.044 c -0.248,0.138 -0.487,0.268 -0.715,0.39 -0.229,0.119 -0.479,0.216 -0.747,0.288 -0.396,0.105 -0.819,0.136 -1.276,0.092 -0.457,-0.044 -0.934,-0.204 -1.432,-0.477 -0.413,-0.294 -0.88,-0.657 -1.398,-1.092 z m 1.805,-23.197 c -0.602,0.292 -1.234,0.694 -1.897,1.206 -0.291,0.914 -0.575,1.879 -0.856,2.896 -0.279,1.019 -0.576,2.094 -0.887,3.227 l 0,-0.035 c -0.041,0.154 -0.083,0.309 -0.125,0.463 -0.041,0.154 -0.083,0.32 -0.124,0.498 1.058,-0.809 2.017,-1.65 2.879,-2.525 0.86,-0.875 1.587,-1.715 2.179,-2.518 0.591,-0.803 1.047,-1.532 1.369,-2.191 0.321,-0.659 0.482,-1.168 0.482,-1.525 l 0,-0.036 c -0.104,-0.282 -0.571,-0.312 -1.4,-0.09 -0.479,0.127 -1.019,0.338 -1.62,0.63 z"
         id="path317"
         inkscape:connector-curvature="0"
         style="fill:#ffffff" /></g></g><g
     id="g319"
     transform="matrix(1.2304918,0,0,1.1044829,-32.018193,-75.611851)"><path
       d="m 35.272,165.562 c 1.094,-0.782 2.261,-1.298 3.502,-1.548 0.807,-0.163 1.565,-0.203 2.276,-0.119 0.709,0.087 1.342,0.317 1.894,0.698 1.627,1.039 3.104,1.768 4.429,2.185 1.324,0.416 2.469,0.526 3.43,0.332 0.713,-0.144 1.275,-0.431 1.682,-0.865 -0.057,-0.409 -0.527,-0.945 -1.417,-1.607 -0.89,-0.663 -1.932,-1.382 -3.128,-2.157 -1.104,-0.725 -2.193,-1.451 -3.268,-2.182 -1.073,-0.73 -2.029,-1.563 -2.867,-2.5 -0.84,-0.936 -1.506,-2.029 -2,-3.279 -0.494,-1.25 -0.73,-2.72 -0.708,-4.408 0.023,-1.758 0.436,-3.752 1.239,-5.984 l -0.047,0.062 c 0.389,-1.306 0.971,-2.711 1.75,-4.221 0.777,-1.506 1.664,-2.983 2.656,-4.429 0.994,-1.444 2.064,-2.828 3.213,-4.147 1.146,-1.318 2.268,-2.438 3.361,-3.361 l -0.093,0.071 c 0.565,-0.604 1.308,-1.167 2.228,-1.687 0.92,-0.518 1.922,-0.887 3.009,-1.106 0.743,-0.149 1.573,-0.186 2.484,-0.106 0.911,0.078 1.838,0.252 2.778,0.518 0.941,0.267 1.842,0.628 2.701,1.085 0.859,0.458 1.598,0.978 2.209,1.554 0.947,0.896 1.537,1.883 1.771,2.958 0.233,1.077 0.345,2.105 0.331,3.09 l -0.018,1.319 c -0.136,0.867 -0.326,1.908 -0.574,3.114 -0.248,1.208 -0.543,2.434 -0.885,3.677 -0.341,1.245 -0.705,2.468 -1.092,3.667 -0.389,1.201 -0.773,2.243 -1.156,3.127 -0.349,0.668 -0.697,1.202 -1.042,1.604 -0.346,0.403 -0.781,0.658 -1.31,0.765 -0.435,0.088 -0.945,0.051 -1.529,-0.113 l 0.045,0.045 c -3.857,-0.871 -5.766,-2.816 -5.727,-5.842 0.005,-0.352 0.098,-0.906 0.278,-1.662 0.179,-0.754 0.384,-1.576 0.612,-2.465 0.228,-0.888 0.448,-1.782 0.662,-2.685 0.212,-0.902 0.354,-1.658 0.424,-2.27 -0.031,0.043 -0.062,0.066 -0.094,0.072 l -0.047,0.062 c -0.562,0.43 -1.189,1.064 -1.881,1.905 -0.694,0.841 -1.347,1.771 -1.965,2.79 -0.616,1.018 -1.135,2.089 -1.551,3.207 -0.418,1.118 -0.631,2.171 -0.645,3.155 -0.015,1.091 0.268,1.963 0.848,2.615 l 10e-4,-0.052 c 1.099,1.147 2.339,2.151 3.72,3.013 1.381,0.859 2.677,1.731 3.889,2.609 1.211,0.878 2.234,1.837 3.072,2.878 0.837,1.041 1.246,2.317 1.227,3.829 -0.014,1.021 -0.26,2.105 -0.739,3.255 l 0,-0.053 c -0.384,0.989 -0.901,2.067 -1.551,3.231 -0.649,1.166 -1.501,2.303 -2.552,3.409 -1.051,1.107 -2.318,2.125 -3.8,3.056 -1.483,0.932 -3.232,1.617 -5.249,2.061 l -0.606,0.121 c -2.544,0.514 -4.956,0.343 -7.233,-0.514 -2.28,-0.854 -4.5,-2.59 -6.664,-5.205 -1.281,-1.354 -1.916,-2.524 -1.903,-3.51 l 10e-4,-0.105 c 0.078,-1.138 0.586,-2.1 1.523,-2.886 l 0.096,-0.071 z"
       id="path321"
       inkscape:connector-curvature="0"
       style="fill:#ffffff" /></g><g
     id="g323"
     transform="matrix(1.2304918,0,0,1.1044829,-32.018193,-75.611851)"><path
       d="m 94.28,145.54 c -1.546,1.529 -3.216,3.002 -5.015,4.42 -1.799,1.418 -3.677,2.77 -5.633,4.053 -1.959,1.287 -3.906,2.452 -5.844,3.497 -0.575,2.298 -1.143,4.549 -1.701,6.751 -0.558,2.203 -1.076,4.388 -1.553,6.557 -0.299,0.788 -0.613,1.396 -0.939,1.825 -0.325,0.429 -0.826,0.712 -1.502,0.849 -0.418,0.085 -0.836,0.114 -1.252,0.09 -0.768,-0.137 -1.536,-0.272 -2.303,-0.408 -0.769,-0.137 -1.448,-0.344 -2.037,-0.626 -0.59,-0.279 -1.064,-0.675 -1.428,-1.184 -0.362,-0.508 -0.537,-1.219 -0.525,-2.13 0.007,-0.547 0.146,-1.284 0.415,-2.21 0.429,-0.994 0.891,-2.605 1.386,-4.832 0.494,-2.227 1.008,-4.748 1.541,-7.563 0.535,-2.816 1.08,-5.733 1.631,-8.754 0.553,-3.02 1.096,-5.819 1.627,-8.397 0.531,-2.578 1.049,-4.766 1.554,-6.557 0.505,-1.793 0.968,-2.859 1.39,-3.199 1.23,-0.938 2.566,-1.908 4.007,-2.907 1.439,-1 2.929,-1.944 4.462,-2.836 1.536,-0.892 3.062,-1.672 4.578,-2.341 1.518,-0.67 2.966,-1.145 4.348,-1.424 1.352,-0.273 2.586,-0.312 3.708,-0.121 1.118,0.192 2.089,0.716 2.913,1.566 0.506,0.552 1.035,1.199 1.587,1.941 0.55,0.744 1.052,1.57 1.506,2.479 0.452,0.908 0.825,1.905 1.115,2.99 0.29,1.087 0.427,2.269 0.411,3.544 -0.025,1.933 -0.475,3.741 -1.346,5.425 -0.875,1.685 -1.896,3.337 -3.072,4.954 -1.145,1.503 -2.487,3.019 -4.029,4.548 z m -11.012,-7.647 c -0.521,1.76 -1.066,3.623 -1.639,5.593 1.715,-1.109 3.238,-2.279 4.57,-3.512 1.33,-1.231 2.443,-2.421 3.341,-3.565 0.896,-1.144 1.585,-2.209 2.063,-3.197 0.477,-0.986 0.721,-1.826 0.729,-2.519 0.002,-0.071 0.019,-0.157 0.052,-0.257 0.034,-0.097 0.01,-0.183 -0.068,-0.258 -0.08,-0.074 -0.256,-0.111 -0.528,-0.111 -0.272,0 -0.697,0.06 -1.276,0.176 -0.74,0.15 -1.61,0.434 -2.609,0.854 -1,0.419 -2.033,0.992 -3.102,1.716 -0.502,1.626 -1.015,3.322 -1.533,5.08 z"
       id="path325"
       inkscape:connector-curvature="0"
       style="fill:#ffffff" /></g><g
     id="g327"
     transform="matrix(1.2304918,0,0,1.1044829,-32.018193,-75.611851)"><path
       d="m 121.379,150.935 -0.169,-1.101 c -2.394,1.036 -4.742,2.067 -7.044,3.097 -2.303,1.03 -4.326,2.033 -6.072,3.006 -0.51,1.209 -0.988,2.497 -1.433,3.858 -0.446,1.365 -0.905,2.637 -1.38,3.817 -0.474,1.182 -0.958,2.183 -1.453,3.006 -0.494,0.823 -1.061,1.322 -1.699,1.495 -0.568,0.156 -1.199,0.174 -1.89,0.058 l -0.657,-0.164 c -0.585,-0.146 -1.172,-0.312 -1.758,-0.496 -0.586,-0.184 -1.111,-0.413 -1.579,-0.688 -0.464,-0.274 -0.852,-0.606 -1.163,-1.001 -0.311,-0.393 -0.482,-0.89 -0.518,-1.493 -0.021,-0.414 -0.003,-0.879 0.059,-1.393 0.061,-0.513 0.198,-1.123 0.41,-1.831 1.045,-3.19 2.326,-6.837 3.844,-10.94 1.517,-4.102 3.119,-8.296 4.807,-12.579 1.687,-4.281 3.381,-8.453 5.082,-12.51 1.698,-4.057 3.273,-7.622 4.723,-10.692 0.549,-1.143 1.219,-2.159 2.019,-3.046 0.796,-0.885 1.922,-1.527 3.378,-1.924 2.449,-0.67 4.51,-1.012 6.186,-1.029 1.674,-0.018 3.145,0.03 4.412,0.143 l 0.975,0.021 c 1.122,0.115 1.896,0.428 2.323,0.943 0.423,0.515 0.663,1.262 0.72,2.241 0.01,0.188 0.023,0.395 0.035,0.62 0.01,0.189 0.004,0.381 -0.021,0.579 l -0.004,-0.058 c -0.145,2.564 -0.234,5.59 -0.273,9.079 -0.04,3.489 -0.047,7.179 -0.027,11.072 0.02,3.893 0.072,7.865 0.156,11.913 0.084,4.048 0.174,7.896 0.269,11.538 0.068,1.205 -0.099,2.091 -0.499,2.659 -0.398,0.568 -1.256,1.032 -2.57,1.39 -0.993,0.271 -1.918,0.485 -2.773,0.642 -0.855,0.157 -1.759,0.155 -2.703,-0.008 l 0.057,0.043 c -1.122,-0.077 -1.903,-0.369 -2.346,-0.879 -0.445,-0.511 -0.742,-1.508 -0.898,-2.995 -0.215,-1.814 -0.389,-3.945 -0.526,-6.393 z m -3.773,-18.552 c -1.098,2.574 -2.2,5.234 -3.308,7.983 1.09,-0.488 2.164,-0.935 3.223,-1.339 1.057,-0.402 2.134,-0.791 3.23,-1.168 -0.014,-2.174 -0.026,-4.33 -0.039,-6.469 -0.012,-2.137 -0.004,-4.242 0.023,-6.313 -0.987,2.297 -2.03,4.732 -3.129,7.306 z"
       id="path329"
       inkscape:connector-curvature="0"
       style="fill:#ffffff" /></g><g
     id="g331"
     transform="matrix(1.2304918,0,0,1.1044829,-32.018193,-75.611851)"><path
       d="m 168.898,136.594 c 0.501,0.402 0.802,0.982 0.899,1.741 0.067,0.532 0.026,1.13 -0.122,1.794 -0.15,0.668 -0.335,1.374 -0.552,2.121 -1.128,3.718 -2.859,7.007 -5.193,9.87 -2.335,2.865 -5.302,4.918 -8.901,6.158 -0.301,0.104 -0.562,0.193 -0.787,0.271 -0.225,0.078 -0.433,0.13 -0.626,0.157 l 0.057,-0.021 c -1.712,0.392 -3.271,0.593 -4.68,0.603 -1.407,0.01 -2.682,-0.007 -3.822,-0.05 l 0.055,-0.02 c -0.582,0.044 -1.199,-0.032 -1.848,-0.225 -0.651,-0.19 -1.286,-0.478 -1.902,-0.86 -0.616,-0.381 -1.185,-0.839 -1.701,-1.373 -0.521,-0.535 -0.937,-1.104 -1.248,-1.711 l 0.015,0.114 c -0.592,-0.944 -1.076,-2.055 -1.454,-3.331 -0.378,-1.274 -0.663,-2.653 -0.854,-4.133 -0.296,-2.314 -0.343,-4.962 -0.138,-7.944 0.206,-2.982 0.65,-6.076 1.336,-9.284 0.684,-3.206 1.588,-6.39 2.71,-9.548 1.122,-3.16 2.44,-6.081 3.957,-8.762 1.515,-2.681 3.224,-5.004 5.125,-6.967 1.901,-1.961 3.978,-3.33 6.227,-4.105 0.188,-0.064 0.375,-0.129 0.563,-0.193 0.225,-0.078 0.433,-0.129 0.625,-0.156 l -0.056,0.02 c 0.952,-0.209 1.949,-0.375 2.99,-0.496 1.041,-0.121 2.053,-0.172 3.034,-0.154 0.979,0.02 1.92,0.102 2.821,0.247 0.899,0.146 1.68,0.362 2.343,0.649 1.693,0.684 2.847,1.594 3.463,2.729 0.615,1.135 1.021,2.479 1.222,4.034 0.107,0.835 0.185,1.749 0.233,2.742 0.048,0.993 0.059,1.991 0.031,2.99 -0.028,1.001 -0.09,1.981 -0.18,2.942 -0.092,0.963 -0.228,1.832 -0.401,2.604 -0.065,0.103 -0.111,0.198 -0.139,0.285 -0.144,0.724 -0.351,1.32 -0.622,1.79 -0.272,0.471 -0.896,0.874 -1.871,1.209 -0.188,0.064 -0.395,0.136 -0.619,0.214 -0.225,0.077 -0.475,0.124 -0.746,0.138 -1.309,0.174 -2.422,0.191 -3.34,0.053 -0.919,-0.14 -1.699,-0.426 -2.341,-0.857 -0.644,-0.434 -1.169,-1.015 -1.575,-1.746 -0.407,-0.73 -0.734,-1.608 -0.982,-2.632 -0.094,-0.72 -0.158,-1.46 -0.196,-2.22 -0.04,-0.76 -0.096,-1.424 -0.168,-1.994 -0.054,-0.416 -0.142,-0.791 -0.263,-1.126 -0.122,-0.335 -0.285,-0.546 -0.491,-0.633 -0.559,0.231 -1.218,1.042 -1.979,2.434 -0.76,1.392 -1.517,3.05 -2.27,4.972 -0.751,1.922 -1.457,3.979 -2.115,6.165 -0.66,2.188 -1.184,4.222 -1.568,6.096 -0.472,2.422 -0.773,4.805 -0.905,7.146 -0.131,2.342 -0.087,4.348 0.127,6.019 0.141,1.1 0.351,1.986 0.634,2.662 0.283,0.676 0.661,1.031 1.135,1.065 l 0.226,-0.079 c 1.161,-0.398 2.855,-2.467 5.077,-6.204 1.622,-2.619 3.65,-4.348 6.088,-5.188 0.524,-0.181 1.065,-0.316 1.621,-0.41 0.555,-0.092 1.146,-0.146 1.77,-0.163 1.012,-0.033 1.769,0.151 2.271,0.551 z"
       id="path333"
       inkscape:connector-curvature="0"
       style="fill:#ffffff" /></g><g
     id="g345"
     transform="translate(-19.843,-62.404)"><path
       d="m 227.841,149.242 c 0,0 3.392,11.635 12.999,1.475 0,0 -1.878,4.094 -7.08,5.121 0,0 -5.486,0.254 -5.919,-6.596 z"
       id="path347"
       inkscape:connector-curvature="0" /></g></svg>