<?xml version="1.0" encoding="utf-8"?>
<!-- Generator: Adobe Illustrator 15.1.0, SVG Export Plug-In . SVG Version: 6.00 Build 0)  -->
<!DOCTYPE svg PUBLIC "-//W3C//DTD SVG 1.1//EN" "http://www.w3.org/Graphics/SVG/1.1/DTD/svg11.dtd">
<svg version="1.1" id="Layer_1" xmlns="http://www.w3.org/2000/svg" xmlns:xlink="http://www.w3.org/1999/xlink" x="0px" y="0px"
	 width="258px" height="152px" viewBox="0 0 258 152" enable-background="new 0 0 258 152" xml:space="preserve">
<polygon points="0,0 0,129.3 119,150.5 238,129.3 238,0 "/>
<polygon fill="#6F7072" points="227.6,0 227.6,119.499 119.1,138.899 10.6,119.499 10.6,0 8.8,0 8.8,119.499 8.8,121.1 
	10.299,121.3 118.8,140.7 119.1,140.7 119.4,140.7 227.9,121.3 229.4,121.1 229.4,119.499 229.4,0 "/>
<g>
	<defs>
		<rect id="SVGID_1_" width="258" height="152"/>
	</defs>
	<clipPath id="SVGID_2_">
		<use xlink:href="#SVGID_1_"  overflow="visible"/>
	</clipPath>
	<path clip-path="url(#SVGID_2_)" fill="#494949" d="M113.647,28.292c0,0.874-0.708,1.582-1.583,1.582
		c-0.873,0-1.582-0.708-1.582-1.582s0.709-1.583,1.582-1.583C112.939,26.709,113.647,27.418,113.647,28.292"/>
	<path clip-path="url(#SVGID_2_)" fill="#494949" d="M112.548,33.54c0,1.441-1.168,2.61-2.61,2.61c-1.441,0-2.61-1.169-2.61-2.61
		s1.169-2.61,2.61-2.61C111.38,30.93,112.548,32.099,112.548,33.54"/>
	<path clip-path="url(#SVGID_2_)" fill="#494949" d="M44.891,76.667c0,2.088-1.693,3.78-3.781,3.78c-2.088,0-3.781-1.692-3.781-3.78
		c0-2.088,1.693-3.781,3.781-3.781C43.198,72.886,44.891,74.579,44.891,76.667"/>
</g>
<g>
	<defs>
		<rect id="SVGID_3_" width="258" height="152"/>
	</defs>
	<clipPath id="SVGID_4_">
		<use xlink:href="#SVGID_3_"  overflow="visible"/>
	</clipPath>
	<path clip-path="url(#SVGID_4_)" d="M45.4,30.8c-0.6-0.9-1.4-1.6-2.5-2.1c-0.1,0-0.2-0.1-0.3-0.1c-0.3-0.1-0.7-0.2-1-0.4
		c-0.5-0.2-1-0.3-1.5-0.4s-1-0.2-1.5-0.2h-0.7c-0.6,0-1.1,0.1-1.7,0.2c-1.1,0.3-2.2,0.9-3,1.8c-0.5,0.5-0.9,1.2-1.2,1.9
		c-0.8-0.4-1.7-0.7-2.6-0.8c-0.4-0.1-0.9-0.1-1.3-0.1c-0.6,0-1.3,0.1-1.9,0.2c-1.2,0.3-2.2,1-3,1.9c-0.5,0.7-1,1.5-1.3,2.5
		c-0.6,1.7-1.1,3.5-1.7,5.4c-0.5,1.9-1.1,3.8-1.5,5.7c-0.5,1.9-0.8,3.8-1.1,5.6c-0.3,1.9-0.5,3.7-0.5,5.2c0,2,0.3,3.6,0.8,5.1v0.1
		c1.3,3.4,3.6,4.7,5.3,5.3c1,0.3,2,0.5,3.1,0.5c1.2,0,2.5-0.2,3.8-0.5c1-0.3,2-0.7,2.9-1.1c0.9-0.5,1.7-1.1,2.5-1.8
		c0.1-0.1,0.1-0.1,0.2-0.2c1.3-1.3,2.5-3,3.5-5.1c0.9-1.9,1.8-4.1,2.6-6.5c0.7-2.4,1.5-5,2.1-7.9c0.6-2.8,1.3-5.8,1.9-9
		c0.1-0.4,0.2-0.7,0.2-1c0-0.3,0.1-0.6,0.1-0.9C46.3,32.8,46,31.7,45.4,30.8"/>
	<path clip-path="url(#SVGID_4_)" d="M62.5,41.1c1-1.2,1.8-2.6,2.5-4.1c0.8-1.7,1.2-3.5,1.2-5.3c0-0.9-0.1-1.9-0.3-2.7
		c-0.2-0.9-0.5-1.6-0.9-2.4c-0.3-0.7-0.7-1.3-1.2-1.9c-0.4-0.5-0.8-1-1.2-1.4l-0.1-0.1c-0.9-0.8-2.4-1.8-4.8-1.9h-0.5
		c-1.2,0-2.5,0.2-3.8,0.5c-1,0.3-2.1,0.7-3.2,1.1c-1.1,0.5-2.1,1-3.1,1.5c-1,0.6-2,1.2-2.9,1.8c-1,0.7-1.9,1.3-2.6,2
		c-0.8,0.7-1.3,1.6-1.4,2.6c-0.2,1.7-0.5,3.5-0.8,5.4c-0.3,1.9-0.7,3.9-1.1,5.8c-0.4,2-0.8,3.9-1.1,5.7c-0.4,1.9-0.7,3.7-0.9,5.4
		c0,0.3-0.1,0.5-0.1,0.8c-0.1,0.4-0.1,0.8-0.1,1.2c0,1.2,0.2,2.2,0.7,3.1c0.2,0.4,0.5,0.8,0.8,1.2c0,0,0,0.1,0.1,0.1
		c0.8,1.1,1.7,2,2.8,2.6c0.7,0.4,1.4,0.7,2.1,0.9c0.6,0.3,1.2,0.5,1.7,0.6c0.3,0.1,0.7,0.1,1.1,0.1c0.5,0,1.1-0.1,1.6-0.2
		c0.9-0.2,1.8-0.7,2.9-1.4c0,0,0.1,0,0.1-0.1c0.7-0.4,1.5-1,2.3-1.5c0.9-0.6,1.8-1.3,2.7-2c0.9-0.7,1.8-1.5,2.6-2.3
		c0.9-0.9,1.7-1.8,2.3-2.7c0-0.1,0.1-0.1,0.1-0.2c0.8-1.1,1.5-2.2,2-3.3c0.6-1.4,0.9-2.9,0.9-4.5c0-1.4-0.3-2.8-0.9-4.1
		C62.3,41.4,62.4,41.3,62.5,41.1C62.5,41.2,62.5,41.1,62.5,41.1"/>
	<path clip-path="url(#SVGID_4_)" d="M84.8,21v-0.2c-0.1-0.5-0.2-0.9-0.3-1.4c-0.1-0.5-0.3-1.1-0.6-1.8c0,0,0-0.1-0.1-0.1
		c-0.6-1.6-1.6-2.4-2.4-2.9c-0.8-0.5-1.7-0.7-2.7-0.7c-0.6,0-1.2,0.1-1.8,0.3h-0.2h-0.2c-1.2,0.4-2.4,0.8-3.6,1.3
		c-1.2,0.5-2.3,1-3.4,1.5c-1.1,0.5-2.1,1-3.2,1.6c-1,0.5-1.9,1-2.7,1.5c-0.6,0.3-1,0.8-1.4,1.3L61.8,22c-0.3,0.4-0.5,0.9-0.6,1.4
		L55.9,48v0.2c-0.1,0.6-0.1,1.2-0.1,1.7c0,1.2,0.2,2.2,0.6,3c0.4,0.9,0.9,1.6,1.6,2.3l0.2,0.2c0.3,0.3,0.5,0.6,0.8,0.8
		c0.4,0.4,0.9,0.8,1.4,1.1c0.8,0.5,1.6,0.9,2.6,1c0.3,0,0.6,0.1,0.9,0.1c0.6,0,1.2-0.1,1.9-0.3c0.6-0.1,1.2-0.4,1.8-0.7
		c0.1-0.1,0.3-0.1,0.4-0.2c1.3-0.7,2.6-1.3,3.9-2c1.4-0.7,2.7-1.4,4-2.1c1.1-0.5,1.9-1.1,2.5-1.8c0.8-1,1.3-2.3,1.3-3.8
		c0-1-0.2-2-0.5-3c-0.3-0.8-0.6-1.6-0.9-2.3c-0.1-0.2-0.2-0.4-0.3-0.6c0.7-0.5,1.3-1,1.8-1.7c0.8-1,1.2-2.2,1.2-3.5
		c0-0.4,0-0.7-0.1-1.2c0-0.2,0-0.3-0.1-0.5l-0.3-1.4c-0.2-0.8-0.5-1.6-0.9-2.3c0-0.1-0.1-0.1-0.1-0.2c-0.3-0.6-0.7-1.1-1.1-1.5
		c0.8-0.3,1.6-0.6,2.4-0.9h0.1c1.4-0.6,2.4-1.3,3-2.2c0.8-1,1.2-2.3,1.2-3.8C84.9,21.9,84.9,21.4,84.8,21"/>
	<path clip-path="url(#SVGID_4_)" d="M105.9,17.3c-0.3-1-0.6-2-1-2.8c-0.4-0.8-0.9-1.6-1.4-2.2c-0.4-0.5-0.9-1.1-1.3-1.5l-0.1-0.1
		c-1.2-1.3-2.8-2.1-4.5-2.3c-0.4,0-0.8-0.1-1.2-0.1c-0.9,0-1.9,0.1-2.8,0.4c-1,0.3-2,0.7-3.1,1.2c-0.9,0.5-1.9,1-2.8,1.6
		c-0.9,0.6-1.9,1.2-2.8,1.9c-0.9,0.6-1.7,1.3-2.5,1.9c-1,0.8-1.8,2.1-2.6,4.2c-0.5,1.4-1,3-1.5,4.9c-0.5,1.8-0.9,3.8-1.3,5.9
		s-0.8,4.1-1.2,6.1c-0.4,1.9-0.7,3.7-1,5.3l-0.2,1.2l-0.4,2.4v0.1C74,46,74,46.6,74,47.1c0,1.4,0.3,2.6,0.9,3.6
		c0.7,1.1,1.6,1.8,2.8,2.3c0.7,0.3,1.6,0.4,2.4,0.5c0.4,0,0.9,0,1.3,0.1h0.5c0.5,0,1.1-0.1,1.6-0.2c1.3-0.3,2.4-1.1,3.1-2.1
		c0.5-0.7,0.9-1.6,1.2-2.6v-0.1c0.1-0.4,0.2-0.8,0.3-1.1c0.6,0.5,1.1,0.9,1.7,1.3c0.1,0.1,0.3,0.2,0.4,0.2c1,0.5,2,0.9,3,1H94
		c0.7,0,1.3-0.1,1.9-0.2c0.6-0.2,1.1-0.4,1.6-0.6c0.1-0.1,0.2-0.1,0.4-0.2c0.5-0.2,0.9-0.5,1.5-0.8c0.5-0.3,0.9-0.7,1.3-1.1
		c0.6-0.5,1-1.1,1.4-1.8c0.6-1,0.9-2.1,0.9-3.2c0-1.7-0.8-3.3-2.1-4.4c-0.1-0.1-0.2-0.1-0.2-0.2c-0.3-0.3-0.6-0.5-0.9-0.9
		c-0.5-0.5-0.9-0.9-1.4-1.5c-0.1-0.1-0.2-0.2-0.2-0.3c1.1-1.1,2.2-2.2,3.1-3.3c1.8-2,3.1-4.1,4-6.3c0.1-0.1,0.1-0.3,0.2-0.4
		c0.2-0.6,0.4-1.3,0.6-1.9c0.2-0.7,0.2-1.5,0.2-2.3C106.3,19.5,106.2,18.3,105.9,17.3"/>
	<path clip-path="url(#SVGID_4_)" fill="#FFFFFF" d="M21.5,57.2c0-1.4,0.1-2.9,0.4-4.6c0.3-1.7,0.6-3.5,1.1-5.3
		c0.4-1.8,0.9-3.7,1.5-5.5c0.5-1.8,1.1-3.6,1.6-5.3c0.2-0.6,0.4-1,0.6-1.3c0.2-0.3,0.5-0.5,0.9-0.6c0.4-0.1,0.9-0.1,1.5,0
		c0.5,0.1,1.1,0.3,1.6,0.5c0.5,0.3,0.9,0.6,1.2,1c0.3,0.4,0.5,0.9,0.5,1.5c0,0.4-0.1,0.9-0.3,1.4c-0.4,1.3-0.9,2.8-1.4,4.5
		c-0.5,1.6-0.9,3.3-1.3,4.9s-0.8,3.2-1,4.6c-0.3,1.5-0.4,2.7-0.4,3.6c0,0.5,0,0.9,0.1,1.2s0.2,0.4,0.4,0.3c0.4-0.1,0.8-0.6,1.3-1.5
		c0.5-0.9,0.9-2.1,1.4-3.5c0.5-1.4,0.9-3,1.4-4.7c0.5-1.7,0.9-3.5,1.3-5.3c0.4-1.8,0.8-3.5,1.1-5.2c0.3-1.7,0.6-3.1,0.9-4.3v0.1
		c0.1-0.6,0.3-1.1,0.6-1.4s0.6-0.5,1-0.6c0.3-0.1,0.6-0.1,0.9-0.1c0.3,0,0.7,0.1,1,0.2c0.3,0.1,0.7,0.2,1,0.3c0.3,0.1,0.7,0.2,1,0.4
		c0.4,0.2,0.7,0.4,0.8,0.6c0.1,0.2,0.2,0.5,0.2,0.9v0.5c0,0.2-0.1,0.4-0.1,0.6c-0.6,3.2-1.3,6.2-1.9,9c-0.6,2.8-1.3,5.4-2,7.6
		c-0.7,2.3-1.5,4.3-2.3,6c-0.8,1.7-1.8,3.1-2.8,4.1c-0.6,0.5-1.2,1-1.8,1.3c-0.6,0.3-1.3,0.6-2,0.8c-1.8,0.5-3.4,0.5-4.6,0.1
		c-1.2-0.4-2.2-1.4-2.8-2.9C21.7,60,21.5,58.7,21.5,57.2"/>
	<path clip-path="url(#SVGID_4_)" fill="#FFFFFF" d="M58.4,39.9c-0.4,0.4-0.8,0.9-1.2,1.3c0.6,0.4,1.1,1,1.4,1.8
		c0.4,0.8,0.5,1.7,0.5,2.5c0,1.1-0.2,2-0.6,2.9s-1,1.8-1.7,2.7c-0.5,0.7-1.2,1.5-1.9,2.2c-0.7,0.7-1.5,1.4-2.3,2.1
		c-0.8,0.7-1.6,1.3-2.5,1.8c-0.8,0.6-1.6,1.1-2.3,1.5c-0.7,0.4-1.3,0.7-1.7,0.9c-0.3,0.1-0.7,0.1-0.9,0.1c-0.3-0.1-0.6-0.2-0.9-0.4
		c-0.6-0.2-1.1-0.4-1.7-0.7c-0.5-0.3-1-0.8-1.5-1.4c-0.3-0.3-0.5-0.7-0.6-0.9c-0.2-0.3-0.2-0.7-0.2-1.2v-0.7c0-0.2,0.1-0.5,0.1-0.7
		c0.2-1.6,0.5-3.3,0.9-5.2c0.4-1.9,0.8-3.8,1.1-5.8c0.4-2,0.8-3.9,1.1-5.9c0.4-2,0.6-3.8,0.8-5.6c0.7-0.6,1.5-1.2,2.3-1.7
		c0.9-0.6,1.7-1.1,2.6-1.6c0.9-0.5,1.8-1,2.7-1.4c0.9-0.4,1.8-0.7,2.7-0.9c1.1-0.3,2.1-0.4,3-0.4s1.7,0.3,2.2,0.8
		c0.3,0.3,0.6,0.7,0.9,1c0.3,0.4,0.5,0.8,0.8,1.2c0.2,0.5,0.4,1,0.5,1.5s0.2,1.1,0.2,1.8c0,1.2-0.3,2.4-0.8,3.6
		c-0.6,1.2-1.3,2.3-2.1,3.3C59.1,39,58.8,39.5,58.4,39.9 M48,47.4c-0.2,0.8-0.4,1.6-0.6,2.3c-0.2,0.7-0.4,1.5-0.6,2.2
		c0.8-0.5,1.5-1,2.2-1.6c0.7-0.5,1.2-1.1,1.7-1.6s0.8-1,1.1-1.4c0.3-0.4,0.4-0.8,0.4-1.2c0-0.2-0.2-0.3-0.5-0.3
		c-0.3,0-0.7,0-1.1,0.1C50,46.3,49.1,46.7,48,47.4 M50,39.7c0.9-0.7,1.8-1.4,2.5-2.1c0.7-0.7,1.4-1.4,1.9-2c0.5-0.6,0.9-1.2,1.2-1.7
		c0.3-0.5,0.4-0.9,0.4-1.2c0-0.2-0.3-0.2-1,0c-0.5,0.1-1,0.4-1.6,0.7c-0.6,0.3-1.3,0.8-2.1,1.4c-0.2,0.6-0.4,1.3-0.6,2
		c-0.2,0.7-0.4,1.4-0.6,2.2C50.1,39.2,50.1,39.4,50,39.7"/>
	<path clip-path="url(#SVGID_4_)" fill="#FFFFFF" d="M65.7,23.5c0.8-0.4,1.7-0.9,2.7-1.4l3-1.5c1-0.5,2.1-1,3.2-1.4
		c1.1-0.5,2.2-0.8,3.2-1.2H78c0.6-0.2,1.1-0.2,1.5,0.1c0.4,0.2,0.6,0.6,0.8,1.1c0.2,0.5,0.3,0.9,0.4,1.2c0.1,0.3,0.2,0.7,0.2,1.1
		C81,21.7,81,22,81,22.3c0,0.6-0.1,1.1-0.4,1.4c-0.2,0.3-0.7,0.6-1.4,0.9c-1.1,0.4-2.1,0.8-3.2,1.3c-1.1,0.4-2.3,0.9-3.5,1.5
		c-0.2,0.8-0.5,1.7-0.8,2.7S71.2,32,70.9,33c0.9-0.3,1.7-0.7,2.6-0.9l0.2-0.1c0.6-0.2,1.1-0.2,1.4-0.1c0.3,0.1,0.6,0.4,0.8,1
		c0.2,0.5,0.4,0.9,0.5,1.4c0.1,0.5,0.2,0.9,0.3,1.4c0.1,0.3,0.1,0.6,0.1,0.8c0,0.4-0.1,0.7-0.3,1.1c-0.2,0.3-0.5,0.6-0.9,0.8
		c-0.4,0.2-0.8,0.5-1.3,0.7s-1,0.4-1.5,0.7c-0.8,0.4-1.5,0.8-2.2,1.1c-0.7,0.3-1.4,0.7-2.2,1.1c-0.2,0.5-0.3,1.1-0.5,1.6
		c-0.2,0.6-0.3,1.1-0.3,1.5c0.8-0.4,1.6-0.7,2.4-1.1c0.8-0.4,1.7-0.7,2.6-0.9c0.5-0.1,1-0.1,1.3,0c0.3,0.2,0.6,0.5,0.8,1
		s0.5,1.1,0.7,1.7c0.2,0.6,0.3,1.2,0.3,1.8c0,0.5-0.1,0.9-0.3,1.2c-0.2,0.3-0.6,0.6-1.2,0.8c-1.3,0.7-2.6,1.4-4,2.1
		c-1.4,0.7-2.7,1.4-4,2.1c-0.6,0.3-1,0.5-1.4,0.6c-0.4,0.1-0.8,0.2-1.2,0.1c-0.3,0-0.6-0.2-0.9-0.4s-0.6-0.4-0.9-0.7
		c-0.3-0.3-0.6-0.6-1-1c-0.3-0.3-0.5-0.6-0.7-1c0-0.4-0.1-0.9-0.1-1.5c0-0.3,0-0.7,0.1-1.1l5.3-24.6L65.7,23.5z"/>
	<path clip-path="url(#SVGID_4_)" fill="#FFFFFF" d="M90.9,44.4c-0.5-0.4-1.1-0.9-1.6-1.5c-0.6-0.5-1.1-1.1-1.6-1.7s-1-1.2-1.5-1.8
		c-0.4,1.5-0.7,2.9-1,4.2c-0.3,1.4-0.7,2.7-1,4.1c-0.1,0.5-0.3,0.9-0.5,1.2c-0.2,0.3-0.5,0.5-0.9,0.6c-0.3,0.1-0.5,0.1-0.8,0.1
		c-0.5,0-1-0.1-1.4-0.1c-0.5,0-0.9-0.1-1.2-0.2c-0.4-0.1-0.6-0.4-0.8-0.7c-0.2-0.3-0.3-0.8-0.3-1.5c0-0.3,0-0.7,0.1-1.1
		c0.1-0.8,0.4-2,0.7-3.6c0.3-1.6,0.6-3.4,1-5.3c0.4-1.9,0.8-3.9,1.2-6c0.4-2.1,0.9-4,1.3-5.8s0.9-3.3,1.4-4.6
		c0.5-1.3,0.9-2.1,1.3-2.4c0.8-0.6,1.6-1.2,2.4-1.8c0.8-0.6,1.7-1.2,2.5-1.7s1.7-1,2.5-1.4s1.6-0.7,2.4-0.9c0.9-0.2,1.7-0.3,2.5-0.2
		c0.8,0.1,1.5,0.4,2.1,1.1c0.4,0.4,0.7,0.8,1.1,1.3s0.7,1,1,1.6c0.3,0.6,0.5,1.3,0.7,2c0.2,0.7,0.3,1.6,0.3,2.5c0,0.5,0,1-0.1,1.5
		c-0.1,0.4-0.2,0.9-0.4,1.3c-0.7,1.8-1.9,3.7-3.5,5.5c-1.6,1.8-3.5,3.6-5.7,5.5c0.4,0.5,0.9,1.1,1.4,1.7s1,1.1,1.5,1.7
		c0.5,0.6,1,1.1,1.5,1.6s1,0.9,1.4,1.3c0.5,0.4,0.7,0.8,0.7,1.4c0,0.4-0.1,0.7-0.3,1.1c-0.2,0.4-0.5,0.7-0.8,1
		c-0.3,0.3-0.6,0.5-0.9,0.7c-0.3,0.2-0.5,0.4-0.7,0.4c-0.2,0.1-0.5,0.3-0.7,0.4s-0.5,0.2-0.7,0.3c-0.4,0.1-0.8,0.1-1.3,0.1
		s-0.9-0.2-1.4-0.5C91.9,45.2,91.4,44.8,90.9,44.4 M92.7,21.2c-0.6,0.3-1.2,0.7-1.9,1.2c-0.3,0.9-0.6,1.9-0.9,2.9
		c-0.3,1-0.6,2.1-0.9,3.2c0,0.2-0.1,0.3-0.1,0.5c0,0.2-0.1,0.3-0.1,0.5c1.1-0.8,2-1.7,2.9-2.5c0.9-0.9,1.6-1.7,2.2-2.5
		c0.6-0.8,1-1.5,1.4-2.2c0.3-0.7,0.5-1.2,0.5-1.5c-0.1-0.3-0.6-0.3-1.4-0.1C93.8,20.7,93.3,20.9,92.7,21.2"/>
</g>
<g>
	<defs>
		<rect id="SVGID_5_" width="258" height="152"/>
	</defs>
	<clipPath id="SVGID_6_">
		<use xlink:href="#SVGID_5_"  overflow="visible"/>
	</clipPath>
	<path clip-path="url(#SVGID_6_)" fill="#494949" d="M76.176,51.54c0,1.788-1.45,3.238-3.238,3.238c-1.788,0-3.238-1.45-3.238-3.238
		s1.45-3.238,3.238-3.238C74.726,48.302,76.176,49.752,76.176,51.54"/>
	<path clip-path="url(#SVGID_6_)" fill="#494949" d="M90.918,62.961c0,2.92-2.367,5.287-5.287,5.287s-5.287-2.367-5.287-5.287
		s2.367-5.287,5.287-5.287S90.918,60.042,90.918,62.961"/>
</g>
<g>
	<defs>
		<rect id="SVGID_7_" width="258" height="152"/>
	</defs>
	<clipPath id="SVGID_8_">
		<use xlink:href="#SVGID_7_"  overflow="visible"/>
	</clipPath>
	<path clip-path="url(#SVGID_8_)" d="M78.821,103.68c-0.168-1.079-0.862-4.784-2.71-7.155c-2.86-3.666-7.53-3.036-11.535-1.839
		c1.021-3.089,2.017-6.174,2.994-9.198c2.041-6.319,4.151-12.853,6.41-19.197c0.123-0.345,0.283-0.692,0.442-1.042
		c0.596-1.325,1.339-2.974,1.138-4.973c-0.448-4.458-5.363-6.087-7.214-6.7c-3.617-1.197-6.684-1.347-9.113-0.444
		c-3.46,1.285-4.764,4.551-5.542,6.503c-4.027,10.084-7.478,20.502-10.609,30.258c-1.317,4.103-2.944,9.35-3.835,13.529
		c-1.476,6.928,3.248,11.112,5.787,13.361c2.292,2.03,4.68,2.673,6.949,2.673c2.274,0,4.428-0.646,6.246-1.19
		c5.974-1.793,11.102-3.617,15.677-5.578l0.261-0.126C77.607,110.709,79.586,108.577,78.821,103.68"/>
	<path clip-path="url(#SVGID_8_)" d="M125.676,47.275c0-1.917,0-5.905-3.89-7.456c-1.822-0.727-3.862-0.652-5.497-0.595
		c-0.374,0.013-0.735,0.027-1.068,0.027c-0.01,0-0.022,0-0.033,0c-6.561,0-11.279,1.862-14.02,5.534
		c-2.086,2.795-3.438,6.015-4.745,9.13c-0.41,0.977-0.814,1.943-1.236,2.872c-2.087,4.601-4.122,9.106-6.074,13.625
		c-4.263,9.874-7.934,18.618-11.22,26.734l-0.06,0.146c-1.267,3.125-3.903,9.627,2.486,13.006c1.974,1.044,3.775,1.561,5.449,1.561
		c0.796,0,1.564-0.117,2.307-0.35c2.186-0.689,3.976-2.364,5.321-4.981c0.674-1.31,1.171-2.841,1.651-4.323
		c0.666-2.052,1.577-4.86,2.708-5.474c2.574-1.394,5.313-2.667,7.975-3.896c0.043,2.399,0.203,4.96,1.004,7.24
		c1.749,4.979,7.144,4.438,8.918,4.259c1.995-0.201,8.066-0.814,8.988-6.521c0.409-2.528,0.309-5.089,0.213-7.567
		c-0.038-0.988-0.077-1.967-0.077-2.915c0-2.717-0.021-5.473-0.042-8.247c-0.08-10.557-0.163-21.473,0.923-31.433L125.676,47.275z"
		/>
	<path clip-path="url(#SVGID_8_)" d="M168.027,54.748c1.516-3.644,1.778-7.782,0.76-11.966c-2.23-9.159-7.428-14.407-14.636-14.777
		c-5.407-0.281-11.273,1.6-17.946,5.742c-0.258,0.16-0.555,0.333-0.871,0.517c-1.552,0.903-3.483,2.028-4.629,3.584
		c-1.143,1.552-1.245,3.457-1.32,4.848c-0.016,0.296-0.03,0.584-0.059,0.853c-0.303,2.895-0.664,5.834-1.101,8.986
		c-0.803,5.778-1.77,12.136-3.044,20.009c-0.509,3.145-1.041,6.503-1.462,9.941c-0.044,0.362-0.098,0.734-0.153,1.111
		c-0.294,2.028-0.66,4.554,0.172,7.043c0.846,2.532,2.789,5.062,5.332,6.94c3.502,2.588,6.273,3.806,8.68,3.805
		c0.114,0,0.229-0.002,0.34-0.008c2.708-0.131,4.901-1.509,6.662-2.617c0.377-0.236,0.746-0.47,1.109-0.68
		c3.064-1.776,5.723-3.548,8.127-5.419c6.337-4.931,9.808-9.915,10.61-15.238c0.551-3.649,0.063-7.548-1.375-10.982
		c-0.454-1.08-0.987-2.1-1.591-3.045c0.053-0.053,0.105-0.107,0.156-0.163C164.08,60.942,166.439,58.561,168.027,54.748"/>
	<path clip-path="url(#SVGID_8_)" fill="#FFFFFF" d="M72.626,109.7c-2.8,1.199-5.6,2.3-8.6,3.3s-5.8,1.899-8.6,2.7h0.1
		c-0.7,0.3-1.3,0.399-1.9,0.5s-1.1,0.101-1.6,0.199c-1.1,0-1.9-0.099-2.5-0.399c-0.6-0.3-1.1-0.699-1.6-1.101V115
		c-0.5-0.4-1-0.9-1.4-1.3s-0.9-0.899-1.5-1.5h0.1c-0.4-0.5-0.9-0.899-1.3-1.399c-0.6-0.601-1.1-1.301-1.4-2.101
		c-0.3-0.801-0.5-1.601-0.4-2.601c0-0.299,0.1-0.6,0.1-0.899c0.1-0.301,0.2-0.7,0.3-1.101c0,0,0,0.101-0.1,0.101
		c0.5-1.801,1-3.899,1.7-6.301c0.7-2.399,1.5-4.899,2.3-7.5c0.9-2.599,1.8-5.399,2.7-8.3c1-2.799,1.9-5.6,2.9-8.3s1.9-5.3,2.8-7.8
		s1.8-4.7,2.6-6.7c0.9-1.9,2.1-3,3.7-3.3c1-0.2,2.2-0.2,3.5,0c1.3,0.2,2.5,0.5,3.7,1c1.2,0.4,2.1,1,2.9,1.6c0.8,0.6,1.2,1.3,1.2,2
		c0,0.3-0.1,0.7-0.1,1c-0.1,0.3-0.2,0.7-0.5,1.2c0,0,0-0.1,0.1-0.1c-0.9,2.4-1.8,5.1-2.9,8.1c-1,3-2.1,6.001-3.1,9.3
		c-1.1,3.201-2.1,6.5-3.2,9.9c-1.1,3.399-2.1,6.6-3.2,9.801c1.7-0.401,3.3-0.901,4.9-1.401c1.6-0.5,3.4-0.899,5.3-1.3
		c1.1-0.2,1.9-0.1,2.6,0.201c0.7,0.299,1.2,0.899,1.7,1.899l-0.1-0.101c0.7,1,1.2,2.201,1.5,3.601c0.3,1.399,0.5,2.601,0.5,3.601
		c0,0.799-0.3,1.399-0.7,1.899C74.826,108.5,73.926,109,72.626,109.7"/>
	<path clip-path="url(#SVGID_8_)" fill="#FFFFFF" d="M108.926,89.1c0-0.399-0.1-0.8-0.1-1.3c-2.5,1.2-5.1,2.3-7.5,3.5
		c-2.5,1.2-4.7,2.3-6.6,3.4c-0.6,1.399-1.2,2.8-1.8,4.399c-0.6,1.601-1.1,3-1.7,4.4c-0.6,1.399-1.2,2.5-1.8,3.399
		c-0.6,0.9-1.3,1.5-2,1.7c-0.6,0.2-1.3,0.2-2.1,0c-0.2-0.099-0.5-0.099-0.7-0.2c-0.6-0.199-1.3-0.399-1.9-0.6s-1.2-0.5-1.7-0.9
		c-0.5-0.3-0.9-0.699-1.2-1.199c-0.3-0.5-0.5-1-0.5-1.7c0-0.5,0.1-1,0.2-1.601c0.1-0.6,0.3-1.3,0.6-2.1c1.4-3.5,3.1-7.6,5-12.2
		c1.9-4.5,3.9-9.099,5.9-13.9c2-4.7,4-9.2,6-13.6c2-4.4,3.7-8.2,5.3-11.5c0.6-1.2,1.3-2.3,2.2-3.3c0.8-1,2-1.7,3.5-2.1
		c2.5-0.8,4.5-1.2,6.2-1.2s3.1,0,4.3,0.1h1c1.1,0.1,1.8,0.5,2.2,1c0.4,0.6,0.6,1.3,0.7,2.4v0.7v0.6v-0.1c-0.2,2.7-0.4,6-0.5,9.8
		c-0.1,3.8-0.2,7.9-0.3,12.2c-0.1,4.4-0.1,8.801-0.1,13.4v13.3c0,1.4-0.2,2.4-0.6,3.102c-0.4,0.599-1.3,1.099-2.7,1.5
		c-1,0.299-2,0.5-2.9,0.599c-0.9,0.101-1.8,0.101-2.8-0.099l0.1,0.099c-1.2-0.099-2-0.5-2.4-1.099c-0.4-0.602-0.7-1.801-0.8-3.5
		C109.126,94.3,109.026,91.899,108.926,89.1 M105.726,68.3c-1.2,2.8-2.5,5.8-3.8,8.8c1.2-0.6,2.3-1.1,3.4-1.5
		c1.1-0.5,2.2-0.9,3.4-1.3c0.1-2.4,0.1-4.8,0.2-7.1c0.1-2.3,0.1-4.6,0.3-6.9C108.126,62.8,107.026,65.5,105.726,68.3"/>
	<path clip-path="url(#SVGID_8_)" fill="#FFFFFF" d="M159.426,61c-0.6,0.7-1.3,1.4-2.1,2.1c1.1,1.2,2.1,2.7,2.9,4.6
		c0.8,1.9,1.199,3.8,1.3,5.7c0.1,2.2-0.101,4.2-0.7,5.8s-1.6,3.3-2.9,4.899h0.101c-0.9,1.3-2,2.5-3.301,3.701
		c-1.3,1.199-2.699,2.299-4.199,3.399s-3,2.101-4.5,3s-3,1.8-4.4,2.5h0.1c-1.3,0.8-2.399,1.199-3.3,1.399
		c-0.7,0.101-1.3,0.101-1.899-0.1c-0.601-0.199-1.2-0.5-1.9-1c-1.1-0.5-2.2-1.101-3.3-1.8c-1.101-0.7-2.101-1.801-3.1-3.2l0.1,0.1
		c-0.6-0.799-1-1.399-1.3-2c-0.3-0.6-0.5-1.399-0.5-2.5V86.2c0-0.5,0.1-0.899,0.2-1.5c0.4-3.301,0.8-6.801,1.5-10.601
		c0.6-3.8,1.2-7.6,1.8-11.6c0.6-3.9,1.199-7.8,1.699-11.6c0.5-3.8,0.9-7.4,1.2-10.8c1.3-1.1,2.7-2.1,4.2-3.1c1.6-1,3.1-1.9,4.8-2.7
		c1.601-0.8,3.3-1.5,4.9-2c1.7-0.5,3.2-0.9,4.8-1c1.9-0.2,3.8,0,5.5,0.4c1.7,0.5,3,1.4,4,2.6c0.6,0.8,1.2,1.6,1.7,2.5
		c0.6,0.9,1.1,1.9,1.5,2.9c0.5,1,0.8,2.2,1.2,3.4c0.3,1.201,0.5,2.4,0.6,3.701c0.1,2.399-0.2,4.699-1.1,6.699
		c-0.9,2.1-2,3.9-3.301,5.5C160.726,59.6,160.126,60.3,159.426,61 M140.826,73.5c-0.3,1.7-0.6,3.2-0.9,4.7l-0.899,4.5
		c1.5-0.899,2.899-1.7,4.1-2.7c1.2-0.9,2.3-1.8,3.1-2.699c0.801-0.901,1.5-1.701,2-2.601c0.5-0.8,0.7-1.6,0.601-2.3
		c-0.101-0.4-0.4-0.6-0.9-0.8c-0.5-0.2-1.2-0.2-2.2-0.1C144.426,71.7,142.726,72.4,140.826,73.5 M143.826,58.2
		c1.7-1.1,3.2-2.2,4.5-3.4s2.4-2.3,3.3-3.4c0.9-1.1,1.6-2.1,2-3c0.5-0.9,0.7-1.7,0.6-2.2c0-0.4-0.6-0.5-1.8-0.4
		c-0.8,0.1-1.8,0.3-2.899,0.8c-1.101,0.5-2.4,1.2-3.7,2.1c-0.3,1.2-0.601,2.5-0.9,3.9c-0.3,1.3-0.6,2.8-0.8,4.2
		C144.126,57.2,143.926,57.7,143.826,58.2"/>
</g>
<g>
	<defs>
		<rect id="SVGID_9_" width="258" height="152"/>
	</defs>
	<clipPath id="SVGID_10_">
		<use xlink:href="#SVGID_9_"  overflow="visible"/>
	</clipPath>
	<path clip-path="url(#SVGID_10_)" fill="#494949" d="M180.845,63.65c0,3.338-2.706,6.045-6.045,6.045
		c-3.338,0-6.045-2.707-6.045-6.045s2.707-6.045,6.045-6.045C178.139,57.605,180.845,60.312,180.845,63.65"/>
	<path clip-path="url(#SVGID_10_)" fill="#494949" d="M173.561,102.165c0,4.526-3.67,8.196-8.197,8.196
		c-4.526,0-8.197-3.67-8.197-8.196s3.671-8.196,8.197-8.196C169.891,93.969,173.561,97.639,173.561,102.165"/>
	<path clip-path="url(#SVGID_10_)" fill="#494949" d="M125.746,112.369c0,3.614-2.931,6.546-6.546,6.546
		c-3.616,0-6.547-2.932-6.547-6.546c0-3.615,2.931-6.548,6.547-6.548C122.814,105.821,125.746,108.754,125.746,112.369"/>
	<path clip-path="url(#SVGID_10_)" fill="#727272" d="M161.4,101.343c0.083-0.667,0.345-1.367,0.806-2.007
		c0.343-0.474,0.755-0.848,1.191-1.135l-0.976-2.134c-0.841,0.333-1.694,0.999-2.366,1.931c-0.647,0.898-1.001,1.874-1.071,2.753
		L161.4,101.343z"/>
	<polygon clip-path="url(#SVGID_10_)" fill="#727272" points="165.597,97.661 165.611,97.665 165.608,97.652 	"/>
	<path clip-path="url(#SVGID_10_)" fill="#727272" d="M172.22,63.05c0.061-0.487,0.252-0.998,0.588-1.464
		c0.25-0.347,0.551-0.62,0.87-0.829l-0.712-1.559c-0.615,0.243-1.238,0.729-1.729,1.411c-0.473,0.655-0.73,1.368-0.782,2.01
		L172.22,63.05z"/>
	<polygon clip-path="url(#SVGID_10_)" fill="#727272" points="175.283,60.362 175.294,60.365 175.292,60.356 	"/>
	<path clip-path="url(#SVGID_10_)" fill="#727272" d="M83.105,62.618c0.05-0.4,0.207-0.82,0.483-1.203
		c0.205-0.285,0.453-0.509,0.715-0.681l-0.585-1.281c-0.505,0.201-1.017,0.6-1.42,1.159c-0.388,0.539-0.6,1.125-0.643,1.652
		L83.105,62.618z"/>
	<polygon clip-path="url(#SVGID_10_)" fill="#727272" points="85.622,60.41 85.631,60.412 85.629,60.405 	"/>
	<path clip-path="url(#SVGID_10_)" fill="#727272" d="M39.221,76.703c0.04-0.317,0.164-0.65,0.383-0.955
		c0.163-0.226,0.359-0.404,0.567-0.54l-0.464-1.015c-0.4,0.158-0.806,0.475-1.126,0.918c-0.307,0.427-0.475,0.892-0.509,1.31
		L39.221,76.703z"/>
	<polygon clip-path="url(#SVGID_10_)" fill="#727272" points="41.216,74.952 41.223,74.954 41.222,74.948 	"/>
	<path clip-path="url(#SVGID_10_)" fill="#494949" d="M38.4,99.335c0,4.595-3.725,8.318-8.319,8.318c-4.596,0-8.32-3.724-8.32-8.318
		c0-4.596,3.724-8.32,8.32-8.32C34.675,91.015,38.4,94.739,38.4,99.335"/>
	<path clip-path="url(#SVGID_10_)" fill="#727272" d="M26.027,98.998c0.097-0.776,0.402-1.592,0.937-2.334
		c0.399-0.554,0.879-0.988,1.387-1.321l-1.135-2.485c-0.979,0.389-1.972,1.163-2.754,2.248c-0.754,1.045-1.164,2.183-1.248,3.205
		L26.027,98.998z"/>
	<path clip-path="url(#SVGID_10_)" fill="#727272" d="M30.911,94.714c0.006,0.001,0.011,0.004,0.017,0.005
		c0-0.005-0.003-0.009-0.003-0.015L30.911,94.714z"/>
	<path clip-path="url(#SVGID_10_)" fill="#727272" d="M115.159,109.106c-0.396,0.551-0.659,1.135-0.803,1.697
		c0.548,0.157,1.001,0.524,1.273,1.011l0.687,0.168c0.071-0.573,0.297-1.176,0.693-1.726c0.295-0.408,0.649-0.729,1.025-0.976
		l-0.839-1.836C116.471,107.732,115.737,108.304,115.159,109.106"/>
</g>
<g>
	<defs>
		<rect id="SVGID_11_" width="258" height="152"/>
	</defs>
	<clipPath id="SVGID_12_">
		<use xlink:href="#SVGID_11_"  overflow="visible"/>
	</clipPath>
	<path clip-path="url(#SVGID_12_)" fill="#727272" d="M199.75,69.2c0-0.734-0.596-1.33-1.33-1.33c-0.29,0-0.544,0.112-0.762,0.269
		c-0.038,0.007-0.071,0.019-0.092,0.041l-0.045,0.051c-0.036,0.033-0.064,0.072-0.098,0.11l-28.032,31.633
		c-0.003,0.003-0.001,0.011-0.003,0.014c-0.206,0.185-0.342,0.446-0.342,0.745c0,0.557,0.452,1.009,1.01,1.009
		c0.322,0,0.597-0.161,0.782-0.396c0.005-0.003,0.018,0,0.021-0.004l28.495-31.198h0.001C199.599,69.903,199.75,69.57,199.75,69.2"
		/>
	<path clip-path="url(#SVGID_12_)" fill="#727272" d="M111.191,31.264l0.85-2.1c0.029-0.067,0.036-0.104,0.028-0.128
		c0.001-0.012,0.014-0.019,0.014-0.032c0-0.186-0.151-0.337-0.338-0.337c-0.092,0-0.174,0.038-0.235,0.097
		c-0.015-0.009-0.029,0.007-0.073,0.105l-1.042,2.107C110.681,31.027,110.946,31.129,111.191,31.264"/>
	<path clip-path="url(#SVGID_12_)" fill="#727272" d="M82.034,59.106L74.01,51.93c-0.006-0.006-0.012-0.011-0.018-0.017l-0.057-0.05
		c-0.023-0.021-0.052-0.027-0.078-0.041c-0.018-0.009-0.033-0.02-0.053-0.027c-0.034-0.012-0.067-0.018-0.103-0.021
		c-0.035-0.006-0.067-0.021-0.104-0.021c-0.318,0-0.576,0.258-0.576,0.577c0,0.176,0.084,0.329,0.209,0.435
		c0.006,0.005,0.007,0.013,0.012,0.019l7.852,7.504C81.353,59.85,81.664,59.452,82.034,59.106"/>
	<path clip-path="url(#SVGID_12_)" fill="#727272" d="M174.8,66.759c-0.442,0-0.806,0.292-0.938,0.69
		c-0.007,0.012-0.019,0.021-0.022,0.034l-8.629,26.493c0.052-0.001,0.102-0.008,0.153-0.008c0.657,0,1.292,0.085,1.904,0.23
		l8.458-26.055c0-0.002-0.001-0.004,0-0.006c0.048-0.117,0.076-0.244,0.076-0.378C175.802,67.208,175.354,66.759,174.8,66.759"/>
	<path clip-path="url(#SVGID_12_)" fill="#727272" d="M113.881,111.943L38.375,99.839c-0.049,0.81-0.212,1.584-0.475,2.314
		l75.679,11.602c0,0,0.087,0.009,0.133,0.009c0.512,0,0.928-0.415,0.928-0.927C114.64,112.383,114.31,112.024,113.881,111.943"/>
	<path clip-path="url(#SVGID_12_)" fill="#727272" d="M95.047,102.206c-0.002,0.008-0.005,0.016-0.007,0.021l17.948,8.081
		c0.189-0.57,0.45-1.106,0.78-1.595l-18.205-8.059C95.378,101.188,95.206,101.72,95.047,102.206"/>
	<path clip-path="url(#SVGID_12_)" fill="#727272" d="M79.381,93.494l-12.598-5.576c-0.15,0.464-0.298,0.924-0.449,1.389
		l12.465,5.611C78.992,94.444,79.187,93.972,79.381,93.494"/>
	<path clip-path="url(#SVGID_12_)" fill="#727272" d="M81.655,64.262c-0.063,0-0.12,0.023-0.18,0.037
		c-0.013,0.001-0.027-0.012-0.04-0.008l-7.475,2.055c-0.221,0.62-0.433,1.248-0.652,1.872l8.626-2.278
		c0.006-0.002,0.009-0.011,0.014-0.012c0.331-0.121,0.569-0.431,0.569-0.804C82.517,64.648,82.132,64.262,81.655,64.262"/>
	<path clip-path="url(#SVGID_12_)" fill="#727272" d="M43.228,76.138c0.053,0,0.099-0.02,0.148-0.03
		c0.007,0.003,0.014,0.009,0.019,0.008l4.656-1.229c0.18-0.521,0.366-1.044,0.549-1.565l-5.495,1.51
		c-0.01,0.003-0.018,0.014-0.027,0.019c-0.289,0.069-0.509,0.318-0.509,0.628C42.568,75.842,42.863,76.138,43.228,76.138"/>
	<path clip-path="url(#SVGID_12_)" fill="#727272" d="M148.922,50.243c-0.394,0.356-0.788,0.71-1.183,1.062l21.568,9.831
		c0.244-0.533,0.562-1.022,0.943-1.458L148.922,50.243z"/>
	<path clip-path="url(#SVGID_12_)" fill="#727272" d="M129.385,42.696c0.018-0.329,0.038-0.688,0.072-1.063l-18.121-8.016
		c-0.243-0.13-0.546-0.038-0.677,0.205c-0.13,0.243-0.038,0.546,0.205,0.677l18.504,8.433
		C129.373,42.853,129.381,42.778,129.385,42.696"/>
	<path clip-path="url(#SVGID_12_)" fill="#727272" d="M42.819,78.718c0.002,0.001,0.003,0.004,0.006,0.005l3.406,1.533
		c0.139-0.417,0.276-0.832,0.417-1.25l-3.273-1.448c-0.005-0.002-0.011-0.001-0.016-0.003c-0.094-0.054-0.197-0.091-0.312-0.091
		c-0.359,0-0.65,0.291-0.65,0.649C42.397,78.392,42.573,78.624,42.819,78.718"/>
	<path clip-path="url(#SVGID_12_)" fill="#727272" d="M87.049,43.803l-11.667,5.635c0.251,0.291,0.451,0.623,0.586,0.99
		l11.916-5.815L87.049,43.803z"/>
	<path clip-path="url(#SVGID_12_)" fill="#727272" d="M108.762,33.869c-0.12-0.248-0.418-0.352-0.668-0.231l-8.95,4.322l0.778,0.778
		l8.609-4.201C108.779,34.417,108.883,34.118,108.762,33.869"/>
</g>
<rect x="42.7" y="122.9" fill="#E1001A" width="157" height="22"/>
<polygon fill="#BF0418" points="42.7,122.9 45.5,120.1 26.2,120.1 32.3,131.2 26.2,142.3 42.7,142.3 "/>
<polygon fill="#BF0418" points="199.7,122.9 196.9,120.1 216.1,120.1 210,131.2 216.1,142.3 199.7,142.3 "/>
<rect x="56.066" y="127.493" fill="#FFFFFF" width="1.86" height="13.343"/>
<polygon fill="#FFFFFF" points="60.887,129.233 59.146,129.233 59.146,127.493 64.568,127.493 64.568,129.233 62.747,129.233 
	62.747,140.836 60.887,140.836 "/>
<polygon fill="#FFFFFF" points="67.706,127.493 67.706,129.493 66.865,131.853 65.846,131.853 66.525,129.493 65.846,129.493 
	65.846,127.493 "/>
<g>
	<defs>
		<rect id="SVGID_13_" width="258" height="152"/>
	</defs>
	<clipPath id="SVGID_14_">
		<use xlink:href="#SVGID_13_"  overflow="visible"/>
	</clipPath>
	<path clip-path="url(#SVGID_14_)" fill="#FFFFFF" d="M71.006,136.896v0.58c0,1.38,0.24,1.819,0.96,1.819
		c0.561,0,0.841-0.46,0.841-1.319c0-0.882-0.221-1.4-1.141-2.621l-0.92-1.36c-1.14-1.721-1.52-2.641-1.52-3.821
		c0-1.76,1.06-2.881,2.74-2.881c1.261,0,2.181,0.72,2.441,1.941c0.1,0.5,0.1,0.559,0.1,1.66l-1.82,0.18c0-0.68-0.021-0.92-0.061-1.2
		c-0.059-0.54-0.359-0.84-0.779-0.84c-0.501,0-0.78,0.439-0.78,1.24c0,0.819,0.08,1,1.32,2.859l0.939,1.361
		c0.861,1.26,1.341,2.621,1.341,3.761c0,1.781-0.98,2.781-2.721,2.781c-1,0-1.7-0.321-2.22-1.021c-0.44-0.599-0.58-1.159-0.58-2.319
		c0-0.28,0-0.401,0.02-0.72L71.006,136.896z"/>
	<polygon clip-path="url(#SVGID_14_)" fill="#FFFFFF" points="85.307,140.836 83.447,140.836 81.245,133.834 81.245,140.836 
		79.385,140.836 79.385,127.492 80.985,127.492 83.447,135.354 83.447,127.492 85.307,127.492 	"/>
	<path clip-path="url(#SVGID_14_)" fill="#FFFFFF" d="M92.166,137.435c0,1.601-0.06,1.92-0.42,2.5
		c-0.44,0.682-1.28,1.102-2.22,1.102c-0.941,0-1.781-0.42-2.221-1.102c-0.36-0.58-0.42-0.92-0.42-2.5v-6.561
		c0-1.581,0.06-1.921,0.42-2.501c0.44-0.66,1.28-1.08,2.221-1.08c0.94,0,1.78,0.42,2.22,1.08c0.36,0.58,0.42,0.92,0.42,2.501
		V137.435z M90.306,130.113c0-0.761-0.221-1.08-0.78-1.08c-0.54,0-0.781,0.319-0.781,1.08v8.103c0,0.759,0.22,1.08,0.781,1.08
		c0.54,0,0.78-0.321,0.78-1.08V130.113z"/>
	<polygon clip-path="url(#SVGID_14_)" fill="#FFFFFF" points="95.064,129.233 93.324,129.233 93.324,127.493 98.746,127.493 
		98.746,129.233 96.924,129.233 96.924,140.836 95.064,140.836 	"/>
	<path clip-path="url(#SVGID_14_)" fill="#FFFFFF" d="M104.963,127.492c1.501,0,2.181,0.239,2.721,0.94
		c0.48,0.62,0.7,1.52,0.7,2.781c0,1.659-0.18,2.261-0.939,3.239l1.299,6.383h-2l-1.081-5.741c-0.319,0.059-0.379,0.059-0.66,0.08
		v5.661h-1.86v-13.344H104.963z M105.265,133.294c0.6,0,0.939-0.141,1.12-0.479c0.14-0.261,0.18-0.582,0.18-1.801
		c0-1.441-0.26-1.781-1.3-1.781h-0.261v4.062H105.265z"/>
	<path clip-path="url(#SVGID_14_)" fill="#FFFFFF" d="M115.285,137.435c0,1.601-0.06,1.92-0.42,2.5
		c-0.44,0.682-1.28,1.102-2.22,1.102c-0.941,0-1.781-0.42-2.221-1.102c-0.36-0.58-0.42-0.92-0.42-2.5v-6.561
		c0-1.581,0.06-1.921,0.42-2.501c0.44-0.66,1.28-1.08,2.221-1.08c0.94,0,1.78,0.42,2.22,1.08c0.36,0.58,0.42,0.92,0.42,2.501
		V137.435z M113.425,130.113c0-0.761-0.221-1.08-0.78-1.08c-0.54,0-0.781,0.319-0.781,1.08v8.103c0,0.759,0.22,1.08,0.781,1.08
		c0.54,0,0.78-0.321,0.78-1.08V130.113z"/>
	<path clip-path="url(#SVGID_14_)" fill="#FFFFFF" d="M122.104,136.095c0.02,0.721,0.04,1.04,0.04,1.399
		c0,2.381-0.881,3.541-2.701,3.541c-1.74,0-2.62-1.08-2.62-3.201v-7.342c0-2.12,0.88-3.2,2.62-3.2c1.801,0,2.701,1.16,2.701,3.481
		c0,0.32,0,0.54-0.04,1.06h-1.86c0.04-0.42,0.04-0.6,0.04-0.92c0-1.479-0.181-1.881-0.841-1.881c-0.6,0-0.76,0.3-0.76,1.46v7.342
		c0,1.16,0.16,1.461,0.76,1.461c0.66,0,0.841-0.399,0.841-1.819c0-0.401-0.021-0.762-0.04-1.381H122.104z"/>
	<polygon clip-path="url(#SVGID_14_)" fill="#FFFFFF" points="129.624,140.836 127.684,140.836 126.304,134.533 125.503,136.715 
		125.503,140.836 123.643,140.836 123.643,127.492 125.503,127.492 125.503,132.514 127.323,127.492 129.225,127.492 
		127.544,131.993 	"/>
	<polygon clip-path="url(#SVGID_14_)" fill="#FFFFFF" points="135.463,127.493 135.463,129.232 132.822,129.232 132.822,132.973 
		134.663,132.973 134.663,134.715 132.822,134.715 132.822,139.096 135.623,139.096 135.623,140.836 130.962,140.836 
		130.962,127.493 	"/>
	<polygon clip-path="url(#SVGID_14_)" fill="#FFFFFF" points="138.304,129.233 136.562,129.233 136.562,127.493 141.984,127.493 
		141.984,129.233 140.164,129.233 140.164,140.836 138.304,140.836 	"/>
	<path clip-path="url(#SVGID_14_)" fill="#FFFFFF" d="M147.943,136.896v0.58c0,1.38,0.24,1.819,0.96,1.819
		c0.562,0,0.841-0.46,0.841-1.319c0-0.882-0.221-1.4-1.141-2.621l-0.92-1.36c-1.141-1.721-1.521-2.641-1.521-3.821
		c0-1.76,1.061-2.881,2.74-2.881c1.261,0,2.181,0.72,2.441,1.941c0.1,0.5,0.1,0.559,0.1,1.66l-1.82,0.18
		c0-0.68-0.021-0.92-0.061-1.2c-0.06-0.54-0.359-0.84-0.779-0.84c-0.501,0-0.78,0.439-0.78,1.24c0,0.819,0.08,1,1.32,2.859
		l0.939,1.361c0.86,1.26,1.341,2.621,1.341,3.761c0,1.781-0.98,2.781-2.721,2.781c-1,0-1.7-0.321-2.221-1.021
		c-0.439-0.599-0.58-1.159-0.58-2.319c0-0.28,0-0.401,0.021-0.72L147.943,136.896z"/>
	<path clip-path="url(#SVGID_14_)" fill="#FFFFFF" d="M158.243,136.095c0.021,0.721,0.04,1.04,0.04,1.399
		c0,2.381-0.881,3.541-2.701,3.541c-1.74,0-2.62-1.08-2.62-3.201v-7.342c0-2.12,0.88-3.2,2.62-3.2c1.801,0,2.701,1.16,2.701,3.481
		c0,0.32,0,0.54-0.04,1.06h-1.86c0.04-0.42,0.04-0.6,0.04-0.92c0-1.479-0.181-1.881-0.841-1.881c-0.6,0-0.76,0.3-0.76,1.46v7.342
		c0,1.16,0.16,1.461,0.76,1.461c0.66,0,0.841-0.399,0.841-1.819c0-0.401-0.021-0.762-0.04-1.381H158.243z"/>
	<rect x="159.782" y="127.493" clip-path="url(#SVGID_14_)" fill="#FFFFFF" width="1.859" height="13.343"/>
	<polygon clip-path="url(#SVGID_14_)" fill="#FFFFFF" points="167.742,127.493 167.742,129.232 165.102,129.232 165.102,132.973 
		166.942,132.973 166.942,134.715 165.102,134.715 165.102,139.096 167.902,139.096 167.902,140.836 163.241,140.836 
		163.241,127.493 	"/>
	<polygon clip-path="url(#SVGID_14_)" fill="#FFFFFF" points="175.043,140.836 173.183,140.836 170.981,133.834 170.981,140.836 
		169.121,140.836 169.121,127.492 170.722,127.492 173.183,135.354 173.183,127.492 175.043,127.492 	"/>
	<path clip-path="url(#SVGID_14_)" fill="#FFFFFF" d="M181.902,136.095c0.02,0.721,0.04,1.04,0.04,1.399
		c0,2.381-0.881,3.541-2.701,3.541c-1.74,0-2.62-1.08-2.62-3.201v-7.342c0-2.12,0.88-3.2,2.62-3.2c1.801,0,2.701,1.16,2.701,3.481
		c0,0.32,0,0.54-0.04,1.06h-1.86c0.04-0.42,0.04-0.6,0.04-0.92c0-1.479-0.181-1.881-0.841-1.881c-0.6,0-0.76,0.3-0.76,1.46v7.342
		c0,1.16,0.16,1.461,0.76,1.461c0.66,0,0.841-0.399,0.841-1.819c0-0.401-0.021-0.762-0.04-1.381H181.902z"/>
	<polygon clip-path="url(#SVGID_14_)" fill="#FFFFFF" points="187.941,127.493 187.941,129.232 185.301,129.232 185.301,132.973 
		187.142,132.973 187.142,134.715 185.301,134.715 185.301,139.096 188.102,139.096 188.102,140.836 183.44,140.836 183.44,127.493 
			"/>
</g>
<g>
	<defs>
		<rect id="SVGID_15_" width="258" height="152"/>
	</defs>
	<clipPath id="SVGID_16_">
		<use xlink:href="#SVGID_15_"  overflow="visible"/>
	</clipPath>
	<path clip-path="url(#SVGID_16_)" fill="#FFFFFF" d="M196.7,67.2c0,0-12.4,3.6-17.2,7.9l-0.6,2.8l-3.9,4.5l-4.3,0.7l-2.8-2.899
		l-1-2.801l1.8-5.3l2-1.6l2.6-0.6l2.9-0.7l5.3-2.9l7.1-4.3l5.9-2.5l5.8-2.1l0.101-2.2l-2.9-0.1l-1.1-0.6l-0.7-5l1-2.6l1.399-1.3
		l1.801-1.4l2.8-1.8l2.5-0.4l1.399,0.2l0.9,1.1l2.5-3.8l14-20.4l15.4-11.4L255,3.5l0.5,1.3c0,0,6.9,8.9-14.7,33.5L221,57.8l-5.4,3.3
		l0.4,1.7l1.3,1.4c0,0,5.9,12.2,5,16.3l0.2,3.801c0,0-0.5,6.5-6.3,8.399c0,0-4.601,1.8-7.9-3.899c0,0-0.5-2.5,1.101-4.5
		c0,0,0.5-10.101-5.7-14.801C203.5,69.4,199.9,72.2,196.7,67.2"/>
	<path clip-path="url(#SVGID_16_)" d="M208,86.9c0,0,3.4,11.6,13,1.5c0,0-1.9,4.1-7.1,5.1C214,93.5,208.5,93.7,208,86.9"/>
	<path clip-path="url(#SVGID_16_)" fill="#E1001A" d="M196.2,65.2l2.8-4.8c0,0-15,4.8-21,10.8c0,0-5.3,0.2-6.7,1.7c0,0-3.8,5,0.5,8
		c0,0,4,1.901,6.7-5.5l0.7-1.2C179.2,74.1,192,65.4,196.2,65.2"/>
	<path clip-path="url(#SVGID_16_)" fill="#E1001A" d="M200.7,52l3.3-5.4c0,0,1.8-3.9-3-1.5c0,0-4.2,3.5-3.6,6.7c0,0,0.3,1.5,1,1.6
		l1.699-0.2L200.7,52z"/>
	<path clip-path="url(#SVGID_16_)" fill="#E1001A" d="M205.8,68.7l7.9-5.1c0,0,8,11.5,6.8,22.4c0,0-2.6,4.7-6,5.5
		c0,0-4.6-0.9-4.5-4.601c0,0-0.1-2.699,2.5-3.3C212.6,83.5,214.8,70.9,205.8,68.7"/>
	<path clip-path="url(#SVGID_16_)" fill="#E1001A" d="M256.3,13.7l-0.5-9c-30.899,13.2-51,50.4-51,50.4c0.3,0.6,0.8,1,1.3,1.4
		l-1.5,1.4l-5.1,8.7c0.9,2.7,3.3,2.6,3.3,2.6C203.4,69.1,224.7,55,224.7,55c-0.2-0.1-0.3-0.1-0.5-0.2
		C254.5,28,256.3,13.7,256.3,13.7"/>
	<path clip-path="url(#SVGID_16_)" fill="#E1001A" d="M245,33.6c16.5-20.8,10.5-28.5,10.5-28.5L255,3.8L239.3,8l-12.2,9
		c1.2,0,3.601,0.3,6.7,2.2C237.3,21.4,241.4,25.5,245,33.6"/>
	<path clip-path="url(#SVGID_16_)" fill="#FFFFFF" d="M245,34.3c10.4-12.9,11.2-19.7,11.2-19.7l-0.5-9
		c-8.101,3.5-15.5,8.6-21.9,14.2C237.3,22,241.4,26.2,245,34.3"/>
	<path clip-path="url(#SVGID_16_)" d="M252,4.7c0,0-0.8,3.4,3.8,3.3C255.8,7.9,257.2,2.2,252,4.7"/>
	<path clip-path="url(#SVGID_16_)" fill="#FFFFFF" d="M229.7,26.5c-1.3,0.1-2.5-0.1-3.3-0.7c-0.801-0.5-1.2-1.4-1.301-2.4
		c-0.1-1.9,1.101-4.2,3.101-6.2c2-1.9,4.5-3.2,6.8-3.4c1.3-0.1,2.5,0.1,3.3,0.7c2.3,1.6,1.5,5.4-1.899,8.6
		C234.5,25,232,26.3,229.7,26.5"/>
	<path clip-path="url(#SVGID_16_)" d="M230.9,24.3c-0.801,0-1.4-0.2-1.801-0.7c-0.399-0.4-0.6-1-0.6-1.7c0-1.3,0.8-2.8,2.1-3.9
		c1.2-1.1,2.7-1.8,4-1.8c0.801,0,1.4,0.2,1.801,0.7c1.199,1.3,0.5,3.8-1.601,5.7C233.6,23.6,232.2,24.3,230.9,24.3"/>
	<path clip-path="url(#SVGID_16_)" d="M254.7,3.2L254.7,3.2c-0.2,0-25.825-2.612-46.591,38.5c-0.5-0.6-0.909-0.8-2.409-0.7
		c-1,0-2.2,0.4-3.5,1.1l-0.3,0.2c-1.301,0.7-2.5,1.5-3.4,2.3c0,0-0.2,0.2-0.5,0.4c-2.1,2-2.5,4-2.5,5.3c-0.1,1.5,0.1,2.9,0.8,4.3
		l0.101,0.1c0.1,0.1,1.3,1.2,3.399,1.2c-0.2,0.7-0.399,1.2-0.5,1.3c-5.7,1.3-12.899,5.4-17.8,8.7h-0.1c0,0-3.301,2-5.2,2.8
		c-0.5-0.1-1-0.1-1.5-0.1c-1.8,0.1-4.3,0.7-6.2,3.2c-0.5,0.7-1,1.6-1.4,2.5c0,0.1-2.899,5.501,2.5,8.4
		c0.301,0.101,0.601,0.3,0.9,0.399c0,0,1,0.4,2.3,0.3c2-0.099,5.7-1.199,7-7.899c0.9-0.9,4.4-3.2,16.7-8.2c0.9,2.6,2.7,3.1,4,3.1
		s2.427-0.569,2.927-0.768c6.1,7.099,5.273,13.568,5.173,14.169c-1,1.899-1.3,3.699-0.699,5.299c0.899,2.8,3.8,4.101,4,4.101
		c0.6,0.199,1.3,0.399,1.899,0.3c2.601-0.101,4.9-2.101,5-2.199c9.5-7.5,1.5-25.801-1.8-30.401c0.2-0.6,2.8-2,4.2-3.1
		c1.8-1.4,6.5-5.1,8.3-6.6c2.7-2.3,2.8-2.4,5-4.5c8.2-8.1,11.1-12.2,11.1-12.3c14.301-18.7,11.5-24,10.7-30.7V3.6V3.5
		C256.2,3,255.9,2.8,255.4,2.9 M202,59l-0.5-0.3c0,0.1-3.6,5.8-4.8,7.3c-2.601,1.1-14.8,6.1-17.4,8.9l-0.1,0.1l0.1,0.4
		c-0.3,0.4-0.399,0.6-0.3,0.8c-0.8,1.899-2.9,6-6.3,6.199c-0.601,0-1.3-0.099-2-0.399c0,0-2.3-1.3-2.8-3.9
		c-0.4-1.899,0.3-4,1.899-6.2c0,0,2.101-2,7.3-2.4h0.101h0.1c0.2-0.2,0.5-0.3,0.7-0.5l0.3-0.2c1.2-0.7,3-1.8,4-2.3
		c3.601-1.9,7.2-4,7.2-4c7.8-3.8,13-5,13.1-5l0.9-0.2l-0.8-0.4c0,0-1.3-0.6-1.101-1.6l0.301-0.5c1.899-3.5,7.8-15.2,15.8-25.7
		c1.3-1.8,4.3-5.4,5.3-6.6c4.7-5.1,7.6-7.6,12.7-11.5c5.5-4,13.2-5.4,17.1-5.9l0.9-0.1c0.899-0.2,1.1,0.3,1.3,0.3c0,0,0-0.8-0.1-0.4
		c-0.101,2,2.5,7-2.601,16.7c-8,14.7-19.1,25-32.6,36.2c-5.7,4.5-10.3,6-13.5,8.4c-2.601,1.7-4.5,2.9-5.5,3.4
		c-0.8,0-1.5-0.2-2.101-0.6c-0.5-0.8-0.899-1.8-1-2.5L202,59z M206.1,43c0.4,0.6,0.4,1.7-0.1,3.1c-0.3,0.5-0.6,1-0.9,1.5
		c-0.5,0.8-1,1.7-1.5,2.6c-1.5,2.2-2.8,4.3-3.1,4.7c-0.1,0-0.5,0.1-1.1,0.1c-1.101,0-2.301-0.2-2.601-0.8c0,0-0.3-0.6-0.5-1.5
		c-0.6-3.7,1.2-6.1,2.9-7.5c1.5-1.1,3.8-2.5,5.899-2.6C205.294,42.6,205.835,42.63,206.1,43 M208.7,88.7
		c-0.5-2.301,0.8-4.301,0.899-4.301l0.101-0.099c1-7.401-4.8-14.601-5-15.001l-0.101-0.1c1.101-0.7,4.9-3.3,9.4-6.7
		c4.6,1.8,7.8,16.6,7.9,16.7c1,8.601-2.101,10.601-2.2,10.699L219.6,90c-2.3,2.6-4.5,3.2-5.899,3.2c-0.8,0-1.3-0.101-1.4-0.101
		C210.2,91.7,209,90.301,208.7,88.7"/>
	<polygon clip-path="url(#SVGID_16_)" points="195.758,67.344 196.729,67.035 197.897,69.094 200.209,69.832 202.229,69.076 
		202.408,70.113 199.867,70.801 198.497,70.593 197.461,70.011 196.552,69.032 196.177,68.318 	"/>
	<path clip-path="url(#SVGID_16_)" fill="#FFFFFF" d="M198.111,77.645l0.163-0.225l0.054,0.003h0.001
		c0.019,0,0.261,0.063,0.66-0.007c1.582-0.688,1.942-1.336,2.491-2.229l0.092-0.149c0.762-1.51,0.933-3.745,0.761-4.775l-0.07-0.416
		l-0.103,0.047c-1.06,0.489-2.078,0.747-2.867,0.722c-2.191-0.067-2.979-1.926-3.201-2.504l-0.049-0.116l-0.082-0.018
		c-0.022-0.078-0.053-0.19-0.074-0.266c-4.479,0.675-5.133,2.002-5.609,2.971c-0.279,0.565-0.774,1.222-0.974,1.478l0.167,0.062
		c0.132,0.051,0.286,0.087,0.475,0.109c0.633,0.072,1.262-0.344,1.267-0.349l0.559-0.472c0.464-0.368,0.754-0.565,1.013-0.557
		c0.121,0.003,0.208-0.005,0.279,0.121c0.212,0.355-0.022,0.992-0.661,1.792c-0.566,0.721-0.802,1.362-0.834,1.721
		c-0.038,0.442-0.147,0.966-0.571,2.207c-0.486,1.324-1.384,2.834-2.74,4.613c0.566-0.343,1.599-0.96,2.754-1.625
		c1.459-0.714,1.907-1.195,3.106-2.479l0.099-0.106c0.446-0.502,1.036-1.103,1.309-1.094l0.041,0.002l0.027,0.028
		c0.013,0.014,0.118,0.127,0.123,0.259c0.166,0.601,0.045,1.667-1.458,3.354c-0.033,0.038-0.057,0.062-0.064,0.074
		c-0.489,0.552-0.802,1.193-1.044,1.75c-0.072,0.166-0.127,0.415-0.154,0.558l0.059,0.002c0.026-0.125,0.089-0.355,0.217-0.547
		c0.265-0.294,0.186-0.234,0.952-0.771l0.513-0.379l0.111-0.062c0.058-0.038,0.403-0.275,0.438-0.294
		c0.006-0.003,0.128-0.083,0.135-0.086c0.25-0.157,0.163-0.102,0.502-0.299C196.844,79.163,197.542,78.433,198.111,77.645"/>
	<path clip-path="url(#SVGID_16_)" d="M202.431,70.247l-0.091-0.544l-0.221,0.1c-1.015,0.469-2.023,0.738-2.823,0.714
		c-2.033-0.062-2.927-1.723-3.214-2.473c0.003,0.01-0.122-0.442-0.122-0.442l-0.077,0.009c-4.422,0.666-5.161,1.944-5.694,3.028
		c-0.348,0.703-1.049,1.568-1.049,1.568l0.297,0.11c0.134,0.053,0.294,0.091,0.497,0.115c0.695,0.081,1.314-0.46,1.314-0.46
		l0.512-0.437c0.562-0.447,0.861-0.521,1.018-0.517c0.101,0.003,0.15,0.022,0.197,0.106c0.181,0.302-0.027,0.9-0.651,1.681
		c-0.556,0.707-0.819,1.364-0.854,1.775c-0.035,0.398-0.128,0.896-0.567,2.184c-0.546,1.484-1.597,3.152-3.055,5.008
		c0,0,1.454-0.888,3.213-1.901c1.51-0.739,1.965-1.251,3.229-2.603c0.518-0.585,1.032-1.07,1.232-1.062c0,0,0.098,0.103,0.094,0.201
		c0.403,1.4-1.425,3.245-1.503,3.356c-0.519,0.585-0.839,1.275-1.055,1.768c-0.112,0.259-0.182,0.695-0.182,0.695l0.261,0.008
		c0,0,0.048-0.341,0.218-0.593c0.218-0.244,0.72-0.751,1.69-1.404c-0.352,0.219-0.636,0.41-0.857,0.605
		c0.109-0.297,0.483-0.862,0.483-0.862s0.141-0.195,0.244-0.293c0.521-0.684,1.566-2.152,1.2-3.264
		c-0.091-0.303-0.188-0.395-0.388-0.412c-0.784-0.072-2.652,2.759-4.34,3.54c-0.812,0.376-1.598,0.881-2.007,1.168
		c0.939-1.272,1.579-2.553,2.012-3.64c0.439-1.289,0.56-1.884,0.57-2.284c0.056-0.467,0.19-0.785,0.849-1.575
		c0.728-0.878,0.951-1.672,0.764-2.077c-0.094-0.204-0.291-0.31-0.49-0.315c-0.26-0.009-0.578,0.121-1.044,0.441l-0.81,0.683
		c-0.122,0.118-0.561,0.302-0.991,0.289c-0.1-0.003-0.1-0.003-0.2-0.006c0.106-0.196,0.549-0.941,0.742-1.378
		c0.53-0.983,1.155-2.159,5.26-2.834l0.041,0.115c0.298,0.816,1.269,2.72,3.502,2.788c0.858,0.026,1.725-0.221,2.684-0.651
		c0.063,0.825,0.198,2.918-0.813,4.91c-0.421,0.661-0.706,1.408-2.424,2.192c-0.164,0.075,0.253-1.36,0.253-1.36l-0.349-0.011
		c-0.383,0.943-0.508,1.214-0.857,1.678c-0.094,0.128-1.246,1.461-2.366,2.127c-0.247,0.149-0.464,0.29-0.667,0.426
		c0.251-0.154,0.532-0.32,0.869-0.519c1.089-0.625,1.81-1.363,2.279-2.015c0.051-0.069,0.094-0.13,0.132-0.181
		c0,0,0.248,0.01,0.681-0.064c1.724-0.747,2.052-1.397,2.652-2.367C202.451,73.521,202.598,71.247,202.431,70.247"/>
</g>
</svg>
