<?xml version="1.0" encoding="iso-8859-1"?>
<!-- Generator: Adobe Illustrator 19.0.0, SVG Export Plug-In . SVG Version: 6.00 Build 0)  -->
<svg version="1.1" id="Capa_1" xmlns="http://www.w3.org/2000/svg" xmlns:xlink="http://www.w3.org/1999/xlink" x="0px" y="0px"
	 viewBox="0 0 512 512" style="enable-background:new 0 0 512 512;" xml:space="preserve">
<path style="fill:#F2F2F2;" d="M512,256c0,36.76-7.753,71.711-21.703,103.309c-2.1,4.754-4.326,9.415-6.708,14.002v0.01
	c-3.218,6.249-6.698,12.34-10.418,18.275c-6.081,9.738-12.821,19.048-20.146,27.847c-5.13,6.196-10.564,12.142-16.259,17.826
	c-8.119,8.098-16.771,15.642-25.913,22.601c-17.136,13.03-35.965,23.96-56.101,32.381c-10.449,4.378-21.243,8.077-32.34,11.045
	h-0.01c-7.043,1.891-14.2,3.49-21.462,4.765C286.354,510.652,271.329,512,256,512c-1.567,0-3.135-0.01-4.702-0.052
	c-11.901-0.209-23.594-1.233-35.035-3.02c-16.426-2.55-32.34-6.677-47.574-12.204c-28.411-10.303-54.481-25.496-77.187-44.565
	c-27.606-23.176-50.249-52.067-66.1-84.846C9.122,333.657,0,295.894,0,256C0,114.615,114.615,0,256,0S512,114.615,512,256z"/>
<g>
	<path style="fill:#2D3A3E;" d="M445.388,424.657l-144.447,83.404c7.262-1.275,14.42-2.873,21.462-4.765h0.01
		c11.097-2.967,21.891-6.666,32.34-11.045l56.101-32.381c9.143-6.959,17.795-14.503,25.913-22.601
		c5.695-5.684,11.128-11.63,16.259-17.826C450.623,421.366,448.073,423.1,445.388,424.657z M452.002,123.476L296.155,33.499
		c-23.625-13.636-52.976-13.636-76.601,0L63.707,123.476c-23.625,13.636-38.306,39.058-38.306,66.341v177.497
		c15.851,32.778,38.494,61.67,66.1,84.846l77.187,44.565c15.235,5.528,31.148,9.655,47.574,12.204L70.311,424.657
		c-19.55-11.285-31.692-32.319-31.692-54.888V189.816c0-22.57,12.142-43.604,31.692-54.899l155.847-89.976
		c9.78-5.642,20.731-8.464,31.692-8.464c10.961,0,21.922,2.821,31.692,8.464l155.846,89.976
		c13.563,7.837,23.562,20.355,28.411,34.826c2.142,6.384,3.281,13.155,3.281,20.072v179.952c0,7.555-1.358,14.932-3.908,21.828
		c3.72-5.935,7.199-12.027,10.418-18.275v-0.01c2.382-4.587,4.608-9.247,6.708-14.002V189.816
		C490.297,162.534,475.627,137.112,452.002,123.476z"/>
	<path style="fill:#2D3A3E;" d="M483.694,189.513v180.255c0,1.181-0.031,2.361-0.104,3.542v0.01
		c-3.218,6.249-6.698,12.34-10.418,18.275c-6.081,9.738-12.821,19.048-20.146,27.847c-5.13,6.196-10.564,12.142-16.259,17.826
		l-114.354,66.027h-0.01c-7.043,1.891-14.2,3.49-21.462,4.765C286.354,510.652,271.329,512,256,512c-1.567,0-3.135-0.01-4.702-0.052
		c-1.546-3.187-2.424-6.792-2.445-10.658V321.034c0-25.004,13.343-48.118,34.994-60.615l155.846-89.976
		c2.8-1.62,5.684-3.02,8.62-4.221c8.986-3.647,18.557-1.797,25.485,3.521C479.692,174.247,483.662,181.258,483.694,189.513z"/>
</g>
<path style="fill:#FFFFFF;" d="M347.577,384.712c0-18.174-15.971-18.174-23.682-18.174s-12.666-2.203-12.666-10.464
	c0-8.261,9.913-19.826,27.536-17.073l7.16-18.174c0,0-8.339-1.29-18.174,1.131v-16.551l-14.318,8.262v14.834
	c-9.346,6.829-17.073,19.287-17.073,41.89c0,9.913,4.957,19.275,21.478,19.275c16.522,0,17.073,14.87,8.261,23.682
	c-8.812,8.812-28.639,8.812-28.639,8.812l-2.753,19.826c0,0,8.518,0.018,18.725-3.255v17.023l14.318-8.261v-15.574
	C339.479,424.015,349.403,409.905,347.577,384.712z"/>
<polygon style="fill:#31B644;" points="413.114,409.457 369.607,437.544 369.607,422.162 413.114,394.075 "/>
<g>
</g>
<g>
</g>
<g>
</g>
<g>
</g>
<g>
</g>
<g>
</g>
<g>
</g>
<g>
</g>
<g>
</g>
<g>
</g>
<g>
</g>
<g>
</g>
<g>
</g>
<g>
</g>
<g>
</g>
</svg>
