<?xml version="1.0" encoding="utf-8"?>
<!-- Generator: Adobe Illustrator 22.0.1, SVG Export Plug-In . SVG Version: 6.00 Build 0)  -->
<svg version="1.1" id="Layer_1" xmlns="http://www.w3.org/2000/svg" xmlns:xlink="http://www.w3.org/1999/xlink" x="0px" y="0px"
	 viewBox="0 0 2014 2600" style="enable-background:new 0 0 2014 2600;" xml:space="preserve">
<style type="text/css">
	.st0{fill:#2980C3;}
	.st1{fill:#1B2336;}
</style>
<g>
	<path class="st0" d="M8.4,1038.7c1.9-31.2-2.8-67.6,3.1-103.9c9.9-60.9,42.3-105.3,97.1-133c13.5-6.8,21.8-13.9,24.9-30.7
		c23.9-130.9,76.4-249.8,154-357.6c8.9-12.4,16-20.9,4.6-36.9c-14.6-20.4-4.2-39.2,11-56.2c109.5-122.6,241.3-213.6,398-261.9
		c374-115.4,703.6-36.4,985.2,236.6c26,25.2,60.7,50.6,27.5,94.9c-5.5,7.4,4.3,13.8,8.5,19.6c80.7,110,134,231.9,157.8,366.3
		c2.6,14.9,11.9,19.6,22.7,25c67.6,34.3,100.9,90.9,101.2,165.2c0.3,67.1,6.9,134.7-4.3,201.4c-16.1,96-113.8,162.9-208.4,143.3
		c-28.6-5.9-36.2-28-36.1-55c0.5-110.1,2.7-220.3,0.1-330.4c-7.1-296-140.8-518.9-399.5-661.1C922.6,26.1,367.2,290,271.9,775.4
		c-16.6,84.4-13.7,169.1-12.8,254.1c0.9,79.1-0.1,158.2-2,237.3c-0.7,27.7-17,43.4-46.6,44.8c-120.7,5.6-201.8-71-202.1-191.7
		C8.3,1094.5,8.4,1069.2,8.4,1038.7"/>
	<path class="st0" d="M1231.4,1448.7c50.5,6.7,100.8,14.8,151.7,17.8c68.3,4,119.9-17.9,158.1-59.1c48-51.6,70-111.7,66.2-179.1
		c-3.7-67.7-63.1-107.7-143.6-93.8c-71.8,12.4-135.5,40.5-199.9,66.2c-57,22.8-110.4,50.1-152.2,88.9
		c-58.8,54.6-25.4,126.9,68.5,149.6C1197,1443.3,1214.3,1445.6,1231.4,1448.7"/>
	<path class="st0" d="M951,1307.6L951,1307.6C951,1307.6,951,1307.5,951,1307.6c-5.3-16.1-14.3-30.8-25-44.5
		c-37.1-57.9-88.7-110.1-141-153.8c-27.4-23.8-56.6-45.5-86.8-65.9C631,997,578.3,970,578.3,970l-0.2,0.1
		c-79.9-40-152.8-0.9-172.1,90.3c-21.6,102.3-4.3,200.3,51.2,289.6c38.2,61.5,97.3,90.6,167.9,97.2c44.2,4.1,88.5,6.5,132.8,9.7
		c36,0.8,72,3.4,107-8.5c46.2-15.7,81.8-43.8,89.7-93.5C957.6,1337.7,955.8,1322.1,951,1307.6"/>
	<path class="st0" d="M1806.7,1543.3c-0.8-40.1-18.5-105.1-44.9-125.8c-11.3-8.9-28-3.9-32.3,9.8c-5.6,17.7-14.8,43.1-28.8,72.9h0
		c-31.2,73.8-77,134.3-130.6,183.8l0,0c-70,64.7-153.1,110.8-234.5,143.6c0,0,0,0-0.1,0c-20.2,8.1-40.3,15.5-60.1,22.1
		c-0.2,0.1-0.3,0.1-0.5,0.2c-13.1,4.4-26.1,8.4-38.8,12.2c-0.1,0-0.2,0.1-0.3,0.1c-6.2,1.8-12.3,3.5-18.3,5.2
		c-0.3,0.1-0.7,0.2-1,0.3c-12.3,3.4-24.3,6.5-36,9.3c-0.5,0.1-0.9,0.2-1.4,0.3c-5.4,1.3-10.7,2.6-16,3.7c-0.5,0.1-0.9,0.2-1.4,0.3
		c-11.2,2.5-22,4.8-32.4,6.9c-0.7,0.1-1.4,0.3-2.1,0.4c-4.6,0.9-9.1,1.8-13.5,2.6c-0.6,0.1-1.1,0.2-1.7,0.3
		c-9.8,1.8-19.2,3.4-28.1,4.9c-0.8,0.1-1.5,0.2-2.3,0.4c-3.9,0.6-7.7,1.2-11.3,1.7c-0.5,0.1-1,0.1-1.4,0.2
		c-4.2,0.6-8.4,1.2-12.3,1.8c0,0,0,0,0,0c-3.8,0.5-7.5,1-11,1.5c-0.6,0.1-1.1,0.1-1.7,0.2c-3.4,0.4-6.7,0.8-9.9,1.2c0,0,0,0-0.1,0
		l0,0c-26.2,3.1-42.5,4-45.1,4.1c-0.2,0-0.4,0-0.4,0l0,0c-340.5,35.7,86.4,110.3,407.5,53.8l0,0c0.7-0.1,1.4-0.3,2.2-0.4
		c7.5-1.3,15-2.8,22.5-4.2c6.6-1.3,13.1-2.7,19.5-4.2c5-1.1,9.9-2.3,14.8-3.4c3-0.8,6.1-1.5,9.1-2.2c42.8-10.9,82.1-24.7,115.5-41.8
		c198.7-96.1,217.9-256.7,217.9-256.7C1804.1,1617.9,1807.5,1583.3,1806.7,1543.3"/>
</g>
<g>
	<path class="st1" d="M254,2312.7h-27.9c-3.7,0-6.7,3-6.7,6.6v121.9c0,24.2,8.3,34.4,28.1,34.4c3.4,0,6.2-0.2,9.5-0.8
		c4.1-0.8,7.9,2.3,7.9,6.5v26.6c0,3.3-2.4,6-5.6,6.6c-9.5,1.7-16.5,2.4-25.5,2.4c-22.3,0-38.8-5.8-48.5-17.9
		c-8.7-10.7-11.2-22.3-11.2-52.9v-126.8c0-3.7-3-6.6-6.6-6.6H146c-3.7,0-6.6-3-6.6-6.7v-27c0-3.7,3-6.6,6.6-6.6h21.6
		c3.7,0,6.6-3,6.6-6.7v-52.7c0-3.7,3-6.6,6.7-6.6h31.8c3.7,0,6.6,3,6.6,6.6v52.7c0,3.7,3,6.7,6.7,6.7H254c3.7,0,6.6,3,6.6,6.6v27
		C260.7,2309.7,257.7,2312.7,254,2312.7"/>
	<path class="st1" d="M396,2347.6c0-28.6-8.7-40.3-29.6-40.3s-29.6,11.6-29.6,40.3v13.1H396V2347.6z M343.5,2400.5
		c-3.7,0-6.6,3-6.6,6.6v14.7c0,42.2,7.3,55.3,30.5,55.3c14.1,0,23.8-7.3,27.2-21.4c1.2-4.1,1.8-7.9,1.9-19.1c0-3.6,3-6.6,6.6-6.6
		h31.7c3.7,0,6.7,3.1,6.6,6.8c-0.6,29.2-2.4,39.2-10.1,51c-12.1,19.9-34.4,30.6-64,30.6c-27.6,0-48.5-8.7-60.6-25.2
		c-10.7-15-15-33-15-65.5v-71.8c0-38.3,4.4-54.3,19.4-68.9c13.1-12.6,32-19.4,54.8-19.4c24.7,0,44.1,7.8,56.8,22.3
		c14.1,15.5,18.4,33,18.4,70.8v33.1c0,3.7-3,6.6-6.7,6.6H343.5z"/>
	<path class="st1" d="M582.3,2400.7c0-5.1-5.6-8.3-10.1-5.7c-32.4,18.8-45.7,34.7-45.7,55c0,16,9.7,27.2,22.8,27.2
		c12.1,0,23.3-6.7,31.9-20.1c0.7-1.1,1.1-2.5,1.1-3.8V2400.7z M584.6,2508.4c-0.6-2.5-1.1-5.3-1.5-8.3c-0.7-5.4-7.2-8-11.1-4.2
		c-16.1,15.5-27.9,20.9-44.1,20.9c-30.6,0-49-24.3-49-64c0-31,11.6-50,41.7-67.9c10.3-6.6,22.4-12.2,57.5-27.3
		c2.4-1.1,4.1-3.5,4.1-6.1v-8.2c0-24.7-6.8-34.4-23.8-34.4c-15.6,0-23.4,8.6-26.1,28.7c-0.4,3.3-3.1,5.8-6.4,5.8h-34.3
		c-4,0-7.2-3.5-6.6-7.4c6.1-43.7,33.7-66.8,79.7-66.8c22.3,0,38.3,5.8,49.5,18.4c10.2,12.6,13.1,23.8,13.1,53.4V2448
		c0,30.7,0.7,43.5,3.5,57.5c0.8,4.1-2.3,8-6.5,8h-33.3C588,2513.5,585.4,2511.4,584.6,2508.4"/>
	<path class="st1" d="M719.1,2286.7c0,5.8,7,8.8,11.2,4.8c16.4-15.7,31.5-22.5,49-22.5c17.4,0,29,8.1,35,23.9
		c1.6,4.4,7.5,5.3,10.8,2c18.1-18.1,34.5-25.9,53.2-25.9c27.2,0,39.8,17.9,39.8,56.3v181.6c0,3.7-3,6.7-6.7,6.7h-31.8
		c-3.7,0-6.6-3-6.6-6.7v-169.9c0-20.9-4.4-28.1-17-28.1c-12.1,0-24.6,8-35.9,22.4c-0.9,1.2-1.4,2.7-1.4,4.2v171.5
		c0,3.7-3,6.7-6.7,6.7H780c-3.7,0-6.6-3-6.6-6.7v-169.9c0-20.9-4.4-28.1-17-28.1c-12.1,0-24.6,8-35.9,22.4c-0.9,1.2-1.4,2.7-1.4,4.2
		v171.5c0,3.7-3,6.7-6.6,6.7h-31.8c-3.7,0-6.7-3-6.7-6.7v-227.8c0-3.7,3-6.6,6.7-6.6h31.8c3.7,0,6.6,3,6.6,6.6V2286.7z"/>
	<path class="st1" d="M1065.8,2341c-3.3,1.4-7.2,0-8.7-3.3c-9-20.8-18.9-28.9-34.9-28.9c-14.1,0-23.8,8.7-23.8,21.3
		c0,13.1,6.8,19.9,40.7,38.3c27.2,15,39.3,22.8,49,33c10.7,11.2,17,27.6,17,45.6c0,42.7-29.6,71.3-74.2,71.3
		c-39.3,0-64.5-19.4-80.2-61.5c-1.3-3.5,0.6-7.4,4.1-8.6l29.5-10.2c3.4-1.2,7.2,0.5,8.4,3.9c9.3,25.1,20.6,35.2,38.2,35.2
		c15,0,25.7-10.2,25.7-24.3c0-13.6-7.8-22.3-34-36.4c-33-18.4-42.2-24.7-52.9-35.9c-11.2-11.7-17.5-28.1-17.5-45.6
		c0-39.3,29.6-67.4,70.3-67.4c36.3,0,60.4,16.6,75.7,52.1c1.4,3.3-0.2,7.2-3.5,8.7L1065.8,2341z"/>
	<path class="st1" d="M1180.4,2461.5c0,2.2,1.1,4.3,2.9,5.6c10.7,7.2,19.2,10.1,28.6,10.1c9.2,0,17.5-4.8,20.9-12.6
		c3.9-8.3,4.4-14.6,4.4-39.8v-63.5c0-25.2-0.5-31.5-4.4-39.8c-3.4-7.8-11.6-12.6-20.9-12.6c-9.3,0-18.2,3.2-28.6,10.1
		c-1.8,1.2-3,3.4-3,5.6V2461.5z M1180.4,2279.1v2.4c0,5.7,6.5,8.6,10.9,5.1c15.1-12.1,28.3-17.5,42.4-17.5c17.5,0,31,8.7,38.8,24.7
		c7.3,16.5,9.7,33.5,9.7,70.3v57.7c0,37.4-2.4,53.9-9.7,70.3c-7.8,16-21.3,24.7-38.8,24.7c-14.2,0-27.4-5.4-42.4-17.5
		c-4.4-3.5-10.9-0.6-10.9,5.1v84.9c0,3.7-3,6.7-6.6,6.7h-31.8c-3.7,0-6.7-3-6.7-6.7v-310.3c0-3.7,3-6.6,6.7-6.6h31.8
		C1177.4,2272.4,1180.4,2275.4,1180.4,2279.1"/>
	<path class="st1" d="M1425.8,2347.6c0-28.6-8.7-40.3-29.6-40.3c-20.9,0-29.6,11.6-29.6,40.3v13.1h59.2V2347.6z M1373.3,2400.5
		c-3.7,0-6.6,3-6.6,6.6v14.7c0,42.2,7.3,55.3,30.5,55.3c14.1,0,23.8-7.3,27.2-21.4c1.2-4.1,1.8-7.9,1.9-19.1c0-3.6,3-6.6,6.6-6.6
		h31.7c3.7,0,6.7,3.1,6.6,6.8c-0.6,29.2-2.4,39.2-10.1,51c-12.1,19.9-34.4,30.6-64,30.6c-27.6,0-48.5-8.7-60.6-25.2
		c-10.7-15-15-33-15-65.5v-71.8c0-38.3,4.4-54.3,19.4-68.9c13.1-12.6,32-19.4,54.8-19.4c24.7,0,44.1,7.8,56.8,22.3
		c14.1,15.5,18.4,33,18.4,70.8v33.1c0,3.7-3,6.6-6.6,6.6H1373.3z"/>
	<path class="st1" d="M1612.1,2400.7c0-5.1-5.6-8.3-10.1-5.7c-32.4,18.8-45.7,34.7-45.7,55c0,16,9.7,27.2,22.8,27.2
		c12.1,0,23.3-6.7,31.9-20.1c0.7-1.1,1.1-2.5,1.1-3.8V2400.7z M1614.5,2508.4c-0.6-2.5-1.1-5.3-1.5-8.3c-0.7-5.4-7.2-8-11.1-4.2
		c-16.1,15.5-27.9,20.9-44.1,20.9c-30.6,0-49-24.3-49-64c0-31,11.6-50,41.7-67.9c10.3-6.6,22.4-12.2,57.5-27.3
		c2.4-1.1,4.1-3.5,4.1-6.1v-8.2c0-24.7-6.8-34.4-23.8-34.4c-15.6,0-23.4,8.6-26.1,28.7c-0.4,3.3-3.1,5.8-6.4,5.8h-34.3
		c-4,0-7.2-3.5-6.6-7.4c6-43.7,33.7-66.8,79.7-66.8c22.3,0,38.3,5.8,49.5,18.4c10.2,12.6,13.1,23.8,13.1,53.4V2448
		c0,30.7,0.7,43.5,3.5,57.5c0.8,4.1-2.3,8-6.5,8H1621C1617.9,2513.5,1615.2,2511.4,1614.5,2508.4"/>
	<path class="st1" d="M1761.3,2346.8l40-71c1.2-2.1,3.4-3.4,5.8-3.4h35.6c5.2,0,8.4,5.7,5.6,10.2l-41,65.8c-1,1.7-1.3,3.7-0.7,5.6
		l49.5,150.8c1.4,4.3-1.8,8.7-6.3,8.7h-36.3c-2.9,0-5.5-1.9-6.4-4.7l-28.3-93.8c-1.7-5.5-8.9-6.4-12-1.6l-16.9,26.8
		c-0.7,1.1-1,2.3-1,3.5v63.2c0,3.7-3,6.6-6.7,6.6h-31.8c-3.7,0-6.6-3-6.6-6.6v-310.3c0-3.7,3-6.6,6.6-6.6h31.8c3.7,0,6.7,3,6.7,6.6
		v147C1748.9,2350.4,1758,2352.8,1761.3,2346.8"/>
</g>
</svg>
