<?xml version="1.0" encoding="UTF-8" standalone="no"?>
<!-- Created with Inkscape (http://www.inkscape.org/) -->
<svg width="830" height="100" viewBox="0 0 219.60417 26.458334" version="1.1" id="svg5" inkscape:version="1.2.1 (9c6d41e410, 2022-07-14)" sodipodi:docname="logo-readme.svg" xmlns:inkscape="http://www.inkscape.org/namespaces/inkscape" xmlns:sodipodi="http://sodipodi.sourceforge.net/DTD/sodipodi-0.dtd" xmlns="http://www.w3.org/2000/svg" xmlns:svg="http://www.w3.org/2000/svg">
  <sodipodi:namedview id="namedview7" pagecolor="#ffffff" bordercolor="#666666" borderopacity="1.0" inkscape:pageshadow="2" inkscape:pageopacity="0.0" inkscape:pagecheckerboard="0" inkscape:document-units="mm" showgrid="false" inkscape:zoom="2.1997092" inkscape:cx="485.74602" inkscape:cy="197.75341" inkscape:window-width="3744" inkscape:window-height="2126" inkscape:window-x="85" inkscape:window-y="1671" inkscape:window-maximized="1" inkscape:current-layer="layer1" fit-margin-top="0" fit-margin-left="0" fit-margin-right="0" fit-margin-bottom="0" borderlayer="true" inkscape:showpageshadow="false" units="px" inkscape:snap-page="true" inkscape:snap-global="false" inkscape:deskcolor="#d1d1d1"/>
  <defs id="defs2">
    <rect x="-596.61987" y="-191.58698" width="1722.9969" height="1116.0906" id="rect1574"/>
  </defs>
  <g inkscape:label="Layer 1" inkscape:groupmode="layer" id="layer1" transform="translate(157.69673,48.619995)">
    <g id="g904" style="fill:currentColor">
      <path d="m -78.814945,-39.614985 h 1.757879 l -5.877086,13.669473 h -1.547983 l -2.859832,-6.795381 -2.833595,6.795381 h -1.547983 l -5.877086,-13.669473 h 1.731641 l 4.985029,11.832884 2.518751,-6.165694 -2.308855,-5.640953 h 1.600456 l 1.731642,4.434052 1.757878,-4.434052 h 1.57422 l -2.282618,5.640953 2.518751,6.165694 z" id="path3159" style="font-size:40px;line-height:1.25;font-family:Raleway;-inkscape-font-specification:Raleway;white-space:pre;stroke-width:0.264583;fill:currentColor"/>
      <path d="m -74.695743,-25.945512 v -13.669473 h 1.784115 v 13.669473 z m 0,-16.529305 v -2.623699 h 1.784115 v 2.623699 z" id="path3161" style="font-size:40px;line-height:1.25;font-family:Raleway;-inkscape-font-specification:Raleway;white-space:pre;stroke-width:0.264583;fill:currentColor"/>
      <path d="m -64.489547,-25.683142 q -1.679167,0 -3.122202,-0.550977 -1.443034,-0.550977 -2.492514,-1.679167 l 0.734636,-1.259376 q 1.154427,1.075717 2.308855,1.57422 1.180665,0.472265 2.492514,0.472265 1.600457,0 2.597463,-0.629687 0.997005,-0.655925 0.997005,-1.862827 0,-0.813347 -0.498503,-1.233138 -0.472265,-0.446029 -1.39056,-0.708399 -0.892058,-0.288607 -2.151434,-0.603451 -1.416797,-0.393555 -2.387566,-0.813347 -0.944532,-0.446029 -1.443034,-1.101954 -0.472266,-0.682161 -0.472266,-1.757878 0,-1.338087 0.655924,-2.203907 0.682162,-0.892058 1.83659,-1.338087 1.180665,-0.472266 2.623699,-0.472266 1.57422,0 2.781121,0.498503 1.206902,0.498503 1.967775,1.390561 l -0.865821,1.206901 q -0.734636,-0.839583 -1.757878,-1.233138 -0.997006,-0.419792 -2.230145,-0.419792 -0.839584,0 -1.600456,0.236133 -0.760873,0.209896 -1.259376,0.734635 -0.472266,0.498503 -0.472266,1.390561 0,0.734636 0.367318,1.154428 0.367318,0.393555 1.101954,0.682162 0.734636,0.262369 1.810352,0.577213 1.547983,0.419792 2.70241,0.865821 1.154428,0.419792 1.784116,1.101954 0.629688,0.682162 0.629688,1.9153 0,1.915301 -1.443035,2.991017 -1.443034,1.075717 -3.804364,1.075717 z" id="path3163" style="font-size:40px;line-height:1.25;font-family:Raleway;-inkscape-font-specification:Raleway;white-space:pre;stroke-width:0.264583;fill:currentColor"/>
      <path d="m -44.811802,-25.945512 h -1.784116 v -7.634965 q 0,-2.308855 -0.813347,-3.463283 -0.813346,-1.180664 -2.335092,-1.180664 -0.997006,0 -1.994011,0.52474 -0.970769,0.498502 -1.731642,1.39056 -0.734636,0.865821 -1.04948,1.994012 v 8.3696 h -1.784115 v -19.153004 h 1.784115 v 8.579496 q 0.813347,-1.521745 2.256382,-2.413803 1.469271,-0.918295 3.122202,-0.918295 1.180664,0 1.994011,0.419792 0.839584,0.419792 1.338087,1.233139 0.52474,0.787109 0.760873,1.862826 0.236133,1.04948 0.236133,2.387566 z" id="path3165" style="font-size:40px;line-height:1.25;font-family:Raleway;-inkscape-font-specification:Raleway;white-space:pre;stroke-width:0.264583;fill:currentColor"/>
    </g>
    <g id="g910">
      <path d="m -33.136341,-26.653911 q -0.446029,0.183659 -1.075717,0.419792 -0.629687,0.236133 -1.364323,0.367318 -0.708399,0.157422 -1.443035,0.157422 -0.970768,0 -1.784115,-0.341081 -0.813347,-0.341081 -1.31185,-1.075717 -0.472266,-0.760872 -0.472266,-1.967774 v -7.897335 h -1.810352 v -2.70241 h 1.810352 v -4.460289 h 3.515757 v 4.460289 h 2.886069 v 2.70241 h -2.886069 v 6.71667 q 0.02624,0.708399 0.393555,1.023243 0.367318,0.314844 0.918295,0.314844 0.550977,0 1.075717,-0.183659 0.524739,-0.183659 0.839583,-0.314844 z" style="font-weight:bold;font-size:40px;line-height:1.25;font-family:Raleway;-inkscape-font-specification:'Raleway Bold';white-space:pre;fill:#6435c9;stroke-width:0.264583" id="path3167"/>
      <path d="m -18.52231,-25.945512 h -3.515757 v -7.713676 q 0,-1.600456 -0.629688,-2.387566 -0.60345,-0.78711 -1.679167,-0.78711 -0.629688,0 -1.338087,0.367318 -0.708399,0.367318 -1.285612,1.023243 -0.550977,0.629688 -0.813347,1.469271 v 8.02852 h -3.515757 v -19.153004 h 3.515757 v 7.949808 q 0.760873,-1.311849 2.072722,-2.046485 1.31185,-0.734636 2.859832,-0.734636 1.338087,0 2.177671,0.472266 0.839584,0.446029 1.311849,1.233139 0.472266,0.760872 0.655925,1.731641 0.183659,0.944532 0.183659,1.967775 z" style="font-weight:bold;font-size:40px;line-height:1.25;font-family:Raleway;-inkscape-font-specification:'Raleway Bold';white-space:pre;fill:#6435c9;stroke-width:0.264583" id="path3169"/>
      <path d="m -15.452582,-25.945512 v -13.748184 h 3.515757 v 13.748184 z m 0,-15.663484 v -3.48952 h 3.515757 v 3.48952 z" style="font-weight:bold;font-size:40px;line-height:1.25;font-family:Raleway;-inkscape-font-specification:'Raleway Bold';white-space:pre;fill:#6435c9;stroke-width:0.264583" id="path3171"/>
      <path d="m -3.6984288,-25.683142 q -1.7578785,0 -3.358335,-0.577214 -1.6004566,-0.577214 -2.7548842,-1.705404 l 1.2593756,-2.282619 q 1.2331386,0.997006 2.4138033,1.469272 1.2069017,0.472266 2.3088553,0.472266 1.0232427,0 1.6266936,-0.367318 0.6296878,-0.367318 0.6296878,-1.101954 0,-0.498503 -0.3410809,-0.760873 -0.3410809,-0.288606 -0.9970057,-0.498502 -0.6296878,-0.209896 -1.5479826,-0.472266 -1.5217455,-0.498503 -2.5449882,-0.970769 -1.0232427,-0.472266 -1.5479826,-1.180665 -0.4985029,-0.734635 -0.4985029,-1.862826 0,-1.364324 0.6821619,-2.335092 0.7083987,-0.997006 1.9415374,-1.547983 1.2593756,-0.550977 2.9385431,-0.550977 1.4692716,0 2.78112123,0.472266 1.31184962,0.446029 2.38756627,1.469272 l -1.41679755,2.230144 q -1.0494797,-0.813347 -1.99401145,-1.180665 -0.9445317,-0.393555 -1.9153004,-0.393555 -0.5509769,0 -1.0494797,0.131185 -0.4722659,0.131185 -0.7871098,0.446029 -0.2886069,0.288607 -0.2886069,0.839584 0,0.498503 0.2623699,0.78711 0.2886069,0.26237 0.8395838,0.472266 0.5772138,0.209896 1.3905606,0.472266 1.6529305,0.472265 2.78112117,0.970768 1.15442767,0.498503 1.73164153,1.233139 0.5772138,0.708399 0.5772138,1.967774 0,2.046486 -1.49550856,3.200913 -1.49550854,1.154428 -4.01425984,1.154428 z" style="font-weight:bold;font-size:40px;line-height:1.25;font-family:Raleway;-inkscape-font-specification:'Raleway Bold';white-space:pre;fill:#6435c9;stroke-width:0.264583" id="path3173"/>
    </g>
  </g>
</svg>